<svg xmlns="http://www.w3.org/2000/svg" width="41" height="40.788" viewBox="0 0 41 40.788">
  <g id="Layer_2" data-name="Layer 2" transform="translate(-7.394 -7.58)">
    <g id="Layer_1-2" data-name="Layer 1-2" transform="translate(7.394 7.58)">
      <path id="Path_2404" data-name="Path 2404" d="M19.884,48.368a12.492,12.492,0,0,1-11.2-18.014L19.884,7.58,26.632,21.3l-1.118.551L19.884,10.4,9.795,30.905A11.244,11.244,0,0,0,27.842,43.822c.1-.1.195-.195.288-.3l.929.832c-.113.127-.228.243-.335.351A12.407,12.407,0,0,1,19.884,48.368Z" transform="translate(-7.394 -7.58)" fill="#fff"/>
      <rect id="Rectangle_1715" data-name="Rectangle 1715" width="3.383" height="1.247" transform="translate(10.438 10.872) rotate(-63.79)" fill="#fff"/>
      <path id="Path_2405" data-name="Path 2405" d="M25.363,93.34a9.532,9.532,0,0,1-1.813-10.95L29.361,70.58l1.118.551-5.8,11.811a8.281,8.281,0,0,0,1.576,9.518Z" transform="translate(-19.614 -58.31)" fill="#fff"/>
      <path id="Path_2406" data-name="Path 2406" d="M88.594,88.98A13.955,13.955,0,0,1,87.706,61.1c.282-.019.584-.029.888-.029A13.955,13.955,0,0,1,88.6,88.98Zm0-26.664a7.792,7.792,0,0,0-.806.027,12.882,12.882,0,1,0,.806-.019Z" transform="translate(-61.553 -50.652)" fill="#fff"/>
      <path id="Path_2407" data-name="Path 2407" d="M140.521,69.329a3.424,3.424,0,0,1-2.423-1l-1.289-1.291a3.436,3.436,0,0,1-.584-4.059l1.093.6a2.183,2.183,0,0,0,.366,2.579l1.28,1.289a2.181,2.181,0,0,0,3.251-2.9l.477-.39.448-.45.047.053a3.424,3.424,0,0,1-2.664,5.574Z" transform="translate(-110.798 -52.19)" fill="#fff"/>
      <path id="Path_2408" data-name="Path 2408" d="M150.063,74.7a1.63,1.63,0,0,1-1.149-.475l-1.1-1.112.882-.882,1.1,1.112a.376.376,0,1,0,.532-.532l.882-.88a1.622,1.622,0,0,1-1.147,2.77Z" transform="translate(-120.462 -59.397)" fill="#fff"/>
      <rect id="Rectangle_1716" data-name="Rectangle 1716" width="1.247" height="3.173" transform="translate(24.739 17.091)" fill="#fff"/>
      <rect id="Rectangle_1717" data-name="Rectangle 1717" width="3.173" height="1.247" transform="translate(23.776 18.055)" fill="#fff"/>
      <path id="Path_2409" data-name="Path 2409" d="M111.953,72.041h-1.247a.493.493,0,0,0-.216-.407l.7-1.034A1.753,1.753,0,0,1,111.953,72.041Z" transform="translate(-90.41 -58.326)" fill="#fff"/>
      <path id="Path_2410" data-name="Path 2410" d="M102.434,82.949a1.628,1.628,0,0,1-1.624-1.624V80h1.247v1.324a.376.376,0,1,0,.752,0h1.247A1.624,1.624,0,0,1,102.434,82.949Z" transform="translate(-82.616 -65.895)" fill="#fff"/>
      <path id="Path_2411" data-name="Path 2411" d="M94.852,74.62a3.42,3.42,0,0,1-3.422-3.274v-.027h.649l.6-.025a2.179,2.179,0,0,0,4.357-.1V69.371a2.16,2.16,0,0,0-.427-1.293l1-.738a3.408,3.408,0,0,1,.668,2.031v1.823a3.42,3.42,0,0,1-3.414,3.426h-.01Z" transform="translate(-75.063 -55.701)" fill="#fff"/>
      <path id="Path_2412" data-name="Path 2412" d="M179.932,174.232a1.62,1.62,0,0,1-1.147-.473l-1.1-1.106.88-.882,1.1,1.1a.377.377,0,0,0,.534-.532l.88-.882a1.622,1.622,0,0,1-1.147,2.77Z" transform="translate(-144.514 -139.542)" fill="#fff"/>
      <path id="Path_2413" data-name="Path 2413" d="M113.312,163.3l-.882-.882,1.1-1.1a.376.376,0,0,0,0-.53h0a.389.389,0,0,0-.532,0l-.882-.882a1.624,1.624,0,0,1,2.3,2.3Z" transform="translate(-91.723 -129.878)" fill="#fff"/>
      <path id="Path_2414" data-name="Path 2414" d="M156.94,114.577h-.267a3.3,3.3,0,0,1-3.294-3.286v-2.1a3.3,3.3,0,0,1,3.294-3.294h.267a3.3,3.3,0,0,1,3.294,3.294v2.1A3.3,3.3,0,0,1,156.94,114.577Zm-.267-7.43a2.051,2.051,0,0,0-2.047,2.047v2.1a2.051,2.051,0,0,0,2.047,2.047h.267a2.051,2.051,0,0,0,2.047-2.047v-2.1a2.051,2.051,0,0,0-2.047-2.047Z" transform="translate(-124.947 -86.75)" fill="#fff"/>
      <path id="Path_2415" data-name="Path 2415" d="M164.284,127.362a1.628,1.628,0,0,1-1.624-1.624V124.18h1.235v1.558a.378.378,0,1,0,.754.055.255.255,0,0,0,0-.055H165.9A1.626,1.626,0,0,1,164.284,127.362Z" transform="translate(-132.419 -101.47)" fill="#fff"/>
      <path id="Path_2416" data-name="Path 2416" d="M169.059,162.067a3.4,3.4,0,0,1-.931-.66l-1.289-1.289a3.428,3.428,0,0,1,4.848-4.838l1.287,1.289a3.312,3.312,0,0,1,.725,1.071l-1.147.487a2.142,2.142,0,0,0-.458-.678L170.8,156.16a2.181,2.181,0,0,0-3.085,3.083l1.289,1.289a2.186,2.186,0,0,0,.584.421Z" transform="translate(-135.064 -125.788)" fill="#fff"/>
      <path id="Path_2417" data-name="Path 2417" d="M97.275,157.67a3.286,3.286,0,0,1-2.337-.962l-.195-.195a3.293,3.293,0,0,1,0-4.657l1.49-1.472a3.293,3.293,0,0,1,4.657,0l.195.195a3.292,3.292,0,0,1,0,4.653h0l-1.478,1.478A3.266,3.266,0,0,1,97.275,157.67Zm1.287-7.012a2.036,2.036,0,0,0-1.447.6l-1.467,1.486a2.045,2.045,0,0,0,0,2.892h0l.195.195a2.047,2.047,0,0,0,2.894,0l1.478-1.476a2.053,2.053,0,0,0,0-2.9l-.195-.195a2.037,2.037,0,0,0-1.451-.6Z" transform="translate(-76.954 -121.794)" fill="#fff"/>
      <path id="Path_2418" data-name="Path 2418" d="M93.409,118.237H91.674a3.294,3.294,0,1,1,0-6.587h1.735a3.294,3.294,0,1,1,0,6.587ZM91.674,112.9a2.047,2.047,0,0,0-.179,4.09h1.915a2.047,2.047,0,0,0,0-4.09Z" transform="translate(-72.607 -91.381)" fill="#fff"/>
      <path id="Path_2419" data-name="Path 2419" d="M107.318,123.477H105.76V122.23h1.558a.378.378,0,0,0,0-.754V120.23a1.624,1.624,0,0,1,0,3.247Z" transform="translate(-86.602 -98.289)" fill="#fff"/>
      <rect id="Rectangle_1718" data-name="Rectangle 1718" width="1.247" height="3.173" transform="translate(36.084 16.88)" fill="#fff"/>
      <rect id="Rectangle_1719" data-name="Rectangle 1719" width="3.173" height="1.247" transform="translate(35.122 17.845)" fill="#fff"/>
      <rect id="Rectangle_1720" data-name="Rectangle 1720" width="1.247" height="3.173" transform="translate(28.363 28.122)" fill="#fff"/>
      <rect id="Rectangle_1721" data-name="Rectangle 1721" width="3.173" height="1.247" transform="translate(27.399 29.085)" fill="#fff"/>
    </g>
  </g>
</svg>
