<svg id="Layer_2" data-name="Layer 2" xmlns="http://www.w3.org/2000/svg" width="35.598" height="45.529" viewBox="0 0 35.598 45.529">
  <g id="Layer_1-2" data-name="Layer 1-2">
    <path id="Path_2227" data-name="Path 2227" d="M39.56,76.983a14.485,14.485,0,0,1-8.192-26.425l.537-.368,3.494,5.1-.537.37a8.308,8.308,0,1,0,13.009,6.852h1.3A9.609,9.609,0,1,1,33.6,54.959l-2.033-2.951a13.182,13.182,0,1,0,19,17.729l1.087.718A14.468,14.468,0,0,1,39.56,76.983Z" transform="translate(-25.084 -40.044)" fill="#fff"/>
    <path id="Path_2228" data-name="Path 2228" d="M140.04,121.8a3.094,3.094,0,0,1-3.09-3.09V109.3h1.3v9.419a1.789,1.789,0,0,0,3.575.133v-.013a1.191,1.191,0,0,0,0-.12V98.67a1.789,1.789,0,0,0-3.576,0v.947H136.96V98.67a3.09,3.09,0,0,1,6.177,0v20.046A3.1,3.1,0,0,1,140.04,121.8Z" transform="translate(-114.211 -76.271)" fill="#fff"/>
    <path id="Path_2229" data-name="Path 2229" d="M62.556,42.848l-1.266-.3,1.1-4.58a2.992,2.992,0,0,1,2.236-2.236l3.173-.758a1.7,1.7,0,0,0,1.262-1.264l.563-2.35a2.99,2.99,0,0,1,2.216-2.212l2.35-.563a1.7,1.7,0,0,0,1.274-1.266L75.8,25.84A2.992,2.992,0,0,1,78.037,23.6l1.476-.352a1.7,1.7,0,0,0,1.262-1.262l1.22-5.12,1.266.3-1.22,5.12a2.99,2.99,0,0,1-2.236,2.224l-1.476.36a1.693,1.693,0,0,0-1.262,1.262l-.354,1.476a3,3,0,0,1-2.226,2.236l-2.35.555a1.7,1.7,0,0,0-1.264,1.262l-.561,2.356a3,3,0,0,1-2.236,2.236l-3.173.76a1.7,1.7,0,0,0-1.262,1.264Z" transform="translate(-53.93 -13.497)" fill="#fff"/>
    <path id="Path_2230" data-name="Path 2230" d="M58.354,32.357A9.6,9.6,0,0,1,56.4,13.363,32.442,32.442,0,0,0,70.6,4.9a32.9,32.9,0,0,0,2.907-3.4l.061-.073.161-.161a3.409,3.409,0,0,1,4.785,0h0a3.311,3.311,0,0,1,.713,3.789,35.919,35.919,0,0,1-7.338,10.58,36.274,36.274,0,0,1-4.527,3.842,9.6,9.6,0,0,1-9.009,12.9ZM74.524,2.305a33.939,33.939,0,0,1-2.992,3.506,33.742,33.742,0,0,1-14.8,8.81h-.041a8.291,8.291,0,1,0,9.289,4.85l-.2-.488.437-.3A35,35,0,0,0,70.956,14.7,34.555,34.555,0,0,0,78.044,4.489l.012-.026A1.976,1.976,0,0,0,77.6,2.179h0a2.1,2.1,0,0,0-2.956,0Z" transform="translate(-43.939 -0.276)" fill="#fff"/>
    <path id="Path_2231" data-name="Path 2231" d="M79.2,113.914a3.163,3.163,0,0,1-2.7-1.531l-1.8-3,1.116-.669,1.791,3a1.858,1.858,0,0,0,1.586.9h.041l3.494-.059.022,1.3-3.494.059Z" transform="translate(-64.615 -86.669)" fill="#fff"/>
    <path id="Path_2232" data-name="Path 2232" d="M103.67,98.735a3.171,3.171,0,0,1-1.565-.407l-.894-.514.646-1.13.894.512a1.856,1.856,0,0,0,1.85,0l.888-.516.655,1.124-.888.516A3.142,3.142,0,0,1,103.67,98.735Z" transform="translate(-85.736 -77.084)" fill="#fff"/>
    <rect id="Rectangle_1572" data-name="Rectangle 1572" width="1.301" height="5.11" transform="translate(21.297 16.004) rotate(-82.47)" fill="#fff"/>
    <rect id="Rectangle_1573" data-name="Rectangle 1573" width="1.301" height="2.419" transform="translate(26.762 10.664) rotate(-82.01)" fill="#fff"/>
    <rect id="Rectangle_1574" data-name="Rectangle 1574" width="1.301" height="1.917" transform="matrix(0.913, -0.407, 0.407, 0.913, 21.434, 9.638)" fill="#fff"/>
    <path id="Path_2233" data-name="Path 2233" d="M77.261,83.814l-.7-2.624a2.894,2.894,0,0,1,.748-2.789l1.907-1.921.927.919-1.919,1.919a1.6,1.6,0,0,0-.407,1.535l.7,2.622Z" transform="translate(-66.017 -60.99)" fill="#fff"/>
    <rect id="Rectangle_1575" data-name="Rectangle 1575" width="1.301" height="2.579" transform="translate(13.785 31.467)" fill="#fff"/>
    <rect id="Rectangle_1576" data-name="Rectangle 1576" width="2.604" height="1.301" transform="translate(5.772 30.19) rotate(-45)" fill="#fff"/>
    <rect id="Rectangle_1577" data-name="Rectangle 1577" width="2.608" height="1.301" transform="translate(2.837 21.797)" fill="#fff"/>
    <rect id="Rectangle_1578" data-name="Rectangle 1578" width="2.268" height="1.301" transform="translate(25.95 39.571)" fill="#fff"/>
    <rect id="Rectangle_1579" data-name="Rectangle 1579" width="2.268" height="1.301" transform="translate(23.34 35.865)" fill="#fff"/>
    <rect id="Rectangle_1580" data-name="Rectangle 1580" width="1.301" height="2.647" transform="translate(20.305 29.237) rotate(-45)" fill="#fff"/>
    <rect id="Rectangle_1581" data-name="Rectangle 1581" width="1.301" height="2.647" transform="translate(20.305 29.237) rotate(-45)" fill="#fff"/>
  </g>
</svg>
