<svg id="Layer_1-2" data-name="Layer 1-2" xmlns="http://www.w3.org/2000/svg" width="32.02" height="33.243" viewBox="0 0 32.02 33.243">
  <path id="Path_2216" data-name="Path 2216" d="M122.518,131.9h-.4a3.133,3.133,0,0,0-3.035,2.364,5.92,5.92,0,0,0,.7,1.494,2.346,2.346,0,0,1,.266.586V135.03a1.979,1.979,0,0,1,.151-.776,2.072,2.072,0,0,1,1.923-1.3h.4a2.076,2.076,0,0,1,2.072,2.074v3.006a3.274,3.274,0,0,1-3.269,3.269,1.281,1.281,0,0,1-1.274-1.17v-2.544a2.347,2.347,0,0,1-.266.586,5.854,5.854,0,0,0-.792,1.852,2.338,2.338,0,0,0,2.334,2.334,4.333,4.333,0,0,0,4.31-4.328V135.03A3.133,3.133,0,0,0,122.518,131.9Z" transform="translate(-101.873 -111.824)" fill="#fff"/>
  <path id="Path_2217" data-name="Path 2217" d="M75.612,138.2v1.833a1.281,1.281,0,0,1-1.277,1.279,3.272,3.272,0,0,1-3.27-3.272V135.03a2.074,2.074,0,0,1,2.072-2.074h.4a2.061,2.061,0,0,1,1.759.973,2.035,2.035,0,0,1,.318,1.1v.7a5.755,5.755,0,0,0,.8-1.935,3.13,3.13,0,0,0-2.874-1.9h-.406A3.133,3.133,0,0,0,70,135.03h0v3.006a4.331,4.331,0,0,0,4.328,4.328,2.342,2.342,0,0,0,2.181-1.5A5.631,5.631,0,0,0,75.612,138.2Z" transform="translate(-61.493 -111.824)" fill="#fff"/>
  <path id="Path_2218" data-name="Path 2218" d="M44.973,36.661H39.152a.528.528,0,0,1,0-1.055h5.821A7.631,7.631,0,0,0,52.6,27.983V26.46a7.631,7.631,0,0,0-7.628-7.624H30.323A7.63,7.63,0,0,0,22.7,26.46v1.523A7.633,7.633,0,0,0,30.323,35.6h5.821a.528.528,0,0,1,0,1.055H30.323a8.687,8.687,0,0,1-8.683-8.676V26.46a8.687,8.687,0,0,1,8.683-8.68H44.977a8.689,8.689,0,0,1,8.683,8.68v1.523A8.688,8.688,0,0,1,44.973,36.661Z" transform="translate(-21.64 -17.78)" fill="#fff"/>
  <path id="Path_2219" data-name="Path 2219" d="M60.738,63.128a4.934,4.934,0,0,1-.471-.932,1.979,1.979,0,0,0-.151.776v1.314a2.286,2.286,0,0,1,0,1.249V68.08a4.737,4.737,0,0,1,.617-1.39,3.309,3.309,0,0,0,0-3.561Zm8.433-16.96a3.423,3.423,0,0,0-2.95-1.708H49.685a3.415,3.415,0,0,0-2.13,6.076l7.834,6.27a1.407,1.407,0,0,1,.528,1.1v2.8a4.131,4.131,0,0,1-.176,1.152,4.868,4.868,0,0,1-.582,1.258,3.311,3.311,0,0,0,0,3.562,4.648,4.648,0,0,1,.727,1.926,4.448,4.448,0,0,1,.032.484v3.386a.528.528,0,0,0,.528.528h3.012a.528.528,0,0,0,.528-.528V69.1a3.951,3.951,0,0,1,.135-1.026,4.749,4.749,0,0,1,.617-1.388,3.311,3.311,0,0,0,0-3.562,4.934,4.934,0,0,1-.471-.932,4.14,4.14,0,0,1-.281-1.443V57.914a1.248,1.248,0,0,1,.037-.322,1.4,1.4,0,0,1,.493-.781l7.834-6.275a3.4,3.4,0,0,0,.823-4.373Zm-1.479,3.55L59.853,55.99a2.463,2.463,0,0,0-.925,1.935v2.8a5.137,5.137,0,0,0,.225,1.486,6.016,6.016,0,0,0,.7,1.5,2.245,2.245,0,0,1,.271,1.833,2.283,2.283,0,0,1-.266.586,5.907,5.907,0,0,0-.79,1.851,5.105,5.105,0,0,0-.128,1.133v2.855h-1.97V69.1a2.8,2.8,0,0,0-.011-.3,5.61,5.61,0,0,0-.9-2.669l-.011-.018a2.259,2.259,0,0,1,0-2.422l.011-.018a5.721,5.721,0,0,0,.8-1.935,4.856,4.856,0,0,0,.107-1.022V57.909a2.463,2.463,0,0,0-.925-1.935l-7.832-6.256a2.361,2.361,0,0,1,1.471-4.2H66.221a2.361,2.361,0,0,1,1.471,4.2Z" transform="translate(-41.945 -39.767)" fill="#fff"/>
</svg>
