<svg xmlns="http://www.w3.org/2000/svg" width="31.67" height="46.726" viewBox="0 0 31.67 46.726">
  <path id="Path_2248" data-name="Path 2248" d="M64.14,30V27.951c-.011-4.215-2.712-7.727-6.236-8.11A9.853,9.853,0,0,0,48.306,13a10.027,10.027,0,0,0-9.679,6.841c-3.494.424-6.153,3.927-6.157,8.11V30a2.646,2.646,0,0,0,1.478,2.442A3.408,3.408,0,0,0,37.306,34.8a3.24,3.24,0,1,0,.01-6.456,3.551,3.551,0,0,0-3.2,1.856c0-.1-.083-.2-.083-.294V27.855c0-2.948,1.754-5.484,4.182-6.058v.487a12.063,12.063,0,0,0,1.975,6.256,8.958,8.958,0,0,0,.822.976c1.059,1.365,2.206,2.736,1.638,4.983a13.326,13.326,0,0,0,1.395,10.457c.409.586.409.878.737,3.712.166,1.76.494,4.5,1.067,8.7a2.561,2.561,0,0,0,2.463,2.353,2.617,2.617,0,0,0,2.461-2.353l1.312-11.14c0-.1,0-.1.083-.294a2,2,0,0,1,.409-.976,13.455,13.455,0,0,0,1.395-10.457c-.573-2.051.166-3.028,1.56-4.884a10.955,10.955,0,0,0,2.87-7.427V21.7c2.43.572,4.182,3.108,4.186,6.058v2.054a.4.4,0,0,1-.083.292,3.551,3.551,0,0,0-3.2-1.856,3.237,3.237,0,1,0,0,6.449,3.51,3.51,0,0,0,3.447-2.353A2.265,2.265,0,0,0,64.14,30ZM37.315,30.4c1.067,0,1.886.685,1.886,1.27s-.82,1.27-1.886,1.27-1.888-.685-1.888-1.27S36.245,30.4,37.315,30.4ZM45.106,21.7A14.53,14.53,0,0,0,48.069,22a22.3,22.3,0,0,0,3.518-.294,31.78,31.78,0,0,0-3.2,7.232A38.329,38.329,0,0,0,45.106,21.7Zm9.2,6.736c-1.395,1.76-2.791,3.616-1.888,6.841a10.953,10.953,0,0,1-1.067,8.6,5.376,5.376,0,0,0-.737,1.757q-.053.242-.083.489L49.134,57.072v-12.8h.656a.892.892,0,0,0,.861-.93.929.929,0,0,0-.78-1.026.659.659,0,0,0-.081,0h-.656V31.861c1.395-4.788,3.036-8.4,5.086-11.043a1.18,1.18,0,0,0,.083-1.176.788.788,0,0,0-.9-.489,16.145,16.145,0,0,1-10.092,0,.844.844,0,0,0-.9.391,1.188,1.188,0,0,0,.081,1.176A32.362,32.362,0,0,1,47.575,31.76V42.314h-.658a.929.929,0,0,0-.78,1.026.911.911,0,0,0,.78.93h.575v12.9c-.575-4.105-.82-6.743-1.067-8.5-.328-3.03-.411-3.712-1.067-4.691a10.662,10.662,0,0,1-1.067-8.6c.9-3.421-.9-5.569-2.05-6.938a6.039,6.039,0,0,1-.656-.88,9.537,9.537,0,0,1-1.641-5.082,7.713,7.713,0,0,1,.164-1.367c.656-3.616,4.184-6.157,8.205-6.157s7.548,2.541,8.3,6.058a7.9,7.9,0,0,1,.164,1.369A9.827,9.827,0,0,1,54.3,28.44Zm5,4.4c-1.231,0-1.886-.586-1.886-1.27s.656-1.27,1.886-1.27c1.067,0,1.888.685,1.888,1.27s-.83,1.27-1.9,1.27Z" transform="translate(-32.47 -13)" fill="#fff"/>
</svg>
