<svg id="Layer_2" data-name="Layer 2" xmlns="http://www.w3.org/2000/svg" width="26.7" height="44.965" viewBox="0 0 26.7 44.965">
  <g id="Layer_1-2" data-name="Layer 1-2">
    <path id="Path_2220" data-name="Path 2220" d="M104.332,112.914l-1.411-.808a4.522,4.522,0,0,0-.1-4.645l1.375-.871A6.143,6.143,0,0,1,104.332,112.914Z" transform="translate(-91.841 -85.479)" fill="#fff"/>
    <circle id="Ellipse_23" data-name="Ellipse 23" cx="1.23" cy="1.23" r="1.23" transform="translate(13.379 31.83)" fill="#fff"/>
    <circle id="Ellipse_24" data-name="Ellipse 24" cx="0.75" cy="0.75" r="0.75" transform="translate(15.923 34.722)" fill="#fff"/>
    <circle id="Ellipse_25" data-name="Ellipse 25" cx="0.75" cy="0.75" r="0.75" transform="translate(13.22 29.155)" fill="#fff"/>
    <path id="Path_2221" data-name="Path 2221" d="M107.082,141.957a8.348,8.348,0,0,1-7.26-12.477l1.411.806A6.724,6.724,0,1,0,113.8,133.6h1.635A8.362,8.362,0,0,1,107.082,141.957Z" transform="translate(-88.737 -102.848)" fill="#fff"/>
    <path id="Path_2222" data-name="Path 2222" d="M58.928,62.489H57.3V38.932A12.561,12.561,0,0,1,69.842,26.39h3.787a4.289,4.289,0,0,0,4.281-4.281V19.06h1.628V22.1a5.912,5.912,0,0,1-5.909,5.907H69.849A10.933,10.933,0,0,0,58.928,38.932Z" transform="translate(-57.3 -19.06)" fill="#fff"/>
    <path id="Path_2223" data-name="Path 2223" d="M98.052,168.915l-1.532-.548.157-.437a16.32,16.32,0,0,0,.965-5.547V157.29H99.27v5.087a18.052,18.052,0,0,1-1.064,6.107Z" transform="translate(-87.06 -123.95)" fill="#fff"/>
    <path id="Path_2224" data-name="Path 2224" d="M126.538,142.466a2.033,2.033,0,1,1,2.038-2.033,2.033,2.033,0,0,1-2.038,2.033Zm0-2.436a.408.408,0,1,0,.063,0Z" transform="translate(-108.299 -109.616)" fill="#fff"/>
  </g>
</svg>
