<svg xmlns="http://www.w3.org/2000/svg" width="40.146" height="41.34" viewBox="0 0 40.146 41.34">
  <path id="Path_2226" data-name="Path 2226" d="M38.6,36.626a29.3,29.3,0,0,1-3.724-5.068,11.641,11.641,0,0,0,1.367-4.714A26.523,26.523,0,0,1,41.7,25.288a26.886,26.886,0,0,1-5.622-1.4,11.457,11.457,0,0,0-.837-2.687,48.253,48.253,0,0,1,4.443-3.642,48.8,48.8,0,0,1-5.3,2.074,11.366,11.366,0,0,0-2.322-2.6A37.761,37.761,0,0,1,35.3,9.979,37.8,37.8,0,0,1,29.514,15.4a11.517,11.517,0,0,0-1.968-.707,17.814,17.814,0,0,1-.177-2.746,17.756,17.756,0,0,1-1.226,2.463,12.026,12.026,0,0,0-1.956-.094C22.643,12.748,21.323,8.6,21.323,8.6s.259,4.361-.625,6.388a11.452,11.452,0,0,0-2,.931,13.693,13.693,0,0,1-3.771-2.3,13.549,13.549,0,0,1,1.532,4,11.816,11.816,0,0,0-1.237,1.414,47.841,47.841,0,0,1-5.48-2.239,48.929,48.929,0,0,1,4.49,3.807,12.21,12.21,0,0,0-.907,2.275,17.142,17.142,0,0,1-4.278.589,22.721,22.721,0,0,1,3.9,1.509A11.928,11.928,0,0,0,13,27.563a30.675,30.675,0,0,1-4.7,2.664,28.8,28.8,0,0,1,5.339-.106,12.285,12.285,0,0,0,1.1,2.192,19.944,19.944,0,0,1-2.9,4.526,20.067,20.067,0,0,1,4.95-2.121c.318.283.66.554,1.014.813.318.224.648.436.978.625a35.5,35.5,0,0,1-1.532,5.009,36.667,36.667,0,0,1,2.97-4.313,11.3,11.3,0,0,0,3.347.8A27.236,27.236,0,0,1,24.081,42a25.6,25.6,0,0,1,1.426-4.337,11.671,11.671,0,0,0,2.2-.389,16.733,16.733,0,0,1,1.391,2.6,15.7,15.7,0,0,1,.189-3.158A11.8,11.8,0,0,0,30.5,36.1c1.709,1.968,3.312,4.313,3.312,4.313a55.1,55.1,0,0,1-2.051-5.15c.33-.259.66-.542.966-.837A19.915,19.915,0,0,1,38.6,36.626ZM17.658,30.933a.642.642,0,0,1-.012-1.285.652.652,0,0,1,.648.636.644.644,0,0,1-.636.648Zm.554-6.894a.642.642,0,1,1,.636-.648h0a.629.629,0,0,1-.636.648Zm3.618-6.176a.642.642,0,1,1-.648.636v-.012a.642.642,0,0,1,.648-.625Zm.13,9.676A.636.636,0,1,1,22.6,26.9a.634.634,0,0,1-.636.636Zm2.428,7.248a.636.636,0,1,1,.636-.636.641.641,0,0,1-.636.636ZM25.507,23a.636.636,0,1,1,.636-.636.634.634,0,0,1-.636.636Zm1.532,5.61a.642.642,0,1,1,.636-.648h0a.644.644,0,0,1-.636.648Zm2.887-8.179a.636.636,0,1,1,.636-.636h0a.634.634,0,0,1-.636.636Zm1.2,12.269a.636.636,0,1,1,.636-.636.641.641,0,0,1-.636.636Zm.636-5.822a.636.636,0,1,1,.636-.636h0a.634.634,0,0,1-.636.636Z" transform="translate(-4.996 -4.636)" fill="none" stroke="#fff" stroke-miterlimit="10" stroke-width="1"/>
</svg>
