<svg xmlns="http://www.w3.org/2000/svg" width="51.024" height="44.25" viewBox="0 0 51.024 44.25">
  <g id="Group_209" data-name="Group 209" transform="translate(-30.874 -93.508)">
    <path id="Path_2334" data-name="Path 2334" d="M294.746,580.571h-2.675a6.02,6.02,0,0,1-6-6.531l.466-7.326c.271.163.55.287.826.429a11.887,11.887,0,0,0,2.29.95c.07,1.48.728,3.665,2.945,4.177a.749.749,0,0,0,.337-1.46,2.516,2.516,0,0,1-1.743-2.372,13.152,13.152,0,0,0,1.895.172.749.749,0,1,0,0-1.5h-.021a12.978,12.978,0,0,1-9.037-4.362,3.074,3.074,0,0,0-4.453,0c-4.4,4.65-8.91,4.33-9.059,4.362a.749.749,0,0,0,0,1.5,12.212,12.212,0,0,0,1.84-.159,2.509,2.509,0,0,1-1.741,2.358.749.749,0,0,0,.337,1.46c2.209-.509,2.869-2.681,2.943-4.161a12.98,12.98,0,0,0,1.825-.691c.01,0,1.274-.66,1.445-.765.55,8.614.459,7.245.473,7.4a6.015,6.015,0,0,1-6,6.516h-2.38a.749.749,0,1,0,0,1.5h2.38a7.522,7.522,0,0,0,7.492-8.131l-.53-8.307a18.248,18.248,0,0,0,2.062-1.851,1.554,1.554,0,0,1,1.139-.488c1.085,0,.991.654,3.3,2.427l-.523,8.219a7.518,7.518,0,0,0,7.492,8.131h2.675a.749.749,0,0,0,0-1.5Z" transform="translate(-225.469 -444.311)" fill="#fff"/>
    <path id="Path_2335" data-name="Path 2335" d="M581.406,134.534c-1.564-11.681-3.042-22.714-10.292-27.519a5.85,5.85,0,0,0-3.243-.973c-2.986,0-7.6,2.267-7.863,5.4l-.165,2a3.833,3.833,0,0,1-.956-2.337V94.257a.749.749,0,1,0-1.5,0V111.1a4.429,4.429,0,0,0,.658,2.326,21.468,21.468,0,0,0,1.82,2.481,12.326,12.326,0,0,0,3.335,2.758c.052.029.1.075.154.1a1.465,1.465,0,0,0,.254.116,8.59,8.59,0,0,0,3.6.922.692.692,0,0,0,.285-.117c.08-.036.177-.037.239-.1a.749.749,0,0,0-.514-1.282,6.454,6.454,0,0,1-1.064-.146,4.358,4.358,0,0,0,1.724-2.522.749.749,0,1,0-1.446-.391,2.8,2.8,0,0,1-2.379,2.177,10.827,10.827,0,0,1-2.847-2.276l.3-3.586c.18-2.183,4.041-4.026,6.37-4.026a4.356,4.356,0,0,1,2.415.724c6.684,4.43,8.117,15.135,9.635,26.47l.025.184a1.187,1.187,0,0,1-1.176,1.343h-6.641a.749.749,0,1,0,0,1.5h6.641a2.685,2.685,0,0,0,2.661-3.04Z" transform="translate(-499.556)" fill="#fff"/>
    <path id="Path_2336" data-name="Path 2336" d="M42.043,108.263a4.355,4.355,0,0,1,2.415-.724c2.329,0,6.189,1.843,6.37,4.026l.288,3.473c-.26.29-.527.525-.791.777a5.887,5.887,0,0,1-1.541,1.229c-.2.128-.39.288-.589.4a2.831,2.831,0,0,1-2.453-2.19.749.749,0,1,0-1.446.391,4.362,4.362,0,0,0,1.727,2.525,6.567,6.567,0,0,1-1.014.143.749.749,0,0,0-.514,1.283c.047.046.123.042.181.074a.674.674,0,0,0,.354.141,10.323,10.323,0,0,0,3.8-1,15.117,15.117,0,0,0,5.348-5.38,4.43,4.43,0,0,0,.656-2.323V94.257a.749.749,0,1,0-1.5,0V111.1a3.239,3.239,0,0,1-.868,2.129l-.148-1.791c-.26-3.132-4.877-5.4-7.863-5.4a5.848,5.848,0,0,0-3.243.973c-7.7,5.1-8.979,17.717-10.317,27.7a2.685,2.685,0,0,0,2.66,3.039H39.5a.749.749,0,0,0,0-1.5H33.559a1.171,1.171,0,0,1-.893-.405,1.281,1.281,0,0,1-.258-1.123C33.925,123.4,35.359,112.692,42.043,108.263Z" transform="translate(0)" fill="#fff"/>
  </g>
</svg>
