<svg xmlns="http://www.w3.org/2000/svg" width="23.118" height="23.209" viewBox="0 0 23.118 23.209">
  <path id="Path_2380" data-name="Path 2380" d="M52.117,5.04H44.725a1.073,1.073,0,0,0,0,2.146h4.921L39.114,17.718a1.073,1.073,0,1,0,1.517,1.518L51.044,8.823v4.683a1.073,1.073,0,0,0,2.146,0V6.113A1.073,1.073,0,0,0,52.117,5.04Z" transform="translate(-30.073 -5.04)" fill="#fff"/>
  <path id="Path_2381" data-name="Path 2381" d="M23.27,26.8A1.073,1.073,0,0,0,22.2,27.875v8.467a.725.725,0,0,1-.715.715H7.8a.725.725,0,0,1-.715-.715V22.66a.725.725,0,0,1,.715-.715h8.5a1.073,1.073,0,0,0,0-2.146H7.8A2.865,2.865,0,0,0,4.937,22.66V36.342A2.865,2.865,0,0,0,7.8,39.2H21.481a2.865,2.865,0,0,0,2.862-2.862V27.875A1.073,1.073,0,0,0,23.27,26.8Z" transform="translate(-4.937 -15.995)" fill="#fff"/>
</svg>