<svg id="Layer_2" data-name="Layer 2" xmlns="http://www.w3.org/2000/svg" width="41.585" height="32.199" viewBox="0 0 41.585 32.199">
  <g id="Layer_1-2" data-name="Layer 1-2">
    <path id="Path_2209" data-name="Path 2209" d="M96.747,68.684H95.454V62.624a1.961,1.961,0,0,1,1.01-1.713l1.172-.648a.675.675,0,0,0-.652-1.182l-.949.525a2.811,2.811,0,0,1-2.723,0l-.953-.525a.677.677,0,0,0-.917.263.717.717,0,0,0-.085.327.675.675,0,0,0,.351.582l1.169.648a1.958,1.958,0,0,1,1.01,1.713v6.059H92.594V62.614a.667.667,0,0,0-.341-.582l-1.176-.642a1.968,1.968,0,0,1,1.9-3.444h0l.951.525a1.519,1.519,0,0,0,1.474,0l.947-.523a1.969,1.969,0,1,1,1.913,3.434l-1.174.648a.664.664,0,0,0-.343.582Z" transform="translate(-73.828 -52.575)" fill="#fff"/>
    <rect id="Rectangle_1570" data-name="Rectangle 1570" width="1.293" height="14.702" transform="translate(18.77 17.489)" fill="#fff"/>
    <rect id="Rectangle_1571" data-name="Rectangle 1571" width="1.293" height="14.702" transform="translate(21.626 17.489)" fill="#fff"/>
    <path id="Path_2210" data-name="Path 2210" d="M177.814,74.362a3.266,3.266,0,1,1,3.268-3.266,3.266,3.266,0,0,1-3.268,3.266Zm0-5.239a1.973,1.973,0,1,0,1.973,1.973h0A1.975,1.975,0,0,0,177.814,69.123Z" transform="translate(-141.251 -60.711)" fill="#fff"/>
    <path id="Path_2211" data-name="Path 2211" d="M49.093,42.778l-.761-1.044a4.026,4.026,0,0,0-4.765-6.49,4.075,4.075,0,0,0-.949.986l-.04.067A3.182,3.182,0,0,1,40,37.888a2.794,2.794,0,0,1-1.735-.606l-.053-.044c-.1-.1-.2-.2-.317-.3a11.109,11.109,0,0,0-14.836,0c-.107.095-.2.192-.309.289l-.057.046a2.777,2.777,0,0,1-1.735.606,3.129,3.129,0,0,1-2.571-1.588l-.042-.071a4.026,4.026,0,1,0-5.706,5.51l-.761,1.044a5.32,5.32,0,1,1,7.544-7.271l.095.156a1.862,1.862,0,0,0,1.446.933,1.493,1.493,0,0,0,.9-.295c.1-.1.2-.2.321-.3a12.351,12.351,0,0,1,6.884-3.09,12.556,12.556,0,0,1,3.03.028,12.364,12.364,0,0,1,6.651,3.048c.113.1.22.2.323.3A1.519,1.519,0,0,0,40,36.6a1.9,1.9,0,0,0,1.444-.929l.048-.1.063-.079a5.32,5.32,0,1,1,7.53,7.292Z" transform="translate(-9.69 -32.783)" fill="#fff"/>
    <path id="Path_2212" data-name="Path 2212" d="M158.957,52.307l-.37-1.238a1.531,1.531,0,1,0-1.674-2.363,5.666,5.666,0,0,1-4.712,2.8,5.3,5.3,0,0,1-1.921-.36l.467-1.212a3.989,3.989,0,0,0,1.454.273,4.385,4.385,0,0,0,3.616-2.189l.026-.042a2.828,2.828,0,1,1,3.115,4.333Z" transform="translate(-121.883 -43.901)" fill="#fff"/>
    <path id="Path_2213" data-name="Path 2213" d="M24.02,52.3a2.828,2.828,0,1,1,3.117-4.326l.028.044a4.379,4.379,0,0,0,3.613,2.187,3.912,3.912,0,0,0,1.511-.3l.487,1.2a5.248,5.248,0,0,1-2,.392,5.657,5.657,0,0,1-4.714-2.8,1.529,1.529,0,1,0-1.672,2.363Z" transform="translate(-19.502 -43.896)" fill="#fff"/>
    <path id="Path_2214" data-name="Path 2214" d="M21.646,74.362A3.266,3.266,0,1,1,24.9,71.086v.01h0A3.266,3.266,0,0,1,21.646,74.362Zm0-5.239A1.973,1.973,0,1,0,23.617,71.1v0h0A1.975,1.975,0,0,0,21.646,69.123Z" transform="translate(-16.617 -60.711)" fill="#fff"/>
    <path id="Path_2215" data-name="Path 2215" d="M86.248,64.784a3.715,3.715,0,0,1-3.708-3.708V53.951a2.979,2.979,0,0,1,.551-1.743,4.931,4.931,0,0,0,.606-4.646,2.979,2.979,0,0,1,.729-3.179,7.569,7.569,0,0,0,1.087-1.345,5.288,5.288,0,0,0-.079-5.755,7.613,7.613,0,0,0-12.7,0,5.292,5.292,0,0,0-.075,5.763,7.575,7.575,0,0,0,1.083,1.337,2.979,2.979,0,0,1,.735,3.179,4.947,4.947,0,0,0,.606,4.646,2.956,2.956,0,0,1,.555,1.743v6.726l-.012.4a3.707,3.707,0,0,1-3.71,3.7h0V63.491a2.424,2.424,0,0,0,2.424-2.424l.012-.4V53.951a1.678,1.678,0,0,0-.309-.986,6.245,6.245,0,0,1-.77-5.858,1.69,1.69,0,0,0-.434-1.8,8.9,8.9,0,0,1-1.27-1.571,6.589,6.589,0,0,1,.083-7.164,8.907,8.907,0,0,1,14.856,0,6.589,6.589,0,0,1,.091,7.164,8.868,8.868,0,0,1-1.279,1.571,1.684,1.684,0,0,0-.428,1.79,6.223,6.223,0,0,1-.77,5.858,1.7,1.7,0,0,0-.307.986v7.122a2.424,2.424,0,0,0,2.424,2.424h0Z" transform="translate(-58.257 -32.585)" fill="#fff"/>
  </g>
</svg>
