<svg xmlns="http://www.w3.org/2000/svg" width="39.858" height="34.811" viewBox="0 0 39.858 34.811">
  <g id="Layer_2" data-name="Layer 2" transform="translate(-8.78 -21.58)">
    <g id="Layer_1-2" data-name="Layer 1-2" transform="translate(8.78 21.58)">
      <path id="Path_2384" data-name="Path 2384" d="M75.6,149.705a6.025,6.025,0,0,1-1.6-.217l.328-1.184a4.8,4.8,0,0,0,4.605-8.078l.85-.887a5.979,5.979,0,0,1,1.854,4.335A6.04,6.04,0,0,1,75.6,149.705Z" transform="translate(-61.485 -116.744)" fill="#fff"/>
      <path id="Path_2385" data-name="Path 2385" d="M80.049,154.752a4.008,4.008,0,0,1-.549-.036l.167-1.217a2.784,2.784,0,0,0,2.47-4.605l.921-.814a4.012,4.012,0,0,1-3.009,6.672Z" transform="translate(-65.93 -123.807)" fill="#fff"/>
      <path id="Path_2386" data-name="Path 2386" d="M27.828,75.441H26.6a7.307,7.307,0,0,1,7.291-7.291H35.58v1.228H33.89A6.079,6.079,0,0,0,27.828,75.441Z" transform="translate(-23.181 -59.214)" fill="#fff"/>
      <path id="Path_2387" data-name="Path 2387" d="M102.037,64.481h-4.1A3.437,3.437,0,0,1,94.5,61.046v-7.52a3.437,3.437,0,0,1,3.435-3.437h16.536a3.443,3.443,0,0,1,3.439,3.437v1.151a3.454,3.454,0,0,1-3.439,3.437h-1.535c-2.834,0-4.4,1.708-5.92,3.362C105.662,62.948,104.257,64.481,102.037,64.481Zm-4.1-13.157a2.209,2.209,0,0,0-2.207,2.2V61.05a2.209,2.209,0,0,0,2.207,2.207h4.1c1.673,0,2.786-1.213,4.076-2.617,1.616-1.761,3.454-3.759,6.823-3.759h1.535a2.21,2.21,0,0,0,2.207-2.2V53.527a2.21,2.21,0,0,0-2.207-2.209Z" transform="translate(-78.052 -44.619)" fill="#fff"/>
      <path id="Path_2388" data-name="Path 2388" d="M66.781,150.332l-.221-1.2a3.006,3.006,0,0,1,.539-.05h.493a5.465,5.465,0,0,0,3.584-1.343l.806.929a6.7,6.7,0,0,1-4.39,1.637H67.1A1.759,1.759,0,0,0,66.781,150.332Z" transform="translate(-55.473 -123.532)" fill="#fff"/>
      <path id="Path_2389" data-name="Path 2389" d="M12.37,79.625a3.594,3.594,0,0,1-3.59-3.6V61.039A10.721,10.721,0,0,1,19.491,50.33h8.7v1.228h-8.7a9.492,9.492,0,0,0-9.483,9.481v14.99a2.362,2.362,0,0,0,2.36,2.364h.058a4.851,4.851,0,0,0,3.262-1.266,4.973,4.973,0,0,0,1.535-2.706l1.205.236a6.207,6.207,0,0,1-1.919,3.379,6.081,6.081,0,0,1-4.083,1.589Z" transform="translate(-8.78 -44.813)" fill="#fff"/>
      <path id="Path_2390" data-name="Path 2390" d="M99.414,122.937l-1.134-.466a5.445,5.445,0,0,0,.384-1.69c.015-.284.027-.576.027-.892V119.8l.111-.8,1.217.171-.107.768c0,.32-.012.633-.031.929A6.486,6.486,0,0,1,99.414,122.937Z" transform="translate(-81.107 -100.307)" fill="#fff"/>
      <path id="Path_2391" data-name="Path 2391" d="M54.762,115.857l-3.131-3.132H47.916l-2.976-2.978.865-.867,2.617,2.617h3.715l3.494,3.492Z" transform="translate(-38.002 -92.129)" fill="#fff"/>
      <path id="Path_2392" data-name="Path 2392" d="M37.169,108.131l-.869-.869,3.112-3.11H42.82l2.945-1.629V99.2l-2.753-2.752.869-.869,3.112,3.112v4.555l-3.859,2.13H39.919Z" transform="translate(-31.019 -81.381)" fill="#fff"/>
      <path id="Path_2393" data-name="Path 2393" d="M116.954,27.665l0-6.085h4.279v6.085H120V22.808H118.18v4.857Z" transform="translate(-96.194 -21.58)" fill="#fff"/>
      <path id="Path_2394" data-name="Path 2394" d="M85.864,27.665l0-6.085h4.281v6.085H88.913V22.808H87.092v4.857Z" transform="translate(-71.07 -21.58)" fill="#fff"/>
      <path id="Path_2395" data-name="Path 2395" d="M122.1,130.4l-5.131-5.139v-4.555h1.23v4.047l3.9,3.911,1.288-1.289L120.017,124V120.44h1.228v3.053l3.88,3.882Z" transform="translate(-96.21 -101.471)" fill="#fff"/>
      <rect id="Rectangle_1711" data-name="Rectangle 1711" width="1.228" height="3.536" transform="translate(22.155 25.225)" fill="#fff"/>
      <path id="Path_2396" data-name="Path 2396" d="M47.655,163.677a4.593,4.593,0,0,1-2.475-.718l.658-1.036a3.4,3.4,0,0,0,5.19-2.456,3.812,3.812,0,0,0,.025-.418,3.377,3.377,0,0,0-1.364-2.725l.735-.984a4.605,4.605,0,0,1,1.857,3.709,5.29,5.29,0,0,1-.033.576A4.634,4.634,0,0,1,47.655,163.677Z" transform="translate(-38.196 -129.674)" fill="#fff"/>
      <path id="Path_2397" data-name="Path 2397" d="M53.973,159.244,52.78,159a5.031,5.031,0,0,0,.092-.959A3.1,3.1,0,0,1,55.439,155l.209,1.211a1.871,1.871,0,0,0-1.548,1.844A6.305,6.305,0,0,1,53.973,159.244Z" transform="translate(-44.337 -129.399)" fill="#fff"/>
      <path id="Path_2398" data-name="Path 2398" d="M91.444,140.078l-.8-.929a5.43,5.43,0,0,0,1.462-2.04l1.138.462A6.637,6.637,0,0,1,91.444,140.078Z" transform="translate(-74.933 -114.942)" fill="#fff"/>
      <rect id="Rectangle_1712" data-name="Rectangle 1712" width="3.22" height="1.228" transform="translate(25.821 22.88)" fill="#fff"/>
      <path id="Path_2399" data-name="Path 2399" d="M118.586,78.024H117.36V74.983l1.253-2.535V70.136l-1.04-1.406.992-.729,1.274,1.733v3l-1.253,2.537Z" transform="translate(-96.526 -59.093)" fill="#fff"/>
      <path id="Path_2400" data-name="Path 2400" d="M129.5,82.8H126.08V81.571h3.032l2.013-1.4.7,1.009Z" transform="translate(-103.572 -68.928)" fill="#fff"/>
      <rect id="Rectangle_1713" data-name="Rectangle 1713" width="1.228" height="1.88" transform="translate(3.344 17.373)" fill="#fff"/>
    </g>
  </g>
</svg>
