<svg xmlns="http://www.w3.org/2000/svg" width="33.27" height="34.401" viewBox="0 0 33.27 34.401">
  <g id="Group_151" data-name="Group 151" transform="translate(-389 -790.696)">
    <g id="Layer_2" data-name="Layer 2" transform="translate(389 790.696)">
      <g id="Layer_1-2" data-name="Layer 1-2">
        <path id="Path_2238" data-name="Path 2238" d="M32.112,33.086a.6.6,0,0,1-.193-.031,8.338,8.338,0,0,1-5.649-7.9.578.578,0,0,1,.578-.578h3a.578.578,0,0,1,.578.578,4.182,4.182,0,0,0,4.176,4.18h2.067a.578.578,0,1,1,.021,1.156H34.6a5.341,5.341,0,0,1-5.3-4.754H27.449A7.183,7.183,0,0,0,32.3,31.98a.578.578,0,0,1-.193,1.125Z" transform="translate(-26.27 -24.276)" fill="#fff"/>
        <path id="Path_2239" data-name="Path 2239" d="M147.087,33.1a.578.578,0,0,1-.162-1.134,7.181,7.181,0,0,0,4.815-6.212H149.9a5.345,5.345,0,0,1-5.3,4.754h-2.078a.578.578,0,0,1,0-1.156h2.076a4.184,4.184,0,0,0,4.18-4.176.578.578,0,0,1,.578-.578h3a.578.578,0,0,1,.578.578,8.342,8.342,0,0,1-5.655,7.9A.633.633,0,0,1,147.087,33.1Z" transform="translate(-119.66 -24.292)" fill="#fff"/>
        <path id="Path_2240" data-name="Path 2240" d="M109.835,83.336a.567.567,0,0,1-.245-.05.578.578,0,0,1-.283-.767l0,0h0a29.8,29.8,0,0,1,6.023-8.756l2.56-2.415a3.887,3.887,0,0,0,1-1.456,5.242,5.242,0,0,0-.121-3.918l-.173-.4a3.43,3.43,0,0,0-3.149-2.057h-5.609a.578.578,0,1,1,0-1.156h5.609a4.594,4.594,0,0,1,4.214,2.749l.173.4a6.4,6.4,0,0,1,.148,4.777,5.029,5.029,0,0,1-1.285,1.9l-2.573,2.433a28.508,28.508,0,0,0-5.763,8.4A.578.578,0,0,1,109.835,83.336Z" transform="translate(-93.271 -54.779)" fill="#fff"/>
        <path id="Path_2241" data-name="Path 2241" d="M74.749,89.375a3.014,3.014,0,0,1-1.373-.331L70.752,87.7a1.868,1.868,0,0,0-1.7,0l-2.623,1.348a3.02,3.02,0,0,1-2.749,0l-3.737-1.909a.578.578,0,1,1,.526-1.03l3.735,1.911a1.868,1.868,0,0,0,1.7,0l2.621-1.348a3.024,3.024,0,0,1,2.751,0L73.9,88.015a1.868,1.868,0,0,0,1.7,0L79.331,86.1a.578.578,0,1,1,.526,1.03h0l-3.731,1.909A3.024,3.024,0,0,1,74.749,89.375Z" transform="translate(-53.205 -73.899)" fill="#fff"/>
        <path id="Path_2242" data-name="Path 2242" d="M60.492,57.4h-4.8a.578.578,0,0,1-.578-.578l-.033-2.957a5.718,5.718,0,0,0-.487-2.254,24.938,24.938,0,0,0-5.767-8.163l-1.258-1.188a7.707,7.707,0,0,1-2.044-3.168,8.957,8.957,0,0,1,.31-6.389l.177-.4a7.138,7.138,0,0,1,6.549-4.276h3.378V23.578A.578.578,0,0,1,56.516,23h2.993a.578.578,0,0,1,.578.578v4.447H63.62A7.146,7.146,0,0,1,70.169,32.3l.175.4a8.931,8.931,0,0,1,.214,6.668,7.559,7.559,0,0,1-1.926,2.889L66.07,44.682a17.739,17.739,0,0,0-4.43,6.672l-.258.693a4.978,4.978,0,0,0-.314,1.734v3.041A.578.578,0,0,1,60.492,57.4Zm-4.237-1.156h3.66V53.787a6.135,6.135,0,0,1,.385-2.146l.26-.693a18.907,18.907,0,0,1,4.709-7.107l2.562-2.423a6.429,6.429,0,0,0,1.639-2.431,7.783,7.783,0,0,0-.181-5.817l-.175-.4a5.988,5.988,0,0,0-5.486-3.585H59.509a.578.578,0,0,1-.578-.562V24.156H57.084v4.449a.578.578,0,0,1-.578.578H52.55a5.988,5.988,0,0,0-5.484,3.583l-.177.4a7.8,7.8,0,0,0-.264,5.568,6.529,6.529,0,0,0,1.734,2.7l1.256,1.185a26.091,26.091,0,0,1,6.042,8.537,6.817,6.817,0,0,1,.578,2.706Z" transform="translate(-41.456 -23)" fill="#fff"/>
        <path id="Path_2243" data-name="Path 2243" d="M68.148,83.327a.578.578,0,0,1-.524-.335A28.828,28.828,0,0,0,61.868,74.6L59.3,72.175a5.022,5.022,0,0,1-1.283-1.9,6.391,6.391,0,0,1,.148-4.779l.171-.385a4.592,4.592,0,0,1,4.2-2.76h5.609a.578.578,0,1,1,0,1.156H62.539a3.433,3.433,0,0,0-3.145,2.051l-.173.4a5.243,5.243,0,0,0-.125,3.918,3.922,3.922,0,0,0,.992,1.464l2.568,2.419a29.816,29.816,0,0,1,6.019,8.752.563.563,0,0,1-.526.821Z" transform="translate(-51.583 -54.771)" fill="#fff"/>
      </g>
    </g>
  </g>
</svg>
