<svg width="1440" height="301" fill="none" xmlns="http://www.w3.org/2000/svg"><path d="M1477 152l-130 21 113 66-11 150-1480-72-7-123 66-54-86-12L-48 0h1525v152z" fill="#77380E"/><path d="M1477 152l-34 31 17 56-113-66 130-21zM-58 128l33 23-13 43 66-54-86-12z" fill="#51240D"/><path d="M-48 0l1524 82 1-82H-48z" fill="#602E11"/><path d="M247 69s65 37 146 40c80 3 146-29 146-29L247 69z" fill="#994E1C"/><path d="M247 69s65 19 145 23c79 3 145-12 145-12s-64-19-144-22c-81-3-146 11-146 11z" fill="#602E11"/><path d="M775 242s47 37 105 39c58 3 105-31 105-31l-210-8z" fill="#994E1C"/><path d="M775 242s47 19 105 21c58 3 105-13 105-13s-47-19-104-21c-59-1-106 13-106 13z" fill="#602E11"/><path d="M1137 151s28 35 63 37c34 1 63-32 63-32l-126-5z" fill="#994E1C"/><path d="M1137 151s28 18 63 19c34 2 63-14 63-14s-27-18-62-20c-35-1-64 15-64 15zM1435 337l-399-29 31-10c35-11 70-16 105-16h267l-4 55zM266 263l-293 21-2-48h163c35 0 68 5 102 16l30 11zM959 116H656l72 19c19 5 37 8 57 8h59c36-5 63-10 90-17l25-10zM393 206l231 9-56-25c-15-7-28-10-43-11l-45-2c-27 5-48 11-68 19l-19 10z" fill="#602E11"/></svg>