<?xml version="1.0" encoding="iso-8859-1"?>
<!-- Generator: Adobe Illustrator 25.0.0, SVG Export Plug-In . SVG Version: 6.00 Build 0)  -->
<svg version="1.0" id="Layer_1" xmlns="http://www.w3.org/2000/svg" xmlns:xlink="http://www.w3.org/1999/xlink" x="0px" y="0px"
	 width="54.1px" height="50.1px" viewBox="0 0 54.1 50.1" enable-background="new 0 0 54.1 50.1" xml:space="preserve">
<g>
	<path fill="#FFFFFF" stroke="#FFFFFF" stroke-width="1.3125" stroke-miterlimit="10" d="M25.1,49.5c-3.3,0-6.5-0.6-9.5-1.9
		c-2.9-1.2-5.5-3-7.8-5.2c-2.2-2.2-4-4.9-5.2-7.8c-1.3-3-1.9-6.2-1.9-9.5s0.6-6.5,1.9-9.5c1.2-2.9,3-5.5,5.2-7.8
		c2.2-2.2,4.9-4,7.8-5.2c3-1.3,6.2-1.9,9.5-1.9c3.3,0,6.5,0.6,9.5,1.9c2.9,1.2,5.5,3,7.8,5.2c0.3,0.3,0.5,0.5,0.8,0.8L41.8,10
		c-4.3-4.7-10.3-7.4-16.7-7.4C12.7,2.6,2.6,12.7,2.6,25.1c0,12.4,10.1,22.5,22.5,22.5c12.4,0,22.5-10.1,22.5-22.5
		c0-1.3-0.1-2.5-0.3-3.7l1.6-1.6c0.4,1.8,0.6,3.6,0.6,5.4c0,3.3-0.6,6.5-1.9,9.5c-1.2,2.9-3,5.5-5.2,7.8c-2.2,2.2-4.9,4-7.8,5.2
		C31.6,48.8,28.4,49.5,25.1,49.5z"/>
	<polygon fill="#FFFFFF" points="12.5,22 14.6,20 26.3,31.9 52.1,6.1 54.1,8.1 26.3,35.9 	"/>
</g>
</svg>
