<?xml version="1.0" encoding="utf-8"?>
<!-- Generator: Adobe Illustrator 25.0.0, SVG Export Plug-In . SVG Version: 6.00 Build 0)  -->
<svg version="1.1" id="Layer_1" xmlns="http://www.w3.org/2000/svg" xmlns:xlink="http://www.w3.org/1999/xlink" x="0px" y="0px"
	 width="238.7px" height="226.2px" viewBox="0 0 238.7 226.2" style="enable-background:new 0 0 238.7 226.2;" xml:space="preserve"
	>
<style type="text/css">
	.st0{fill:#82CEC8;}
</style>
<g>
	<g>
		<path class="st0" d="M231.4,138.6c-4.9-28.9-19.5-56.5-34.4-77.7c-15-21.2-37.9-30.6-43.5-30.6s-7.7,2.4-10.8,8.7
			s-0.4,10.4,0.7,24.7c0.7,9.3,0.5,15.3-0.1,22.7l-11.2-11.1c-2.9-2.9-5.3-8.6-5.3-12.7V14.9V7.5c0-2.2-1-4.2-2.6-5.6
			c-1.3-1.2-3-1.9-4.9-1.9s-3.6,0.7-4.9,1.9c-1.6,1.4-2.6,3.3-2.6,5.6V15v47.6c0,4.1-2.4,9.8-5.3,12.7L95.4,86.4
			C94.8,79,94.6,73,95.3,63.7c1-14.3,3.8-18.4,0.7-24.7c-3.1-6.3-5.2-8.7-10.8-8.7c-5.6,0-28.5,9.4-43.5,30.6
			c-14.9,21.2-29.6,48.8-34.4,77.7c-4.9,28.9-7.6,41-7.3,59.1s2.4,28.5,10.4,28.5s15-6.6,25.4-11.8s21-8.3,30.9-11.5
			c11-3.5,18.8-7.6,23.5-14.9c8.3-12.9,9.6-29.6,7.9-38.6c-1.7-9-3.1-15.3-2.1-22.3c0.9-6,1.4-9.8,0.7-21.1l7.2-7.2l10-9.9l0,0
			c2.9-2.9,7.7-2.9,10.6,0l10,9.9l7.2,7.2c-0.6,11.3-0.2,15.1,0.7,21.1c1,7-0.4,13.2-2.1,22.3c-1.7,9-0.5,25.7,7.9,38.6
			c4.7,7.3,12.5,11.4,23.5,14.9c10,3.2,20.5,6.3,30.9,11.5s17.4,11.8,25.4,11.8s10.1-10.4,10.4-28.5
			C239,179.6,236.3,167.4,231.4,138.6z"/>
	</g>
</g>
</svg>
