<?xml version="1.0" encoding="iso-8859-1"?>
<!-- Generator: Adobe Illustrator 25.0.0, SVG Export Plug-In . SVG Version: 6.00 Build 0)  -->
<svg version="1.0" id="Layer_1" xmlns="http://www.w3.org/2000/svg" xmlns:xlink="http://www.w3.org/1999/xlink" x="0px" y="0px"
	 width="87.1px" height="38px" viewBox="0 0 87.1 38" enable-background="new 0 0 87.1 38" xml:space="preserve">
<g>
	<path fill="none" stroke="#FFFFFF" stroke-width="2" stroke-linecap="round" stroke-linejoin="round" stroke-miterlimit="10" d="
		M83.3,15H55.2c-1.5,0-2.8-1.2-2.8-2.8V3.8c0-1.5,1.2-2.8,2.8-2.8h28.1c1.5,0,2.8,1.2,2.8,2.8v8.5C86.1,13.8,84.8,15,83.3,15z"/>
	<path fill="none" stroke="#FFFFFF" stroke-width="2" stroke-linecap="round" stroke-linejoin="round" stroke-miterlimit="10" d="
		M83.3,37H55.2c-1.5,0-2.8-1.2-2.8-2.8v-8.5c0-1.5,1.2-2.8,2.8-2.8h28.1c1.5,0,2.8,1.2,2.8,2.8v8.5C86.1,35.8,84.8,37,83.3,37z"/>
	<g>
		<path fill="#FFFFFF" d="M16.2,4.8c7.9,0,14.2,6.4,14.2,14.2c0,7.9-6.4,14.2-14.2,14.2C8.4,33.3,2,26.9,2,19
			C2,11.2,8.4,4.8,16.2,4.8 M16.2,2.8C7.3,2.8,0,10.1,0,19s7.3,16.2,16.2,16.2S32.5,28,32.5,19S25.2,2.8,16.2,2.8L16.2,2.8z"/>
	</g>
	
		<line fill="none" stroke="#FFFFFF" stroke-width="2.2" stroke-linecap="round" stroke-linejoin="round" stroke-miterlimit="10" stroke-dasharray="0,4" x1="52.1" y1="7.2" x2="31.4" y2="17.7"/>
	
		<line fill="none" stroke="#FFFFFF" stroke-width="2.2" stroke-linecap="round" stroke-linejoin="round" stroke-miterlimit="10" stroke-dasharray="0,4" x1="52.1" y1="30.3" x2="31.6" y2="19.6"/>
</g>
</svg>
