<svg xmlns="http://www.w3.org/2000/svg" width="204" height="198.857" viewBox="0 0 204 198.857">
  <g id="Group_302" data-name="Group 302" transform="translate(0 -0.303)">
    <path id="Path_2431" data-name="Path 2431" d="M26.69,56.386l-9.732,7.259L27.88,78.29l9.732-7.242,14.5,6.247L53.525,89.34l18.148-2.125L70.262,75.171l12.665-9.443L94.07,70.513l7.225-16.771-11.144-4.8L88.307,33.249,98.04,25.99,87.126,11.353l-9.741,7.259-14.51-6.256L61.464.3,43.317,2.428l1.419,12.053L32.071,23.916l-11.152-4.8L13.694,35.892l11.152,4.8ZM55.454,27.469A17.476,17.476,0,1,1,40.137,46.858,17.467,17.467,0,0,1,55.454,27.469Z" transform="translate(102.705 0)" fill="#12314e"/>
    <path id="Path_2432" data-name="Path 2432" d="M102.041,61.018,99.839,42.9,87.786,44.35,78.3,31.719l4.777-11.161-16.8-7.174L61.5,24.545l-15.682,1.9-7.285-9.724L23.925,27.69,31.21,37.4,25,51.94,12.952,53.4l2.2,18.131L27.2,70.088l9.486,12.631L31.915,93.871l16.8,7.182,4.769-11.16L69.171,88l7.285,9.7,14.6-10.956-7.268-9.715,6.2-14.535Zm-28.475,3.06a17.474,17.474,0,1,1-9.214-22.924A17.452,17.452,0,0,1,73.566,64.078Z" transform="translate(97.14 98.107)" fill="#12314e"/>
    <path id="Path_2433" data-name="Path 2433" d="M113.152,98.688l6.333-15.308,14.288-1.343V59.07l-14.288-1.335-6.333-15.317L122.3,31.385,106.055,15.142,95.013,24.3,79.7,17.947,78.37,3.667H55.395L54.06,17.947,38.751,24.288,27.71,15.142,11.466,31.385l9.155,11.042L14.272,57.735,0,59.07V82.037L14.272,83.38l6.349,15.308-9.155,11.033L27.71,125.965l11.042-9.146,15.317,6.341,1.326,14.288H78.37L79.7,123.16l15.309-6.341,11.042,9.146L122.3,109.721ZM66.886,99.964a29.406,29.406,0,1,1,29.41-29.4A29.424,29.424,0,0,1,66.886,99.964Z" transform="translate(0 25.23)" fill="#12314e"/>
  </g>
</svg>
