<svg xmlns="http://www.w3.org/2000/svg" width="202.41" height="170.199" viewBox="0 0 202.41 170.199">
  <g id="Group_304" data-name="Group 304" transform="translate(-2.5 -10.1)">
    <g id="Group_303" data-name="Group 303" transform="translate(2.5 10.1)">
      <path id="Path_2435" data-name="Path 2435" d="M190.188,10.1H17.43A14.973,14.973,0,0,0,2.5,25.03v140.34A14.973,14.973,0,0,0,17.43,180.3H189.975a14.838,14.838,0,0,0,14.93-14.93V25.03A14.659,14.659,0,0,0,190.188,10.1ZM66.485,25.456a6.4,6.4,0,1,1-6.4,6.4A6.284,6.284,0,0,1,66.485,25.456Zm-19.622,0a6.4,6.4,0,1,1-6.4,6.4A6.417,6.417,0,0,1,46.863,25.456Zm-19.622,0a6.4,6.4,0,1,1,0,12.8,6.56,6.56,0,0,1-6.4-6.4A6.417,6.417,0,0,1,27.241,25.456ZM185.709,159.824a1.008,1.008,0,0,1-1.066,1.066H22.975a1.008,1.008,0,0,1-1.066-1.066v-106h163.8Z" transform="translate(-2.5 -10.1)" fill="#183057"/>
      <path id="Path_2436" data-name="Path 2436" d="M69.711,112.409A37,37,0,1,0,32.6,75.511,37.138,37.138,0,0,0,69.711,112.409ZM54.781,68.9a5.731,5.731,0,0,1,8.1-8.1l6.825,6.825,6.825-6.825a5.731,5.731,0,0,1,8.1,8.1l-6.825,6.825,6.825,6.825a5.931,5.931,0,0,1,0,8.1,5.665,5.665,0,0,1-8.1,0l-6.825-6.825-6.825,6.825a5.665,5.665,0,0,1-8.1,0,5.931,5.931,0,0,1,0-8.1l6.825-6.825Z" transform="translate(31.598 21.959)" fill="#183057"/>
    </g>
  </g>
</svg>
