<svg width="309" height="45" viewBox="0 0 309 45" fill="none" xmlns="http://www.w3.org/2000/svg">
<path fill-rule="evenodd" clip-rule="evenodd" d="M240.312 6C240.312 2.68629 242.998 0 246.312 0H302.883C306.197 0 308.883 2.68629 308.883 6V39C308.883 42.3137 306.197 45 302.883 45H246.312C242.998 45 240.312 42.3137 240.312 39V6Z" fill="url(#paint0_linear)"/>
<path fill-rule="evenodd" clip-rule="evenodd" d="M240.312 6C240.312 2.68629 242.998 0 246.312 0H302.883C306.197 0 308.883 2.68629 308.883 6V39C308.883 42.3137 306.197 45 302.883 45H246.312C242.998 45 240.312 42.3137 240.312 39V6Z" fill="#E5E5E5" fill-opacity="0.01"/>
<path fill-rule="evenodd" clip-rule="evenodd" d="M254.003 24.3923C253.52 24.831 252.893 25.0223 251.901 25.0223H251.488V19.7824H251.901C252.893 19.7824 253.496 19.9612 254.003 20.4234C254.534 20.8992 254.853 21.6369 254.853 22.3958C254.853 23.1565 254.534 23.9166 254.003 24.3923ZM252.209 18.4414H249.954V26.3648H252.197C253.389 26.3648 254.251 26.0819 255.006 25.4501C255.905 24.7022 256.436 23.5748 256.436 22.4088C256.436 20.0703 254.7 18.4414 252.209 18.4414Z" fill="#212D34"/>
<path fill-rule="evenodd" clip-rule="evenodd" d="M257.143 26.3651H258.679V18.4414H257.143V26.3651Z" fill="#212D34"/>
<path fill-rule="evenodd" clip-rule="evenodd" d="M262.435 21.48C261.513 21.1369 261.243 20.9106 261.243 20.4824C261.243 19.9834 261.725 19.6041 262.387 19.6041C262.847 19.6041 263.226 19.7945 263.626 20.2457L264.429 19.1869C263.769 18.6055 262.979 18.3086 262.115 18.3086C260.722 18.3086 259.659 19.2821 259.659 20.5788C259.659 21.6704 260.154 22.2294 261.597 22.7517C262.198 22.9653 262.504 23.1074 262.659 23.2029C262.965 23.4046 263.119 23.6902 263.119 24.023C263.119 24.6649 262.612 25.1406 261.927 25.1406C261.194 25.1406 260.604 24.7718 260.25 24.0836L259.258 25.0451C259.965 26.0905 260.815 26.5537 261.984 26.5537C263.58 26.5537 264.7 25.4856 264.7 23.952C264.7 22.6929 264.182 22.1232 262.435 21.48Z" fill="#212D34"/>
<path fill-rule="evenodd" clip-rule="evenodd" d="M265.185 22.4081C265.185 24.7371 267.002 26.5429 269.341 26.5429C270.002 26.5429 270.569 26.4122 271.267 26.0813V24.262C270.653 24.8804 270.109 25.1299 269.412 25.1299C267.865 25.1299 266.767 24.0012 266.767 22.3965C266.767 20.8754 267.9 19.6754 269.341 19.6754C270.074 19.6754 270.628 19.9384 271.267 20.5668V18.7485C270.593 18.4044 270.038 18.2617 269.377 18.2617C267.05 18.2617 265.185 20.1043 265.185 22.4081Z" fill="#212D34"/>
<path fill-rule="evenodd" clip-rule="evenodd" d="M283.445 23.7637L281.345 18.4414H279.667L283.009 26.5683H283.835L287.237 18.4414H285.572L283.445 23.7637Z" fill="#212D34"/>
<path fill-rule="evenodd" clip-rule="evenodd" d="M287.933 26.3651H292.289V25.0237H289.467V22.8848H292.185V21.5427H289.467V19.7841H292.289V18.4414H287.933V26.3651Z" fill="#212D34"/>
<path fill-rule="evenodd" clip-rule="evenodd" d="M295.29 22.089H294.842V19.6893H295.315C296.271 19.6893 296.791 20.0924 296.791 20.8635C296.791 21.6601 296.271 22.089 295.29 22.089ZM298.371 20.7808C298.371 19.2973 297.356 18.4414 295.584 18.4414H293.307V26.3651H294.841V23.182H295.041L297.167 26.3651H299.056L296.577 23.0271C297.734 22.7902 298.371 21.994 298.371 20.7808Z" fill="#212D34"/>
<g filter="url(#filter0_i)">
<path fill-rule="evenodd" clip-rule="evenodd" d="M280.146 22.4298C280.146 24.7579 278.27 26.6452 275.957 26.6452C273.643 26.6452 271.768 24.7579 271.768 22.4298C271.768 20.1018 273.643 18.2148 275.957 18.2148C278.27 18.2148 280.146 20.1018 280.146 22.4298Z" fill="url(#paint1_linear)"/>
</g>
<path fill-rule="evenodd" clip-rule="evenodd" d="M0 6C0 2.68629 2.68629 0 6 0H62.5714C65.8851 0 68.5714 2.68629 68.5714 6V39C68.5714 42.3137 65.8851 45 62.5714 45H5.99999C2.68628 45 0 42.3137 0 39V6Z" fill="#F4F6F7"/>
<path fill-rule="evenodd" clip-rule="evenodd" d="M0 6C0 2.68629 2.68629 0 6 0H62.5714C65.8851 0 68.5714 2.68629 68.5714 6V10.7143H0V6Z" fill="#4095DB"/>
<path fill-rule="evenodd" clip-rule="evenodd" d="M0 34.2852H68.5714V38.9994C68.5714 42.3132 65.8851 44.9994 62.5714 44.9994H5.99999C2.68628 44.9994 0 42.3131 0 38.9994V34.2852Z" fill="#F4B662"/>
<path fill-rule="evenodd" clip-rule="evenodd" d="M41.7857 17.6828C41.1723 17.4331 40.2076 17.1606 39.0059 17.1606C35.9388 17.1606 33.7798 18.8492 33.7619 21.267C33.7424 23.0552 35.3026 24.0527 36.4787 24.6472C37.6876 25.2565 38.0937 25.6464 38.0889 26.1912C38.0806 27.0245 37.1241 27.4063 36.2321 27.4063C34.9901 27.4063 34.3302 27.2183 33.31 26.7538L32.911 26.5557L32.4771 29.3408C33.2005 29.6873 34.5416 29.9881 35.9333 30.0039C39.1929 30.0039 41.3109 28.3359 41.3357 25.754C41.3469 24.3359 40.5203 23.2608 38.73 22.3733C37.6459 21.7965 36.9805 21.4143 36.9882 20.8304C36.9889 20.3131 37.5503 19.7597 38.7653 19.7597C39.78 19.7428 40.5146 19.9848 41.087 20.2376L41.3656 20.38L41.7857 17.6828ZM27.4305 29.8193L29.3712 17.3773H32.4734L30.5328 29.8193H27.4305ZM47.1523 21.9314C47.1523 21.9314 46.1736 24.6938 45.9165 25.409H48.4919C48.3693 24.787 47.774 21.8173 47.774 21.8173L47.5647 20.7442C47.4818 20.9908 47.3663 21.3176 47.2784 21.5661C47.2001 21.7876 47.1438 21.9468 47.1523 21.9314ZM49.7437 17.3891H47.3463C46.6026 17.3891 46.046 17.6092 45.7203 18.4205L41.1133 29.8229H44.3716C44.3716 29.8229 44.9032 28.2889 45.0239 27.9523C45.1908 27.9523 45.9782 27.9537 46.813 27.9552L46.814 27.9552L46.8147 27.9552C47.7563 27.9569 48.7578 27.9587 48.9972 27.9587C49.0902 28.3929 49.375 29.8229 49.375 29.8229H52.2543L49.7437 17.3891ZM24.8273 17.3859L21.791 25.8684L21.4657 24.1441C21.4655 24.1432 21.4652 24.1422 21.4649 24.1413C21.4653 24.1424 21.4657 24.1436 21.4662 24.1447L20.379 18.4278C20.1915 17.6394 19.6464 17.4056 18.9727 17.3781H13.9701L13.9287 17.6359C15.1457 17.9581 16.2339 18.4227 17.1876 19.0005L19.9462 29.8066L23.2294 29.8046L28.1148 17.3859H24.8273Z" fill="#0071CE"/>
<path fill-rule="evenodd" clip-rule="evenodd" d="M0 6C0 2.68629 2.68629 0 6 0H62.5714C65.8851 0 68.5714 2.68629 68.5714 6V39C68.5714 42.3137 65.8851 45 62.5714 45H5.99999C2.68628 45 0 42.3137 0 39V6Z" fill="#E5E5E5" fill-opacity="0.01"/>
<path fill-rule="evenodd" clip-rule="evenodd" d="M80.1035 6C80.1035 2.68629 82.7898 0 86.1035 0H142.675C145.989 0 148.675 2.68629 148.675 6V39C148.675 42.3137 145.989 45 142.675 45H86.1035C82.7898 45 80.1035 42.3137 80.1035 39V6Z" fill="#F4F6F7"/>
<path fill-rule="evenodd" clip-rule="evenodd" d="M106.89 34.2863C113.399 34.2863 118.676 29.0096 118.676 22.5006C118.676 15.9915 113.399 10.7148 106.89 10.7148C100.381 10.7148 95.1045 15.9915 95.1045 22.5006C95.1045 29.0096 100.381 34.2863 106.89 34.2863Z" fill="#D8232A"/>
<path fill-rule="evenodd" clip-rule="evenodd" d="M114.392 31.5922C116.429 33.2752 119.042 34.2863 121.892 34.2863C128.401 34.2863 133.677 29.0096 133.677 22.5006C133.677 15.9915 128.401 10.7148 121.892 10.7148C119.042 10.7148 116.429 11.7259 114.392 13.4089C117.009 15.5706 118.677 18.8408 118.677 22.5006C118.677 26.1604 117.009 29.4305 114.392 31.5922Z" fill="#ED9F2D"/>
<path fill-rule="evenodd" clip-rule="evenodd" d="M114.391 13.4102C111.773 15.5719 110.104 18.8422 110.104 22.5022C110.104 26.1622 111.773 29.4325 114.391 31.5942C117.008 29.4325 118.677 26.1622 118.677 22.5022C118.677 18.8422 117.008 15.5719 114.391 13.4102Z" fill="#D8232A"/>
<mask id="mask0" mask-type="alpha" maskUnits="userSpaceOnUse" x="110" y="13" width="9" height="19">
<path fill-rule="evenodd" clip-rule="evenodd" d="M114.391 13.4102C111.773 15.5719 110.104 18.8422 110.104 22.5022C110.104 26.1622 111.773 29.4325 114.391 31.5942C117.008 29.4325 118.677 26.1622 118.677 22.5022C118.677 18.8422 117.008 15.5719 114.391 13.4102Z" fill="white"/>
</mask>
<g mask="url(#mask0)">
<path fill-rule="evenodd" clip-rule="evenodd" d="M109.033 13.9297H119.747V15.0011H109.033V13.9297ZM109.034 16.0734H119.748V17.1449H109.034V16.0734ZM119.748 18.2162H109.034V19.2876H119.748V18.2162ZM109.034 20.359H119.748V21.4304H109.034V20.359ZM119.748 22.5018H109.034V23.5732H119.748V22.5018ZM109.034 24.6428H119.748V25.7142H109.034V24.6428ZM119.748 26.7873H109.034V27.8587H119.748V26.7873ZM109.034 28.9301H119.748V30.0015H109.034V28.9301ZM119.748 31.0729H109.034V32.1443H119.748V31.0729Z" fill="#ED9F2D"/>
</g>
<path fill-rule="evenodd" clip-rule="evenodd" d="M160.208 6C160.208 2.68629 162.894 0 166.208 0H222.779C226.093 0 228.779 2.68629 228.779 6V39C228.779 42.3137 226.093 45 222.779 45H166.208C162.894 45 160.208 42.3137 160.208 39V6Z" fill="url(#paint2_radial)"/>
<path fill-rule="evenodd" clip-rule="evenodd" d="M160.208 6C160.208 2.68629 162.894 0 166.208 0H222.779C226.093 0 228.779 2.68629 228.779 6V39C228.779 42.3137 226.093 45 222.779 45H166.208C162.894 45 160.208 42.3137 160.208 39V6Z" fill="#E5E5E5" fill-opacity="0.01"/>
<mask id="path-24-outside-1" maskUnits="userSpaceOnUse" x="164.994" y="13.6797" width="60" height="18" fill="black">
<rect fill="white" x="164.994" y="13.6797" width="60" height="18"/>
<path fill-rule="evenodd" clip-rule="evenodd" d="M175.911 23.597L177.34 20.0586H177.371L178.754 23.597H175.911ZM176.143 17.6797L171.994 27.3225H174.422L175.282 25.1752H179.385L180.214 27.3225H182.719L178.616 17.6797H176.143ZM183.67 17.6803V27.3231H185.929V20.5569H185.96L188.649 27.3231H190.508L193.197 20.4894H193.227V27.3231H195.486V17.6803H192.09L189.663 24.3114H189.632L187.066 17.6803H183.67ZM197.607 17.6803V27.3231H205.935V25.5404H200.019V23.177H205.336V21.5293H200.019V19.463H205.812V17.6803H197.607ZM210.252 22.2721L206.426 27.3231H209.13L211.573 23.9873L213.97 27.3231H216.844L213.018 22.2856L216.536 17.6803H213.893L211.666 20.7595L209.514 17.6803H206.718L210.252 22.2721Z"/>
</mask>
<path fill-rule="evenodd" clip-rule="evenodd" d="M175.911 23.597L177.34 20.0586H177.371L178.754 23.597H175.911ZM176.143 17.6797L171.994 27.3225H174.422L175.282 25.1752H179.385L180.214 27.3225H182.719L178.616 17.6797H176.143ZM183.67 17.6803V27.3231H185.929V20.5569H185.96L188.649 27.3231H190.508L193.197 20.4894H193.227V27.3231H195.486V17.6803H192.09L189.663 24.3114H189.632L187.066 17.6803H183.67ZM197.607 17.6803V27.3231H205.935V25.5404H200.019V23.177H205.336V21.5293H200.019V19.463H205.812V17.6803H197.607ZM210.252 22.2721L206.426 27.3231H209.13L211.573 23.9873L213.97 27.3231H216.844L213.018 22.2856L216.536 17.6803H213.893L211.666 20.7595L209.514 17.6803H206.718L210.252 22.2721Z" fill="#1793C0" fill-opacity="0.01"/>
<path d="M175.911 23.597L172.202 22.0992L169.982 27.597H175.911V23.597ZM177.34 20.0586V16.0586H174.642L173.631 18.5608L177.34 20.0586ZM177.371 20.0586L181.097 18.6026L180.102 16.0586H177.371V20.0586ZM178.754 23.597V27.597H184.612L182.479 22.141L178.754 23.597ZM176.143 17.6797V13.6797H173.509L172.468 16.0989L176.143 17.6797ZM171.994 27.3225L168.32 25.7418L165.919 31.3225H171.994V27.3225ZM174.422 27.3225V31.3225H177.128L178.135 28.8103L174.422 27.3225ZM175.282 25.1752V21.1752H172.576L171.569 23.6874L175.282 25.1752ZM179.385 25.1752L183.116 23.7335L182.127 21.1752H179.385V25.1752ZM180.214 27.3225L176.483 28.7642L177.472 31.3225H180.214V27.3225ZM182.719 27.3225V31.3225H188.768L186.4 25.7566L182.719 27.3225ZM178.616 17.6797L182.297 16.1138L181.262 13.6797H178.616V17.6797ZM183.67 17.6803V13.6803H179.67V17.6803H183.67ZM183.67 27.3231H179.67V31.3231H183.67V27.3231ZM185.929 27.3231V31.3231H189.929V27.3231H185.929ZM185.929 20.5569V16.5569H181.929V20.5569H185.929ZM185.96 20.5569L189.677 19.0797L188.674 16.5569H185.96V20.5569ZM188.649 27.3231L184.931 28.8004L185.934 31.3231H188.649V27.3231ZM190.508 27.3231V31.3231H193.232L194.23 28.7877L190.508 27.3231ZM193.197 20.4894V16.4894H190.472L189.474 19.0248L193.197 20.4894ZM193.227 20.4894H197.227V16.4894H193.227V20.4894ZM193.227 27.3231H189.227V31.3231H193.227V27.3231ZM195.486 27.3231V31.3231H199.486V27.3231H195.486ZM195.486 17.6803H199.486V13.6803H195.486V17.6803ZM192.09 17.6803V13.6803H189.295L188.334 16.3051L192.09 17.6803ZM189.663 24.3114V28.3114H192.458L193.419 25.6866L189.663 24.3114ZM189.632 24.3114L185.901 25.7549L186.891 28.3114H189.632V24.3114ZM187.066 17.6803L190.796 16.2368L189.807 13.6803H187.066V17.6803ZM197.607 17.6803V13.6803H193.607V17.6803H197.607ZM197.607 27.3231H193.607V31.3231H197.607V27.3231ZM205.935 27.3231V31.3231H209.935V27.3231H205.935ZM205.935 25.5404H209.935V21.5404H205.935V25.5404ZM200.019 25.5404H196.019V29.5404H200.019V25.5404ZM200.019 23.177V19.177H196.019V23.177H200.019ZM205.336 23.177V27.177H209.336V23.177H205.336ZM205.336 21.5293H209.336V17.5293H205.336V21.5293ZM200.019 21.5293H196.019V25.5293H200.019V21.5293ZM200.019 19.463V15.463H196.019V19.463H200.019ZM205.812 19.463V23.463H209.812V19.463H205.812ZM205.812 17.6803H209.812V13.6803H205.812V17.6803ZM210.252 22.2721L213.441 24.6873L215.285 22.2528L213.422 19.8325L210.252 22.2721ZM206.426 27.3231L203.238 24.908L198.378 31.3231H206.426V27.3231ZM209.13 27.3231V31.3231H211.159L212.357 29.6865L209.13 27.3231ZM211.573 23.9873L214.822 21.6532L211.604 17.1753L208.346 21.6239L211.573 23.9873ZM213.97 27.3231L210.722 29.6572L211.919 31.3231H213.97V27.3231ZM216.844 27.3231V31.3231H224.904L220.029 24.9039L216.844 27.3231ZM213.018 22.2856L209.839 19.8572L207.989 22.2784L209.832 24.7049L213.018 22.2856ZM216.536 17.6803L219.715 20.1087L224.626 13.6803H216.536V17.6803ZM213.893 17.6803V13.6803H211.85L210.653 15.3355L213.893 17.6803ZM211.666 20.7595L208.386 23.0502L211.608 27.6623L214.906 23.1043L211.666 20.7595ZM209.514 17.6803L212.794 15.3895L211.599 13.6803H209.514V17.6803ZM206.718 17.6803V13.6803H198.592L203.548 20.1199L206.718 17.6803ZM179.62 25.0948L181.049 21.5564L173.631 18.5608L172.202 22.0992L179.62 25.0948ZM177.34 24.0586H177.371V16.0586H177.34V24.0586ZM173.645 21.5146L175.028 25.053L182.479 22.141L181.097 18.6026L173.645 21.5146ZM178.754 19.597H175.911V27.597H178.754V19.597ZM172.468 16.0989L168.32 25.7418L175.669 28.9033L179.817 19.2605L172.468 16.0989ZM171.994 31.3225H174.422V23.3225H171.994V31.3225ZM178.135 28.8103L178.995 26.663L171.569 23.6874L170.709 25.8348L178.135 28.8103ZM175.282 29.1752H179.385V21.1752H175.282V29.1752ZM175.654 26.6169L176.483 28.7642L183.946 25.8809L183.116 23.7335L175.654 26.6169ZM180.214 31.3225H182.719V23.3225H180.214V31.3225ZM186.4 25.7566L182.297 16.1138L174.936 19.2456L179.038 28.8885L186.4 25.7566ZM178.616 13.6797H176.143V21.6797H178.616V13.6797ZM179.67 17.6803V27.3231H187.67V17.6803H179.67ZM183.67 31.3231H185.929V23.3231H183.67V31.3231ZM189.929 27.3231V20.5569H181.929V27.3231H189.929ZM185.929 24.5569H185.96V16.5569H185.929V24.5569ZM182.242 22.0341L184.931 28.8004L192.366 25.8459L189.677 19.0797L182.242 22.0341ZM188.649 31.3231H190.508V23.3231H188.649V31.3231ZM194.23 28.7877L196.919 21.954L189.474 19.0248L186.786 25.8585L194.23 28.7877ZM193.197 24.4894H193.227V16.4894H193.197V24.4894ZM189.227 20.4894V27.3231H197.227V20.4894H189.227ZM193.227 31.3231H195.486V23.3231H193.227V31.3231ZM199.486 27.3231V17.6803H191.486V27.3231H199.486ZM195.486 13.6803H192.09V21.6803H195.486V13.6803ZM188.334 16.3051L185.906 22.9363L193.419 25.6866L195.847 19.0554L188.334 16.3051ZM189.663 20.3114H189.632V28.3114H189.663V20.3114ZM193.362 22.8679L190.796 16.2368L183.336 19.1238L185.901 25.7549L193.362 22.8679ZM187.066 13.6803H183.67V21.6803H187.066V13.6803ZM193.607 17.6803V27.3231H201.607V17.6803H193.607ZM197.607 31.3231H205.935V23.3231H197.607V31.3231ZM209.935 27.3231V25.5404H201.935V27.3231H209.935ZM205.935 21.5404H200.019V29.5404H205.935V21.5404ZM204.019 25.5404V23.177H196.019V25.5404H204.019ZM200.019 27.177H205.336V19.177H200.019V27.177ZM209.336 23.177V21.5293H201.336V23.177H209.336ZM205.336 17.5293H200.019V25.5293H205.336V17.5293ZM204.019 21.5293V19.463H196.019V21.5293H204.019ZM200.019 23.463H205.812V15.463H200.019V23.463ZM209.812 19.463V17.6803H201.812V19.463H209.812ZM205.812 13.6803H197.607V21.6803H205.812V13.6803ZM207.063 19.8569L203.238 24.908L209.615 29.7383L213.441 24.6873L207.063 19.8569ZM206.426 31.3231H209.13V23.3231H206.426V31.3231ZM212.357 29.6865L214.8 26.3507L208.346 21.6239L205.903 24.9597L212.357 29.6865ZM208.325 26.3214L210.722 29.6572L217.219 24.989L214.822 21.6532L208.325 26.3214ZM213.97 31.3231H216.844V23.3231H213.97V31.3231ZM220.029 24.9039L216.203 19.8663L209.832 24.7049L213.658 29.7424L220.029 24.9039ZM216.196 24.714L219.715 20.1087L213.358 15.2518L209.839 19.8572L216.196 24.714ZM216.536 13.6803H213.893V21.6803H216.536V13.6803ZM210.653 15.3355L208.425 18.4148L214.906 23.1043L217.134 20.025L210.653 15.3355ZM214.945 18.4688L212.794 15.3895L206.235 19.971L208.386 23.0502L214.945 18.4688ZM209.514 13.6803H206.718V21.6803H209.514V13.6803ZM203.548 20.1199L207.082 24.7117L213.422 19.8325L209.888 15.2407L203.548 20.1199Z" fill="white" mask="url(#path-24-outside-1)"/>
<defs>
<filter id="filter0_i" x="271.768" y="18.2148" width="8.37827" height="8.43031" filterUnits="userSpaceOnUse" color-interpolation-filters="sRGB">
<feFlood flood-opacity="0" result="BackgroundImageFix"/>
<feBlend mode="normal" in="SourceGraphic" in2="BackgroundImageFix" result="shape"/>
<feColorMatrix in="SourceAlpha" type="matrix" values="0 0 0 0 0 0 0 0 0 0 0 0 0 0 0 0 0 0 127 0" result="hardAlpha"/>
<feOffset dx="2" dy="2"/>
<feComposite in2="hardAlpha" operator="arithmetic" k2="-1" k3="1"/>
<feColorMatrix type="matrix" values="0 0 0 0 0.314068 0 0 0 0 0.00146228 0 0 0 0 0.00146228 0 0 0 0.5 0"/>
<feBlend mode="normal" in2="shape" result="effect1_innerShadow"/>
</filter>
<linearGradient id="paint0_linear" x1="206.026" y1="22.5" x2="247.309" y2="85.4078" gradientUnits="userSpaceOnUse">
<stop stop-color="#EDF1F3"/>
<stop offset="1" stop-color="#D3DADF"/>
</linearGradient>
<linearGradient id="paint1_linear" x1="281.088" y1="23.2356" x2="276.117" y2="17.3564" gradientUnits="userSpaceOnUse">
<stop stop-color="#FFA700"/>
<stop offset="1" stop-color="#E75A10"/>
</linearGradient>
<radialGradient id="paint2_radial" cx="0" cy="0" r="1" gradientUnits="userSpaceOnUse" gradientTransform="translate(183.235 8.52957) rotate(90) scale(45 68.5714)">
<stop stop-color="#71C8F2"/>
<stop offset="1" stop-color="#0071BD"/>
</radialGradient>
</defs>
</svg>