<svg width="216" height="173" fill="none" xmlns="http://www.w3.org/2000/svg"><path d="M109 73a9 9 0 100-19 9 9 0 000 19zm-6 47l-28-18-10 37a5 5 0 1010 3l7-23 15 10v11a5 5 0 0011 0v-11a11 11 0 00-5-9zm46-3l-5 7-23-14-4-18c-1-6-6-11-12-12l-8-3a16 16 0 00-16 6l-4 6a5 5 0 001 7l35 22 24 15h-7a6 6 0 00-6 4l-3 9h55l-18-29a5 5 0 00-9 0zm64 27L124 9a19 19 0 00-32 0L3 144a18 18 0 00-1 19 19 19 0 0017 10h178a19 19 0 0017-10 18 18 0 00-1-19zm-13 11c-1 1-1 2-3 2H19c-2 0-2-1-3-2a2 2 0 011-2l89-136a3 3 0 014 0l89 136a2 2 0 011 2z" fill="url(#paint0_linear)"/><defs><linearGradient id="paint0_linear" x1="215.9" y1="86" x2="0" y2="86" gradientUnits="userSpaceOnUse"><stop stop-color="#F36439"/><stop offset="1" stop-color="#FF7C26"/></linearGradient></defs></svg>