<svg width="960" height="865" fill="none" xmlns="http://www.w3.org/2000/svg"><g clip-path="url(#clip0)"><path d="M64 729H40v57h24v-57z" fill="#D9E0FE"/><path d="M102 752H3c-2 0-3-1-3-2V410c0-1 1-2 3-2h99c2 0 3 1 3 2v340c0 1-1 2-3 2zM76 786H29l-3 10h53l-3-10z" fill="#DEE4FF"/><path d="M10 740V420c0-1 1-2 3-2h79c2 0 3 1 3 2v320c0 1-1 2-3 2H13c-2 0-3-1-3-2z" fill="#FAFAFA"/><path d="M95 461l-85 40v-31l85-41v32zM95 538l-85 40v-32l85-40v32zM95 614l-85 40v-32l85-40v32zM95 690l-85 41v-32l85-41v32z" fill="#E6EAFE"/><path d="M920 729h-24v57h24v-57z" fill="#D9E0FE"/><path d="M957 752h-99c-2 0-3-1-3-2V410c0-1 1-2 3-2h99c2 0 3 1 3 2v340c0 1-1 2-3 2zM931 786h-47l-3 10h53l-3-10z" fill="#DEE4FF"/><path d="M865 740V420c0-1 1-2 3-2h79c2 0 3 1 3 2v320c0 1-1 2-3 2h-79c-2 0-3-1-3-2z" fill="#FAFAFA"/><path d="M950 461l-85 40v-31l85-41v32zM950 538l-85 40v-32l85-40v32zM950 614l-85 40v-32l85-40v32zM950 690l-85 41v-32l85-41v32zM672 484H264v31h408v-31zM672 515H264l-37 281h426l19-281z" fill="#E6EAFE"/><path d="M583 565l1-20h-29l-2 20-37 180h70l-3-180zM472 565l2-20h-30l-1 20-38 180h70l-3-180zM361 565l2-20h-29l-2 20-38 180h70l-3-180zM700 515v-31h-28v31l-19 281h66l-19-281z" fill="#D9E0FE"/><path d="M583 159H395s13-15 34-18 15 6 15 6 15-28 64-30c48-2 13 25 13 25s22-12 55-11c34 0 7 28 7 28z" fill="#FAFAFA"/></g><path d="M480 865c260 0 470-11 470-25s-210-25-470-25-470 11-470 25 210 25 470 25z" fill="#E6EAFE"/><defs><clipPath id="clip0"><path fill="#fff" d="M0 0h960v796H0z"/></clipPath></defs></svg>