<svg width="561" height="591" fill="none" xmlns="http://www.w3.org/2000/svg"><path d="M528 584H33c-14 0-25-11-25-25V34C8 20 19 9 33 9h495c14 0 25 11 25 25v525c0 14-11 25-25 25z" fill="#D2D0E8"/><path d="M520 575H25c-14 0-25-11-25-25V25C0 11 11 0 25 0h495c14 0 25 11 25 25v525c0 14-11 25-25 25z" fill="#F8F8FB"/><path d="M545 53H0V25C0 11 11 0 25 0h495c14 0 25 11 25 25v28z" fill="#1E1E30"/><path d="M30 27a10 10 0 1120 0 10 10 0 01-20 0z" fill="url(#paint0_linear)"/><path d="M60 27a10 10 0 1120 0 10 10 0 01-20 0z" fill="url(#paint1_linear)"/><path d="M90 27a10 10 0 1120 0 10 10 0 01-20 0z" fill="url(#paint2_linear)"/><defs><linearGradient id="paint0_linear" x1="39.9" y1="16.6" x2="39.9" y2="36.6" gradientUnits="userSpaceOnUse"><stop stop-color="#F9A297"/><stop offset="1" stop-color="#ED4C64"/></linearGradient><linearGradient id="paint1_linear" x1="69.9" y1="16.6" x2="69.9" y2="36.6" gradientUnits="userSpaceOnUse"><stop stop-color="#FFF1C2"/><stop offset="1" stop-color="#FFC200"/></linearGradient><linearGradient id="paint2_linear" x1="106.8" y1="10.6" x2="95.1" y2="35.5" gradientUnits="userSpaceOnUse"><stop stop-color="#59FCCB"/><stop offset="1" stop-color="#24D6FB"/></linearGradient><linearGradient id="paint3_linear" x1="273.2" y1="129" x2="273.2" y2="315.4" gradientUnits="userSpaceOnUse"><stop stop-color="#F9A297"/><stop offset="1" stop-color="#ED4C64"/></linearGradient><clipPath id="clip0"><path fill="#fff" transform="translate(165 129)" d="M0 0h216v186H0z"/></clipPath><filter id="filter0_d" x="83" y="443" width="379.2" height="125.2" filterUnits="userSpaceOnUse" color-interpolation-filters="sRGB"><feFlood flood-opacity="0" result="BackgroundImageFix"/><feColorMatrix in="SourceAlpha" values="0 0 0 0 0 0 0 0 0 0 0 0 0 0 0 0 0 0 127 0"/><feOffset dy="10"/><feGaussianBlur stdDeviation="15"/><feColorMatrix values="0 0 0 0 0.0745098 0 0 0 0 0.0901961 0 0 0 0 0.121569 0 0 0 0.2 0"/><feBlend in2="BackgroundImageFix" result="effect1_dropShadow"/><feBlend in="SourceGraphic" in2="effect1_dropShadow" result="shape"/></filter></defs></svg>