<svg id="Layer_1" data-name="Layer 1" xmlns="http://www.w3.org/2000/svg" xmlns:xlink="http://www.w3.org/1999/xlink" width="197.52" height="298" viewBox="0 0 197.52 298"><defs><linearGradient id="linear-gradient" x1="178.87" y1="224.27" x2="197.08" y2="233.75" gradientTransform="matrix(1, 0, 0, -1, 0, 335.9)" gradientUnits="userSpaceOnUse"><stop offset="0" stop-color="#6d6afe"/><stop offset="1" stop-color="#3fb0f7"/></linearGradient><linearGradient id="linear-gradient-2" x1="1.62" y1="124.3" x2="19.83" y2="114.82" gradientTransform="matrix(1, 0, 0, -1, 0, 335.9)" gradientUnits="userSpaceOnUse"><stop offset="0" stop-color="#965cf2"/><stop offset="1" stop-color="#ff8adc"/></linearGradient><linearGradient id="linear-gradient-3" x1="163.85" y1="184.63" x2="40.74" y2="184.63" gradientTransform="matrix(1, 0, 0, -1, 0, 335.9)" gradientUnits="userSpaceOnUse"><stop offset="0" stop-color="#d1e8ff"/><stop offset="1" stop-color="#eaefff"/></linearGradient><linearGradient id="linear-gradient-4" x1="113.16" y1="60.11" x2="91.42" y2="309.14" gradientTransform="matrix(1, 0, 0, -1, 0, 335.9)" gradientUnits="userSpaceOnUse"><stop offset="0" stop-color="#496aec"/><stop offset="0.23" stop-color="#4d83f0"/><stop offset="0.72" stop-color="#56c2f9"/><stop offset="1" stop-color="#5ce9ff"/></linearGradient><linearGradient id="linear-gradient-5" x1="100.59" y1="284.91" x2="98.69" y2="306.66" gradientTransform="matrix(1, 0, 0, -1, 0, 335.9)" gradientUnits="userSpaceOnUse"><stop offset="0" stop-color="#5cbeff"/><stop offset="0.53" stop-color="#519ef4"/><stop offset="1" stop-color="#4985ec"/></linearGradient><linearGradient id="linear-gradient-6" x1="71.03" y1="280.06" x2="65.87" y2="280.06" gradientTransform="matrix(1, 0, 0, -1, 0, 335.9)" gradientUnits="userSpaceOnUse"><stop offset="0" stop-color="#4985ec"/><stop offset="0.4" stop-color="#53a3f6"/><stop offset="0.76" stop-color="#5ab7fd"/><stop offset="1" stop-color="#5cbeff"/></linearGradient></defs><title>img-payment</title><path d="M177.34,101.14c-.77,6.94,3.09,15.42,8.63,18.93s10.86-1,11.45-6.24c.77-6.79-2.71-15.19-8.63-18.94-2.73-1.73-5.34-1.92-7.41-.85l-.23.13C179.15,95.33,177.73,97.73,177.34,101.14Zm15.58,13a4.49,4.49,0,0,1-6.44,1.48c-3.56-2.25-6-7.7-5.54-12.16a5.58,5.58,0,0,1,2.52-4.53,4.67,4.67,0,0,1,4.82.52C192.38,102,195.73,109.78,192.92,114.09Z" style="fill-rule:evenodd;fill:url(#linear-gradient)"/><path d="M.1,222.09c.38,3.41,1.81,5.81,3.81,7l.22.13c2.08,1.07,4.69.88,7.42-.85,5.92-3.74,9.4-12.15,8.62-18.94-.58-5.23-5.9-9.75-11.44-6.24S-.68,215.15.1,222.09ZM11,223.83a4.67,4.67,0,0,1-4.82.52c-1.33-.72-2.27-2.3-2.52-4.53-.5-4.45,2-9.9,5.54-12.16a4.49,4.49,0,0,1,6.44,1.48C18.48,213.46,15.14,221.23,11,223.83Z" style="fill-rule:evenodd;fill:url(#linear-gradient-2)"/><path d="M38.79,55.12,147.43.85c2.13-1.06,4-1.09,5.36-.29v0l8.58,4.26-4.44,2V228.68c0,4-3.24,8.83-7.23,10.82L42,293.3l.8,4.24-8.85-4.39h0c-1.47-.58-2.4-2-2.4-4.16v-223C31.56,62,34.79,57.11,38.79,55.12Z" style="fill:#ddebff"/><path d="M48,297.15l108.65-54.27c4-2,7.23-6.84,7.23-10.82V9c0-4-3.24-5.6-7.23-3.61L48,59.66c-4,2-7.23,6.84-7.23,10.83V293.54C40.74,297.53,44,299.14,48,297.15Z" style="fill:url(#linear-gradient-3)"/><path d="M55.78,280.2l93-46.46c4-2,7.23-6.84,7.23-10.83V26c0-4-3.23-5.6-7.23-3.61l-93,46.46c-4,2-7.23,6.84-7.23,10.83v197C48.55,280.58,51.79,282.2,55.78,280.2Z" style="fill:url(#linear-gradient-4)"/><path d="M78.89,52.7,120.39,32a4.19,4.19,0,0,0,2.23-3.35c0-1.23-1-1.73-2.23-1.11L78.89,48.24a4.19,4.19,0,0,0-2.24,3.35C76.66,52.82,77.66,53.32,78.89,52.7Z" style="fill:url(#linear-gradient-5)"/><path d="M61.43,182.72l81.73-40.79v-27.7L61.43,155Z" style="fill:#496aec"/><path d="M136.53,137.84V124.93l-71.4,35.66V173.5Z" style="fill:#415fd4"/><path d="M134.19,132.33s52.88,12.85,52,113.78l-66.12,35.31L118.53,280c-1.29-99.67-52-114.15-52-114.15l0-1.84Z" style="fill:#a4b0de"/><path d="M133.86,129.93s53.9,15.58,53.9,116.52l-67.64,35C120.12,180.48,66.44,164,66.44,164Z" style="fill:#fcfcfc"/><path d="M136.53,131,69,165v1.79l-3.87,1.44v-7.67l71.4-35.66Z" style="fill:#415fd4;opacity:0.30000001192092896;isolation:isolate"/><path d="M96.94,177.64l51.83-25.87c1,.93,2,1.93,2.95,3L99.88,180.66C98.89,179.57,97.9,178.57,96.94,177.64Z" style="fill:#a4b0de"/><path d="M156.91,161.25l-51.84,25.87c-.82-1.15-1.63-2.24-2.45-3.26L154.45,158Q155.68,159.52,156.91,161.25Z" style="fill:#a4b0de"/><path d="M161.21,168.15,109.39,194c-.67-1.2-1.36-2.36-2-3.46l51.83-25.87C159.86,165.78,160.54,166.94,161.21,168.15Z" style="fill:#a4b0de"/><path d="M164.78,175.42,113,201.27c-.56-1.25-1.12-2.47-1.7-3.64l51.82-25.86C163.67,172.94,164.23,174.16,164.78,175.42Z" style="fill:#a4b0de"/><path d="M167.7,183l-51.77,25.84c-.45-1.31-.91-2.57-1.39-3.8l51.79-25.84C166.8,180.43,167.26,181.7,167.7,183Z" style="fill:#a4b0de"/><path d="M129.76,269.79l50.77-25.34v-5.07l-50.77,25.34Z" style="fill:#a4b0de"/><path d="M36,126.05l-.42.38a1.89,1.89,0,0,0,2.79-1.56V104.59A4.46,4.46,0,0,0,36,101c-1.3-.65-3,0-3,1.3l.66,20.16A4.46,4.46,0,0,0,36,126.05Z" style="fill:#3d6ec4"/><path d="M35.15,126.47c1.3.65,2.37.11,2.37-1.19V105a4.48,4.48,0,0,0-2.37-3.55c-1.31-.65-2.38-.12-2.38,1.18v20.28A4.5,4.5,0,0,0,35.15,126.47Z" style="fill:#4985ec"/><path d="M36,158l-.42.37a1.89,1.89,0,0,0,2.79-1.55V136.57A4.46,4.46,0,0,0,36,133c-1.3-.65-3,0-3,1.3l.66,20.16A4.46,4.46,0,0,0,36,158Z" style="fill:#3d6ec4"/><path d="M35.15,158.45c1.3.65,2.37.12,2.37-1.19V137a4.48,4.48,0,0,0-2.37-3.55c-1.31-.65-2.38-.12-2.38,1.18v20.28A4.48,4.48,0,0,0,35.15,158.45Z" style="fill:#4985ec"/><path d="M65.87,57.13c0,1.42,1.15,2,2.58,1.29A4.85,4.85,0,0,0,71,54.56c0-1.43-1.16-2-2.58-1.29A4.83,4.83,0,0,0,65.87,57.13Z" style="fill:url(#linear-gradient-6)"/><path d="M124.57,109.71c0,2.6,2.12,3.66,4.73,2.36S134,107.59,134,105s-2.11-3.67-4.72-2.36S124.57,107.1,124.57,109.71Z" style="fill:#336eff;opacity:0.8999999761581421;isolation:isolate"/><path d="M111.07,116.44c0,2.61,2.11,3.67,4.73,2.36s4.72-4.47,4.72-7.07-2.11-3.67-4.72-2.36S111.07,113.84,111.07,116.44Z" style="fill:#336eff;opacity:0.699999988079071;isolation:isolate"/><path d="M97.57,123.18c0,2.61,2.12,3.67,4.73,2.36s4.72-4.47,4.72-7.08-2.11-3.66-4.72-2.35S97.57,120.58,97.57,123.18Z" style="fill:#336eff;opacity:0.5;isolation:isolate"/><path d="M84.07,129.92c0,2.61,2.11,3.66,4.72,2.36s4.73-4.47,4.73-7.08-2.11-3.66-4.73-2.36S84.07,127.32,84.07,129.92Z" style="fill:#336eff;opacity:0.30000001192092896;isolation:isolate"/><path d="M70.57,136.66c0,2.6,2.11,3.66,4.72,2.36S80,134.55,80,131.94s-2.11-3.66-4.73-2.36S70.57,134.05,70.57,136.66Z" style="fill:#336eff;opacity:0.25;isolation:isolate"/></svg>