<svg width="64" height="64" viewBox="0 0 64 64" fill="none" xmlns="http://www.w3.org/2000/svg">
<path opacity="0.2" fill-rule="evenodd" clip-rule="evenodd" d="M0.75 32C0.75 14.7411 14.7411 0.75 32 0.75C49.2589 0.75 63.25 14.7411 63.25 32C63.25 49.2589 49.2589 63.25 32 63.25C14.7411 63.25 0.75 49.2589 0.75 32ZM32 5.25C17.2264 5.25 5.25 17.2264 5.25 32C5.25 46.7736 17.2264 58.75 32 58.75C46.7736 58.75 58.75 46.7736 58.75 32C58.75 17.2264 46.7736 5.25 32 5.25Z" fill="#D7D7D7"/>
<path fill-rule="evenodd" clip-rule="evenodd" d="M29.4084 3C29.4084 1.75736 30.4158 0.75 31.6584 0.75C49.0811 0.75 63.25 14.7163 63.25 32C63.25 49.2837 49.0811 63.25 31.6584 63.25C22.9926 63.25 15.134 59.7954 9.42519 54.2009C8.53766 53.3312 8.52325 51.9066 9.39299 51.0191C10.2627 50.1316 11.6873 50.1171 12.5748 50.9869C17.4712 55.7851 24.2099 58.75 31.6584 58.75C46.6456 58.75 58.75 46.7489 58.75 32C58.75 17.2512 46.6456 5.25 31.6584 5.25C30.4158 5.25 29.4084 4.24264 29.4084 3Z" fill="#4A4BFF"/>
</svg>
