<svg id="Layer_1" data-name="Layer 1" xmlns="http://www.w3.org/2000/svg" width="194.07" height="40" viewBox="0 0 194.07 40"><title>logo-white</title><path d="M0,36.37a3.63,3.63,0,1,0,3.63-3.62A3.64,3.64,0,0,0,0,36.37ZM19.88,0A15.3,15.3,0,0,0,4.63,15.25a14.18,14.18,0,0,0,1.12,5.63,10.8,10.8,0,0,0-1.12,4.24,7.26,7.26,0,0,0,7.25,7.25,10.77,10.77,0,0,0,6.12-2c.37,0,.88.13,1.25.13H48A15.25,15.25,0,0,0,48,0Z" style="fill:#fff"/><path d="M24.25,11.37a3.5,3.5,0,0,1,3.5,3.5,3.57,3.57,0,0,1-3.5,3.5,3.5,3.5,0,1,1,0-7Z" style="fill:#4a4bff;fill-opacity:0.8999999761581421"/><g style="opacity:0.800000011920929"><path d="M35.87,11.37a3.5,3.5,0,0,1,3.5,3.5,3.57,3.57,0,0,1-3.5,3.5,3.49,3.49,0,0,1-3.5-3.5A3.58,3.58,0,0,1,35.87,11.37Z" style="fill:#4a4bff;opacity:0.800000011920929;isolation:isolate"/></g><g style="opacity:0.6000000238418579"><path d="M47.63,11.37a3.5,3.5,0,0,1,3.5,3.5,3.58,3.58,0,0,1-3.5,3.5,3.49,3.49,0,0,1-3.5-3.5A3.58,3.58,0,0,1,47.63,11.37Z" style="fill:#4a4bff;opacity:0.6000000238418579;isolation:isolate"/></g><path d="M76.09,25.9H72.63V9.09h3.46Z" style="fill:#fff"/><path d="M82.16,13.41l.11,1.44a4.33,4.33,0,0,1,3.59-1.67,3.64,3.64,0,0,1,3,1.16,5.4,5.4,0,0,1,1,3.49V25.9H86.47v-8A2.2,2.2,0,0,0,86,16.37a2.07,2.07,0,0,0-1.54-.48,2.29,2.29,0,0,0-2.11,1.2V25.9H79V13.41Z" style="fill:#fff"/><path d="M98.83,20h-6.5V17.36h6.5Z" style="fill:#fff"/><path d="M111.21,22.43h-6.07L104,25.9H100.3l6.26-16.81h3.21l6.29,16.81h-3.68Zm-5.13-2.8h4.2l-2.12-6.29Z" style="fill:#fff"/><path d="M128.1,19.77a7.5,7.5,0,0,1-1.32,4.63,4.2,4.2,0,0,1-3.53,1.73,3.89,3.89,0,0,1-3.06-1.32V30.7h-3.33V13.41H120l.11,1.22a3.93,3.93,0,0,1,3.17-1.45,4.25,4.25,0,0,1,3.59,1.71,7.67,7.67,0,0,1,1.28,4.7Zm-3.34-.25a4.9,4.9,0,0,0-.62-2.68,2,2,0,0,0-1.79-.95,2.18,2.18,0,0,0-2.16,1.2V22.2a2.22,2.22,0,0,0,2.18,1.24Q124.76,23.44,124.76,19.52Z" style="fill:#fff"/><path d="M141.41,19.77a7.5,7.5,0,0,1-1.31,4.63,4.2,4.2,0,0,1-3.53,1.73,3.89,3.89,0,0,1-3.06-1.32V30.7h-3.34V13.41h3.1l.11,1.22a3.91,3.91,0,0,1,3.16-1.45,4.22,4.22,0,0,1,3.59,1.71,7.61,7.61,0,0,1,1.28,4.7Zm-3.33-.25a4.9,4.9,0,0,0-.62-2.68,2,2,0,0,0-1.79-.95,2.18,2.18,0,0,0-2.16,1.2V22.2a2.21,2.21,0,0,0,2.18,1.24Q138.07,23.44,138.08,19.52Z" style="fill:#fff"/><path d="M160.21,21.49a6.25,6.25,0,0,1-2,4.12,6.46,6.46,0,0,1-4.4,1.44,5.92,5.92,0,0,1-4.78-2.14,8.6,8.6,0,0,1-1.79-5.71V17.59a9.65,9.65,0,0,1,.83-4.12,6.25,6.25,0,0,1,2.38-2.73,6.55,6.55,0,0,1,3.55-1,6.07,6.07,0,0,1,4.3,1.5,6.3,6.3,0,0,1,1.88,4.14H158a4.75,4.75,0,0,0-1.26-2.91,3.75,3.75,0,0,0-2.69-.9,4,4,0,0,0-3.33,1.57,7.2,7.2,0,0,0-1.2,4.46v1.63a7.42,7.42,0,0,0,1.14,4.35,3.69,3.69,0,0,0,3.2,1.62,4.3,4.3,0,0,0,2.83-.83A4.64,4.64,0,0,0,158,21.49Z" style="fill:#fff"/><path d="M165.05,15.84a4.52,4.52,0,0,1,3.69-1.74q4,0,4,4.47v8.25H170.6V18.56a2.87,2.87,0,0,0-.63-2,2.45,2.45,0,0,0-1.88-.65,3.07,3.07,0,0,0-1.82.56,3.75,3.75,0,0,0-1.22,1.45v8.9h-2.14V9.09h2.14Z" style="fill:#fff"/><path d="M183.64,26.82a4.44,4.44,0,0,1-.3-1.32,4.77,4.77,0,0,1-3.56,1.55,4.44,4.44,0,0,1-3-1,3.38,3.38,0,0,1-1.18-2.65,3.53,3.53,0,0,1,1.48-3,7,7,0,0,1,4.18-1.08h2.07v-1a2.37,2.37,0,0,0-.67-1.78,2.64,2.64,0,0,0-2-.67,3.11,3.11,0,0,0-1.92.58,1.7,1.7,0,0,0-.77,1.39h-2.15a2.94,2.94,0,0,1,.66-1.8,4.66,4.66,0,0,1,1.8-1.38,6.09,6.09,0,0,1,2.51-.51,4.89,4.89,0,0,1,3.38,1.09,3.87,3.87,0,0,1,1.27,3V23.9a6.82,6.82,0,0,0,.44,2.73v.19Zm-3.55-1.63a3.73,3.73,0,0,0,1.91-.52,3.07,3.07,0,0,0,1.3-1.35V20.76h-1.67c-2.62,0-3.92.77-3.92,2.3a2,2,0,0,0,.66,1.57A2.62,2.62,0,0,0,180.09,25.19Z" style="fill:#fff"/><path d="M191.68,11.31v3H194V16h-2.33v7.75a1.81,1.81,0,0,0,.31,1.13,1.37,1.37,0,0,0,1.07.37,5.39,5.39,0,0,0,1-.14v1.73a6.36,6.36,0,0,1-1.64.23,2.67,2.67,0,0,1-2.16-.87,3.71,3.71,0,0,1-.72-2.45V16h-2.28V14.33h2.28v-3Z" style="fill:#fff"/></svg>