<svg xmlns="http://www.w3.org/2000/svg" xmlns:xlink="http://www.w3.org/1999/xlink" width="253.32" height="77" viewBox="0 0 253.32 77"><defs><linearGradient id="linear-gradient" x1="24.02" y1="30.5" x2="76.17" y2="30.5" gradientUnits="userSpaceOnUse"><stop offset="0" stop-color="#fff" stop-opacity="0.1"/><stop offset="0.1" stop-color="#fff" stop-opacity="0.13"/><stop offset="0.25" stop-color="#fff" stop-opacity="0.2"/><stop offset="0.43" stop-color="#fff" stop-opacity="0.33"/><stop offset="0.63" stop-color="#fff" stop-opacity="0.5"/><stop offset="0.84" stop-color="#fff" stop-opacity="0.71"/><stop offset="1" stop-color="#fff" stop-opacity="0.9"/></linearGradient><linearGradient id="linear-gradient-2" x1="8.76" y1="35.54" x2="82.91" y2="35.54" gradientUnits="userSpaceOnUse"><stop offset="0" stop-color="#fff"/><stop offset="0.1" stop-color="#faf8fa"/><stop offset="0.23" stop-color="#ebe5ed"/><stop offset="0.4" stop-color="#d2c5d8"/><stop offset="0.58" stop-color="#b09aba"/><stop offset="0.78" stop-color="#846194"/><stop offset="0.99" stop-color="#501e66"/><stop offset="1" stop-color="#4e1c65"/></linearGradient><linearGradient id="linear-gradient-3" x1="0.05" y1="35.62" x2="62.39" y2="35.62" gradientUnits="userSpaceOnUse"><stop offset="0" stop-color="#ede9ff"/><stop offset="0.1" stop-color="#e8e2fa"/><stop offset="0.25" stop-color="#d9cfeb"/><stop offset="0.43" stop-color="#c0afd4"/><stop offset="0.62" stop-color="#9e84b3"/><stop offset="0.84" stop-color="#734c89"/><stop offset="1" stop-color="#4e1c65"/></linearGradient><linearGradient id="linear-gradient-4" x1="28.21" y1="42.9" x2="87.24" y2="42.9" gradientUnits="userSpaceOnUse"><stop offset="0" stop-color="#4e1c65" stop-opacity="0.6"/><stop offset="0.3" stop-color="#4e1c65" stop-opacity="0.67"/><stop offset="0.74" stop-color="#4e1c65" stop-opacity="0.86"/><stop offset="1" stop-color="#4e1c65"/></linearGradient></defs><title>CaReMe Academy_purple-v1</title><g style="isolation:isolate"><g id="Layer_1" data-name="Layer 1"><path d="M54.06,59.81c9,1.91,18.38-2.05,21.26-10.75a16.88,16.88,0,0,0,.25-9.71A16,16,0,0,0,64.77,28.1c-2.66-.79-3.43-.77-4.69-2.59s.59-4.83.47-7.61c-.23-5.61-5.1-10.82-9.46-14a16.74,16.74,0,0,0-5.34-2.58A16.21,16.21,0,0,0,41.92.73c-9.16-.39-16.19,7-17.58,16.08-1.42,9.29,2.1,18.75,7.51,26.58S44.87,57.86,54.06,59.81Z" fill="url(#linear-gradient)"/><g opacity="0.7"><path d="M87.13,22.53a21.5,21.5,0,0,0-1.78-8.61,22.16,22.16,0,0,0-3.94-6.48A19.18,19.18,0,0,0,66.83.88l-.45,0-.89,0A21.64,21.64,0,0,0,43.94,20.5a.49.49,0,0,1-.2,0C42.71,9.48,29.74,0,22.19,0h-1.4c-.15,0-1,0-1.12,0C14.08.29,9.69,2.77,6,7a24.45,24.45,0,0,0-3.64,5.73A29.35,29.35,0,0,0,.09,21.4a21.8,21.8,0,0,0,0,2.8c-1.26,11.33,10.21,38.31,34,46a30.75,30.75,0,0,0,3.78.84c6,.14,10.35.14,15.8-3.35.46-.29,2.25-1.61,2.66-2,19.91-17,30.81-27.62,30.81-42.36v-.22C87.12,22.94,87.13,22.73,87.13,22.53Z" fill="url(#linear-gradient-2)"/></g><path d="M36,70.67c10.71,2.27,22-2.46,25.41-12.86a19.62,19.62,0,0,0,.94-4.54,20.11,20.11,0,0,0-.63-7.06A19.1,19.1,0,0,0,48.77,32.76c-3.19-1-4.1-.93-5.61-3.11s.7-5.76.56-9.09c-.28-6.71-6.09-12.93-11.31-16.71A20.1,20.1,0,0,0,26,.76,20.37,20.37,0,0,0,21.45,0C10.5-.43,2.09,8.43.43,19.26c-1.7,11.1,2.51,22.41,9,31.77S25,68.33,36,70.67Z" fill="url(#linear-gradient-3)"/><path d="M60.29,60.54h0c3.38-8,17.76-15,21.73-21.23C83,37.81,86.23,31.19,86.79,28a22.72,22.72,0,0,0,.28-7.13c-.42-3.35-1.18-6.31-3.22-6.15-2.41.19-8.19,7.79-9.51,9.56l-.26.35v0C63.44,38.88,42.55,39.15,42.54,39.15,34.09,40,28.22,47.3,28.21,55.68,28.2,66.43,40.62,74,49,70.06a32.15,32.15,0,0,0,6.71-3.91l1.68-1.54s.12-.12.13-.14" opacity="0.7" fill="url(#linear-gradient-4)" style="mix-blend-mode:multiply"/><path d="M112.27,32.3h-5.73V7.15h5.73Z" fill="#323232"/><path d="M135.53,17.39h-.15l-5.16,14.76h-3.41l-5.15-14.76h-.15L120.32,32.3h-5.73l2.25-25.15h6.1l5.58,14.51L134.1,7.15h6.09l2.26,25.15h-5.73Z" fill="#323232"/><path d="M153.94,7.15c4.91,0,8.6,2.53,8.6,7.74S158.85,23,153.94,23H150.5V32.3h-5.73V7.15ZM152.11,18.4c2.26,0,4.39-.76,4.39-3.33s-2.13-3.35-4.39-3.35H150.5V18.4Z" fill="#323232"/><path d="M129.46,69.07H123.3l-1.85-5h-9.58l-1.86,5h-6.15L114,43.92h5.3ZM116.69,51.7h-.06L113.82,59h5.67Z" fill="#323232"/><path d="M135,61.24a3.79,3.79,0,0,0,3.72,3.87,4.74,4.74,0,0,0,2.62-.73l1.83,3.75a8.85,8.85,0,0,1-5.24,1.4c-4.51,0-8.66-3.66-8.66-8.23a9,9,0,0,1,13.9-6.86l-1.83,3.69a4.74,4.74,0,0,0-2.62-.73A3.78,3.78,0,0,0,135,61.24Z" fill="#323232"/><path d="M151.9,53a7.11,7.11,0,0,1,5.12,2V53.44h5.4V69.07h-5.34V67.31H157a6.93,6.93,0,0,1-5.12,2.22c-4.57,0-7.77-3.69-7.77-8.26S147.33,53,151.9,53Zm1.61,12a3.52,3.52,0,0,0,3.63-3.66,3.64,3.64,0,1,0-7.28,0A3.49,3.49,0,0,0,153.51,64.93Z" fill="#323232"/><path d="M172.72,53a7.11,7.11,0,0,1,5.12,2V42.86h5.4V69.07H177.9V67.31h-.06a6.93,6.93,0,0,1-5.12,2.22c-4.57,0-7.77-3.69-7.77-8.26S168.15,53,172.72,53Zm1.61,12A3.52,3.52,0,0,0,178,61.27a3.64,3.64,0,1,0-7.28,0A3.49,3.49,0,0,0,174.33,64.93Z" fill="#323232"/><path d="M191.37,62a3.2,3.2,0,0,0,3.39,3.23,4.29,4.29,0,0,0,3.81-1.73l3.9,2c-1.77,3-4.63,4.08-8.11,4.08a8.28,8.28,0,1,1,0-16.55c4.76,0,8.39,2.8,8.39,8.29a4.29,4.29,0,0,1,0,.73Zm6.1-3a2.78,2.78,0,0,0-3-2.53,2.69,2.69,0,0,0-3,2.53Z" fill="#323232"/><path d="M205.21,53.44h5.4v1.64h.06a6.46,6.46,0,0,1,4.48-2.1,5.91,5.91,0,0,1,5.46,2.86A6.86,6.86,0,0,1,225.79,53c2.87,0,6.1,1.43,6.1,5.79v10.3h-5.4V60.23a2.63,2.63,0,0,0-2.74-2.92,2.4,2.4,0,0,0-2.5,2.44v9.32h-5.4V60.23a2.63,2.63,0,0,0-2.74-2.92,2.42,2.42,0,0,0-2.5,2.62v9.14h-5.4Z" fill="#323232"/><path d="M253.32,53.44,241,77h-6.22l5.4-10.36-7.41-13.2H239l4.36,8,3.72-8Z" fill="#323232"/><path d="M171,5,159.08,34.48H228L240.05,5Zm14.81,27.62-1.86-5h-9.58l-1.86,5h-6.15L176.48,7.44h5.3l10.15,25.15Zm19.54-5.18a8.7,8.7,0,0,0,4.93-1.56l2.44,4.88s-2.8,2.32-8.26,2.32c-7.1,0-13.62-5.8-13.62-13S197.3,7,204.43,7c5.46,0,8.26,2.32,8.26,2.32l-2.44,4.88a8.7,8.7,0,0,0-4.93-1.56c-5.77,0-8.3,4-8.3,7.38S199.55,27.41,205.32,27.41ZM231,12.47h-6V32.59h-5.73V12.47h-6v-5H231Z" fill="#323232"/><polygon points="179.1 15.21 176.29 22.53 181.97 22.53 179.16 15.21 179.1 15.21" fill="#323232"/></g></g></svg>