<svg xmlns="http://www.w3.org/2000/svg" width="178.001" height="183.999" viewBox="0 0 178.001 183.999">
  <path id="Path_2434" data-name="Path 2434" d="M179.183,64.663H8.815A3.888,3.888,0,0,0,5,68.619v47.466a3.887,3.887,0,0,0,3.815,3.956h170.37A3.888,3.888,0,0,0,183,116.085V68.619A3.89,3.89,0,0,0,179.183,64.663ZM35.537,100.921a8.57,8.57,0,1,1,8.572-8.57A8.569,8.569,0,0,1,35.537,100.921Zm32.3,0a8.57,8.57,0,1,1,8.572-8.57A8.569,8.569,0,0,1,67.839,100.921Zm97.9-2.142a1.977,1.977,0,0,1-1.978,1.978H125.523a1.977,1.977,0,0,1-1.978-1.978V85.924a1.977,1.977,0,0,1,1.978-1.978h38.238a1.977,1.977,0,0,1,1.978,1.978Zm13.445-95.3H8.815A3.887,3.887,0,0,0,5,7.439V54.9A3.887,3.887,0,0,0,8.815,58.86h170.37A3.888,3.888,0,0,0,183,54.9V7.439A3.89,3.89,0,0,0,179.183,3.483ZM35.537,39.741a8.57,8.57,0,1,1,8.572-8.57A8.569,8.569,0,0,1,35.537,39.741Zm32.3,0a8.57,8.57,0,1,1,8.572-8.57A8.569,8.569,0,0,1,67.839,39.741Zm97.9-2.142a1.977,1.977,0,0,1-1.978,1.978H125.523a1.977,1.977,0,0,1-1.978-1.978V24.744a1.977,1.977,0,0,1,1.978-1.978h38.238a1.977,1.977,0,0,1,1.978,1.978Zm13.445,88.244H8.815A3.888,3.888,0,0,0,5,129.8v47.466a3.887,3.887,0,0,0,3.815,3.956h22.06V185.5a1.976,1.976,0,0,0,1.978,1.978H62.519A1.976,1.976,0,0,0,64.5,185.5v-4.284h59V185.5a1.976,1.976,0,0,0,1.978,1.978h29.666a1.976,1.976,0,0,0,1.978-1.978v-4.284h22.062A3.888,3.888,0,0,0,183,177.265V129.8A3.886,3.886,0,0,0,179.183,125.843ZM35.537,162.1a8.57,8.57,0,1,1,8.572-8.57A8.569,8.569,0,0,1,35.537,162.1Zm32.3,0a8.57,8.57,0,1,1,8.572-8.57A8.569,8.569,0,0,1,67.839,162.1Zm97.9-2.142a1.977,1.977,0,0,1-1.978,1.978H125.523a1.977,1.977,0,0,1-1.978-1.978V147.1a1.977,1.977,0,0,1,1.978-1.978h38.238a1.977,1.977,0,0,1,1.978,1.978Z" transform="translate(-5 -3.483)" fill="#183057"/>
</svg>
