<svg xmlns="http://www.w3.org/2000/svg" width="151.194" height="173.87" viewBox="0 0 151.194 173.87">
  <g id="Group_301" data-name="Group 301" transform="translate(-2 -0.5)" opacity="0.9">
    <g id="Group_300" data-name="Group 300" transform="translate(2 0.5)">
      <path id="Path_2430" data-name="Path 2430" d="M71.663,1.753C74.1.083,81.1.083,83.531,1.753c21.356,14.7,40.633,22.3,60.953,23.609,5.987.265,8.6,3.152,8.6,9.185,0,3.81.257,43.808,0,58.239a64.058,64.058,0,0,1-1.829,15.475c-2.865,12.065-9.109,23.352-19.534,33.844-13.282,13.373-52.872,32.265-54.324,32.265-1.043,0-40.633-18.892-53.915-32.265C13.053,131.613,6.809,120.326,3.944,108.261A64.057,64.057,0,0,1,2.114,92.786c-.257-14.431,0-54.429,0-58.239,0-6.033,2.608-8.92,8.6-9.185,20.32-1.308,39.6-8.913,60.953-23.609ZM88.286,85.2l18.733-18.733A7.559,7.559,0,0,0,96.33,55.774L77.6,74.507,58.864,55.774A7.559,7.559,0,0,0,48.175,66.464L66.908,85.2,48.175,103.929a7.559,7.559,0,0,0,10.689,10.689L77.6,95.886,96.33,114.619a7.559,7.559,0,0,0,10.689-10.689L88.286,85.2ZM72.4,19.352C57.156,28.877,42.535,35.106,27.575,38.259a104.626,104.626,0,0,1-10.357,1.6s-.083,47.414.015,52.925a49.647,49.647,0,0,0,1.414,11.982c2.283,9.593,7.287,18.355,15.558,26.685C38.718,136,77.6,157.618,77.6,157.618S116.469,136,120.989,131.454c8.27-8.331,13.275-17.092,15.588-26.837a55.745,55.745,0,0,0,1.5-12.1c-.015-5.239,0-52.562,0-52.562s-3.44-.416-5.073-.673C116.317,36.6,100.072,30.117,83.025,19.5A48.693,48.693,0,0,1,77.778,15.6s-2.79,2.132-5.375,3.75Z" transform="translate(-2 -0.5)" fill="#183057" fill-rule="evenodd"/>
    </g>
  </g>
</svg>
