<svg width="110" height="17" viewBox="0 0 110 17" fill="none" xmlns="http://www.w3.org/2000/svg">
<g clip-path="url(#clip0)">
<path d="M25.5331 1.37988V6.63958C24.7801 5.92414 23.757 5.48346 22.6291 5.48346C20.3185 5.48346 18.4453 7.32864 18.4453 9.60461C18.4453 11.8806 20.3185 13.7258 22.6291 13.7258C24.8436 13.7258 26.6555 12.0301 26.8016 9.88485L26.8128 9.89914V1.37988H25.5331ZM22.6291 12.4652C21.0247 12.4652 19.725 11.1849 19.725 9.60461C19.725 8.02429 21.0247 6.74398 22.6291 6.74398C24.2334 6.74398 25.5331 8.02429 25.5331 9.60461C25.5331 11.1849 24.2334 12.4652 22.6291 12.4652Z" fill="#1F034F"/>
<path d="M51.6339 5.4834C49.4193 5.4834 47.6075 7.17912 47.4614 9.32432L47.4502 9.31003V16.3995H48.7299V12.5696C49.4829 13.285 50.506 13.7257 51.6339 13.7257C53.9445 13.7257 55.8177 11.8805 55.8177 9.60455C55.8177 7.32858 53.9445 5.4834 51.6339 5.4834ZM51.6339 12.4652C50.0296 12.4652 48.7299 11.1849 48.7299 9.60455C48.7299 8.02423 50.0296 6.74392 51.6339 6.74392C53.2383 6.74392 54.538 8.02423 54.538 9.60455C54.538 11.1849 53.2383 12.4652 51.6339 12.4652Z" fill="#1F034F"/>
<path d="M32.4815 5.49609C30.1777 5.49609 28.3101 7.33578 28.3101 9.60516C28.3101 11.8745 30.1777 13.7142 32.4815 13.7142C33.7578 13.7142 34.9003 13.1494 35.6645 12.2592L34.9036 11.3954C34.3514 12.1196 33.4722 12.5878 32.4815 12.5878C30.9397 12.5878 29.6678 11.4525 29.4782 9.98431H35.1491H35.6991H36.2993C36.3105 9.85902 36.3183 9.73264 36.3183 9.60516C36.3183 7.33578 34.7854 5.49609 32.4815 5.49609ZM29.5429 8.88643C29.8698 7.58634 31.0613 6.62254 32.4826 6.62254C33.904 6.62254 34.7608 7.58634 35.0866 8.88643H29.5429Z" fill="#1F034F"/>
<path d="M41.9022 5.49609C39.5983 5.49609 37.7307 7.33578 37.7307 9.60516C37.7307 11.8745 39.5983 13.7142 41.9022 13.7142C43.1785 13.7142 44.3209 13.1494 45.0852 12.2592L44.3243 11.3954C43.772 12.1196 42.8929 12.5878 41.9022 12.5878C40.3603 12.5878 39.0885 11.4525 38.8988 9.98431H44.5697H45.1198H45.72C45.7311 9.85902 45.739 9.73264 45.739 9.60516C45.739 7.33578 44.206 5.49609 41.9022 5.49609ZM38.9635 8.88643C39.2904 7.58634 40.4819 6.62254 41.9033 6.62254C43.3247 6.62254 44.1815 7.58634 44.5073 8.88643H38.9635Z" fill="#1F034F"/>
<path d="M73.3761 8.70316V13.6299H72.8841V8.70316C72.8841 7.94927 72.6677 7.34044 72.2359 6.87777C71.8042 6.4151 71.2274 6.18322 70.5055 6.18322C69.7614 6.18322 69.15 6.42059 68.6692 6.89425C68.1883 7.36791 67.9473 7.97125 67.9473 8.70316V13.6299H67.4553V1.51367H67.9473V7.11954C68.4829 6.18212 69.3419 5.71395 70.5223 5.71395C71.397 5.71395 72.0909 5.9887 72.6052 6.53818C73.1195 7.08767 73.3761 7.8086 73.3761 8.70316Z" fill="#1F034F"/>
<path d="M93.467 13.6299V1.51367H93.959V13.6299H93.467ZM94.9431 9.28452L99.1089 13.6299H98.4529L94.2703 9.26804L98.0256 5.8755H98.7307L94.9431 9.28452Z" fill="#1F034F"/>
<path d="M100.01 11.9472L100.404 11.6559C101.126 12.6681 101.989 13.1747 102.996 13.1747C103.575 13.1747 104.048 13.0374 104.414 12.7626C104.78 12.4879 104.963 12.1032 104.963 11.6076C104.93 11.1449 104.788 10.7998 104.537 10.5735C104.285 10.3471 103.831 10.0888 103.175 9.79758L102.487 9.49097C101.82 9.19974 101.333 8.90961 101.028 8.61838C100.722 8.32715 100.568 7.9502 100.568 7.48754C100.568 6.89519 100.803 6.43252 101.273 6.09843C101.743 5.74346 102.306 5.56543 102.962 5.56543C103.935 5.56543 104.761 5.97974 105.439 6.80947L105.079 7.13257C104.455 6.40065 103.739 6.03359 102.93 6.03359C102.406 6.03359 101.968 6.15997 101.618 6.41274C101.268 6.6655 101.094 7.01827 101.094 7.47105C101.105 7.65458 101.14 7.81283 101.201 7.94801C101.261 8.08318 101.312 8.18758 101.357 8.26341C101.4 8.33924 101.518 8.43266 101.709 8.54585C101.9 8.65904 102.037 8.73487 102.119 8.77224C102.201 8.8096 102.411 8.90961 102.75 9.07116L103.488 9.39426C104.166 9.68549 104.668 9.9921 104.996 10.3152C105.324 10.6383 105.488 11.0581 105.488 11.5757C105.488 12.2219 105.242 12.7285 104.75 13.0945C104.269 13.4605 103.673 13.644 102.962 13.644C101.737 13.644 100.753 13.078 100.01 11.9472Z" fill="#1F034F"/>
<path d="M65.214 11.8857C64.5502 12.6693 63.5528 13.1672 62.436 13.1672C60.439 13.1672 58.8201 11.5725 58.8201 9.60538C58.8201 7.63821 60.439 6.0436 62.436 6.0436C63.5461 6.0436 64.539 6.53704 65.2029 7.31292L65.5621 7.01509C64.8124 6.13921 63.6911 5.58203 62.4371 5.58203C60.1801 5.58203 58.3516 7.38435 58.3516 9.60648C58.3516 11.8297 60.1813 13.6309 62.4371 13.6309C63.7012 13.6309 64.8313 13.0649 65.58 12.177L65.214 11.8857Z" fill="#1F034F"/>
<path d="M91.1976 11.8857C90.5338 12.6693 89.5364 13.1672 88.4196 13.1672C86.4226 13.1672 84.8038 11.5725 84.8038 9.60538C84.8038 7.63821 86.4226 6.0436 88.4196 6.0436C89.5297 6.0436 90.5227 6.53704 91.1865 7.31292L91.5457 7.01509C90.796 6.13921 89.6748 5.58203 88.4208 5.58203C86.1638 5.58203 84.3352 7.38435 84.3352 9.60648C84.3352 11.8297 86.1649 13.6309 88.4208 13.6309C89.6848 13.6309 90.815 13.0649 91.5636 12.177L91.1976 11.8857Z" fill="#1F034F"/>
<path d="M79.172 5.5791C76.915 5.5791 75.0864 7.38142 75.0864 9.60355C75.0864 11.8257 76.9161 13.628 79.172 13.628C80.4416 13.628 81.5762 13.0576 82.326 12.162L81.9667 11.8477C81.3051 12.6455 80.2988 13.1554 79.172 13.1554C77.1805 13.1554 75.5662 11.5652 75.5662 9.60355H82.3315H82.6406H82.8113C82.8113 7.38142 81.4279 5.5791 79.172 5.5791ZM75.5952 9.15956C75.8172 7.4078 77.3334 6.05166 79.172 6.05166C81.0106 6.05166 82.0805 7.4078 82.3025 9.15956H75.5952Z" fill="#1F034F"/>
<path d="M3.74305 7.51919L3.75421 7.53347C3.90148 5.38827 5.7122 3.69256 7.92679 3.69256C7.92791 3.69256 7.92902 3.69256 7.92902 3.69256C7.93014 3.69256 7.93125 3.69256 7.93125 3.69256C9.05919 3.69256 10.0834 4.13324 10.8353 4.84868V0.542894C9.93722 0.19342 8.95767 0 7.93237 0C3.55116 0 0 3.49804 0 7.81371C0 10.6139 1.49611 13.069 3.74305 14.4482V7.51919Z" fill="#00E6FF"/>
<path d="M12.1162 1.17578V8.10921L12.105 8.09493C11.9589 10.2401 10.1471 11.9358 7.93246 11.9358C7.93135 11.9358 7.93023 11.9358 7.93023 11.9358C7.92912 11.9358 7.928 11.9358 7.928 11.9358C6.80006 11.9358 5.77588 11.4952 5.02393 10.7797V15.0844C5.92538 15.435 6.90605 15.6295 7.93358 15.6295C12.3148 15.6295 15.8659 12.1315 15.8659 7.81579C15.8659 5.0112 14.3665 2.55499 12.1162 1.17578Z" fill="#007AFF"/>
<path d="M10.3534 6.23453C10.3277 6.36751 10.2809 6.49828 10.2083 6.62137C9.86138 7.21372 9.0938 7.41593 8.49246 7.07415C7.89111 6.73237 7.68583 5.97627 8.0328 5.38392C8.12764 5.22237 8.25482 5.0905 8.39986 4.99049C8.24813 4.96631 8.09193 4.95312 7.93239 4.95312C6.32807 4.95312 5.02832 6.23343 5.02832 7.81376C5.02832 9.39408 6.32918 10.6744 7.93239 10.6744C9.5356 10.6744 10.8365 9.39408 10.8365 7.81376C10.8365 7.2302 10.6591 6.68731 10.3534 6.23453Z" fill="#9D60FB"/>
<path d="M108.743 13.6438C109.436 13.6438 109.999 13.0898 109.999 12.4064C109.999 11.723 109.436 11.1689 108.743 11.1689C108.049 11.1689 107.486 11.723 107.486 12.4064C107.486 13.0898 108.049 13.6438 108.743 13.6438Z" fill="#9D60FB"/>
</g>
<defs>
<clipPath id="clip0">
<rect width="110" height="16.4" fill="white"/>
</clipPath>
</defs>
</svg>
