<svg width="63" height="55" viewBox="0 0 63 55" fill="none" xmlns="http://www.w3.org/2000/svg">
<g clip-path="url(#clip0)">
<path d="M40.8551 3.891V3.48816e-08C39.4686 -6.73536e-05 38.0838 0.0975074 36.7111 0.292L37.2621 4.146C38.4522 3.9765 39.6529 3.89129 40.8551 3.891Z" fill="white"/>
<path d="M33.736 4.908L32.636 1.177C31.306 1.57019 30.0056 2.05776 28.745 2.636L30.345 6.175C31.4437 5.6723 32.5769 5.24889 33.736 4.908Z" fill="white"/>
<path d="M27.196 7.908L25.096 4.638C20.976 7.27121 17.5864 10.9005 15.2402 15.1904C12.8941 19.4803 11.6672 24.2924 11.673 29.182H15.564C15.5589 24.9442 16.622 20.7734 18.6551 17.0551C20.6882 13.3368 23.6256 10.1909 27.196 7.908Z" fill="white"/>
<path d="M40.855 7.78201C35.1814 7.78863 29.742 10.0454 25.7302 14.0572C21.7183 18.0691 19.4616 23.5084 19.455 29.182H23.346C23.346 25.7191 24.3728 22.3339 26.2968 19.4545C28.2207 16.5752 30.9552 14.331 34.1546 13.0058C37.3539 11.6806 40.8744 11.3339 44.2708 12.0094C47.6672 12.685 50.787 14.3526 53.2357 16.8013C55.6844 19.25 57.3519 22.3698 58.0275 25.7662C58.7031 29.1626 58.3564 32.6831 57.0312 35.8824C55.7059 39.0818 53.4618 41.8163 50.5824 43.7402C47.7031 45.6641 44.3179 46.691 40.855 46.691V50.582C46.5306 50.582 51.9738 48.3274 55.987 44.3141C60.0003 40.3008 62.255 34.8576 62.255 29.182C62.255 23.5064 60.0003 18.0632 55.987 14.0499C51.9738 10.0366 46.5306 7.78201 40.855 7.78201Z" fill="white"/>
<path d="M31.127 31.127C29.5878 31.127 28.0833 31.5834 26.8035 32.4385C25.5238 33.2936 24.5263 34.509 23.9373 35.931C23.3483 37.3529 23.1942 38.9176 23.4945 40.4272C23.7948 41.9368 24.5359 43.3234 25.6243 44.4117C26.7126 45.5001 28.0992 46.2412 29.6088 46.5415C31.1183 46.8418 32.683 46.6876 34.105 46.0986C35.527 45.5096 36.7424 44.5122 37.5975 43.2325C38.4526 41.9527 38.909 40.4481 38.909 38.909C38.909 36.8451 38.0891 34.8657 36.6297 33.4063C35.1703 31.9469 33.1909 31.127 31.127 31.127ZM31.127 42.8C30.3574 42.8 29.6051 42.5718 28.9653 42.1443C28.3254 41.7167 27.8267 41.109 27.5322 40.398C27.2377 39.687 27.1606 38.9047 27.3107 38.1499C27.4609 37.3951 27.8315 36.7018 28.3756 36.1577C28.9198 35.6135 29.6131 35.2429 30.3679 35.0928C31.1227 34.9426 31.905 35.0197 32.616 35.3142C33.327 35.6087 33.9347 36.1074 34.3622 36.7473C34.7898 37.3872 35.018 38.1394 35.018 38.909C35.0181 39.42 34.9176 39.9261 34.7221 40.3982C34.5266 40.8703 34.24 41.2993 33.8786 41.6607C33.5173 42.022 33.0883 42.3086 32.6162 42.5041C32.144 42.6996 31.638 42.8001 31.127 42.8Z" fill="white"/>
<path d="M19.455 44.745C19.4521 42.166 18.4262 39.6934 16.6025 37.8698C14.7787 36.0463 12.306 35.0207 9.727 35.018H0V38.909H9.727C10.9331 38.9112 12.109 39.2863 13.0936 39.9829C14.0782 40.6795 14.8234 41.6634 15.227 42.8H0V46.691H19.455V44.745Z" fill="white"/>
<path d="M35.127 50.236H0.126953V54.236H35.127V50.236Z" fill="white"/>
</g>
<defs>
<clipPath id="clip0">
<rect width="62.254" height="54.236" fill="white"/>
</clipPath>
</defs>
</svg>
