<svg xmlns="http://www.w3.org/2000/svg" width="36.722" height="33.419" viewBox="0 0 36.722 33.419">
  <g id="Group_210" data-name="Group 210" transform="translate(-794.94 -388.696)">
    <path id="Path_2337" data-name="Path 2337" d="M802.512,400.56a5.519,5.519,0,0,0-2.755.77,5.868,5.868,0,1,0,8.7,4.062.941.941,0,0,0-.288-.625,5.815,5.815,0,0,1-1.8-2.729.806.806,0,0,0-.277-.381A5.782,5.782,0,0,0,802.512,400.56Zm9.524,4.677a4.972,4.972,0,1,0-4.962-4.944A4.956,4.956,0,0,0,812.037,405.237Zm-15.846,3.434c-.052.034-.078.043-.09.061a1.552,1.552,0,0,0-.1.171,5.031,5.031,0,0,0,.132,4.851,4.952,4.952,0,0,0,3.341,2.459,4.773,4.773,0,0,0,3.03-.28c.228-.1.329-.067.449.161a4.127,4.127,0,0,0,4.486,2.083,4.141,4.141,0,0,0,1.086-7.721.26.26,0,0,0-.39.088,6.837,6.837,0,0,1-11.786-1.529C796.305,408.9,796.247,408.791,796.19,408.671Zm9.9-8.208c.007-.162.016-.268.016-.373a5.218,5.218,0,0,1,.469-2.144,5.841,5.841,0,0,1,4.157-3.467c.179-.043.262-.1.16-.3a5.871,5.871,0,1,0-10.39,5.467.289.289,0,0,0,.387.177,6.753,6.753,0,0,1,4.4.281C805.551,400.208,805.8,400.329,806.094,400.464Zm13.685,18.455a4.143,4.143,0,1,0-4.13-4.117A4.154,4.154,0,0,0,819.779,418.919Zm.178-15.053a4.145,4.145,0,1,0,4.081-4.17A4.127,4.127,0,0,0,819.957,403.865Zm-4.916,8.965a1.524,1.524,0,0,0-.222.069,5.67,5.67,0,0,1-2.9.715c-.179,0-.226.069-.214.237a4.657,4.657,0,0,1-.234,1.792,5.052,5.052,0,0,1-3.167,3.3c-.315.118-.317.139-.088.4.016.018.035.035.052.053a6.729,6.729,0,0,0,5.922,2.166,6.643,6.643,0,0,0,3.678-1.667,3.493,3.493,0,0,0,.242-.265,5.16,5.16,0,0,1-3.069-6.8Zm-5.527-7.151a1.238,1.238,0,0,0-.018.186,6.621,6.621,0,0,1-.592,3.393c-.08.175-.052.268.126.365a5.037,5.037,0,0,1,2.368,2.744c.065.172.137.256.322.267a4.888,4.888,0,0,0,1.768-.221,4.78,4.78,0,0,0,2.458-7.282c-.117-.163-.2-.2-.386-.069a5.858,5.858,0,0,1-5.367.848C809.971,405.842,809.753,405.762,809.514,405.68Zm4.469-11.063c.121.066.181.106.247.133a5.943,5.943,0,0,1,3.532,7.145,5.59,5.59,0,0,1-1.121,2.135.277.277,0,0,0,.034.442.541.541,0,0,0,.261.122,5.538,5.538,0,0,0,1.809.071c.222-.033.283-.108.263-.328a4.963,4.963,0,0,1,1.111-3.713.846.846,0,0,0,.2-.787,5,5,0,0,1,1.744-4.935c.169-.147.149-.232,0-.366a5.684,5.684,0,0,0-3.065-1.5,5.8,5.8,0,0,0-4.4,1.062C814.4,394.249,814.21,394.426,813.983,394.617Zm7.31,4.919a5.161,5.161,0,0,1,7.291,1.8,4.058,4.058,0,0,0,.2-4.791,4.142,4.142,0,0,0-5.511-1.315A4.039,4.039,0,0,0,821.293,399.536Zm3.291,13.289c1.109-.736,2.281-3.416,1.934-4.452a1.4,1.4,0,0,0-.177.057,5,5,0,0,1-4.212.12,4.929,4.929,0,0,1-2.732-2.711.328.328,0,0,0-.389-.235c-.431.04-.865.066-1.3.064-.351,0-.362,0-.246.344a5.678,5.678,0,0,1-.085,3.964,2.531,2.531,0,0,0-.069.254C820.513,408.975,822.912,409.85,824.585,412.825Zm-16.068-22.241c.138.078.214.123.291.164a6.68,6.68,0,0,1,3,3.105c.152.323.3.513.688.508a.692.692,0,0,0,.586-.2,6.566,6.566,0,0,1,3.791-2.06l.653-.118a6,6,0,0,0-4-2.679A6.066,6.066,0,0,0,808.517,390.585Zm18.537,20.494c.215-.058.371-.091.521-.142a5.112,5.112,0,0,0,1.92-8.635c-.07-.065-.214-.132-.282-.1a.3.3,0,0,0-.161.369,5.576,5.576,0,0,1,.109.6,4.954,4.954,0,0,1-1.453,4.278.586.586,0,0,0-.187.518,6.276,6.276,0,0,1-.218,2.261C827.232,410.492,827.15,410.752,827.054,411.079Zm-30.1-8.514c.065-.03.086-.033.093-.044a6.876,6.876,0,0,1,2.486-2.178c.173-.09.135-.186.068-.314a6.877,6.877,0,0,1-.77-3.794,3.1,3.1,0,0,0-.013-.311A5.087,5.087,0,0,0,796.5,399.3,4.85,4.85,0,0,0,796.959,402.565Z" fill="none" stroke="#fff" stroke-miterlimit="10" stroke-width="1"/>
    <path id="Path_2338" data-name="Path 2338" d="M815.019,504.73a5.782,5.782,0,0,1,3.578,1.1.806.806,0,0,1,.277.381,5.816,5.816,0,0,0,1.8,2.729.941.941,0,0,1,.289.625,5.872,5.872,0,1,1-8.7-4.062A5.519,5.519,0,0,1,815.019,504.73Z" transform="translate(-12.506 -104.169)" fill="none" stroke="#fff" stroke-miterlimit="10" stroke-width="1"/>
    <path id="Path_2339" data-name="Path 2339" d="M918.643,461.119a4.972,4.972,0,1,1,4.989-4.973A4.951,4.951,0,0,1,918.643,461.119Z" transform="translate(-106.606 -55.882)" fill="none" stroke="#fff" stroke-miterlimit="10" stroke-width="1"/>
    <path id="Path_2340" data-name="Path 2340" d="M796.19,587.192c.057.12.115.23.163.344a6.84,6.84,0,0,0,11.786,1.529.26.26,0,0,1,.39-.088,4.141,4.141,0,0,1-1.086,7.721,4.128,4.128,0,0,1-4.486-2.083c-.12-.229-.221-.259-.449-.161a4.774,4.774,0,0,1-3.03.28,4.952,4.952,0,0,1-3.341-2.459,5.031,5.031,0,0,1-.132-4.851,1.555,1.555,0,0,1,.1-.171C796.112,587.235,796.139,587.226,796.19,587.192Z" transform="translate(0 -178.521)" fill="none" stroke="#fff" stroke-miterlimit="10" stroke-width="1"/>
    <path id="Path_2341" data-name="Path 2341" d="M845.876,416.485c-.3-.134-.544-.256-.8-.361a6.753,6.753,0,0,0-4.4-.281.289.289,0,0,1-.387-.177,5.871,5.871,0,1,1,10.39-5.467c.1.2.019.258-.16.3a5.841,5.841,0,0,0-4.157,3.467,5.218,5.218,0,0,0-.469,2.144C845.893,416.218,845.884,416.323,845.876,416.485Z" transform="translate(-39.782 -16.021)" fill="none" stroke="#fff" stroke-miterlimit="10" stroke-width="1"/>
    <path id="Path_2342" data-name="Path 2342" d="M1004.973,615.422a4.143,4.143,0,1,1,4.154-4.023A4.125,4.125,0,0,1,1004.973,615.422Z" transform="translate(-185.194 -196.503)" fill="none" stroke="#fff" stroke-miterlimit="10" stroke-width="1"/>
    <path id="Path_2343" data-name="Path 2343" d="M1044.642,500.1a4.145,4.145,0,1,1,4.2,4.105A4.123,4.123,0,0,1,1044.642,500.1Z" transform="translate(-224.685 -96.236)" fill="none" stroke="#fff" stroke-miterlimit="10" stroke-width="1"/>
    <path id="Path_2344" data-name="Path 2344" d="M930.637,629.478a5.16,5.16,0,0,0,3.069,6.8,3.48,3.48,0,0,1-.242.265,6.643,6.643,0,0,1-3.677,1.667,6.729,6.729,0,0,1-5.922-2.166c-.017-.018-.035-.034-.052-.053-.229-.261-.227-.282.088-.4a5.051,5.051,0,0,0,3.167-3.3,4.657,4.657,0,0,0,.234-1.792c-.012-.167.035-.241.214-.237a5.67,5.67,0,0,0,2.9-.715A1.516,1.516,0,0,1,930.637,629.478Z" transform="translate(-115.595 -216.647)" fill="none" stroke="#fff" stroke-miterlimit="10" stroke-width="1"/>
    <path id="Path_2345" data-name="Path 2345" d="M932.5,550.4c.239.082.457.162.678.232a5.858,5.858,0,0,0,5.367-.848c.189-.132.27-.094.386.069a4.78,4.78,0,0,1-2.458,7.282,4.889,4.889,0,0,1-1.768.221c-.184-.012-.257-.1-.322-.267a5.036,5.036,0,0,0-2.368-2.744c-.179-.1-.207-.19-.126-.365a6.62,6.62,0,0,0,.592-3.393A1.236,1.236,0,0,1,932.5,550.4Z" transform="translate(-122.982 -144.721)" fill="none" stroke="#fff" stroke-miterlimit="10" stroke-width="1"/>
    <path id="Path_2346" data-name="Path 2346" d="M983.91,429.167c.227-.191.414-.368.621-.518a5.8,5.8,0,0,1,4.4-1.062,5.684,5.684,0,0,1,3.065,1.5c.145.134.164.219,0,.366a5,5,0,0,0-1.744,4.935.847.847,0,0,1-.2.787,4.963,4.963,0,0,0-1.111,3.713c.02.221-.042.295-.263.328a5.536,5.536,0,0,1-1.809-.071.541.541,0,0,1-.261-.122.277.277,0,0,1-.034-.442,5.588,5.588,0,0,0,1.121-2.135,5.943,5.943,0,0,0-3.532-7.145C984.091,429.273,984.031,429.233,983.91,429.167Z" transform="translate(-169.927 -34.55)" fill="none" stroke="#fff" stroke-miterlimit="10" stroke-width="1"/>
    <path id="Path_2347" data-name="Path 2347" d="M1057.252,449.841a4.039,4.039,0,0,1,1.978-4.3,4.142,4.142,0,0,1,5.511,1.315,4.058,4.058,0,0,1-.2,4.791,5.161,5.161,0,0,0-7.291-1.8Z" transform="translate(-235.959 -50.306)" fill="none" stroke="#fff" stroke-miterlimit="10" stroke-width="1"/>
    <path id="Path_2348" data-name="Path 2348" d="M1025.025,563.195c-1.672-2.975-4.072-3.851-7.273-2.6a2.515,2.515,0,0,1,.069-.254,5.679,5.679,0,0,0,.085-3.964c-.117-.344-.106-.345.245-.344.433,0,.867-.024,1.3-.064a.327.327,0,0,1,.389.235,4.929,4.929,0,0,0,2.732,2.711,5,5,0,0,0,4.212-.12,1.394,1.394,0,0,1,.177-.057C1027.306,559.778,1026.134,562.459,1025.025,563.195Z" transform="translate(-200.44 -150.369)" fill="none" stroke="#fff" stroke-miterlimit="10" stroke-width="1"/>
    <path id="Path_2349" data-name="Path 2349" d="M928.341,390.585a6.066,6.066,0,0,1,5.01-1.277,6,6,0,0,1,4,2.679l-.653.118a6.566,6.566,0,0,0-3.791,2.06.692.692,0,0,1-.586.2c-.388,0-.536-.185-.688-.508a6.68,6.68,0,0,0-3-3.105C928.555,390.707,928.479,390.663,928.341,390.585Z" transform="translate(-119.824)" fill="none" stroke="#fff" stroke-miterlimit="10" stroke-width="1"/>
    <path id="Path_2350" data-name="Path 2350" d="M1116.8,530.207c.1-.327.178-.587.249-.849a6.276,6.276,0,0,0,.218-2.261.586.586,0,0,1,.187-.518,4.954,4.954,0,0,0,1.453-4.278,5.561,5.561,0,0,0-.109-.6.3.3,0,0,1,.161-.369c.068-.029.212.037.282.1a5.112,5.112,0,0,1-1.92,8.635C1117.17,530.116,1117.014,530.15,1116.8,530.207Z" transform="translate(-289.745 -119.129)" fill="none" stroke="#fff" stroke-miterlimit="10" stroke-width="1"/>
    <path id="Path_2351" data-name="Path 2351" d="M805.651,464.234a4.85,4.85,0,0,1-.464-3.264,5.087,5.087,0,0,1,2.328-3.377,3.089,3.089,0,0,1,.013.311,6.877,6.877,0,0,0,.77,3.794c.068.129.105.224-.068.314a6.876,6.876,0,0,0-2.486,2.178C805.737,464.2,805.717,464.2,805.651,464.234Z" transform="translate(-8.692 -61.669)" fill="none" stroke="#fff" stroke-miterlimit="10" stroke-width="1"/>
  </g>
</svg>
