<svg xmlns="http://www.w3.org/2000/svg" width="508.29" height="509.83" viewBox="0 0 508.29 509.83"><path d="M497.22,0c2.8,2.22,6.16,4,8.28,6.74,4.38,5.67,3.48,12.56-1.85,19.12q-28.38,35-56.82,69.92-65.15,80.16-130.19,160.4a13,13,0,0,0-2.6,7.56q-.21,91.62,0,183.23c0,8.69-3.27,14.3-11.07,18.13C274.7,479,246.6,493.19,218.42,507.23c-13.42,6.68-24,.08-24-14.94q0-114-.13-228a14.49,14.49,0,0,0-2.88-8.45Q98.35,140.92,5,26.24-7.48,10.82,11.09,0ZM461.53,30.29H47.05c.82,1.13,1.26,1.81,1.77,2.44q82.71,101.82,165.51,203.53a9.05,9.05,0,0,0,6.23,2.7c21.91.2,43.81,0,65.72.21a10.3,10.3,0,0,0,9.16-4.31Q354.92,161.33,414.65,88C430.13,69,445.6,49.91,461.53,30.29ZM224.72,269.18V470.55c2.16-1,3.81-1.73,5.42-2.54,16.44-8.22,32.83-16.57,49.37-24.58,3.5-1.7,4.65-3.6,4.64-7.48q-.22-80.86-.1-161.73v-5Z"/></svg>