<?xml version="1.0" encoding="utf-8"?>
<!-- Generator: Adobe Illustrator 24.2.1, SVG Export Plug-In . SVG Version: 6.00 Build 0)  -->
<svg version="1.1" id="Layer_1" xmlns="http://www.w3.org/2000/svg" xmlns:xlink="http://www.w3.org/1999/xlink" x="0px" y="0px"
	 viewBox="0 0 197 238" style="enable-background:new 0 0 197 238;" xml:space="preserve">
<style type="text/css">
	.st0{fill:#F9B000;}
	.st1{fill:#3D195B;}
</style>
<g id="Non_active_1_">
	<g>
		
			<image style="overflow:visible;opacity:4.000000e-02;" width="180" height="249" xlink:href="E9B5B16CEC08D5CA.png"  transform="matrix(1 0 0 1 22 1)">
		</image>
		<g>
			<g>
				<path class="st0" d="M105,10c-41.3,0-74.8,33.5-74.8,74.8c0,28.7,36,84.3,58.1,132.6c6.5,14.2,26.9,14.2,33.4,0
					c22-48.2,58.1-103.9,58.1-132.6C179.8,43.5,146.3,10,105,10z M105,125c-22.2,0-40.3-18-40.3-40.3s18-40.3,40.3-40.3
					s40.3,18,40.3,40.3S127.2,125,105,125z"/>
			</g>
		</g>
	</g>
	<circle class="st1" cx="105" cy="84.6" r="40.2"/>
	<circle class="st0" cx="105" cy="84.6" r="28.7"/>
</g>
</svg>
