<?xml version="1.0" encoding="utf-8"?>
<!-- Generator: Adobe Illustrator 24.2.1, SVG Export Plug-In . SVG Version: 6.00 Build 0)  -->
<svg version="1.1" id="Layer_1" xmlns="http://www.w3.org/2000/svg" xmlns:xlink="http://www.w3.org/1999/xlink" x="0px" y="0px"
	 viewBox="0 0 197 238" style="enable-background:new 0 0 197 238;" xml:space="preserve">
<style type="text/css">
	.st0{fill:#3D195B;}
	.st1{fill:#F9B000;}
</style>
<g id="Non_active">
	<g>
		
			<image style="overflow:visible;opacity:4.000000e-02;" width="163" height="224" xlink:href="24D2A1DF0AA6E957.png"  transform="matrix(1 0 0 1 31 11)">
		</image>
		<g>
			<g>
				<path class="st0" d="M105.7,19.7C69,19.7,39.4,49.4,39.4,86c0,25.4,32,74.8,51.5,117.6c5.8,12.6,23.8,12.6,29.6,0
					C140,160.8,172,111.4,172,86C172,49.4,142.3,19.7,105.7,19.7z M105.7,121.7c-19.7,0-35.7-16-35.7-35.7s16-35.7,35.7-35.7
					s35.7,16,35.7,35.7S125.4,121.7,105.7,121.7z"/>
			</g>
		</g>
	</g>
	<circle class="st1" cx="105.7" cy="85.8" r="35.6"/>
	<circle class="st0" cx="105.7" cy="85.8" r="25.4"/>
</g>
<g id="Non_active_1_">
	<g>
		
			<image style="overflow:visible;opacity:4.000000e-02;" width="57" height="69" xlink:href="24D2A1DF0AA6E955.png"  transform="matrix(1 0 0 1 951 503)">
		</image>
		<g>
			<g>
				<path class="st1" d="M972.7,511.3c-7.2,0-13,5.8-13,13c0,5,6.3,14.7,10.1,23.1c1.1,2.5,4.7,2.5,5.8,0
					c3.8-8.4,10.1-18.1,10.1-23.1C985.7,517.2,979.9,511.3,972.7,511.3z M972.7,531.4c-3.9,0-7-3.1-7-7s3.1-7,7-7s7,3.1,7,7
					S976.5,531.4,972.7,531.4z"/>
			</g>
		</g>
	</g>
	<circle class="st0" cx="972.7" cy="524.3" r="7"/>
	<circle class="st1" cx="972.7" cy="524.3" r="5"/>
</g>
</svg>
