<svg id="Group_61" data-name="Group 61" xmlns="http://www.w3.org/2000/svg" width="33.852" height="27.638" viewBox="0 0 33.852 27.638">
  <g id="Group_54" data-name="Group 54" transform="translate(8.867 0)">
    <g id="Group_53" data-name="Group 53">
      <path id="Path_2244" data-name="Path 2244" d="M148.709,48.254a17.153,17.153,0,0,0-13.052.051l-.029.012a2.364,2.364,0,0,0-1.51,2.4.661.661,0,1,0,1.315-.139,1.055,1.055,0,0,1,.707-1.041l.029-.012a15.82,15.82,0,0,1,12.039-.047,1.047,1.047,0,0,1,.715,1.076.661.661,0,1,0,1.31.181A2.349,2.349,0,0,0,148.709,48.254Z" transform="translate(-134.105 -46.99)" fill="#fff"/>
    </g>
  </g>
  <g id="Group_56" data-name="Group 56" transform="translate(0 2.239)">
    <g id="Group_55" data-name="Group 55">
      <path id="Path_2245" data-name="Path 2245" d="M33.15,82.464a3.8,3.8,0,0,0-5.227-.968l-1.02.678a8.864,8.864,0,0,1-6.477,1.351l-.974-.172a14.68,14.68,0,0,0-5.056,0l-.974.172a8.863,8.863,0,0,1-6.477-1.351L5.926,81.5a3.82,3.82,0,0,0-4.562,6.113l1.52,1.27.017.014a.075.075,0,0,1,.026.05,3.9,3.9,0,0,0,1.135,2.17A3.919,3.919,0,0,0,6.184,92.24,2.41,2.41,0,0,0,8.3,91.63a2.41,2.41,0,0,0,.61-2.113,3.919,3.919,0,0,0-1.128-2.122,3.983,3.983,0,0,0-1.975-1.1.873.873,0,0,1-.416-.23c-.028-.026-.057-.052-.087-.077L3.779,84.715a.054.054,0,0,1-.009-.068.047.047,0,0,1,.069-.013l1.02.678a12.664,12.664,0,0,0,5.436,2.02,4.706,4.706,0,0,1,.574,4.211,5.157,5.157,0,0,0-.3,2.007,5.519,5.519,0,0,0,1.195,3.128,11.01,11.01,0,0,1,2.346,6.828v2.082a.661.661,0,0,0,.661.661h4.3a.661.661,0,0,0,.661-.661v-2.081a11.381,11.381,0,0,1,2.419-6.891A5.469,5.469,0,0,0,23.3,93.3a5.16,5.16,0,0,0-.283-1.687,4.909,4.909,0,0,1,.555-4.278,12.627,12.627,0,0,0,5.417-2.02l1-.665a.077.077,0,0,1,.081-.009.046.046,0,0,1,.016.038.052.052,0,0,1-.017.038l-1.522,1.271c-.033.027-.065.056-.1.088a5.218,5.218,0,0,1-1.215.881,4.232,4.232,0,0,0-.976.694,3.919,3.919,0,0,0-1.186,2.09,2.276,2.276,0,0,0,2.647,2.8,3.919,3.919,0,0,0,2.153-1.069,3.675,3.675,0,0,0,1.236-2.71l1.378-1.151A3.838,3.838,0,0,0,33.15,82.464ZM21.767,92.042a3.841,3.841,0,0,1,.211,1.256,4.158,4.158,0,0,1-.879,2.521,12.69,12.69,0,0,0-2.687,7.69v1.42H15.434v-1.421a12.32,12.32,0,0,0-2.626-7.641,4.206,4.206,0,0,1-.917-2.379,3.839,3.839,0,0,1,.224-1.495,5.908,5.908,0,0,0-.251-4.562,12.646,12.646,0,0,0,1.443-.082l0,.39a5.2,5.2,0,0,0,1.664,3.773l1.29,1.192V94.4a.661.661,0,0,0,1.322,0V92.7l1.29-1.192a5.2,5.2,0,0,0,1.664-3.773l0-.39a12.772,12.772,0,0,0,1.451.083h.021A6.15,6.15,0,0,0,21.767,92.042Zm9.87-5.448-1.523,1.272a.954.954,0,0,0-.336.836,2.352,2.352,0,0,1-.816,1.807,2.629,2.629,0,0,1-1.413.718,1.132,1.132,0,0,1-.966-.266c-.486-.514-.219-1.59.583-2.35a2.91,2.91,0,0,1,.67-.478,6.536,6.536,0,0,0,1.525-1.1L29.395,87l1.522-1.271a1.375,1.375,0,0,0,.071-2.044,1.4,1.4,0,0,0-1.731-.141l-1,.665a11.289,11.289,0,0,1-6.264,1.9A11.45,11.45,0,0,1,20.423,86a1.055,1.055,0,0,0-1.2,1.037l0,.693a3.869,3.869,0,0,1-1.239,2.81l-1.054.973-1.054-.974a3.869,3.869,0,0,1-1.239-2.81l0-.693a1.054,1.054,0,0,0-1.056-1.047,1.067,1.067,0,0,0-.146.01,11.328,11.328,0,0,1-7.834-1.789l-1.02-.678a1.373,1.373,0,0,0-1.64,2.2L4.453,87l.026.023a2.192,2.192,0,0,0,1.059.565,2.649,2.649,0,0,1,1.305.741A2.628,2.628,0,0,1,7.6,89.722a1.132,1.132,0,0,1-.239.973,1.133,1.133,0,0,1-.973.239A2.629,2.629,0,0,1,5,90.177a2.607,2.607,0,0,1-.761-1.42,1.4,1.4,0,0,0-.5-.892L2.211,86.594a2.5,2.5,0,0,1,2.983-4l1.02.678a10.178,10.178,0,0,0,7.439,1.552l.974-.172a13.344,13.344,0,0,1,4.595,0l.974.172a10.179,10.179,0,0,0,7.439-1.552l1.02-.678a2.486,2.486,0,0,1,3.418.633h0A2.509,2.509,0,0,1,31.637,86.594Z" transform="translate(0.002 -80.851)" fill="#fff"/>
    </g>
  </g>
  <g id="Group_58" data-name="Group 58" transform="translate(16.279 17.109)">
    <g id="Group_57" data-name="Group 57">
      <path id="Path_2246" data-name="Path 2246" d="M247.339,305.944a.661.661,0,1,0,.194.468A.666.666,0,0,0,247.339,305.944Z" transform="translate(-246.21 -305.751)" fill="#fff"/>
    </g>
  </g>
  <g id="Group_60" data-name="Group 60" transform="translate(15.363 19.213)">
    <g id="Group_59" data-name="Group 59">
      <path id="Path_2247" data-name="Path 2247" d="M235.319,337.773a.661.661,0,0,0-.935,0,.637.637,0,0,1-.9,0,.661.661,0,1,0-.935.935,1.961,1.961,0,0,0,2.771,0A.661.661,0,0,0,235.319,337.773Z" transform="translate(-232.355 -337.579)" fill="#fff"/>
    </g>
  </g>
</svg>
