<svg id="Layer_1-2" data-name="Layer 1-2" xmlns="http://www.w3.org/2000/svg" width="38.208" height="39.26" viewBox="0 0 38.208 39.26">
  <path id="Path_2237" data-name="Path 2237" d="M59.808,42.976v.839c0,.067-.019.134-.019.21a11.471,11.471,0,0,1-.113,1.469,19.645,19.645,0,0,1-.531,2.558,9.093,9.093,0,0,1-1.393,2.967,15.54,15.54,0,0,1-2.2,2.468,20.259,20.259,0,0,1-6.547,3.949,7.714,7.714,0,0,1-1.5.43,8.84,8.84,0,0,1-.94.107,4.994,4.994,0,0,1-1.691-.147,3.28,3.28,0,0,1-2.14-1.767,2.114,2.114,0,0,1-.21-.955V38.571a1.393,1.393,0,0,1,.281-.839,2.628,2.628,0,0,1,.447-.457,5.08,5.08,0,0,1,.707-.466c.4-.227.8-.449,1.2-.674.065-.038.128-.08.21-.124-.061-.067-.113-.126-.168-.18l-2.057-2.054c-.311-.311-.63-.617-.932-.925a.5.5,0,0,0-.361-.157H40.008a.461.461,0,0,0-.325.134l-3.232,3.219c-.038.04-.071.084-.111.13l.086.055.317.174a16.169,16.169,0,0,1,1.469.93,1.768,1.768,0,0,1,.241.21,1.58,1.58,0,0,1,.439,1.137V55.127a2.04,2.04,0,0,1-.187.883,3.347,3.347,0,0,1-1.049,1.274,3.272,3.272,0,0,1-1.259.575,5.642,5.642,0,0,1-.858.128,6.654,6.654,0,0,1-1.767-.166,11.7,11.7,0,0,1-2.065-.659,21.831,21.831,0,0,1-3.374-1.792,17.357,17.357,0,0,1-4.226-3.777,9.79,9.79,0,0,1-1.752-3.246c-.191-.63-.336-1.259-.464-1.889a13.328,13.328,0,0,1-.21-1.469c-.025-.308-.04-.63-.063-.93a.827.827,0,0,0-.017-.1v-.993a.239.239,0,0,0,.017-.069c0-.248.017-.5.019-.745V31.489a3.159,3.159,0,0,1,.111-.839,5.734,5.734,0,0,1,.793-1.635,4.031,4.031,0,0,1,1.679-1.433l.346-.162c.7-.332,1.406-.653,2.136-.913a4.675,4.675,0,0,1,.938-.248.726.726,0,0,1,.779.405,1.471,1.471,0,0,1,.086.243c.052.183.1.367.149.548a12.963,12.963,0,0,0,1.8,3.84,11.665,11.665,0,0,0,.783,1,1.664,1.664,0,0,0,.149.149c.071-.065.134-.118.2-.174q2.906-2.709,5.809-5.41a.5.5,0,0,0,.172-.4V18.837a.1.1,0,0,1,.1-.1h6.3a.709.709,0,0,1,.094,0,.094.094,0,0,1,.09.1V26.3a.561.561,0,0,0,.189.441c.13.118.258.239.386.359l5.349,4.971c.027.025.055.052.084.076.065.052.094.052.151,0a1.311,1.311,0,0,0,.1-.118,11.831,11.831,0,0,0,1.528-2.4,13.977,13.977,0,0,0,.936-2.552,3.245,3.245,0,0,1,.111-.367.707.707,0,0,1,.814-.449c.132.023.264.05.395.078a5.779,5.779,0,0,1,1,.359c.787.334,1.572.669,2.336,1.049a3.385,3.385,0,0,1,1.062.839,4.836,4.836,0,0,1,.839,1.444c.1.273.185.554.283.839a1.417,1.417,0,0,1,.071.457c0,.9-.015,1.792-.015,2.688v3.817c0,1.03.017,2.061.023,3.091,0,.6,0,1.194.01,1.79A2.3,2.3,0,0,0,59.808,42.976ZM28.84,49.039a.9.9,0,0,0-.107.061c-.193.155-.382.315-.579.466a4.343,4.343,0,0,1-.42.285.94.94,0,0,1-.491.141H25.826c-.12,0-.153-.036-.153-.153v-.953c0-.124.036-.168.172-.17h1.049a.671.671,0,0,0,.439-.155c.382-.3.768-.606,1.154-.909.162-.126.168-.164.05-.327l-3.96-5.5c-.229-.315-.455-.63-.684-.949-.088-.124-.078-.174.05-.262l.025-.017c.225-.162.449-.319.672-.483.17-.126.21-.122.329.052l2.571,3.591c.048.067.094.134.145.21a.331.331,0,0,0,.275.139h5.183a.455.455,0,0,0,.35-.149l.055-.063,3.664-4.1a2.366,2.366,0,0,0,.225-.3,1.182,1.182,0,0,0,.151-.9.33.33,0,0,0-.13-.21,7.086,7.086,0,0,0-.791-.527,29.068,29.068,0,0,1-4.627-3.083,14.031,14.031,0,0,1-2.382-2.388l-.069-.08-2.115,2.231.126.061,1.469.68c.359.166.72.332,1.081.493a.267.267,0,0,1,.18.271v5.131c0,.12-.027.136-.143.141h-.911c-.21,0-.235-.021-.235-.227v-4.2a.3.3,0,0,0-.21-.311c-.432-.193-.852-.395-1.286-.583-.063-.029-.128-.055-.191-.08a.382.382,0,0,0-.069,0v2.709a.111.111,0,0,1-.107.115h-.963c-.2,0-.227-.029-.227-.227V34.462a.558.558,0,0,1,.159-.42c.808-.839,1.61-1.7,2.415-2.543.063-.067.128-.134.191-.21a.2.2,0,0,0,.029-.239c-.013-.027-.029-.052-.044-.08-.13-.243-.264-.485-.388-.73A15.416,15.416,0,0,1,27.4,27.8c-.061-.21-.071-.21-.267-.124-.388.168-.781.332-1.169.5s-.839.365-1.259.562a3.021,3.021,0,0,0-1.427,1.536c-.09.189-.157.388-.229.585a1.684,1.684,0,0,0-.1.556V36.38c0,1.1-.013,2.157-.021,3.236,0,.818-.021,1.635-.027,2.451,0,.873-.029,1.746.044,2.617.034.374.078.747.134,1.116a16.972,16.972,0,0,0,.42,1.828,7.8,7.8,0,0,0,.951,2.235,12.774,12.774,0,0,0,1.943,2.344,18.275,18.275,0,0,0,5.456,3.614,13.847,13.847,0,0,0,1.958.718,4.845,4.845,0,0,0,2.067.134,2.208,2.208,0,0,0,1.555-1,1.067,1.067,0,0,0,.183-.6V41.383c0-.073-.015-.073-.063-.076-.05.067-.1.134-.151.2L36.342,42.67l-1.92,2.157a.476.476,0,0,0-.141.346v3.186c0,.321-.015.64-.015.961a1.724,1.724,0,0,0,.4,1.127c.065.078.128.155.185.237.283.395.564.791.839,1.188l.084.118a.069.069,0,0,1,0,.1h0c-.019.017-.038.029-.057.044l-.839.609-.076.046-.122-.157L33.15,50.485a.717.717,0,0,1-.136-.42v-4.6a.082.082,0,0,0-.077-.086h-4.22l.132.21L30.225,47.5a.377.377,0,0,1,.071.29c-.031.2-.048.4-.071.6-.057.516-.113,1.028-.174,1.54s-.122,1.037-.183,1.572c-.019.159-.04.319-.061.483h-.122c-.193-.021-.384-.044-.577-.063l-.39-.042c-.13-.013-.174-.067-.162-.21v-.04c.025-.21.048-.42.071-.617.04-.336.078-.669.115-1.005.031-.279.061-.556.088-.839A.5.5,0,0,0,28.84,49.039ZM51.817,32.307c-.162.189-.317.361-.462.539a12.124,12.124,0,0,1-1.507,1.519A26.7,26.7,0,0,1,45.173,37.6c-.42.233-.818.5-1.219.762a.313.313,0,0,0-.149.279v.476a.577.577,0,0,0,.164.39l3.926,4.407a.484.484,0,0,0,.4.18h5.036a.5.5,0,0,0,.483-.252l.013-.017,2.7-3.756.067-.088.044.027.858.613.042.031c.067.057.073.084.027.157a1.348,1.348,0,0,1-.086.128l-4.579,6.377a.95.95,0,0,0-.076.111.1.1,0,0,0,0,.136h.01a.373.373,0,0,0,.055.048l1.226.967a.583.583,0,0,0,.384.13h1.035c.174,0,.21.029.21.21v.839c0,.21-.027.237-.237.235H54.322a1.323,1.323,0,0,1-.913-.325c-.241-.21-.5-.392-.747-.588-.023-.017-.048-.029-.09-.055v.153c0,.044.013.094.017.143l.139,1.2c.044.38.086.76.13,1.139a1.021,1.021,0,0,1,0,.113.078.078,0,0,1-.065.082.567.567,0,0,1-.082.015l-.839.09a1.669,1.669,0,0,1-.174.017c-.069,0-.09-.017-.109-.084a.543.543,0,0,1-.01-.061c-.023-.21-.044-.432-.069-.648-.042-.374-.088-.745-.132-1.119s-.09-.76-.134-1.139-.088-.76-.139-1.139a.419.419,0,0,1,.076-.306c.466-.63.925-1.28,1.387-1.92.044-.061.082-.126.132-.21h-4.08c-.21,0-.21,0-.21.21v4.52a.6.6,0,0,1-.111.359q-.783,1.1-1.57,2.2a1.526,1.526,0,0,1-.107.126c-.311-.21-.617-.432-.919-.648-.084-.061-.09-.113-.031-.21l.052-.076,1.259-1.775a.7.7,0,0,0,.136-.42v-4.47A.464.464,0,0,0,47,44.852l-.069-.078L44.369,41.9a4.711,4.711,0,0,1-.493-.588.063.063,0,0,0-.068.058.057.057,0,0,0,0,.013V55.02a1.259,1.259,0,0,0,.243.753,2.1,2.1,0,0,0,.684.63,2.677,2.677,0,0,0,1.049.319A4.691,4.691,0,0,0,47.1,56.65a8.159,8.159,0,0,0,1.54-.434,19.542,19.542,0,0,0,5-2.791,15.22,15.22,0,0,0,2.925-2.948,7.5,7.5,0,0,0,1.139-2.1,17.078,17.078,0,0,0,.7-3.079,13.772,13.772,0,0,0,.13-2.258q-.042-1.482-.061-2.967c-.013-.961-.015-1.922-.013-2.885,0-1.335.013-2.667.021-4,0-.42,0-.839.015-1.259a3.533,3.533,0,0,0-.065-.772,4.086,4.086,0,0,0-.63-1.431,2.505,2.505,0,0,0-.919-.839,20.194,20.194,0,0,0-2.64-1.177c-.189-.069-.2-.063-.258.134a14.829,14.829,0,0,1-1.33,3.148c-.017.029-.031.061-.048.092a.185.185,0,0,0,.023.21c.021.027.044.052.067.078l2.56,2.686a.57.57,0,0,1,.168.42v4.1c0,.122-.046.168-.168.168H54.127V35.885c-.065.025-.113.04-.159.061-.441.21-.879.42-1.326.6a.392.392,0,0,0-.262.405v4.138c0,.2-.029.225-.229.222h-.816c-.21,0-.254-.029-.254-.246V36.085a.309.309,0,0,1,.21-.321c.3-.13.59-.269.883-.4l1.633-.755.136-.071Zm-7.16-3.492a.972.972,0,0,0-.1-.111c-.21-.21-.432-.4-.642-.6a.515.515,0,0,0-.39-.139H38.315a.521.521,0,0,0-.376.143l-.63.573c-.111.1-.111.149,0,.256l.044.044.791.789,1.494,1.49a.525.525,0,0,0,.4.164c.579,0,1.158,0,1.738.01a.6.6,0,0,0,.47-.193c.7-.7,1.4-1.4,2.1-2.1ZM35.19,35.48c.057-.055.109-.1.157-.147l3.125-3.127c.136-.139.139-.159,0-.3l-1.859-1.857c-.084-.084-.168-.172-.254-.256s-.149-.1-.26,0l-.015.015-.55.52L32.451,33.2c-.126.115-.126.145,0,.25a26.394,26.394,0,0,0,2.577,1.941Zm14.131-2.334c-.061-.061-.122-.13-.189-.193l-3.005-2.8c-.136-.126-.271-.254-.42-.38-.084-.076-.132-.073-.21,0l-.05.052-2.1,2.1a.744.744,0,0,0-.055.063.118.118,0,0,0,0,.159.854.854,0,0,0,.084.09l2.938,2.938c.139.141.174.149.334.034.46-.334.921-.667,1.377-1.007.21-.164.42-.338.63-.51l.665-.546Zm-8.453-9.082h1.851c.115,0,.149-.036.149-.147V22.749c0-.118-.038-.151-.157-.155H39.064a1.02,1.02,0,0,0-.113,0,.111.111,0,0,0-.107.094.514.514,0,0,0-.013.113v1.1c0,.113.044.155.155.166h1.889Zm0,1.274H39.016c-.145,0-.185.042-.187.185v.919a.61.61,0,0,0,0,.124.113.113,0,0,0,.109.107.511.511,0,0,0,.113,0h3.567a.61.61,0,0,0,.124,0,.1.1,0,0,0,.1-.1h0V25.519a.429.429,0,0,0,0-.073.118.118,0,0,0-.1-.109H40.854Zm0-4.014h1.863c.107,0,.141-.042.143-.149s0-.22,0-.332v-.7c0-.1-.034-.134-.134-.143H38.963c-.1,0-.132.046-.139.145v1.022a.143.143,0,0,0,.126.157.119.119,0,0,0,.027,0H40.85Z" transform="translate(-21.6 -18.733)" fill="#fff"/>
</svg>
