<svg width="56" height="57" viewBox="0 0 56 57" fill="none" xmlns="http://www.w3.org/2000/svg">
<g clip-path="url(#clip0)">
<path d="M4.69109 5.58002H2.89109C2.25656 5.57857 1.64352 5.80982 1.16805 6.23001C0.692576 6.65019 0.387679 7.23013 0.311086 7.86002L0.0710864 9.96002C0.0557421 10.0273 0.0546599 10.097 0.0679097 10.1647C0.0811595 10.2325 0.108447 10.2966 0.148015 10.3532C0.187583 10.4097 0.238553 10.4573 0.297642 10.4929C0.356731 10.5286 0.422627 10.5514 0.491086 10.56C0.851086 10.62 1.27109 10.68 1.69109 10.74L1.99109 15.72C1.99367 15.9102 2.07036 16.0918 2.20483 16.2263C2.3393 16.3607 2.52094 16.4374 2.71109 16.44H4.99109C5.08666 16.4438 5.18198 16.4278 5.27105 16.393C5.36013 16.3581 5.44103 16.3052 5.50866 16.2376C5.57629 16.17 5.62919 16.0891 5.66403 16C5.69887 15.9109 5.71489 15.8156 5.71109 15.72L6.01109 10.74C6.43109 10.68 6.79109 10.62 7.21109 10.56C7.34391 10.5315 7.46104 10.4538 7.53894 10.3425C7.61685 10.2312 7.64977 10.0946 7.63109 9.96002L7.39109 7.86002C7.27863 7.22426 6.94692 6.64802 6.45364 6.23147C5.96036 5.81493 5.3367 5.58442 4.69109 5.58002Z" fill="white"/>
<path d="M3.79105 4.92C5.14968 4.92 6.25105 3.81862 6.25105 2.46C6.25105 1.10138 5.14968 0 3.79105 0C2.43243 0 1.33105 1.10138 1.33105 2.46C1.33105 3.81862 2.43243 4.92 3.79105 4.92Z" fill="white"/>
<path d="M20.831 5.58002H19.031C18.3965 5.57857 17.7834 5.80982 17.3079 6.23001C16.8325 6.65019 16.5276 7.23013 16.451 7.86002L16.211 9.96002C16.1956 10.0273 16.1946 10.097 16.2078 10.1647C16.2211 10.2325 16.2483 10.2966 16.2879 10.3532C16.3275 10.4097 16.3784 10.4573 16.4375 10.4929C16.4966 10.5286 16.5625 10.5514 16.631 10.56C16.991 10.62 17.411 10.68 17.831 10.74L18.131 15.72C18.1336 15.9102 18.2103 16.0918 18.3447 16.2263C18.4792 16.3607 18.6608 16.4374 18.851 16.44H21.131C21.2265 16.4438 21.3219 16.4278 21.4109 16.393C21.5 16.3581 21.5809 16.3052 21.6486 16.2376C21.7162 16.17 21.7691 16.0891 21.8039 16C21.8388 15.9109 21.8548 15.8156 21.851 15.72L22.151 10.74C22.571 10.68 22.931 10.62 23.351 10.56C23.4838 10.5315 23.6009 10.4538 23.6788 10.3425C23.7567 10.2312 23.7897 10.0946 23.771 9.96002L23.531 7.86002C23.4098 7.22838 23.0756 6.65742 22.5842 6.24247C22.0929 5.82751 21.474 5.59369 20.831 5.58002Z" fill="white"/>
<path d="M19.9311 4.92C21.2897 4.92 22.3911 3.81862 22.3911 2.46C22.3911 1.10138 21.2897 0 19.9311 0C18.5724 0 17.4711 1.10138 17.4711 2.46C17.4711 3.81862 18.5724 4.92 19.9311 4.92Z" fill="white"/>
<path d="M36.971 5.58002H35.171C34.5365 5.57857 33.9234 5.80982 33.448 6.23001C32.9725 6.65019 32.6676 7.23013 32.591 7.86002L32.351 9.96002C32.3356 10.0273 32.3346 10.097 32.3478 10.1647C32.3611 10.2325 32.3884 10.2966 32.4279 10.3532C32.4675 10.4097 32.5185 10.4573 32.5775 10.4929C32.6366 10.5286 32.7025 10.5514 32.771 10.56C33.131 10.62 33.551 10.68 33.971 10.74L34.271 15.72C34.2736 15.9102 34.3503 16.0918 34.4847 16.2263C34.6192 16.3607 34.8008 16.4374 34.991 16.44H37.271C37.3666 16.4438 37.4619 16.4278 37.551 16.393C37.64 16.3581 37.7209 16.3052 37.7886 16.2376C37.8562 16.17 37.9091 16.0891 37.9439 16C37.9788 15.9109 37.9948 15.8156 37.991 15.72L38.291 10.74C38.711 10.68 39.071 10.62 39.491 10.56C39.6238 10.5315 39.7409 10.4538 39.8189 10.3425C39.8968 10.2312 39.9297 10.0946 39.911 9.96002L39.671 7.86002C39.5498 7.22838 39.2157 6.65742 38.7243 6.24247C38.2329 5.82751 37.614 5.59369 36.971 5.58002Z" fill="white"/>
<path d="M36.011 4.92C37.3696 4.92 38.471 3.81862 38.471 2.46C38.471 1.10138 37.3696 0 36.011 0C34.6524 0 33.551 1.10138 33.551 2.46C33.551 3.81862 34.6524 4.92 36.011 4.92Z" fill="white"/>
<path d="M48.7921 10.62C49.1521 10.68 49.5721 10.74 49.9921 10.8L50.2921 15.78C50.2947 15.9702 50.3714 16.1518 50.5058 16.2863C50.6403 16.4207 50.8219 16.4974 51.0121 16.5H53.2921C53.3876 16.5038 53.483 16.4878 53.572 16.453C53.6611 16.4181 53.742 16.3652 53.8096 16.2976C53.8773 16.23 53.9302 16.1491 53.965 16.06C53.9999 15.9709 54.0159 15.8756 54.0121 15.78L54.3121 10.8C54.7321 10.74 55.0921 10.68 55.5121 10.62C55.6449 10.5915 55.762 10.5138 55.8399 10.4025C55.9178 10.2912 55.9508 10.1546 55.9321 10.02L55.6921 7.92002C55.6155 7.29013 55.3106 6.71019 54.8351 6.29C54.3596 5.86982 53.7466 5.63856 53.1121 5.64002H51.3121C50.6776 5.63856 50.0645 5.86982 49.589 6.29C49.1136 6.71019 48.8087 7.29013 48.7321 7.92002L48.4921 10.02C48.4684 10.0789 48.4575 10.142 48.4601 10.2054C48.4627 10.2687 48.4787 10.3308 48.507 10.3876C48.5354 10.4443 48.5754 10.4943 48.6246 10.5344C48.6737 10.5745 48.7308 10.6037 48.7921 10.62Z" fill="white"/>
<path d="M52.151 4.92C53.5097 4.92 54.611 3.81862 54.611 2.46C54.611 1.10138 53.5097 0 52.151 0C50.7924 0 49.691 1.10138 49.691 2.46C49.691 3.81862 50.7924 4.92 52.151 4.92Z" fill="white"/>
<path d="M12.731 15.72H10.931C10.2965 15.7185 9.68344 15.9498 9.20797 16.37C8.73249 16.7902 8.4276 17.3701 8.351 18L8.111 20.1C8.09566 20.1673 8.09458 20.237 8.10783 20.3047C8.12108 20.3724 8.14837 20.4366 8.18793 20.4932C8.2275 20.5497 8.27847 20.5973 8.33756 20.6329C8.39665 20.6685 8.46254 20.6914 8.531 20.7C8.891 20.76 9.311 20.82 9.731 20.88L10.031 25.86C10.0336 26.0502 10.1103 26.2318 10.2447 26.3663C10.3792 26.5007 10.5609 26.5774 10.751 26.58H12.971C13.0666 26.5838 13.1619 26.5678 13.251 26.5329C13.34 26.4981 13.4209 26.4452 13.4886 26.3776C13.5562 26.3099 13.6091 26.229 13.6439 26.14C13.6788 26.0509 13.6948 25.9556 13.691 25.86L13.991 20.88C14.411 20.82 14.771 20.76 15.191 20.7C15.3238 20.6715 15.441 20.5938 15.5189 20.4825C15.5968 20.3712 15.6297 20.2346 15.611 20.1L15.371 18C15.2808 17.3651 14.9638 16.7843 14.4784 16.3651C13.9931 15.946 13.3723 15.7168 12.731 15.72Z" fill="white"/>
<path d="M11.831 15.06C13.1896 15.06 14.291 13.9586 14.291 12.6C14.291 11.2414 13.1896 10.14 11.831 10.14C10.4724 10.14 9.37097 11.2414 9.37097 12.6C9.37097 13.9586 10.4724 15.06 11.831 15.06Z" fill="white"/>
<path d="M28.871 15.72H27.071C26.4365 15.7185 25.8235 15.9498 25.348 16.37C24.8725 16.7901 24.5676 17.3701 24.491 18L24.251 20.1C24.2357 20.1672 24.2346 20.237 24.2478 20.3047C24.2611 20.3724 24.2884 20.4366 24.3279 20.4931C24.3675 20.5497 24.4185 20.5973 24.4776 20.6329C24.5367 20.6685 24.6026 20.6914 24.671 20.7C25.031 20.76 25.451 20.82 25.871 20.88L26.171 25.86C26.1736 26.0501 26.2503 26.2318 26.3848 26.3662C26.5192 26.5007 26.7009 26.5774 26.891 26.58H29.171C29.2666 26.5838 29.3619 26.5678 29.451 26.5329C29.5401 26.4981 29.621 26.4452 29.6886 26.3776C29.7562 26.3099 29.8091 26.229 29.844 26.1399C29.8788 26.0509 29.8948 25.9555 29.891 25.86L30.191 20.88C30.611 20.82 30.971 20.76 31.391 20.7C31.5238 20.6715 31.641 20.5938 31.7189 20.4825C31.7968 20.3712 31.8297 20.2345 31.811 20.1L31.571 18C31.4586 17.3642 31.1269 16.788 30.6336 16.3714C30.1403 15.9549 29.5166 15.7244 28.871 15.72Z" fill="white"/>
<path d="M27.971 15.06C29.3296 15.06 30.431 13.9586 30.431 12.6C30.431 11.2414 29.3296 10.14 27.971 10.14C26.6124 10.14 25.511 11.2414 25.511 12.6C25.511 13.9586 26.6124 15.06 27.971 15.06Z" fill="white"/>
<path d="M45.011 15.72H43.211C42.5765 15.7185 41.9635 15.9498 41.488 16.37C41.0125 16.7901 40.7076 17.3701 40.631 18L40.391 20.1C40.3757 20.1672 40.3746 20.237 40.3879 20.3047C40.4011 20.3724 40.4284 20.4366 40.468 20.4931C40.5075 20.5497 40.5585 20.5973 40.6176 20.6329C40.6767 20.6685 40.7426 20.6914 40.811 20.7C41.171 20.76 41.591 20.82 42.011 20.88L42.311 25.86C42.3136 26.0501 42.3903 26.2318 42.5248 26.3662C42.6592 26.5007 42.8409 26.5774 43.031 26.58H45.311C45.4066 26.5838 45.5019 26.5678 45.591 26.5329C45.6801 26.4981 45.761 26.4452 45.8286 26.3776C45.8962 26.3099 45.9491 26.229 45.984 26.1399C46.0188 26.0509 46.0348 25.9555 46.031 25.86L46.331 20.88C46.751 20.82 47.111 20.76 47.531 20.7C47.6639 20.6715 47.781 20.5938 47.8589 20.4825C47.9368 20.3712 47.9697 20.2345 47.951 20.1L47.711 18C47.5986 17.3642 47.2669 16.788 46.7736 16.3714C46.2803 15.9549 45.6566 15.7244 45.011 15.72Z" fill="white"/>
<path d="M44.111 15.06C45.4696 15.06 46.571 13.9586 46.571 12.6C46.571 11.2414 45.4696 10.14 44.111 10.14C42.7524 10.14 41.651 11.2414 41.651 12.6C41.651 13.9586 42.7524 15.06 44.111 15.06Z" fill="white"/>
<path d="M4.69103 25.86H2.89103C2.2565 25.8585 1.64346 26.0898 1.16799 26.51C0.692518 26.9302 0.38762 27.5101 0.311028 28.14L0.0110278 30.3C-0.00431648 30.3673 -0.00539867 30.437 0.00785114 30.5047C0.021101 30.5724 0.0483889 30.6366 0.0879567 30.6931C0.127525 30.7497 0.178495 30.7973 0.237583 30.8329C0.296672 30.8685 0.362569 30.8914 0.431028 30.9C0.791028 30.96 1.21103 31.02 1.63103 31.08L1.93103 36.06C1.93362 36.2501 2.0103 36.4318 2.14477 36.5662C2.27924 36.7007 2.46088 36.7774 2.65103 36.78H4.93103C5.0266 36.7838 5.12192 36.7678 5.21099 36.7329C5.30007 36.6981 5.38097 36.6452 5.4486 36.5776C5.51623 36.5099 5.56913 36.429 5.60397 36.34C5.63881 36.2509 5.65483 36.1556 5.65103 36.06L5.95103 31.08C6.37103 31.02 6.73103 30.96 7.15103 30.9C7.28385 30.8715 7.40098 30.7938 7.47889 30.6825C7.55679 30.5712 7.58971 30.4346 7.57103 30.3L7.33103 28.2C7.25409 27.5543 6.94274 26.9592 6.45609 26.5279C5.96943 26.0965 5.34134 25.8589 4.69103 25.86Z" fill="white"/>
<path d="M3.79105 25.2C5.14968 25.2 6.25105 24.0986 6.25105 22.74C6.25105 21.3814 5.14968 20.28 3.79105 20.28C2.43243 20.28 1.33105 21.3814 1.33105 22.74C1.33105 24.0986 2.43243 25.2 3.79105 25.2Z" fill="white"/>
<path d="M20.831 25.86H19.031C18.3965 25.8585 17.7835 26.0898 17.308 26.51C16.8325 26.9302 16.5276 27.5101 16.451 28.14L16.151 30.3C16.1357 30.3673 16.1346 30.437 16.1479 30.5047C16.1611 30.5724 16.1884 30.6366 16.228 30.6931C16.2675 30.7497 16.3185 30.7973 16.3776 30.8329C16.4367 30.8685 16.5026 30.8914 16.571 30.9C16.931 30.96 17.351 31.02 17.771 31.08L18.071 36.06C18.0736 36.2501 18.1503 36.4318 18.2848 36.5662C18.4193 36.7007 18.6009 36.7774 18.791 36.78H21.071C21.1666 36.7838 21.2619 36.7678 21.351 36.7329C21.4401 36.6981 21.521 36.6452 21.5886 36.5776C21.6562 36.5099 21.7091 36.429 21.744 36.34C21.7788 36.2509 21.7948 36.1556 21.791 36.06L22.091 31.08C22.511 31.02 22.871 30.96 23.291 30.9C23.4239 30.8715 23.541 30.7938 23.6189 30.6825C23.6968 30.5712 23.7297 30.4346 23.711 30.3L23.471 28.2C23.3848 27.5582 23.0707 26.9688 22.586 26.5392C22.1014 26.1097 21.4786 25.8686 20.831 25.86Z" fill="white"/>
<path d="M19.9311 25.2C21.2897 25.2 22.3911 24.0986 22.3911 22.74C22.3911 21.3814 21.2897 20.28 19.9311 20.28C18.5724 20.28 17.4711 21.3814 17.4711 22.74C17.4711 24.0986 18.5724 25.2 19.9311 25.2Z" fill="white"/>
<path d="M36.9711 25.86H35.1711C34.5365 25.8585 33.9235 26.0898 33.448 26.51C32.9725 26.9302 32.6676 27.5101 32.5911 28.14L32.2911 30.3C32.2757 30.3673 32.2746 30.437 32.2879 30.5047C32.3011 30.5724 32.3284 30.6366 32.368 30.6931C32.4076 30.7497 32.4585 30.7973 32.5176 30.8329C32.5767 30.8685 32.6426 30.8914 32.7111 30.9C33.0711 30.96 33.4911 31.02 33.9111 31.08L34.2111 36.06C34.2136 36.2501 34.2903 36.4318 34.4248 36.5662C34.5593 36.7007 34.7409 36.7774 34.9311 36.78H37.2111C37.3066 36.7838 37.4019 36.7678 37.491 36.7329C37.5801 36.6981 37.661 36.6452 37.7286 36.5776C37.7963 36.5099 37.8492 36.429 37.884 36.34C37.9188 36.2509 37.9349 36.1556 37.9311 36.06L38.2311 31.08C38.6511 31.02 39.0111 30.96 39.4311 30.9C39.5639 30.8715 39.681 30.7938 39.7589 30.6825C39.8368 30.5712 39.8697 30.4346 39.8511 30.3L39.6111 28.2C39.5248 27.5582 39.2107 26.9688 38.7261 26.5392C38.2414 26.1097 37.6186 25.8686 36.9711 25.86Z" fill="white"/>
<path d="M36.011 25.2C37.3696 25.2 38.471 24.0986 38.471 22.74C38.471 21.3814 37.3696 20.28 36.011 20.28C34.6524 20.28 33.551 21.3814 33.551 22.74C33.551 24.0986 34.6524 25.2 36.011 25.2Z" fill="white"/>
<path d="M53.0511 25.86H51.2511C50.6165 25.8585 50.0035 26.0898 49.528 26.51C49.0526 26.9302 48.7477 27.5101 48.6711 28.14L48.4311 30.3C48.4157 30.3673 48.4146 30.437 48.4279 30.5047C48.4411 30.5724 48.4684 30.6366 48.508 30.6931C48.5476 30.7497 48.5985 30.7973 48.6576 30.8329C48.7167 30.8685 48.7826 30.8914 48.8511 30.9C49.2111 30.96 49.6311 31.02 50.0511 31.08L50.3511 36.06C50.3537 36.2501 50.4303 36.4318 50.5648 36.5662C50.6993 36.7007 50.8809 36.7774 51.0711 36.78H53.3511C53.4466 36.7838 53.542 36.7678 53.631 36.7329C53.7201 36.6981 53.801 36.6452 53.8686 36.5776C53.9363 36.5099 53.9892 36.429 54.024 36.34C54.0589 36.2509 54.0749 36.1556 54.0711 36.06L54.3711 31.08C54.7911 31.02 55.1511 30.96 55.5711 30.9C55.7039 30.8715 55.821 30.7938 55.8989 30.6825C55.9768 30.5712 56.0098 30.4346 55.9911 30.3L55.7511 28.2C55.6517 27.5531 55.3256 26.9626 54.831 26.5339C54.3364 26.1053 53.7055 25.8664 53.0511 25.86Z" fill="white"/>
<path d="M52.151 25.2C53.5097 25.2 54.611 24.0986 54.611 22.74C54.611 21.3814 53.5097 20.28 52.151 20.28C50.7924 20.28 49.691 21.3814 49.691 22.74C49.691 24.0986 50.7924 25.2 52.151 25.2Z" fill="white"/>
<path d="M12.731 36H10.931C10.2965 35.9985 9.68344 36.2298 9.20797 36.65C8.73249 37.0701 8.4276 37.6501 8.351 38.28L8.111 40.38C8.09566 40.4472 8.09458 40.517 8.10783 40.5847C8.12108 40.6524 8.14837 40.7166 8.18793 40.7731C8.2275 40.8296 8.27847 40.8773 8.33756 40.9129C8.39665 40.9485 8.46254 40.9714 8.531 40.98C8.891 41.04 9.311 41.1 9.731 41.16L10.031 46.14C10.0336 46.3301 10.1103 46.5118 10.2447 46.6462C10.3792 46.7807 10.5609 46.8574 10.751 46.86H12.971C13.0666 46.8638 13.1619 46.8478 13.251 46.8129C13.34 46.7781 13.4209 46.7252 13.4886 46.6575C13.5562 46.5899 13.6091 46.509 13.6439 46.4199C13.6788 46.3309 13.6948 46.2355 13.691 46.14L13.991 41.16C14.411 41.1 14.771 41.04 15.191 40.98C15.3238 40.9515 15.441 40.8738 15.5189 40.7625C15.5968 40.6512 15.6297 40.5145 15.611 40.38L15.371 38.28C15.2808 37.645 14.9638 37.0643 14.4784 36.6451C13.9931 36.2259 13.3723 35.9967 12.731 36Z" fill="white"/>
<path d="M11.831 35.34C13.1896 35.34 14.291 34.2386 14.291 32.88C14.291 31.5214 13.1896 30.42 11.831 30.42C10.4724 30.42 9.37097 31.5214 9.37097 32.88C9.37097 34.2386 10.4724 35.34 11.831 35.34Z" fill="white"/>
<path d="M28.871 36H27.071C26.4365 35.9985 25.8235 36.2298 25.348 36.65C24.8725 37.0702 24.5676 37.6501 24.491 38.28L24.251 40.38C24.2357 40.4473 24.2346 40.517 24.2478 40.5847C24.2611 40.6524 24.2884 40.7166 24.3279 40.7732C24.3675 40.8297 24.4185 40.8773 24.4776 40.9129C24.5367 40.9485 24.6026 40.9714 24.671 40.98C25.031 41.04 25.451 41.1 25.871 41.16L26.171 46.14C26.1736 46.3302 26.2503 46.5118 26.3848 46.6463C26.5192 46.7807 26.7009 46.8574 26.891 46.86H29.171C29.2666 46.8638 29.3619 46.8478 29.451 46.8129C29.5401 46.7781 29.621 46.7252 29.6886 46.6576C29.7562 46.5899 29.8091 46.509 29.844 46.42C29.8788 46.3309 29.8948 46.2356 29.891 46.14L30.191 41.16C30.611 41.1 30.971 41.04 31.391 40.98C31.5238 40.9515 31.641 40.8738 31.7189 40.7625C31.7968 40.6512 31.8297 40.5146 31.811 40.38L31.571 38.28C31.4586 37.6442 31.1269 37.068 30.6336 36.6515C30.1403 36.2349 29.5166 36.0044 28.871 36Z" fill="white"/>
<path d="M27.971 35.34C29.3296 35.34 30.431 34.2386 30.431 32.88C30.431 31.5214 29.3296 30.42 27.971 30.42C26.6124 30.42 25.511 31.5214 25.511 32.88C25.511 34.2386 26.6124 35.34 27.971 35.34Z" fill="white"/>
<path d="M45.011 36H43.211C42.5765 35.9985 41.9635 36.2298 41.488 36.65C41.0125 37.0702 40.7076 37.6501 40.631 38.28L40.391 40.38C40.3757 40.4473 40.3746 40.517 40.3879 40.5847C40.4011 40.6524 40.4284 40.7166 40.468 40.7732C40.5075 40.8297 40.5585 40.8773 40.6176 40.9129C40.6767 40.9485 40.7426 40.9714 40.811 40.98C41.171 41.04 41.591 41.1 42.011 41.16L42.311 46.14C42.3136 46.3302 42.3903 46.5118 42.5248 46.6463C42.6592 46.7807 42.8409 46.8574 43.031 46.86H45.311C45.4066 46.8638 45.5019 46.8478 45.591 46.8129C45.6801 46.7781 45.761 46.7252 45.8286 46.6576C45.8962 46.5899 45.9491 46.509 45.984 46.42C46.0188 46.3309 46.0348 46.2356 46.031 46.14L46.331 41.16C46.751 41.1 47.111 41.04 47.531 40.98C47.6639 40.9515 47.781 40.8738 47.8589 40.7625C47.9368 40.6512 47.9697 40.5146 47.951 40.38L47.711 38.28C47.5986 37.6442 47.2669 37.068 46.7736 36.6515C46.2803 36.2349 45.6566 36.0044 45.011 36Z" fill="white"/>
<path d="M44.111 35.34C45.4696 35.34 46.571 34.2386 46.571 32.88C46.571 31.5214 45.4696 30.42 44.111 30.42C42.7524 30.42 41.651 31.5214 41.651 32.88C41.651 34.2386 42.7524 35.34 44.111 35.34Z" fill="white"/>
<path d="M4.69109 46.14H2.89109C2.25656 46.1386 1.64352 46.3698 1.16805 46.79C0.692576 47.2102 0.387679 47.7901 0.311086 48.42L0.0710864 50.52C0.0557421 50.5873 0.0546599 50.657 0.0679097 50.7247C0.0811595 50.7925 0.108447 50.8566 0.148015 50.9132C0.187583 50.9697 0.238553 51.0173 0.297642 51.0529C0.356731 51.0886 0.422627 51.1114 0.491086 51.12C0.851086 51.18 1.27109 51.24 1.69109 51.3L1.99109 56.28C1.99367 56.4702 2.07036 56.6518 2.20483 56.7863C2.3393 56.9207 2.52094 56.9974 2.71109 57H4.99109C5.08666 57.0038 5.18198 56.9878 5.27105 56.953C5.36013 56.9181 5.44103 56.8652 5.50866 56.7976C5.57629 56.73 5.62919 56.6491 5.66403 56.56C5.69887 56.4709 5.71489 56.3756 5.71109 56.28L6.01109 51.3C6.43109 51.24 6.79109 51.18 7.21109 51.12C7.34391 51.0915 7.46104 51.0138 7.53894 50.9025C7.61685 50.7912 7.64977 50.6546 7.63109 50.52L7.39109 48.42C7.27863 47.7843 6.94692 47.208 6.45364 46.7915C5.96036 46.3749 5.3367 46.1444 4.69109 46.14Z" fill="white"/>
<path d="M3.79105 45.48C5.14968 45.48 6.25105 44.3786 6.25105 43.02C6.25105 41.6614 5.14968 40.56 3.79105 40.56C2.43243 40.56 1.33105 41.6614 1.33105 43.02C1.33105 44.3786 2.43243 45.48 3.79105 45.48Z" fill="white"/>
<path d="M20.831 46.14H19.031C18.3965 46.1386 17.7834 46.3698 17.3079 46.79C16.8325 47.2102 16.5276 47.7901 16.451 48.42L16.211 50.52C16.1956 50.5873 16.1946 50.657 16.2078 50.7247C16.2211 50.7925 16.2483 50.8566 16.2879 50.9132C16.3275 50.9697 16.3784 51.0173 16.4375 51.0529C16.4966 51.0886 16.5625 51.1114 16.631 51.12C16.991 51.18 17.411 51.24 17.831 51.3L18.131 56.28C18.1336 56.4702 18.2103 56.6518 18.3447 56.7863C18.4792 56.9207 18.6608 56.9974 18.851 57H21.131C21.2265 57.0038 21.3219 56.9878 21.4109 56.953C21.5 56.9181 21.5809 56.8652 21.6486 56.7976C21.7162 56.73 21.7691 56.6491 21.8039 56.56C21.8388 56.4709 21.8548 56.3756 21.851 56.28L22.151 51.3C22.571 51.24 22.931 51.18 23.351 51.12C23.4838 51.0915 23.6009 51.0138 23.6788 50.9025C23.7567 50.7912 23.7897 50.6546 23.771 50.52L23.531 48.42C23.4098 47.7884 23.0756 47.2174 22.5842 46.8025C22.0929 46.3875 21.474 46.1537 20.831 46.14Z" fill="white"/>
<path d="M19.9311 45.48C21.2897 45.48 22.3911 44.3786 22.3911 43.02C22.3911 41.6614 21.2897 40.56 19.9311 40.56C18.5724 40.56 17.4711 41.6614 17.4711 43.02C17.4711 44.3786 18.5724 45.48 19.9311 45.48Z" fill="white"/>
<path d="M36.971 46.14H35.171C34.5365 46.1386 33.9234 46.3698 33.448 46.79C32.9725 47.2102 32.6676 47.7901 32.591 48.42L32.351 50.52C32.3356 50.5873 32.3346 50.657 32.3478 50.7247C32.3611 50.7925 32.3884 50.8566 32.4279 50.9132C32.4675 50.9697 32.5185 51.0173 32.5775 51.0529C32.6366 51.0886 32.7025 51.1114 32.771 51.12C33.131 51.18 33.551 51.24 33.971 51.3L34.271 56.28C34.2736 56.4702 34.3503 56.6518 34.4847 56.7863C34.6192 56.9207 34.8008 56.9974 34.991 57H37.271C37.3666 57.0038 37.4619 56.9878 37.551 56.953C37.64 56.9181 37.7209 56.8652 37.7886 56.7976C37.8562 56.73 37.9091 56.6491 37.9439 56.56C37.9788 56.4709 37.9948 56.3756 37.991 56.28L38.291 51.3C38.711 51.24 39.071 51.18 39.491 51.12C39.6238 51.0915 39.7409 51.0138 39.8189 50.9025C39.8968 50.7912 39.9297 50.6546 39.911 50.52L39.671 48.42C39.5498 47.7884 39.2157 47.2174 38.7243 46.8025C38.2329 46.3875 37.614 46.1537 36.971 46.14Z" fill="white"/>
<path d="M36.011 45.48C37.3696 45.48 38.471 44.3786 38.471 43.02C38.471 41.6614 37.3696 40.56 36.011 40.56C34.6524 40.56 33.551 41.6614 33.551 43.02C33.551 44.3786 34.6524 45.48 36.011 45.48Z" fill="white"/>
<path d="M53.0511 46.14H51.2511C50.6165 46.1386 50.0035 46.3698 49.528 46.79C49.0526 47.2102 48.7477 47.7901 48.6711 48.42L48.4311 50.52C48.4157 50.5873 48.4146 50.657 48.4279 50.7247C48.4411 50.7925 48.4684 50.8566 48.508 50.9132C48.5476 50.9697 48.5985 51.0173 48.6576 51.0529C48.7167 51.0886 48.7826 51.1114 48.8511 51.12C49.2111 51.18 49.6311 51.24 50.0511 51.3L50.3511 56.28C50.3537 56.4702 50.4303 56.6518 50.5648 56.7863C50.6993 56.9207 50.8809 56.9974 51.0711 57H53.3511C53.4466 57.0038 53.542 56.9878 53.631 56.953C53.7201 56.9181 53.801 56.8652 53.8686 56.7976C53.9363 56.73 53.9892 56.6491 54.024 56.56C54.0589 56.4709 54.0749 56.3756 54.0711 56.28L54.3711 51.3C54.7911 51.24 55.1511 51.18 55.5711 51.12C55.7039 51.0915 55.821 51.0138 55.8989 50.9025C55.9768 50.7912 56.0098 50.6546 55.9911 50.52L55.7511 48.42C55.6386 47.7843 55.3069 47.208 54.8136 46.7915C54.3203 46.3749 53.6967 46.1444 53.0511 46.14Z" fill="white"/>
<path d="M52.151 45.48C53.5097 45.48 54.611 44.3786 54.611 43.02C54.611 41.6614 53.5097 40.56 52.151 40.56C50.7924 40.56 49.691 41.6614 49.691 43.02C49.691 44.3786 50.7924 45.48 52.151 45.48Z" fill="white"/>
</g>
<defs>
<clipPath id="clip0">
<rect width="55.991" height="57" fill="white"/>
</clipPath>
</defs>
</svg>
