<svg xmlns="http://www.w3.org/2000/svg" width="35.532" height="56.302" viewBox="0 0 35.532 56.302">
  <g id="Group_208" data-name="Group 208" transform="translate(-40.878 -4.001)">
    <path id="Path_2326" data-name="Path 2326" d="M62.2,55.142a5.33,5.33,0,0,0-6.42-4.081.613.613,0,0,0-.068.021c-3.451,1.306-6.1,1.382-7.469.216a3.226,3.226,0,0,1-.925-3.112,5.178,5.178,0,0,0-.9-4.507.583.583,0,0,0-.068-.063,2.353,2.353,0,0,1-1.092-1.787,3.127,3.127,0,0,1,1.193-2.037.583.583,0,0,0-.042-.959,2.97,2.97,0,0,1-1.618-2.074,3.082,3.082,0,0,1,.949-2.184.584.584,0,0,0-.312-1.005c-1.78-.262-2.869-.845-3.238-1.733-.6-1.443.8-3.365.815-3.383a.58.58,0,0,0,.039-.06l5.287-9.279a.582.582,0,0,0,.076-.32C47.9,9.152,53.473,5.12,53.553,5.064a.583.583,0,0,0-.664-.959c-.252.174-6.131,4.358-5.655,14.581l-5.186,9.1c-.218.3-1.744,2.538-.936,4.492a4.205,4.205,0,0,0,3.169,2.255,3.371,3.371,0,0,0,.9,4.858,3.765,3.765,0,0,0-1.087,2.421A3.406,3.406,0,0,0,45.585,44.5a4.122,4.122,0,0,1,.591,3.451,4.391,4.391,0,0,0,1.309,4.237c1.2,1.027,3.669,1.86,8.6,0a4.127,4.127,0,0,1,4.983,3.246l1.079,4.424a.584.584,0,0,0,.566.445.6.6,0,0,0,.139-.017.584.584,0,0,0,.429-.705Z" fill="#fff"/>
    <path id="Path_2327" data-name="Path 2327" d="M88.8,150.243a9.921,9.921,0,0,0-7.515-1.78c-2.544.319-3.848.428-3.86.429a.583.583,0,0,0,.1,1.163c.053,0,1.337-.113,3.909-.434a8.672,8.672,0,0,1,6.651,1.541c2.065,1.617,3.347,4.412,3.81,8.307a.583.583,0,0,0,.578.515.625.625,0,0,0,.07,0,.584.584,0,0,0,.511-.649C92.548,155.116,91.119,152.059,88.8,150.243Z" transform="translate(-25.505 -102.245)" fill="#fff"/>
    <path id="Path_2328" data-name="Path 2328" d="M145.426,148.455a45.022,45.022,0,0,0-6.021-15.112.584.584,0,0,0-.978.637c.046.07,4.588,7.106,5.848,14.667a.583.583,0,0,0,.575.487.607.607,0,0,0,.1-.008A.583.583,0,0,0,145.426,148.455Z" transform="translate(-69.024 -91.421)" fill="#fff"/>
    <path id="Path_2329" data-name="Path 2329" d="M88.761,81.367c-6.243-11.6-20.067-4.521-20.206-4.449a.583.583,0,1,0,.542,1.034,21.444,21.444,0,0,1,7.224-2.039c5.187-.442,9.028,1.578,11.414,6.007a.583.583,0,0,0,1.027-.553Z" transform="translate(-19.381 -50.086)" fill="#fff"/>
    <path id="Path_2330" data-name="Path 2330" d="M75.977,104.206a2.056,2.056,0,1,0,2.056,2.056A2.058,2.058,0,0,0,75.977,104.206Zm0,3.237a1.181,1.181,0,1,1,1.181-1.181A1.182,1.182,0,0,1,75.977,107.443Z" transform="translate(-23.403 -70.972)" fill="#fff"/>
    <path id="Path_2331" data-name="Path 2331" d="M100.543,100.138a2.164,2.164,0,1,0,2.165,2.164A2.167,2.167,0,0,0,100.543,100.138Zm0,3.453a1.289,1.289,0,1,1,1.289-1.289A1.29,1.29,0,0,1,100.543,103.591Z" transform="translate(-40.726 -68.091)" fill="#fff"/>
    <path id="Path_2332" data-name="Path 2332" d="M87.072,125.85a2.056,2.056,0,1,0,2.056,2.056A2.058,2.058,0,0,0,87.072,125.85Zm0,3.236a1.181,1.181,0,1,1,1.181-1.181A1.182,1.182,0,0,1,87.072,129.086Z" transform="translate(-31.262 -86.302)" fill="#fff"/>
    <path id="Path_2333" data-name="Path 2333" d="M112.433,127.695a2.218,2.218,0,1,0-2.217-2.218A2.221,2.221,0,0,0,112.433,127.695Zm0-3.56a1.343,1.343,0,1,1-1.342,1.343A1.345,1.345,0,0,1,112.433,124.134Z" transform="translate(-49.11 -84.467)" fill="#fff"/>
  </g>
</svg>
