<svg id="Layer_2" data-name="Layer 2" xmlns="http://www.w3.org/2000/svg" width="37.6" height="37.619" viewBox="0 0 37.6 37.619">
  <g id="Layer_1-2" data-name="Layer 1-2">
    <path id="Path_2234" data-name="Path 2234" d="M55.291,64.027c-.037,0-.077-.013-.114-.015L54.065,64a.747.747,0,0,1-.294-.059.591.591,0,0,1-.359-.478c-.018-.149-.031-.3-.035-.451-.02-.734-.033-1.468-.05-2.2-.013-.6-.02-1.2-.044-1.8a3.507,3.507,0,0,0-.346-1.481A8.325,8.325,0,0,0,52.5,56.8a6.411,6.411,0,0,1-.716-1.361,4.164,4.164,0,0,1-.243-1.742,3.418,3.418,0,0,1,1.008-2.191,4.728,4.728,0,0,1,2.143-1.24c.219-.064.46-.114.692-.167a.5.5,0,0,1,.14,0,.55.55,0,0,0,.469-.243,2.109,2.109,0,0,0,.116-.206c.114-.219.219-.454.337-.675a.344.344,0,0,0,0-.366,5.807,5.807,0,0,1-.6-1.486,3.2,3.2,0,0,1,.142-2.073,3.505,3.505,0,0,1,.473-.782c.153-.2.153-.243,0-.438a3.839,3.839,0,0,1-.657-1.376,3.539,3.539,0,0,1,.182-2.169,4.555,4.555,0,0,1,.379-.714l.05-.083a.3.3,0,0,0,0-.337c-.048-.083-.1-.169-.14-.254a4.18,4.18,0,0,1-.46-2.086,6.728,6.728,0,0,1,.184-1.255c.031-.131.059-.261.085-.39a.234.234,0,0,1,.015-.1h-.2a8.876,8.876,0,0,1-1.635-.112,4.655,4.655,0,0,1-1.231-.386.913.913,0,0,1-.107-.07.326.326,0,0,0-.346-.039,1.223,1.223,0,0,0-.18.1,3.432,3.432,0,0,1-1.315.515,3.821,3.821,0,0,1-1.161,0,9.334,9.334,0,0,1-1.773-.5l-.092-.033a.438.438,0,0,0-.394.026A5.185,5.185,0,0,1,46.587,35a3.129,3.129,0,0,1-2.811-.57c-.219-.16-.219-.16-.454-.039a8.674,8.674,0,0,1-1.231.517,3.688,3.688,0,0,1-2.281-.028c-.342-.112-.677-.241-1.017-.362l-.123-.042a.3.3,0,0,0-.265.042,3.325,3.325,0,0,1-1.411.5,9.5,9.5,0,0,1-1.363.066h-.475a.81.81,0,0,0,.02.1,6.714,6.714,0,0,1,.2,1.019c.039.289.074.578.09.876a2.591,2.591,0,0,1-.657,1.876l-.114.129a.171.171,0,0,0,0,.241h0c.035.05.074.1.11.147a3.928,3.928,0,0,1,.609,1.15,2.849,2.849,0,0,1-.1,2c-.134.318-.3.624-.438.936a2.011,2.011,0,0,1-.094.182.341.341,0,0,0,0,.359,7.4,7.4,0,0,1,.438,1.065,5.3,5.3,0,0,1,.294,1.8,3.3,3.3,0,0,1-.629,1.886c-.02.026-.039.05-.057.077a.138.138,0,0,0,0,.171c.1.142.193.287.294.438a1.331,1.331,0,0,0,.609.464,4.394,4.394,0,0,0,.644.175,4.553,4.553,0,0,1,1.659.7,3.828,3.828,0,0,1,1.446,1.952,3.961,3.961,0,0,1,.234,1.516,4.7,4.7,0,0,1-.458,1.753,4.872,4.872,0,0,1-.6.982c-.206.265-.416.524-.631.78a.637.637,0,0,0-.153.416v1.943a4.474,4.474,0,0,1-.011.454.62.62,0,0,1-.622.618H34.8a.937.937,0,0,1-.219-.031.657.657,0,0,1-.469-.657V58.856a.438.438,0,0,0-.167-.357q-.7-.592-1.387-1.185A4.783,4.783,0,0,1,31.468,55.9a.344.344,0,0,0-.243-.195c-.331-.088-.657-.164-.99-.263a4.82,4.82,0,0,1-2.907-2.226,3.179,3.179,0,0,1-.438-1.9,3.727,3.727,0,0,1,.331-1.245,4.392,4.392,0,0,1,.368-.657c.127-.188.254-.377.383-.572l-.066-.066a3.054,3.054,0,0,1-1.021-1.9,2.807,2.807,0,0,1,.131-1.277,6.9,6.9,0,0,1,.454-1.025c.05-.1.1-.195.151-.287a.309.309,0,0,0-.013-.362,4.136,4.136,0,0,1-.559-1.245,4,4,0,0,1,.182-2.507,3.778,3.778,0,0,1,.366-.71.355.355,0,0,0,0-.421,4.562,4.562,0,0,1-.642-1.437c-.037-.145-.055-.3-.083-.451A.76.76,0,0,0,26.83,37v-.4c.018-.085.039-.173.053-.261a3.068,3.068,0,0,1,.546-1.3,2.294,2.294,0,0,0,.136-.219.5.5,0,0,0,.026-.438,2.045,2.045,0,0,0-.1-.234,4.853,4.853,0,0,1-.576-1.845,3.548,3.548,0,0,1,.254-1.707,4.787,4.787,0,0,1,1.251-1.731,4.008,4.008,0,0,1,3.287-.99c.322.039.64.1.957.158a.349.349,0,0,0,.364-.123,4.291,4.291,0,0,1,.635-.6,3.659,3.659,0,0,1,3.37-.657,6.147,6.147,0,0,1,1.245.541c.261.142.263.142.5-.033a3.127,3.127,0,0,1,3.12-.467,5.045,5.045,0,0,1,1.076.567c.121.081.151.074.272,0a5.421,5.421,0,0,1,.508-.324,3.23,3.23,0,0,1,1.621-.388,5.088,5.088,0,0,1,1.534.276c.324.105.642.232.957.364a.421.421,0,0,0,.438-.024l.028-.015a5.823,5.823,0,0,1,1.455-.587,3.164,3.164,0,0,1,2.228.219,4.158,4.158,0,0,1,.784.519l.127.1c.114-.074.219-.147.324-.219.261-.16.515-.333.787-.471a2.592,2.592,0,0,1,1.645-.248,2.974,2.974,0,0,1,1.067.4c.337.206.657.423,1,.64.219.14.423.287.631.438a.414.414,0,0,0,.408.064,1.222,1.222,0,0,1,.175-.053,4.2,4.2,0,0,1,1.731-.134,3.872,3.872,0,0,1,1.805.747,5.289,5.289,0,0,1,1.26,1.352,3.661,3.661,0,0,1,.675,2.248,3.4,3.4,0,0,1-.193,1.023,3.674,3.674,0,0,1-.552.986c-.1.134-.1.184,0,.316l.059.079a3.294,3.294,0,0,1,.423.749,3.421,3.421,0,0,1,.138,1.972,5.718,5.718,0,0,1-.627,1.7.41.41,0,0,0-.031.37c.083.219.158.418.234.627a6.886,6.886,0,0,1,.423,1.564,3.449,3.449,0,0,1-.107,1.378,3.35,3.35,0,0,1-.657,1.183c-.09.11-.088.147,0,.252s.16.186.232.285a2.9,2.9,0,0,1,.478,2.715,4.8,4.8,0,0,1-.5,1.063c-.05.088-.1.173-.151.261a.25.25,0,0,0,0,.248l.044.088a5.449,5.449,0,0,1,.657,2.132,3.506,3.506,0,0,1-.554,2.209A4.711,4.711,0,0,1,62.362,54.7a8.385,8.385,0,0,1-2.086.949l-.276.09a.341.341,0,0,0-.2.171c-.055.1-.116.2-.18.294a7.233,7.233,0,0,1-.835,1.03c-.511.535-1.01,1.078-1.488,1.641a.508.508,0,0,0-.131.353v4.04a1.263,1.263,0,0,1,0,.182.62.62,0,0,1-.5.563l-.07.024ZM28.907,47.9c.042-.088.085-.173.125-.263.061-.138.114-.278.18-.414a.633.633,0,0,1,.622-.386.657.657,0,0,1,.627.438.51.51,0,0,1,.013.4c-.079.219-.162.423-.254.629a2.239,2.239,0,0,1-.611.806,3.5,3.5,0,0,0-.331.3,4.026,4.026,0,0,0-.953,1.534,1.775,1.775,0,0,0-.015,1.185,3.012,3.012,0,0,0,.585.988,3.8,3.8,0,0,0,1.15.841,5.334,5.334,0,0,0,1.315.416c.237.05.471.107.7.173a.635.635,0,0,1,.438.438,2.926,2.926,0,0,0,.454.806,4.835,4.835,0,0,0,.657.684c.5.438,1.006.876,1.514,1.315a.877.877,0,0,1,.329.727v1.33c0,.1.042.136.142.136h.723c.116,0,.162-.046.167-.162a.229.229,0,0,0,0-.055c0-.567,0-1.137-.022-1.7a1.194,1.194,0,0,1,.307-.861c.175-.2.348-.412.517-.622a6.444,6.444,0,0,0,.657-.938,2.794,2.794,0,0,0,.318-1.972,2.577,2.577,0,0,0-1.249-1.77,3.067,3.067,0,0,0-.817-.331c-.219-.057-.456-.1-.684-.153a2.383,2.383,0,0,1-1.413-.92c-.094-.123-.182-.25-.272-.377-.022-.031-.046-.064-.072-.094a.125.125,0,0,0-.147-.037.458.458,0,0,0-.088.042,6.426,6.426,0,0,1-1.74.657.772.772,0,0,1-.245.022.642.642,0,0,1-.554-.438.627.627,0,0,1,.16-.686.923.923,0,0,1,.388-.219c.331-.114.657-.219.986-.351a3.106,3.106,0,0,0,.907-.535,1.937,1.937,0,0,0,.657-1.058,2.585,2.585,0,0,0,.02-.938,4.684,4.684,0,0,0-.329-1.181c-.131-.311-.285-.613-.438-.918a1.053,1.053,0,0,1-.118-.377.859.859,0,0,1,.142-.511,11.181,11.181,0,0,0,.618-1.15,2.041,2.041,0,0,0,.188-.716,1.617,1.617,0,0,0-.248-.947,3.368,3.368,0,0,0-.3-.46c-.287-.342-.583-.677-.876-1.017a1.133,1.133,0,0,1-.169-.261.67.67,0,0,1,.966-.835c.1.059.149.05.219-.033a1.442,1.442,0,0,0,.346-1.183c-.1-.627-.243-1.242-.386-1.86a3.6,3.6,0,0,1-.1-.528.638.638,0,0,1,.527-.731h0a1.052,1.052,0,0,1,.219-.026c.491-.013.979-.02,1.468-.035.355,0,.712-.018,1.067-.048a1.577,1.577,0,0,0,.962-.438,1.6,1.6,0,0,1,.234-.188.487.487,0,0,1,.383-.085,1.9,1.9,0,0,1,.289.083c.193.075.379.16.57.232.337.125.673.256,1.014.364a2.047,2.047,0,0,0,1.483-.077c.377-.169.754-.337,1.133-.5a.276.276,0,0,0,.169-.195c.07-.25.145-.5.219-.747a2.294,2.294,0,0,1,.081-.245.675.675,0,0,1,1.282.153.7.7,0,0,1-.028.329c-.061.2-.127.405-.191.607a.3.3,0,0,0,.119.408l.017.009c.07.05.145.1.219.145a1.716,1.716,0,0,0,.971.237,2.438,2.438,0,0,0,.824-.206c.252-.112.5-.239.743-.368a.822.822,0,0,1,.657-.07c.077.022.151.05.219.072.567.173,1.133.353,1.7.515a1.994,1.994,0,0,0,1.582-.208c.121-.068.129-.114.066-.237s-.151-.294-.219-.438a4.818,4.818,0,0,1-.322-1.284,1.685,1.685,0,0,1-.022-.364.642.642,0,0,1,.451-.578.618.618,0,0,1,.7.175.812.812,0,0,1,.2.438c.022.145.039.291.064.438a2.944,2.944,0,0,0,.278.876,1.8,1.8,0,0,0,.96.876,4.738,4.738,0,0,0,1.315.3,10.925,10.925,0,0,0,1.735,0,2.845,2.845,0,0,1,.473,0,.624.624,0,0,1,.592.656v0a.33.33,0,0,1,0,.066,1.355,1.355,0,0,1-.1.342,10.131,10.131,0,0,0-.438,1.231,3.451,3.451,0,0,0-.112,1.262,3,3,0,0,0,.581,1.486c.048.068.1.134.145.2a.623.623,0,0,1,0,.738c-.059.09-.123.177-.186.265a3.74,3.74,0,0,0-.5.949,2.178,2.178,0,0,0-.092,1.2,2.548,2.548,0,0,0,.5,1.019l.035.026.094-.059,1.017-.631a.744.744,0,0,1,.142-.077.635.635,0,0,1,.69.085.657.657,0,0,1,.248.657.637.637,0,0,1-.3.438c-.121.079-.245.149-.37.219a7.35,7.35,0,0,0-1.361,1,2.611,2.611,0,0,0-.458.557,1.824,1.824,0,0,0-.269,1.135,2.03,2.03,0,0,0,.184.695c.182.386.375.762.561,1.144a2.657,2.657,0,0,1,.112.256.631.631,0,0,1-.033.5L56.93,51a.636.636,0,0,1-.46.34,1.844,1.844,0,0,1-.219.026,5.4,5.4,0,0,0-1.135.2,3.661,3.661,0,0,0-1.429.736,2.211,2.211,0,0,0-.747,1.209,2.52,2.52,0,0,0,.044,1.218,4.185,4.185,0,0,0,.657,1.315c.1.136.191.272.278.412a4.02,4.02,0,0,1,.6,1.6c.05.4.094.808.116,1.214.033.635.048,1.273.064,1.911v1.24a.916.916,0,0,0,0,.11.127.127,0,0,0,.122.131h.824a.131.131,0,0,0,.136-.127h0a.75.75,0,0,0,0-.14V59.036a1.313,1.313,0,0,1,.234-.771,8.9,8.9,0,0,1,.936-1.131c.318-.333.644-.657.96-.995a4.3,4.3,0,0,0,.83-1.214.658.658,0,0,1,.438-.394l.287-.088a10.618,10.618,0,0,0,1.468-.537,4.563,4.563,0,0,0,1.356-.944,2.191,2.191,0,0,0,.646-1.7,3.581,3.581,0,0,0-.243-1.069,5.933,5.933,0,0,0-.5-.993.955.955,0,0,1-.142-.348.767.767,0,0,1,.136-.563c.094-.145.195-.285.287-.438a4.753,4.753,0,0,0,.464-.824,1.555,1.555,0,0,0,.085-.817,1.917,1.917,0,0,0-.537-.99.145.145,0,0,0-.2-.039l0,0c-.068.033-.134.074-.2.11l-1.045.567a.552.552,0,0,1-.386.064.682.682,0,0,1-.539-.519.633.633,0,0,1,.256-.695,2.057,2.057,0,0,1,.27-.158c.276-.153.559-.3.83-.46a4.506,4.506,0,0,0,.894-.692,2,2,0,0,0,.6-1.562,3.814,3.814,0,0,0-.147-.815,8.057,8.057,0,0,0-.576-1.477.841.841,0,0,1,.044-.876c.092-.147.175-.3.256-.451a4.194,4.194,0,0,0,.467-1.448,1.878,1.878,0,0,0-.532-1.6,3.18,3.18,0,0,0-1.172-.771c-.41-.153-.826-.294-1.24-.438-.092-.031-.182-.066-.272-.1a.673.673,0,0,1,.167-1.264.915.915,0,0,1,.438.035A8.585,8.585,0,0,1,62.4,33.4c.1.057.138.048.219-.044a2.579,2.579,0,0,0,.333-.552,1.868,1.868,0,0,0,.147-.982,2.652,2.652,0,0,0-.318-.96,3.782,3.782,0,0,0-1.315-1.374,2.293,2.293,0,0,0-1.2-.357,3.12,3.12,0,0,0-1.387.254.877.877,0,0,1-.951-.114c-.418-.311-.85-.6-1.28-.9a4.411,4.411,0,0,0-.789-.438,1.55,1.55,0,0,0-1.117-.05,1.732,1.732,0,0,0-.738.438c-.042.044-.075.092-.118.145.2.11.39.208.572.316a.96.96,0,0,1,.243.177.657.657,0,0,1-.013.929.681.681,0,0,1-.3.167A.778.778,0,0,1,53.867,30a3.482,3.482,0,0,1-1.24-.931,5.841,5.841,0,0,0-.907-.863,1.8,1.8,0,0,0-1.534-.346,3.557,3.557,0,0,0-.887.324c-.248.123-.489.261-.727.4a.827.827,0,0,1-.546.127,1.974,1.974,0,0,1-.32-.088c-.471-.182-.938-.368-1.409-.546a2.629,2.629,0,0,0-.909-.164,2.009,2.009,0,0,0-1.534.611,3.9,3.9,0,0,0-.521.673,9.39,9.39,0,0,0-.657,1.291,1.232,1.232,0,0,1-.151.259.6.6,0,0,1-.657.232.657.657,0,0,1-.513-.775v0a.684.684,0,0,1,.05-.147c.11-.219.219-.438.318-.673.142-.291.289-.578.438-.876.055-.112.042-.151-.066-.219-.164-.088-.329-.18-.5-.263a1.972,1.972,0,0,0-.787-.219,1.685,1.685,0,0,0-1.1.34c-.188.136-.357.3-.537.438a2.065,2.065,0,0,1-.219.169.585.585,0,0,1-.519.081,1.721,1.721,0,0,1-.3-.14c-.3-.167-.587-.355-.894-.517a2.727,2.727,0,0,0-1.177-.311,2.475,2.475,0,0,0-1.878.8.156.156,0,0,0-.034.217v0l.013.015.134.219a4.065,4.065,0,0,0,.668.881.8.8,0,0,1,.219.322.674.674,0,0,1-1.074.736,3.98,3.98,0,0,1-.876-1.065c-.059-.107-.123-.219-.188-.316a.493.493,0,0,0-.3-.219,7.491,7.491,0,0,0-1.334-.259,2.79,2.79,0,0,0-1.926.535,3.469,3.469,0,0,0-1.025,1.3,1.93,1.93,0,0,0-.1,1.58c.169.451.353.9.537,1.343a.9.9,0,0,0,.48.48c.14.061.28.129.421.193s.245.105.37.149a1.8,1.8,0,0,0,.754.1c.079,0,.158-.02.237-.024a.672.672,0,0,1,.142,1.332A2.226,2.226,0,0,1,30,36.106l-1.172-.438c-.129-.053-.167-.039-.245.072a1.855,1.855,0,0,0-.269,1.7,3.467,3.467,0,0,0,.362.769c.173.272.348.554.528.828a.29.29,0,0,0,.1.09l.841.438a2.068,2.068,0,0,0,.629.219c.147.02.3.022.438.033a.672.672,0,0,1-.031,1.343,3.953,3.953,0,0,1-.918-.116,4.816,4.816,0,0,1-.94-.383c-.173-.088-.344-.177-.519-.263-.127-.064-.16-.05-.219.074s-.09.2-.129.309a2.548,2.548,0,0,0,.105,2.092,4.534,4.534,0,0,0,.438.69,1.376,1.376,0,0,1,.147.219.554.554,0,0,1,.033.46,2.039,2.039,0,0,1-.107.234c-.085.153-.18.3-.267.456a5.187,5.187,0,0,0-.524,1.227,1.382,1.382,0,0,0,.083,1.028,3.122,3.122,0,0,0,.5.675A.19.19,0,0,1,28.907,47.9Z" transform="translate(-26.83 -26.414)" fill="#fff"/>
  </g>
</svg>
