<svg width="62" height="89" viewBox="0 0 62 89" fill="none" xmlns="http://www.w3.org/2000/svg">
<g clip-path="url(#clip0)">
<path d="M61.561 31.092C61.6056 30.7345 61.5786 30.3718 61.4817 30.0249C61.3848 29.678 61.2199 29.3538 60.9966 29.0712C60.7733 28.7886 60.496 28.5532 60.1809 28.3787C59.8657 28.2043 59.5191 28.0942 59.161 28.055L44.161 26.155C43.8036 26.1104 43.4409 26.1374 43.0939 26.2342C42.747 26.3311 42.4228 26.496 42.1402 26.7194C41.8576 26.9427 41.6222 27.22 41.4478 27.5351C41.2733 27.8503 41.1633 28.1969 41.124 28.555C41.0794 28.9124 41.1064 29.2751 41.2033 29.622C41.3002 29.969 41.4651 30.2932 41.6884 30.5758C41.9117 30.8584 42.189 31.0937 42.5042 31.2682C42.8193 31.4427 43.166 31.5527 43.524 31.592L51.687 32.611L30.805 48.811L27.261 42.8C27.0503 42.443 26.7666 42.1345 26.4285 41.8947C26.0904 41.6548 25.7055 41.489 25.299 41.408C24.891 41.324 24.4694 41.3314 24.0647 41.4298C23.6599 41.5282 23.2819 41.7151 22.958 41.977L1.131 58.869C0.827357 59.1055 0.573355 59.3997 0.383542 59.7346C0.193729 60.0694 0.0718328 60.4385 0.0248317 60.8205C-0.0221695 61.2026 0.00664792 61.5901 0.109634 61.961C0.21262 62.3319 0.387752 62.6789 0.625003 62.982C1.11399 63.5935 1.81368 64.0004 2.587 64.123C3.34853 64.1913 4.10984 63.9899 4.738 63.554L23.787 48.746L27.331 54.757C27.541 55.1135 27.8237 55.4217 28.1607 55.6617C28.4977 55.9017 28.8815 56.0681 29.287 56.15C29.695 56.234 30.1166 56.2265 30.5213 56.1281C30.9261 56.0298 31.3041 55.8429 31.628 55.581L55.296 37.23L54.287 45.646C54.2103 46.3689 54.414 47.0938 54.856 47.671C55.0731 47.9587 55.3483 48.1975 55.6638 48.3719C55.9792 48.5462 56.3279 48.6522 56.687 48.683C57.4092 48.751 58.1309 48.5482 58.712 48.114C58.9945 47.891 59.2295 47.6138 59.4033 47.2987C59.5771 46.9835 59.6861 46.6368 59.724 46.279L61.561 31.092Z" fill="white"/>
<path d="M43.97 60.39H34.035V88.169H43.97V60.39Z" fill="white"/>
<path d="M28.34 64.692H18.405V88.168H28.34V64.692Z" fill="white"/>
<path d="M59.157 54.252H49.222V88.169H59.157V54.252Z" fill="white"/>
<path d="M12.61 16.192V24.592C12.61 25.0062 12.4454 25.4035 12.1525 25.6965C11.8596 25.9894 11.4623 26.154 11.048 26.154C10.6337 26.154 10.2364 25.9894 9.94349 25.6965C9.65056 25.4035 9.486 25.0062 9.486 24.592V15.157C9.28456 15.298 9.04836 15.3809 8.80306 15.397C8.55776 15.4131 8.31273 15.3616 8.09462 15.2482C7.8765 15.1348 7.69363 14.9639 7.56587 14.7538C7.43812 14.5438 7.37038 14.3028 7.37 14.0569V8.00604C7.37225 7.42377 7.5895 6.86285 7.98004 6.43097C8.37058 5.99909 8.90689 5.72659 9.486 5.66595H16.1C16.6793 5.72617 17.2158 5.99851 17.6065 6.43048C17.9971 6.86246 18.2142 7.42365 18.216 8.00604V14.0569C18.2156 14.3028 18.1479 14.5438 18.0201 14.7538C17.8924 14.9639 17.7095 15.1348 17.4914 15.2482C17.2733 15.3616 17.0282 15.4131 16.7829 15.397C16.5376 15.3809 16.3014 15.298 16.1 15.157V24.592C16.1 25.0062 15.9354 25.4035 15.6425 25.6965C15.3496 25.9894 14.9523 26.154 14.538 26.154C14.1237 26.154 13.7264 25.9894 13.4335 25.6965C13.1406 25.4035 12.976 25.0062 12.976 24.592V16.192H12.61Z" fill="white"/>
<path d="M12.792 1.98425e-07C13.2898 -0.000197409 13.7764 0.147204 14.1904 0.423567C14.6044 0.699929 14.9272 1.09284 15.1179 1.55263C15.3086 2.01242 15.3587 2.51843 15.2619 3.00669C15.1651 3.49496 14.9256 3.94354 14.5739 4.29573C14.2221 4.64791 13.7738 4.88789 13.2856 4.98532C12.7975 5.08274 12.2914 5.03324 11.8314 4.84307C11.3714 4.6529 10.9781 4.33061 10.7012 3.91693C10.4244 3.50325 10.2764 3.01677 10.276 2.519C10.276 1.85144 10.541 1.21118 11.0128 0.738858C11.4845 0.26654 12.1244 0.000795229 12.792 1.98425e-07Z" fill="white"/>
<path d="M24.4549 18.4791V24.4491C24.4703 24.664 24.4414 24.8798 24.3697 25.083C24.298 25.2862 24.1853 25.4724 24.0384 25.6301C23.8916 25.7878 23.7138 25.9136 23.5162 25.9996C23.3186 26.0856 23.1055 26.13 22.89 26.13C22.6745 26.13 22.4613 26.0856 22.2638 25.9996C22.0662 25.9136 21.8886 25.7878 21.7418 25.6301C21.595 25.4724 21.4822 25.2862 21.4105 25.083C21.3388 24.8798 21.3097 24.664 21.3251 24.4491V18.4791C21.1427 18.4853 20.9602 18.4815 20.7782 18.468C20.6377 18.4549 20.5013 18.4135 20.3773 18.3462C20.2533 18.2788 20.1444 18.187 20.057 18.0763C19.9696 17.9656 19.9055 17.8383 19.8688 17.7021C19.832 17.5659 19.8233 17.4237 19.8431 17.284L20.4181 15.3711C20.2087 15.4286 19.9876 15.4291 19.7779 15.3726C19.5682 15.3162 19.3775 15.2048 19.2252 15.05C19.0729 14.8952 18.9647 14.7026 18.9117 14.492C18.8588 14.2814 18.8632 14.0604 18.9242 13.852L20.5631 8.4321C20.718 7.77471 21.0571 7.17504 21.5409 6.7037C22.0246 6.23236 22.6329 5.90889 23.294 5.77109C24.3065 5.53781 25.3586 5.53781 26.371 5.77109C27.0315 5.91152 27.639 6.23579 28.1231 6.70663C28.6073 7.17747 28.9483 7.7757 29.107 8.4321L30.7411 13.852C30.8031 14.0598 30.8082 14.2803 30.7562 14.4908C30.7042 14.7013 30.5968 14.8941 30.4452 15.049C30.2936 15.204 30.1034 15.3157 29.8941 15.3723C29.6849 15.4289 29.4641 15.4285 29.255 15.3711L29.839 17.325C29.8489 17.4755 29.8275 17.6263 29.7757 17.7679C29.724 17.9095 29.6433 18.0388 29.5387 18.1473C29.4341 18.2559 29.3079 18.3413 29.1683 18.3983C29.0287 18.4552 28.8788 18.4824 28.7281 18.478H28.0521V24.4481C28.0685 24.6634 28.04 24.8797 27.9689 25.0836C27.8977 25.2874 27.7853 25.4743 27.6385 25.6327C27.4917 25.791 27.3137 25.9174 27.1158 26.0038C26.9179 26.0901 26.7045 26.1347 26.4886 26.1347C26.2727 26.1347 26.0591 26.0901 25.8612 26.0038C25.6633 25.9174 25.4855 25.791 25.3387 25.6327C25.1919 25.4743 25.0793 25.2874 25.0082 25.0836C24.937 24.8797 24.9088 24.6634 24.9252 24.4481V18.478L24.4549 18.4791Z" fill="white"/>
<path d="M24.834 7.94039e-07C25.3315 0.000791671 25.8179 0.149033 26.2312 0.425996C26.6445 0.70296 26.9665 1.09622 27.1565 1.55609C27.3464 2.01597 27.3957 2.52182 27.2983 3.00976C27.2009 3.49769 26.9611 3.9458 26.6091 4.29749C26.2572 4.64918 25.8088 4.88866 25.3208 4.98568C24.8328 5.0827 24.3269 5.03291 23.8672 4.84259C23.4075 4.65228 23.0147 4.32998 22.738 3.91641C22.4614 3.50284 22.3134 3.01656 22.313 2.519C22.313 2.18803 22.3782 1.86031 22.5049 1.55456C22.6316 1.24881 22.8174 0.971028 23.0515 0.737091C23.2856 0.503154 23.5635 0.317648 23.8694 0.191174C24.1752 0.0647 24.503 -0.000261983 24.834 7.94039e-07Z" fill="white"/>
</g>
<defs>
<clipPath id="clip0">
<rect width="61.583" height="88.168" fill="white"/>
</clipPath>
</defs>
</svg>
