<svg xmlns="http://www.w3.org/2000/svg" width="31.494" height="36.467" viewBox="0 0 31.494 36.467">
  <g id="Group_31" data-name="Group 31" transform="translate(0 17.479)">
    <path id="Path_2205" data-name="Path 2205" d="M42.369,152.681a2.967,2.967,0,0,0,2.32,2.187l4.068.775a4.29,4.29,0,0,1,3.475,4.54l-.385,5.067a1.416,1.416,0,0,1-1.412,1.309H26.157a1.416,1.416,0,0,1-1.412-1.309l-.385-5.067a4.29,4.29,0,0,1,3.475-4.54l4.068-.775a2.966,2.966,0,0,0,2.263-1.994,6.218,6.218,0,0,0,3.989,1.561,6.325,6.325,0,0,0,4.214-1.755m-1.841,6.8a.672.672,0,0,0,.58-.331.744.744,0,0,1,.582-.364l5.205-.41a.673.673,0,0,0-.052-1.343l-.054,0-5.205.41a2.09,2.09,0,0,0-1.636,1.022.673.673,0,0,0,.579,1.014m-4.464,0a.673.673,0,0,0,.579-1.014,2.09,2.09,0,0,0-1.635-1.022l-5.205-.41-.053,0a.673.673,0,0,0-.052,1.343l5.205.41a.744.744,0,0,1,.582.364.672.672,0,0,0,.58.331m7.323-10.115-2.213,1.968a4.542,4.542,0,0,1-3.019,1.3,4.437,4.437,0,0,1-2.84-1.147l-2.036-1.69-.823,2.515a1.168,1.168,0,0,1-.89.786l-4.068.775a6.085,6.085,0,0,0-4.932,6.443l.385,5.067a3.229,3.229,0,0,0,3.206,2.971H50.434a3.229,3.229,0,0,0,3.206-2.971l.385-5.067a6.085,6.085,0,0,0-4.932-6.443l-4.068-.775a1.172,1.172,0,0,1-.913-.861l-.727-2.871Z" transform="translate(-22.548 -149.369)" fill="#fff"/>
  </g>
  <g id="Group_32" data-name="Group 32" transform="translate(6.784)">
    <path id="Path_2206" data-name="Path 2206" d="M87.941,1.8c3.878,0,7.023,3.856,7.023,8.612S91.819,21.3,87.941,21.3s-7.023-6.131-7.023-10.888S84.062,1.8,87.941,1.8M83.687,8.514a.841.841,0,0,0,.781-.53,3.815,3.815,0,0,1,3.472-2.739.841.841,0,0,0,0-1.681,5.479,5.479,0,0,0-5.034,3.8.841.841,0,0,0,.781,1.152m-.639,2.249a.841.841,0,1,0-.841-.841.841.841,0,0,0,.841.841M87.941,0a8.163,8.163,0,0,0-6.36,3.185,11.427,11.427,0,0,0-2.462,7.227,16.627,16.627,0,0,0,2.311,8.15c1.748,2.925,4.06,4.537,6.51,4.537s4.763-1.611,6.51-4.537a16.627,16.627,0,0,0,2.311-8.15A11.427,11.427,0,0,0,94.3,3.185,8.163,8.163,0,0,0,87.941,0Z" transform="translate(-79.119)" fill="#fff"/>
  </g>
</svg>
