<svg id="Layer_1-2" data-name="Layer 1-2" xmlns="http://www.w3.org/2000/svg" width="39.218" height="45.273" viewBox="0 0 39.218 45.273">
  <path id="Path_2316" data-name="Path 2316" d="M30.77,61.708c0-.05.014-.1.019-.149.019-.584.031-1.171.108-1.753a9.21,9.21,0,0,1,1.5-4.031,21.079,21.079,0,0,1,1.773-2.295,14.712,14.712,0,0,1,2.745-2.352,10.252,10.252,0,0,1,1.337-.781,5.155,5.155,0,0,1,1.555-.462c.58-.077,1.164-.132,1.746-.194.75-.081,1.5-.144,2.252-.24a8.759,8.759,0,0,0,2.352-.6,4.769,4.769,0,0,0,1.059-.587,1.063,1.063,0,0,0,.412-.652,9.008,9.008,0,0,0,.2-2.026c0-.158-.019-.314-.034-.479a.75.75,0,0,0-.24-.479c-.357-.338-.719-.68-1.063-1.023-.036-.036-.072-.072-.105-.11a1.152,1.152,0,0,1-.24-1.248,2.47,2.47,0,0,1,.24-.5c.22-.34.45-.673.685-1a.592.592,0,0,0,.074-.632A1.955,1.955,0,0,0,47,39.837c-.132-.216-.268-.426-.4-.642a3.011,3.011,0,0,1-.4-1.126,1.2,1.2,0,0,1,.383-1.1c.086-.081.18-.153.273-.228a2.786,2.786,0,0,0,.656-.764.225.225,0,0,0-.034-.316l-.034-.022c-.036-.026-.074-.046-.11-.069-.558-.331-1.126-.647-1.677-1a13.464,13.464,0,0,1-3.167-2.891,23.124,23.124,0,0,1-2.156-3.253,20.676,20.676,0,0,1-1.382-2.917,10.779,10.779,0,0,1-.556-2.254,14.983,14.983,0,0,1-.129-2.929c.026-.637.086-1.272.137-1.916a.719.719,0,0,1,.6-.642.239.239,0,0,0,.053-.022h2.81c.014,0,.026.019.041.019a.752.752,0,0,1,.623.719c.019.4.043.807.065,1.212a14.252,14.252,0,0,0,.151,1.5,14.928,14.928,0,0,0,.944,3.365,11.162,11.162,0,0,0,1.761,2.973,7.749,7.749,0,0,0,1.631,1.509l.182.113.019-.043c.024-.1.048-.2.067-.3a9.711,9.711,0,0,1,.637-2.01,6.812,6.812,0,0,1,3.885-3.758,13.773,13.773,0,0,1,4.026-.834c.443-.029.889-.026,1.334-.029a7.607,7.607,0,0,1,1.49.132,7.758,7.758,0,0,1,2.474.958,16.714,16.714,0,0,1,5.689,5.509,19.716,19.716,0,0,1,2.556,6.07,20.659,20.659,0,0,1,.446,2.649,14.612,14.612,0,0,1,.081,1.483c0,.086.012.172.019.256v.52c0,.034-.014.067-.017.1,0,.24,0,.5-.017.755q-.057.858-.132,1.717c-.055.623-.122,1.243-.187,1.866-.089.817-.216,1.626-.383,2.434a17.485,17.485,0,0,1-.8,2.788,10.072,10.072,0,0,1-2.208,3.511c-.587.6-1.2,1.181-1.784,1.77-.479.465-.958.915-1.466,1.334a12.194,12.194,0,0,1-2.434,1.59,7.679,7.679,0,0,1-3.19.793,9.131,9.131,0,0,1-1.631-.137,13.49,13.49,0,0,1-2.448-.642,14.329,14.329,0,0,1-2.728-1.387c-.16-.1-.321-.2-.479-.287a2.939,2.939,0,0,0-1.128-.35c-.24-.022-.479-.036-.719-.053-.479-.034-.958-.081-1.437-.1a12.247,12.247,0,0,0-2.237.108,7.854,7.854,0,0,0-2.07.582A12.774,12.774,0,0,0,39.654,57.9a13.444,13.444,0,0,0-1.183,1.03,7.186,7.186,0,0,0-1.313,1.892.611.611,0,0,0-.057.261v1.229a.719.719,0,0,1-.623.695,1.4,1.4,0,0,1-.2.012h-4.7a.783.783,0,0,1-.752-.57.41.41,0,0,0-.046-.12ZM57.005,23.683c-.546.043-1.09.079-1.636.129a13.1,13.1,0,0,0-2.156.4,6.257,6.257,0,0,0-1.761.75,5.559,5.559,0,0,0-1.945,2.206,7.691,7.691,0,0,0-.786,3.095.678.678,0,0,0,.079.374,2.541,2.541,0,0,1,.278,1.138v4.014a2.369,2.369,0,0,1-.719,1.677c-.134.132-.28.24-.424.374-.211.177-.24.225-.086.479s.275.45.414.673a3.7,3.7,0,0,1,.34.673,2.062,2.062,0,0,1,.105,1.147,2.173,2.173,0,0,1-.362.8l-.6.81c-.026.038-.05.079-.074.12a.115.115,0,0,0,0,.144.563.563,0,0,0,.062.069c.29.266.572.539.867.8a1.931,1.931,0,0,1,.57.838,3.193,3.193,0,0,1,.144.81,10.17,10.17,0,0,1-.019,1.4,10.37,10.37,0,0,1-.218,1.408,2.45,2.45,0,0,1-.822,1.353,5.116,5.116,0,0,1-1.042.663,11.615,11.615,0,0,1-3.447.958c-.429.06-.86.105-1.289.149-.5.05-1,.091-1.492.139-.321.031-.642.06-.958.1a4,4,0,0,0-1.593.592A14.247,14.247,0,0,0,35.69,54.1a16.343,16.343,0,0,0-2.266,2.91,6.721,6.721,0,0,0-.869,2.17,12.99,12.99,0,0,0-.256,2.129c0,.182,0,.2.2.2h2.882c.163,0,.192-.029.2-.192v-.331a1.806,1.806,0,0,1,.2-.826,8.348,8.348,0,0,1,1.777-2.467,16.226,16.226,0,0,1,3.147-2.35,9.955,9.955,0,0,1,2.819-1.109,12.786,12.786,0,0,1,2.786-.3,26.223,26.223,0,0,1,2.905.192,4.3,4.3,0,0,1,1.885.666c.24.151.479.295.719.436a14.534,14.534,0,0,0,1.72.881,11.059,11.059,0,0,0,3.248.764,5.631,5.631,0,0,0,2.347-.3,7.931,7.931,0,0,0,1.761-.872A14.4,14.4,0,0,0,63.1,53.911c.74-.719,1.471-1.456,2.2-2.194a6.786,6.786,0,0,0,1.258-1.761c.18-.362.35-.731.5-1.107a16.12,16.12,0,0,0,.877-3.444c.091-.582.17-1.164.24-1.751.065-.527.113-1.056.16-1.586.031-.328.055-.659.079-.987l.108-1.365v-.091c-.053-.046-.031-.1-.034-.153-.019-.412-.024-.826-.048-1.238a17.778,17.778,0,0,0-.316-2.359,18.355,18.355,0,0,0-1.677-4.831,15.952,15.952,0,0,0-3.832-4.91,13.629,13.629,0,0,0-2.156-1.54,6.92,6.92,0,0,0-3.444-.91ZM47.537,33.952v-2.01a1.121,1.121,0,0,0-.34-.86,4.37,4.37,0,0,0-.359-.309c-.206-.156-.417-.307-.63-.455a9.914,9.914,0,0,1-2.467-2.482,14.676,14.676,0,0,1-2.482-6.369c-.089-.592-.132-1.2-.194-1.782a1.583,1.583,0,0,0-.029-.259.153.153,0,0,0-.165-.146H40c-.11,0-.149.041-.16.149v.081c0,.719-.019,1.416-.024,2.125a9.1,9.1,0,0,0,.18,1.957,10.539,10.539,0,0,0,.719,2.156,25.087,25.087,0,0,0,1.739,3.229,15.49,15.49,0,0,0,2.431,3.054,11.5,11.5,0,0,0,2.529,1.864Z" transform="translate(-30.77 -17.75)" fill="#fff"/>
  <path id="Path_2317" data-name="Path 2317" d="M126.827,63.667a12.245,12.245,0,0,1-.079,1.677c-.077.642-.16,1.279-.24,1.916-.041.371-.067.743-.1,1.116a11.5,11.5,0,0,1-.359,2.244,7.665,7.665,0,0,1-.287.783.771.771,0,0,1-.51.479.719.719,0,0,1-.908-.457.936.936,0,0,1-.036-.2.893.893,0,0,1,.067-.426,5.54,5.54,0,0,0,.381-1.437c.074-.565.129-1.133.194-1.7q.086-.762.177-1.523a18.852,18.852,0,0,0,.156-2.175,15.107,15.107,0,0,0-.046-1.614,17.656,17.656,0,0,0-1.959-6.623,12.379,12.379,0,0,0-2.012-2.719,7.368,7.368,0,0,0-3.169-1.955,7,7,0,0,0-2.376-.295,6.467,6.467,0,0,0-1.483.275c-.311.089-.618.182-.925.285a2.716,2.716,0,0,0-1.729,1.629c-.189.479-.362.939-.541,1.411a1.032,1.032,0,0,1-.177.326.745.745,0,0,1-.846.182.719.719,0,0,1-.455-.719.91.91,0,0,1,.06-.3c.189-.5.383-1,.58-1.5a4.17,4.17,0,0,1,2.338-2.386,8.953,8.953,0,0,1,2.424-.668,8.623,8.623,0,0,1,1.861-.034,8.417,8.417,0,0,1,3.945,1.368,10.719,10.719,0,0,1,2.381,2.189,14.649,14.649,0,0,1,1.979,3.238,19.162,19.162,0,0,1,1.437,4.594,17.421,17.421,0,0,1,.24,2.2C126.806,63.133,126.815,63.4,126.827,63.667Z" transform="translate(-90.69 -41.693)" fill="#fff"/>
  <path id="Path_2318" data-name="Path 2318" d="M161.839,146.263a1.509,1.509,0,0,1,1.483-1.533h.017a1.514,1.514,0,1,1-1.5,1.543Z" transform="translate(-130.445 -114.315)" fill="#fff"/>
</svg>
