<svg width="37" height="47" viewBox="0 0 37 47" fill="none" xmlns="http://www.w3.org/2000/svg">
<g clip-path="url(#clip0)">
<path d="M36.989 45.466V8.477C36.9891 8.37575 36.9691 8.27549 36.9303 8.18196C36.8916 8.08844 36.8347 8.00349 36.763 7.932L29.057 0.226C28.9855 0.154307 28.9006 0.0974365 28.807 0.0586535C28.7135 0.0198705 28.6132 -6.18293e-05 28.512 1.44071e-07H0.771C0.566518 1.44071e-07 0.370411 0.0812304 0.225821 0.225821C0.08123 0.370411 0 0.566518 0 0.771V45.466C0 45.6705 0.08123 45.8666 0.225821 46.0112C0.370411 46.1558 0.566518 46.237 0.771 46.237H36.218C36.4225 46.237 36.6186 46.1558 36.7632 46.0112C36.9078 45.8666 36.989 45.6705 36.989 45.466ZM29.283 2.631L34.358 7.706H29.283V2.631ZM1.541 1.541H6.616L1.541 6.616V1.541ZM1.541 8.795L8.8 1.541H11.24L1.54 11.241L1.541 8.795ZM35.448 44.695H30.373L35.448 39.62V44.695ZM35.448 37.441L28.194 44.695H25.749L35.449 34.995L35.448 37.441ZM35.448 32.817L23.57 44.695H1.541V13.419L13.419 1.541H27.742V8.476C27.742 8.68048 27.8232 8.87659 27.9678 9.02118C28.1124 9.16577 28.3085 9.247 28.513 9.247H35.448V32.817Z" fill="white"/>
<path d="M23.5699 11.698H13.4189V14.236H23.5699V11.698Z" fill="white"/>
<path d="M29.915 11.698H24.839V14.236H29.915V11.698Z" fill="white"/>
<path d="M19.7629 15.505H13.4189V16.774H19.7629V15.505Z" fill="white"/>
<path d="M29.914 15.505H21.032V16.774H29.914V15.505Z" fill="white"/>
<path d="M23.5699 24.387H13.4189V25.656H23.5699V24.387Z" fill="white"/>
<path d="M29.915 24.387H24.839V25.656H29.915V24.387Z" fill="white"/>
<path d="M23.5699 18.043H13.4189V20.581H23.5699V18.043Z" fill="white"/>
<path d="M29.915 18.043H24.839V20.581H29.915V18.043Z" fill="white"/>
<path d="M17.2259 21.849H13.4189V23.118H17.2259V21.849Z" fill="white"/>
<path d="M23.5699 21.849H19.7629V23.118H23.5699V21.849Z" fill="white"/>
<path d="M29.915 21.849H24.839V23.118H29.915V21.849Z" fill="white"/>
<path d="M19.7629 28.194H13.4189V29.463H19.7629V28.194Z" fill="white"/>
<path d="M29.914 28.194H21.032V29.463H29.914V28.194Z" fill="white"/>
<path d="M23.5699 37.076H13.4189V38.345H23.5699V37.076Z" fill="white"/>
<path d="M29.915 37.076H24.839V38.345H29.915V37.076Z" fill="white"/>
<path d="M23.5699 30.731H13.4189V32H23.5699V30.731Z" fill="white"/>
<path d="M29.915 30.731H24.839V32H29.915V30.731Z" fill="white"/>
<path d="M17.2259 34.538H13.4189V35.807H17.2259V34.538Z" fill="white"/>
<path d="M23.5699 34.538H19.7629V35.807H23.5699V34.538Z" fill="white"/>
<path d="M29.915 34.538H24.839V35.807H29.915V34.538Z" fill="white"/>
<path d="M12.329 24.659H10.788V41.612H18.494V40.071H12.329V24.659Z" fill="white"/>
<path d="M21.0319 39.614H19.7629V42.152H21.0319V39.614Z" fill="white"/>
<path d="M10.789 20.036C10.7853 20.1395 10.8025 20.2427 10.8395 20.3395C10.8765 20.4362 10.9327 20.5245 11.0046 20.5991C11.0765 20.6736 11.1627 20.7329 11.2581 20.7734C11.3534 20.8139 11.4559 20.8348 11.5595 20.8348C11.6631 20.8348 11.7656 20.8139 11.861 20.7734C11.9563 20.7329 12.0425 20.6736 12.1144 20.5991C12.1863 20.5245 12.2425 20.4362 12.2795 20.3395C12.3166 20.2427 12.3338 20.1395 12.33 20.036V13.101C12.33 12.8965 12.2488 12.7004 12.1042 12.5558C11.9596 12.4112 11.7635 12.33 11.559 12.33H5.39502C5.29377 12.33 5.19352 12.35 5.09997 12.3887C5.00643 12.4275 4.92144 12.4842 4.84984 12.5558C4.77825 12.6274 4.72146 12.7124 4.68271 12.806C4.64397 12.8995 4.62402 12.9998 4.62402 13.101V36.219C4.62786 36.2814 4.63554 36.3435 4.64702 36.405L5.41802 39.487C5.45969 39.6537 5.55581 39.8016 5.69114 39.9074C5.82646 40.0132 5.99325 40.0708 6.16502 40.071V41.612C6.17221 41.8116 6.25654 42.0005 6.40025 42.1392C6.54396 42.2778 6.73585 42.3553 6.93552 42.3553C7.1352 42.3553 7.32709 42.2778 7.4708 42.1392C7.61451 42.0005 7.69883 41.8116 7.70602 41.612V40.072C7.8778 40.0718 8.04458 40.0142 8.17991 39.9084C8.31524 39.8026 8.41136 39.6547 8.45302 39.488L9.22402 36.406C9.2355 36.3445 9.24318 36.2824 9.24702 36.22V13.871H10.788L10.789 20.036ZM7.10502 38.53H6.76702L6.38202 36.989H7.49002L7.10502 38.53ZM7.70502 35.448H6.16502V33.907H7.70602L7.70502 35.448ZM7.70502 32.366H6.16502V16.954H7.70602L7.70502 32.366ZM7.70502 15.413H6.16502V13.871H7.70602L7.70502 15.413Z" fill="white"/>
<path d="M18.494 10.788C19.256 10.788 20.001 10.562 20.6346 10.1386C21.2682 9.71525 21.7621 9.1135 22.0537 8.40945C22.3453 7.70541 22.4216 6.9307 22.273 6.18329C22.1243 5.43588 21.7573 4.74934 21.2185 4.21049C20.6796 3.67164 19.9931 3.30468 19.2457 3.15601C18.4983 3.00734 17.7236 3.08364 17.0195 3.37526C16.3155 3.66689 15.7137 4.16074 15.2903 4.79436C14.867 5.42798 14.641 6.17292 14.641 6.93497C14.641 7.95685 15.0469 8.93688 15.7695 9.65945C16.4921 10.382 17.4721 10.788 18.494 10.788ZM18.494 4.62297C18.9513 4.62297 19.3983 4.75857 19.7785 5.01261C20.1587 5.26666 20.455 5.62775 20.63 6.05021C20.805 6.47267 20.8508 6.93754 20.7616 7.38602C20.6724 7.8345 20.4522 8.24646 20.1288 8.5698C19.8055 8.89314 19.3935 9.11334 18.945 9.20255C18.4966 9.29176 18.0317 9.24597 17.6092 9.07098C17.1868 8.89599 16.8257 8.59966 16.5716 8.21945C16.3176 7.83924 16.182 7.39224 16.182 6.93497C16.182 6.63136 16.2418 6.33071 16.358 6.05021C16.4742 5.7697 16.6445 5.51483 16.8592 5.30014C17.0738 5.08545 17.3287 4.91515 17.6092 4.79896C17.8897 4.68277 18.1904 4.62297 18.494 4.62297Z" fill="white"/>
</g>
<defs>
<clipPath id="clip0">
<rect width="36.989" height="46.236" fill="white"/>
</clipPath>
</defs>
</svg>
