<svg width="40" height="43" viewBox="0 0 40 43" fill="none" xmlns="http://www.w3.org/2000/svg">
<g clip-path="url(#clip0)">
<path d="M35.872 36.665C35.783 36.639 35.6931 36.621 35.605 36.586C35.3009 36.4648 35.0198 36.2923 34.774 36.076C34.5442 35.8742 34.3469 35.6381 34.189 35.376C33.9395 34.9646 33.8087 34.4922 33.811 34.011V27.127C31.599 26.443 28.503 26.583 24.817 23.735C24.784 24.985 22.085 25.995 18.757 25.995C15.429 25.995 12.731 24.985 12.698 23.735C5.09805 29.611 -0.00195312 22.769 -0.00195312 36.679C-0.00195312 40.49 10.171 42.325 18.718 42.325H18.793C24.119 42.325 30.075 41.612 33.809 40.154V39.378C33.8098 39.041 33.8742 38.7071 33.999 38.394C34.1056 38.123 34.25 37.8685 34.428 37.638C34.6493 37.3528 34.9232 37.1128 35.235 36.931C35.4344 36.814 35.6487 36.7245 35.872 36.665Z" fill="white"/>
<path d="M39.4001 36.636C39.3561 36.651 39.3111 36.661 39.2661 36.673C39.3121 36.685 39.3551 36.699 39.4001 36.713C39.4001 36.702 39.4001 36.691 39.4001 36.68C39.4001 36.669 39.4001 36.651 39.4001 36.636Z" fill="white"/>
<path d="M10.5641 15.757C11.2235 17.5859 12.2197 19.275 13.5011 20.737C13.8213 21.0893 14.164 21.4203 14.5271 21.728C14.6271 21.811 14.7171 21.901 14.8171 21.979C15.9306 22.9265 17.3328 23.4677 18.7941 23.514C20.2455 23.47 21.6393 22.9364 22.7491 22C22.8301 21.937 22.9061 21.863 22.9861 21.8C23.3657 21.4842 23.7232 21.1428 24.0561 20.778C25.3563 19.3048 26.3657 17.5988 27.0311 15.75C27.5961 15.583 28.1881 14.511 28.4311 13.143C28.6931 11.655 28.4451 10.358 27.8761 10.143C27.8491 9.66003 27.8051 9.17203 27.7371 8.68303C27.5091 4.47803 26.2241 2.59803 24.3251 1.75903C22.7437 0.545039 20.7873 -0.0772603 18.7951 3.01991e-05C16.8159 -0.0800766 14.8696 0.524554 13.2841 1.71203C11.1931 2.59003 9.82412 4.68103 9.74612 9.64303C9.73312 9.80103 9.72312 9.95803 9.71412 10.114C9.09412 10.235 8.81412 11.582 9.08612 13.135C9.33812 14.568 9.97612 15.673 10.5641 15.757Z" fill="white"/>
<path d="M38.4831 23.514H36.6031C36.2432 23.4997 35.8918 23.626 35.6231 23.866C35.4894 23.9948 35.3846 24.1506 35.3156 24.323C35.2467 24.4954 35.2151 24.6805 35.2231 24.866V34.014C35.2217 34.2381 35.2822 34.4582 35.3981 34.65C35.4807 34.7862 35.5835 34.9089 35.7031 35.014C35.8286 35.1246 35.972 35.2128 36.1271 35.275C36.2784 35.3383 36.4402 35.3723 36.6041 35.375H38.4841C38.6795 35.3841 38.8742 35.3468 39.0524 35.2662C39.2306 35.1855 39.3871 35.0638 39.5091 34.911C39.7069 34.656 39.8126 34.3417 39.8091 34.019V24.865C39.8235 24.6861 39.7993 24.5062 39.7381 24.3374C39.6769 24.1687 39.5801 24.0151 39.4544 23.887C39.3287 23.7589 39.1769 23.6593 39.0093 23.5949C38.8417 23.5306 38.6623 23.503 38.4831 23.514Z" fill="white"/>
<path d="M38.4829 37.979H36.5829C36.3631 37.9769 36.1468 38.0343 35.9569 38.145C35.7975 38.2375 35.6576 38.3601 35.5449 38.506C35.4517 38.6283 35.376 38.7629 35.3199 38.906C35.2566 39.0569 35.2226 39.2184 35.2199 39.382V40.982C35.2078 41.1792 35.2415 41.3765 35.3184 41.5585C35.3952 41.7405 35.5132 41.9022 35.6629 42.031C35.9246 42.2327 36.2476 42.3386 36.5779 42.331H38.4779C38.653 42.3398 38.828 42.3136 38.9928 42.2541C39.1577 42.1945 39.309 42.1027 39.4379 41.984C39.5636 41.851 39.6608 41.6936 39.7234 41.5217C39.786 41.3497 39.8127 41.1667 39.8019 40.984V39.384C39.8204 39.2023 39.7996 39.0187 39.7411 38.8457C39.6825 38.6727 39.5875 38.5142 39.4625 38.381C39.3375 38.2479 39.1853 38.1431 39.0163 38.0737C38.8474 38.0044 38.6655 37.9721 38.4829 37.979Z" fill="white"/>
</g>
<defs>
<clipPath id="clip0">
<rect width="39.808" height="42.326" fill="white"/>
</clipPath>
</defs>
</svg>
