<svg width="22" height="22" viewBox="0 0 22 22" fill="none" xmlns="http://www.w3.org/2000/svg">
<path fill-rule="evenodd" clip-rule="evenodd" d="M21.4585 0.541513C22.1805 1.26351 22.1805 2.43413 21.4585 3.15612L13.6146 11L21.4585 18.8438C22.1805 19.5659 22.1805 20.7364 21.4585 21.4585C20.7364 22.1805 19.5659 22.1805 18.8439 21.4585L11 13.6146L3.15612 21.4585C2.43412 22.1805 1.2635 22.1805 0.5415 21.4585C-0.1805 20.7364 -0.1805 19.5659 0.5415 18.8438L8.38536 11L0.5415 3.15612C-0.1805 2.43413 -0.1805 1.26351 0.5415 0.541513C1.2635 -0.180504 2.43412 -0.180504 3.15612 0.541513L11 8.38538L18.8439 0.541513C19.5659 -0.180504 20.7364 -0.180504 21.4585 0.541513Z" fill="white"/>
</svg>