<svg width="648" height="525" viewBox="0 0 648 525" fill="none" xmlns="http://www.w3.org/2000/svg">
<style>
.zoom-animation { transform-origin: center; }
.zoom-animation .dash-border { opacity: 0; visibility: hidden; transition: all 0.3s ease-in-out; }
.zoom-animation .zoom { transition: all 0.3s ease-in-out; }
.zoom-animation .text  { transition: all 0.3s ease-in-out; }
.zoom-animation:hover .dash-border { opacity: 1; visibility: visible; transition: all 0.3s ease-in-out; }
.zoom-animation:hover .zoom { animation:zoom 1.2s; }
.zoom-animation:hover .text  { fill: #9D60FB; }
@keyframes zoom {
    0% {
      transform: scale3d(1, 1, 1);
      transform-box: fill-box;
      transform-origin: center;
    }
    50% {
      transform: scale3d(1.05, 1.05, 1.05);
      transform-box: fill-box;
      transform-origin: center;
    }
    100% {
      transform: scale3d(1, 1, 1);
      transform-box: fill-box;
      transform-origin: center;
    }
}
</style>
<g filter="url(#filter0_dddddd_806_148)">
<path d="M57 56.5L146 293.5M57 56.5H455.5M57 56.5L249.5 126.5M146 293.5L389 273.5M146 293.5L249.5 126.5M389 273.5L455.5 56.5M389 273.5L249.5 126.5M455.5 56.5L249.5 126.5" stroke="#D2D2D2" stroke-dasharray="8 8"/>
<g class="zoom-animation">
<g class="zoom">
<circle cx="69.5" cy="55.5" r="50.5" stroke="#9D60FB" stroke-width="2" stroke-dasharray="8 8" class="dash-border"/>
<path d="M68.5 102.583C94.1812 102.583 115 81.7644 115 56.0831C115 30.4019 94.1812 9.58313 68.5 9.58313C42.8188 9.58313 22 30.4019 22 56.0831C22 81.7644 42.8188 102.583 68.5 102.583Z" fill="#EBDFFE"/>
<path d="M80.9173 49.9167H56.334V77.7501H80.9173V49.9167Z" fill="#EE938B"/>
<path d="M108.417 80.25C95.25 74.4167 81 72.3334 81 72.3334C74.4167 79.1667 62.1667 79.25 56.4167 72.3334C56.4167 72.3334 42.0833 74.4167 29 80.25C37.1667 93.6667 51.9167 102.583 68.75 102.583C85.5 102.583 100.25 93.6667 108.417 80.25Z" fill="white"/>
<path d="M83.584 72.7501V100.083C94.0007 96.5835 102.751 89.4168 108.334 80.1668C98.6673 75.9168 88.334 73.6668 83.584 72.7501Z" fill="#FFB647"/>
<path d="M53.584 72.7501C48.834 73.6668 38.5007 75.9168 28.834 80.2501C34.4173 89.5001 43.1673 96.5835 53.584 100.083V72.7501Z" fill="#FFB647"/>
<path d="M68.25 80.6665C68.1667 80.6665 68.0833 80.6665 68 80.6665C61.6667 80.5832 56.25 77.8332 53.25 72.9998L53.75 72.6665C56.6667 77.3332 61.8333 79.9998 67.9167 80.0832C74.3333 80.1665 80.1667 77.3332 83.25 72.6665L83.75 72.9998C80.75 77.6665 74.8333 80.6665 68.25 80.6665Z" fill="#F1BCB6"/>
<path d="M92.7492 35.1667C91.4159 31.9167 88.5826 33.5 88.5826 33.5C90.1659 18.75 82.6659 9 68.6659 9C54.5826 9 47.0826 18.75 48.6659 33.5C48.6659 33.5 45.9159 31.9167 44.4992 35.1667C43.0826 38.4167 45.5826 46 47.1659 48.4167C48.6659 50.8333 50.9992 49.8333 50.9992 49.8333C50.9992 49.8333 51.5826 55.4167 52.2492 57.25C52.9159 59.1667 60.9992 67.8333 63.3326 69.1667C66.4159 71 70.9992 71 73.7492 69.1667C76.0826 67.8333 84.1659 59.1667 84.8326 57.25C85.4992 55.3333 86.0826 49.6667 86.0826 49.6667C86.0826 49.6667 88.4159 50.75 89.9159 48.3333C91.5826 46 94.0826 38.4167 92.7492 35.1667Z" fill="#EE938B"/>
<path d="M68.7506 70.8333C66.834 70.8333 64.834 70.3333 63.2506 69.4166C61.834 68.5833 58.5007 65.3333 56.084 62.5833L56.584 62.1666C59.084 64.9166 62.2507 68.0833 63.584 68.8333C66.584 70.5833 71.0006 70.5833 73.6673 68.8333C75.0006 68.0833 78.1673 64.9166 80.6673 62.1666L81.1673 62.5833C78.7506 65.3333 75.4173 68.5833 74.0007 69.4166C72.584 70.4166 70.6673 70.8333 68.7506 70.8333Z" fill="#D16363"/>
<path d="M50.9711 46.3106L50.3086 46.3849L50.6985 49.8632L51.361 49.7889L50.9711 46.3106Z" fill="#D16363"/>
<path d="M86.274 46.3134L85.918 49.7117L86.581 49.7811L86.9371 46.3829L86.274 46.3134Z" fill="#D16363"/>
<path d="M46.3348 42.4166C46.1681 41.9166 45.0848 37.7499 46.5848 36.5833C47.0848 36.2499 47.5015 36.25 47.7515 36.3333C48.5015 36.5833 48.9181 37.5833 48.9181 37.6666L48.3348 37.9166C48.2515 37.6666 47.9181 37.0833 47.5015 36.9999C47.3348 36.9166 47.0848 37 46.9181 37.1666C46.0015 37.8333 46.4181 40.6666 46.8348 42.3333L46.3348 42.4166Z" fill="#D16363"/>
<path d="M90.9186 42.4167L90.3353 42.2501C90.752 40.5834 91.1686 37.7501 90.252 37.0834C90.002 36.9167 89.8353 36.9167 89.6686 37.0001C89.1686 37.1667 88.8353 37.9167 88.8353 37.9167L88.252 37.6667C88.3353 37.5834 88.6686 36.5834 89.4186 36.3334C89.6686 36.2501 90.0853 36.2501 90.5853 36.5001C92.1686 37.7501 91.0853 42.0001 90.9186 42.4167Z" fill="#D16363"/>
<path d="M50.6657 41.25C54.8324 41.25 51.6657 27.8333 54.999 24.5C56.6657 22.8333 80.749 22.9167 82.3324 24.5C85.5824 27.75 82.4157 41.25 86.6657 41.25C86.4157 38.1667 86.3324 34.75 88.6657 33.5C90.1657 18.75 82.6657 9 68.6657 9C54.5824 9 47.0824 18.75 48.6657 33.5C50.499 34.6667 50.9157 38 50.6657 41.25Z" fill="#521F4D"/>
<path d="M68.6654 45.7501C68.6654 45.7501 58.7487 45.5001 58.332 52.1668H68.6654H78.9987C78.4987 45.5001 68.6654 45.7501 68.6654 45.7501Z" fill="#521F4D"/>
</g>
<path class="text" d="M61.245 129V119.872H63.821C64.521 119.872 65.151 119.961 65.711 120.138C66.271 120.315 66.7517 120.591 67.153 120.964C67.5543 121.328 67.8623 121.795 68.077 122.364C68.2917 122.933 68.399 123.61 68.399 124.394C68.399 125.178 68.2917 125.859 68.077 126.438C67.8623 127.017 67.559 127.497 67.167 127.88C66.775 128.253 66.3037 128.533 65.753 128.72C65.2117 128.907 64.605 129 63.933 129H61.245ZM63.303 127.334H63.695C64.087 127.334 64.4417 127.283 64.759 127.18C65.0763 127.077 65.347 126.914 65.571 126.69C65.795 126.457 65.9677 126.153 66.089 125.78C66.2197 125.407 66.285 124.945 66.285 124.394C66.285 123.853 66.2197 123.4 66.089 123.036C65.9677 122.663 65.795 122.369 65.571 122.154C65.347 121.93 65.0763 121.771 64.759 121.678C64.4417 121.585 64.087 121.538 63.695 121.538H63.303V127.334ZM72.9177 129.168C72.3204 129.168 71.723 129.061 71.1257 128.846C70.5377 128.622 70.0104 128.291 69.5437 127.852L70.7197 126.438C71.0464 126.718 71.4057 126.947 71.7977 127.124C72.199 127.301 72.591 127.39 72.9737 127.39C73.403 127.39 73.7204 127.311 73.9257 127.152C74.1404 126.993 74.2477 126.779 74.2477 126.508C74.2477 126.368 74.215 126.247 74.1497 126.144C74.0937 126.041 74.005 125.953 73.8837 125.878C73.7717 125.794 73.6317 125.719 73.4637 125.654C73.305 125.579 73.1277 125.5 72.9317 125.416L71.7417 124.912C71.5084 124.819 71.2797 124.697 71.0557 124.548C70.841 124.399 70.645 124.226 70.4677 124.03C70.2997 123.825 70.1644 123.591 70.0617 123.33C69.959 123.059 69.9077 122.756 69.9077 122.42C69.9077 122.047 69.987 121.697 70.1457 121.37C70.3044 121.034 70.5284 120.745 70.8177 120.502C71.107 120.25 71.4477 120.054 71.8397 119.914C72.241 119.774 72.6797 119.704 73.1557 119.704C73.6877 119.704 74.2104 119.807 74.7237 120.012C75.2464 120.217 75.7037 120.516 76.0957 120.908L75.0457 122.21C74.747 121.977 74.4484 121.799 74.1497 121.678C73.851 121.547 73.5197 121.482 73.1557 121.482C72.801 121.482 72.5164 121.557 72.3017 121.706C72.0964 121.846 71.9937 122.047 71.9937 122.308C71.9937 122.448 72.0264 122.569 72.0917 122.672C72.1664 122.765 72.2644 122.854 72.3857 122.938C72.5164 123.013 72.6657 123.087 72.8337 123.162C73.0017 123.227 73.1837 123.302 73.3797 123.386L74.5557 123.862C75.1157 124.086 75.5544 124.394 75.8717 124.786C76.1984 125.178 76.3617 125.696 76.3617 126.34C76.3617 126.723 76.2824 127.087 76.1237 127.432C75.9744 127.768 75.7504 128.067 75.4517 128.328C75.1624 128.58 74.803 128.785 74.3737 128.944C73.9444 129.093 73.459 129.168 72.9177 129.168Z" fill="#545770"/>
</g>
<g class="zoom-animation">
<g class="zoom">
<path class="dash-border" d="M196.586 274.115C197.207 276.784 197.631 279.53 197.843 282.337L196.846 282.412C196.948 283.761 197 285.124 197 286.5C197 287.876 196.948 289.239 196.846 290.588L197.843 290.663C197.631 293.47 197.207 296.216 196.586 298.885L195.612 298.658C194.989 301.338 194.164 303.939 193.155 306.442L194.082 306.816C193.038 309.407 191.799 311.897 190.385 314.266L189.526 313.753C188.124 316.102 186.546 318.33 184.811 320.417L185.58 321.057C183.803 323.195 181.864 325.19 179.782 327.02L179.122 326.269C177.078 328.067 174.894 329.703 172.589 331.159L173.123 332.004C170.785 333.482 168.324 334.777 165.759 335.871L165.367 334.951C162.881 336.012 160.297 336.879 157.632 337.535L157.872 338.506C155.209 339.162 152.466 339.61 149.662 339.834L149.583 338.838C148.236 338.945 146.874 339 145.5 339C144.126 339 142.764 338.945 141.417 338.838L141.338 339.834C138.534 339.61 135.791 339.162 133.128 338.506L133.368 337.535C130.703 336.879 128.119 336.012 125.633 334.951L125.241 335.871C122.676 334.777 120.215 333.482 117.877 332.004L118.411 331.159C116.106 329.703 113.922 328.067 111.878 326.269L111.218 327.02C109.136 325.19 107.197 323.195 105.42 321.057L106.189 320.417C104.454 318.33 102.876 316.102 101.474 313.753L100.615 314.266C99.2009 311.897 97.9623 309.407 96.9176 306.816L97.845 306.442C96.8359 303.939 96.0111 301.338 95.3878 298.658L94.4137 298.885C93.7931 296.216 93.3686 293.47 93.1566 290.663L94.1537 290.588C94.0519 289.239 94 287.876 94 286.5C94 285.124 94.0519 283.761 94.1537 282.412L93.1566 282.337C93.3686 279.53 93.7931 276.784 94.4137 274.115L95.3878 274.342C96.0111 271.662 96.8359 269.061 97.845 266.558L96.9176 266.184C97.9623 263.593 99.2009 261.103 100.615 258.734L101.474 259.247C102.876 256.898 104.454 254.67 106.189 252.583L105.42 251.943C107.197 249.805 109.136 247.81 111.218 245.98L111.878 246.731C113.922 244.933 116.106 243.297 118.411 241.841L117.877 240.996C120.215 239.518 122.676 238.223 125.241 237.129L125.633 238.049C128.119 236.988 130.703 236.121 133.368 235.465L133.128 234.494C135.791 233.838 138.534 233.39 141.338 233.166L141.417 234.162C142.764 234.055 144.126 234 145.5 234C146.874 234 148.236 234.055 149.583 234.162L149.662 233.166C152.466 233.39 155.209 233.838 157.872 234.494L157.632 235.465C160.297 236.121 162.881 236.988 165.367 238.049L165.759 237.129C168.324 238.223 170.785 239.518 173.123 240.996L172.589 241.841C174.894 243.297 177.078 244.933 179.122 246.731L179.782 245.98C181.864 247.81 183.803 249.805 185.58 251.943L184.811 252.583C186.546 254.67 188.124 256.898 189.526 259.247L190.385 258.734C191.799 261.103 193.038 263.593 194.082 266.184L193.155 266.558C194.164 269.061 194.989 271.662 195.612 274.342L196.586 274.115Z" stroke="#9D60FB" stroke-width="2" stroke-dasharray="8 8"/>
<path d="M145.5 335.126C171.181 335.126 192 314.517 192 289.095C192 263.673 171.181 243.065 145.5 243.065C119.819 243.065 99 263.673 99 289.095C99 314.517 119.819 335.126 145.5 335.126Z" fill="#EBDFFE"/>
<path d="M145.333 301.717C153.019 301.717 159.249 300.83 159.249 299.737C159.249 298.643 153.019 297.757 145.333 297.757C137.647 297.757 131.416 298.643 131.416 299.737C131.416 300.83 137.647 301.717 145.333 301.717Z" fill="#8FA5E8"/>
<path d="M157.833 283.073H133.25V310.626H157.833V283.073Z" fill="#EE938B"/>
<path d="M170.333 265.173C168.916 261.873 166.083 263.523 166.083 263.523C167.749 248.51 159.999 238.528 145.499 238.528C130.999 238.528 123.249 248.51 124.916 263.523C124.916 263.523 122.083 261.873 120.666 265.173C119.249 268.473 121.833 276.227 123.416 278.702C124.999 281.176 127.833 283.074 127.833 283.074C127.833 283.074 127.999 285.878 128.749 287.776C129.499 289.673 137.749 298.582 140.166 299.902C143.333 301.799 148.083 301.799 150.916 299.902C153.333 298.582 161.666 289.673 162.333 287.776C163.083 285.878 163.249 283.074 163.249 283.074C163.249 283.074 166.083 281.176 167.666 278.702C169.166 276.309 171.749 268.555 170.333 265.173Z" fill="#EE938B"/>
<path d="M122.583 272.68C122.416 272.185 121.333 267.895 122.916 266.741C123.416 266.411 123.833 266.411 124.083 266.493C124.916 266.741 125.333 267.813 125.333 267.813L124.749 268.06C124.666 267.813 124.333 267.236 123.916 267.071C123.749 266.988 123.499 267.071 123.249 267.236C122.333 267.895 122.749 270.865 123.166 272.515L122.583 272.68Z" fill="#D16363"/>
<path d="M168.5 272.68L167.917 272.515C168.25 271.277 168.917 267.978 167.833 267.235C167.583 267.07 167.417 267.07 167.167 267.153C166.75 267.318 166.417 267.895 166.333 268.143L165.75 267.895C165.75 267.813 166.167 266.823 167 266.575C167.25 266.493 167.667 266.493 168.167 266.74C169.75 267.895 168.583 272.185 168.5 272.68Z" fill="#D16363"/>
<path d="M145.498 238.528C130.998 238.528 123.248 248.51 124.915 263.523C126.831 264.761 127.248 268.143 126.998 271.442C126.998 271.442 126.331 282.001 128.498 287.033C130.581 292.065 134.248 299.819 145.581 299.737C156.915 299.819 160.581 292.065 162.665 287.033C164.748 282.001 164.165 271.442 164.165 271.442C163.831 268.225 163.831 264.761 166.248 263.523C167.748 248.427 159.998 238.528 145.498 238.528ZM161.415 261.626C161.415 261.626 161.165 275.484 158.998 278.454C156.831 281.506 157.498 274.742 145.581 274.66C133.665 274.577 134.331 281.506 132.165 278.454C129.998 275.402 129.748 261.708 129.748 261.626C129.915 258.574 130.165 255.686 131.498 254.367C133.248 252.717 135.748 252.964 137.831 253.459C140.331 254.119 142.915 254.944 145.581 255.027C148.415 255.109 150.998 254.119 153.748 253.459C155.831 252.964 158.081 252.717 159.748 254.367C160.915 255.686 161.248 258.656 161.415 261.626Z" fill="#521F4D"/>
<path d="M187.581 308.729C175.915 305.924 159.248 305.181 159.248 305.181C150.665 311.946 139.081 312.028 131.498 305.181C131.498 305.181 115.081 306.254 103.498 308.976C110.998 324.484 126.998 335.208 145.498 335.208C164.081 335.126 180.165 324.319 187.581 308.729Z" fill="#8FA5E8"/>
<path d="M131.498 299.737V306.666C141.331 313.843 150.581 313.925 159.248 306.666V299.737C154.331 302.871 134.665 302.459 131.498 299.737Z" fill="#8FA5E8"/>
<path d="M145.083 309.388C143.75 309.388 142.417 309.306 141.083 309.223C138.5 308.976 132.417 308.151 131.25 305.511L131.833 305.264C132.583 306.914 136 308.151 141.167 308.646C148.25 309.223 157.167 308.151 159.083 305.264L159.583 305.594C157.833 308.151 151.417 309.388 145.083 309.388Z" fill="#6682C0"/>
<path d="M145.082 303.696C142.582 303.696 140.082 303.614 138.082 303.366C134.582 302.954 132.415 302.377 131.832 301.552L132.332 301.222C132.582 301.552 133.582 302.294 138.165 302.789C145.415 303.531 156.415 302.954 158.499 301.139L158.915 301.634C157.165 303.036 150.915 303.696 145.082 303.696Z" fill="#6682C0"/>
</g>
<path class="text" d="M108.166 363V353.872H110.42L111.89 357.932C111.983 358.203 112.072 358.483 112.156 358.772C112.24 359.052 112.329 359.332 112.422 359.612H112.478C112.571 359.332 112.655 359.052 112.73 358.772C112.814 358.483 112.903 358.203 112.996 357.932L114.438 353.872H116.678V363H114.802V359.654C114.802 359.43 114.811 359.183 114.83 358.912C114.849 358.641 114.872 358.371 114.9 358.1C114.928 357.82 114.956 357.549 114.984 357.288C115.012 357.017 115.04 356.77 115.068 356.546H115.012L114.27 358.716L112.968 362.202H111.834L110.532 358.716L109.804 356.546H109.748C109.776 356.77 109.804 357.017 109.832 357.288C109.86 357.549 109.888 357.82 109.916 358.1C109.944 358.371 109.967 358.641 109.986 358.912C110.005 359.183 110.014 359.43 110.014 359.654V363H108.166ZM118.83 363V353.872H120.888V361.264H124.5V363H118.83ZM128.879 363V353.872H134.591V355.608H130.937V357.442H134.045V359.164H130.937V361.264H134.731V363H128.879ZM136.381 363V356.056H138.061L138.201 356.938H138.257C138.555 356.658 138.882 356.415 139.237 356.21C139.591 355.995 140.007 355.888 140.483 355.888C141.239 355.888 141.785 356.135 142.121 356.63C142.466 357.125 142.639 357.811 142.639 358.688V363H140.581V358.954C140.581 358.45 140.511 358.105 140.371 357.918C140.24 357.731 140.025 357.638 139.727 357.638C139.465 357.638 139.241 357.699 139.055 357.82C138.868 357.932 138.663 358.095 138.439 358.31V363H136.381ZM146.87 365.954C146.46 365.954 146.077 365.917 145.722 365.842C145.377 365.777 145.069 365.674 144.798 365.534C144.537 365.394 144.332 365.212 144.182 364.988C144.033 364.764 143.958 364.498 143.958 364.19C143.958 363.63 144.29 363.163 144.952 362.79V362.734C144.766 362.613 144.612 362.459 144.49 362.272C144.369 362.085 144.308 361.847 144.308 361.558C144.308 361.306 144.383 361.068 144.532 360.844C144.682 360.611 144.868 360.415 145.092 360.256V360.2C144.85 360.032 144.63 359.794 144.434 359.486C144.248 359.169 144.154 358.805 144.154 358.394C144.154 357.974 144.234 357.61 144.392 357.302C144.551 356.985 144.761 356.723 145.022 356.518C145.293 356.303 145.601 356.145 145.946 356.042C146.292 355.939 146.651 355.888 147.024 355.888C147.435 355.888 147.794 355.944 148.102 356.056H150.636V357.554H149.53C149.596 357.657 149.647 357.787 149.684 357.946C149.731 358.105 149.754 358.277 149.754 358.464C149.754 358.865 149.684 359.215 149.544 359.514C149.404 359.803 149.208 360.046 148.956 360.242C148.714 360.429 148.424 360.569 148.088 360.662C147.762 360.755 147.407 360.802 147.024 360.802C146.754 360.802 146.474 360.755 146.184 360.662C146.091 360.737 146.026 360.811 145.988 360.886C145.951 360.961 145.932 361.059 145.932 361.18C145.932 361.357 146.007 361.488 146.156 361.572C146.315 361.656 146.59 361.698 146.982 361.698H148.102C148.961 361.698 149.614 361.838 150.062 362.118C150.52 362.389 150.748 362.837 150.748 363.462C150.748 363.826 150.655 364.157 150.468 364.456C150.291 364.764 150.034 365.025 149.698 365.24C149.362 365.464 148.956 365.637 148.48 365.758C148.004 365.889 147.468 365.954 146.87 365.954ZM147.024 359.556C147.295 359.556 147.519 359.463 147.696 359.276C147.883 359.08 147.976 358.786 147.976 358.394C147.976 358.03 147.883 357.755 147.696 357.568C147.519 357.372 147.295 357.274 147.024 357.274C146.754 357.274 146.525 357.367 146.338 357.554C146.161 357.741 146.072 358.021 146.072 358.394C146.072 358.786 146.161 359.08 146.338 359.276C146.525 359.463 146.754 359.556 147.024 359.556ZM147.192 364.666C147.659 364.666 148.042 364.582 148.34 364.414C148.639 364.255 148.788 364.055 148.788 363.812C148.788 363.597 148.695 363.453 148.508 363.378C148.331 363.303 148.07 363.266 147.724 363.266H147.01C146.768 363.266 146.572 363.257 146.422 363.238C146.273 363.229 146.142 363.21 146.03 363.182C145.778 363.406 145.652 363.635 145.652 363.868C145.652 364.129 145.792 364.325 146.072 364.456C146.352 364.596 146.726 364.666 147.192 364.666ZM151.871 363V356.056H153.929V363H151.871ZM152.893 355.034C152.548 355.034 152.263 354.936 152.039 354.74C151.815 354.535 151.703 354.273 151.703 353.956C151.703 353.639 151.815 353.382 152.039 353.186C152.263 352.99 152.548 352.892 152.893 352.892C153.248 352.892 153.532 352.99 153.747 353.186C153.971 353.382 154.083 353.639 154.083 353.956C154.083 354.273 153.971 354.535 153.747 354.74C153.532 354.936 153.248 355.034 152.893 355.034ZM155.74 363V356.056H157.42L157.56 356.938H157.616C157.915 356.658 158.241 356.415 158.596 356.21C158.951 355.995 159.366 355.888 159.842 355.888C160.598 355.888 161.144 356.135 161.48 356.63C161.825 357.125 161.998 357.811 161.998 358.688V363H159.94V358.954C159.94 358.45 159.87 358.105 159.73 357.918C159.599 357.731 159.385 357.638 159.086 357.638C158.825 357.638 158.601 357.699 158.414 357.82C158.227 357.932 158.022 358.095 157.798 358.31V363H155.74ZM166.86 363.168C166.365 363.168 165.903 363.089 165.474 362.93C165.044 362.762 164.671 362.524 164.354 362.216C164.036 361.899 163.789 361.516 163.612 361.068C163.434 360.62 163.346 360.107 163.346 359.528C163.346 358.968 163.439 358.464 163.626 358.016C163.812 357.559 164.055 357.176 164.354 356.868C164.662 356.551 165.012 356.308 165.404 356.14C165.796 355.972 166.202 355.888 166.622 355.888C167.116 355.888 167.546 355.972 167.91 356.14C168.283 356.308 168.591 356.541 168.834 356.84C169.086 357.139 169.272 357.493 169.394 357.904C169.515 358.305 169.576 358.744 169.576 359.22C169.576 359.407 169.566 359.584 169.548 359.752C169.529 359.92 169.51 360.046 169.492 360.13H165.334C165.427 360.634 165.632 361.007 165.95 361.25C166.276 361.483 166.673 361.6 167.14 361.6C167.634 361.6 168.134 361.446 168.638 361.138L169.324 362.384C168.969 362.627 168.572 362.818 168.134 362.958C167.704 363.098 167.28 363.168 166.86 363.168ZM165.32 358.772H167.826C167.826 358.38 167.737 358.063 167.56 357.82C167.382 357.577 167.084 357.456 166.664 357.456C166.337 357.456 166.048 357.563 165.796 357.778C165.553 357.993 165.394 358.324 165.32 358.772ZM174.106 363.168C173.611 363.168 173.149 363.089 172.72 362.93C172.291 362.762 171.917 362.524 171.6 362.216C171.283 361.899 171.035 361.516 170.858 361.068C170.681 360.62 170.592 360.107 170.592 359.528C170.592 358.968 170.685 358.464 170.872 358.016C171.059 357.559 171.301 357.176 171.6 356.868C171.908 356.551 172.258 356.308 172.65 356.14C173.042 355.972 173.448 355.888 173.868 355.888C174.363 355.888 174.792 355.972 175.156 356.14C175.529 356.308 175.837 356.541 176.08 356.84C176.332 357.139 176.519 357.493 176.64 357.904C176.761 358.305 176.822 358.744 176.822 359.22C176.822 359.407 176.813 359.584 176.794 359.752C176.775 359.92 176.757 360.046 176.738 360.13H172.58C172.673 360.634 172.879 361.007 173.196 361.25C173.523 361.483 173.919 361.6 174.386 361.6C174.881 361.6 175.38 361.446 175.884 361.138L176.57 362.384C176.215 362.627 175.819 362.818 175.38 362.958C174.951 363.098 174.526 363.168 174.106 363.168ZM172.566 358.772H175.072C175.072 358.38 174.983 358.063 174.806 357.82C174.629 357.577 174.33 357.456 173.91 357.456C173.583 357.456 173.294 357.563 173.042 357.778C172.799 357.993 172.641 358.324 172.566 358.772ZM178.244 363V356.056H179.924L180.064 357.274H180.12C180.372 356.798 180.675 356.448 181.03 356.224C181.385 356 181.739 355.888 182.094 355.888C182.29 355.888 182.449 355.902 182.57 355.93C182.701 355.949 182.817 355.981 182.92 356.028L182.584 357.806C182.453 357.769 182.332 357.741 182.22 357.722C182.108 357.703 181.977 357.694 181.828 357.694C181.567 357.694 181.291 357.787 181.002 357.974C180.722 358.161 180.489 358.492 180.302 358.968V363H178.244Z" fill="#545770"/>
</g>
<g class="zoom-animation">
<g class="zoom">
<circle cx="249" cy="124" r="52" stroke="#9D60FB" stroke-width="2" stroke-dasharray="8 8" class="dash-border"/>
<path d="M249.5 171.6C275.181 171.6 296 150.781 296 125.1C296 99.4187 275.181 78.6 249.5 78.6C223.819 78.6 203 99.4187 203 125.1C203 150.781 223.819 171.6 249.5 171.6Z" fill="#EBDFFE"/>
<path d="M279.917 149.6C293.084 140.683 285.25 126.1 273.334 106.517C271.584 103.683 270.5 100.517 269.834 97.3501C267.917 87.8501 259.5 80.7667 249.417 80.7667C239.25 80.7667 230.834 88.0167 229 97.6001C228.334 100.933 227.334 104.183 225.667 107.183C214.75 127.85 204 144.6 219.667 149.683H279.917V149.6Z" fill="#521F4D"/>
<path d="M260.334 118.933H238.584V146.767H260.334V118.933Z" fill="#EE938B"/>
<path d="M289.501 148.85C279.251 144.517 260.501 141.267 260.501 141.267C253.335 147.35 244.251 147.267 238.585 141.267C238.585 141.267 219.668 144.1 208.918 147.85C216.585 161.433 230.835 170.767 247.335 171.517C248.085 171.517 248.835 171.6 249.585 171.6C266.585 171.6 281.418 162.433 289.501 148.85Z" fill="#A460FB"/>
<path d="M238.585 138.1L234.252 141.933C234.252 141.933 236.752 152.767 241.835 152.933C246.919 153.1 249.335 145.767 249.335 145.767C244.585 144.517 240.919 141.933 238.585 138.1Z" fill="white"/>
<path d="M260.418 138.1L264.751 141.933C264.751 141.933 262.251 152.767 257.168 152.933C252.085 153.1 249.668 145.767 249.668 145.767C254.418 144.517 258.001 141.933 260.418 138.1Z" fill="white"/>
<path d="M249.5 91.9333C255.023 91.9333 259.5 87.4562 259.5 81.9333C259.5 76.4105 255.023 71.9333 249.5 71.9333C243.977 71.9333 239.5 76.4105 239.5 81.9333C239.5 87.4562 243.977 91.9333 249.5 91.9333Z" fill="#521F4D"/>
<path d="M249.501 85.2668C235.418 85.2668 232.251 95.7668 232.584 106.434C232.584 114.1 232.084 116.517 232.751 118.434C233.168 121.1 238.584 134.85 249.501 134.85C260.418 134.85 265.418 121.85 266.334 118.434C267.084 116.517 266.418 114.1 266.418 106.434C266.668 95.8502 263.501 85.2668 249.501 85.2668Z" fill="#EE938B"/>
<path d="M249.499 135.184C245.416 135.184 241.666 133.35 238.416 129.684L238.916 129.267C242.083 132.767 245.666 134.517 249.583 134.517C253.583 134.517 257.166 132.767 260.249 129.267L260.749 129.684C257.416 133.267 253.666 135.184 249.499 135.184Z" fill="#D16363"/>
<path d="M233.167 106.683C233.167 106.683 230.334 103.017 227.417 105.183C224.5 107.35 227.334 119.433 233.167 117.267C238.917 115.1 233.167 106.683 233.167 106.683Z" fill="#EE938B"/>
<path d="M265.833 106.683C265.833 106.683 268.666 103.017 271.583 105.183C274.5 107.35 271.666 119.433 265.833 117.267C260.083 115.1 265.833 106.683 265.833 106.683Z" fill="#EE938B"/>
<path d="M231.966 112.259L231.389 112.339L232.114 117.539L232.691 117.459L231.966 112.259Z" fill="#D16363"/>
<path d="M266.871 112.222L266.385 117.449L266.966 117.503L267.452 112.276L266.871 112.222Z" fill="#D16363"/>
<path d="M228.833 111.433C228.167 109.6 228.167 108.267 228.75 107.433C229.25 106.767 230 106.85 230 106.85V107.433V107.1V107.433C230 107.433 229.583 107.433 229.25 107.767C228.917 108.183 228.75 109.1 229.417 111.183L228.833 111.433Z" fill="#D16363"/>
<path d="M270.335 111.433L269.751 111.267C270.501 109.183 270.251 108.267 269.918 107.85C269.668 107.433 269.168 107.517 269.168 107.517V106.933C269.168 106.933 269.918 106.933 270.418 107.517C271.001 108.267 271.001 109.6 270.335 111.433Z" fill="#D16363"/>
<path d="M269.001 118.1C269.738 118.1 270.335 117.503 270.335 116.767C270.335 116.03 269.738 115.433 269.001 115.433C268.265 115.433 267.668 116.03 267.668 116.767C267.668 117.503 268.265 118.1 269.001 118.1Z" fill="white"/>
<path d="M230.167 118.1C230.904 118.1 231.501 117.503 231.501 116.767C231.501 116.03 230.904 115.433 230.167 115.433C229.431 115.433 228.834 116.03 228.834 116.767C228.834 117.503 229.431 118.1 230.167 118.1Z" fill="white"/>
<path d="M231.834 101.35C243.001 103.683 254.751 103.85 267.167 101.35C267.167 101.35 267.417 84.1834 250.001 83.6001C232.501 83.0167 231.834 101.35 231.834 101.35Z" fill="#521F4D"/>
<path d="M259.251 83.5167C252.751 81.0167 246.168 81.0167 239.668 83.5167L239.418 82.9333C246.085 80.35 252.751 80.35 259.418 82.9333L259.251 83.5167Z" fill="#793473"/>
<path d="M267.667 101.1C267.167 96.2667 265.501 91.9334 262.584 88.4334L263.084 88.0167C266.084 91.6834 267.834 96.0167 268.334 101.017L267.667 101.1Z" fill="#793473"/>
<path d="M231.749 101.1L231.166 101.017C231.666 96.0167 233.416 91.6001 236.416 88.0167L236.916 88.4334C233.916 91.9334 232.249 96.2667 231.749 101.1Z" fill="#793473"/>
<path d="M237.417 102.267L236.834 102.183C237.084 99.4332 237.584 96.6832 238.501 93.9332L239.084 94.0999C238.167 96.8499 237.667 99.5999 237.417 102.267Z" fill="#793473"/>
<path d="M259.833 102.6H259.167C259.25 100.767 258.917 98.5167 258.25 96.1L258.833 95.9333C259.583 98.4333 259.833 100.683 259.833 102.6Z" fill="#793473"/>
<path d="M257.667 93.9333C257.167 92.5166 256.834 91.5166 256.834 91.5166L257.417 91.2666C257.417 91.2666 257.834 92.2666 258.334 93.6833L257.667 93.9333Z" fill="#793473"/>
</g>
<path class="text" d="M243.3 200V190.872H245.876C246.576 190.872 247.206 190.961 247.766 191.138C248.326 191.315 248.806 191.591 249.208 191.964C249.609 192.328 249.917 192.795 250.132 193.364C250.346 193.933 250.454 194.61 250.454 195.394C250.454 196.178 250.346 196.859 250.132 197.438C249.917 198.017 249.614 198.497 249.222 198.88C248.83 199.253 248.358 199.533 247.808 199.72C247.266 199.907 246.66 200 245.988 200H243.3ZM245.358 198.334H245.75C246.142 198.334 246.496 198.283 246.814 198.18C247.131 198.077 247.402 197.914 247.626 197.69C247.85 197.457 248.022 197.153 248.144 196.78C248.274 196.407 248.34 195.945 248.34 195.394C248.34 194.853 248.274 194.4 248.144 194.036C248.022 193.663 247.85 193.369 247.626 193.154C247.402 192.93 247.131 192.771 246.814 192.678C246.496 192.585 246.142 192.538 245.75 192.538H245.358V198.334ZM252.186 200V190.872H257.898V192.608H254.244V194.442H257.352V196.164H254.244V198.264H258.038V200H252.186Z" fill="#545770"/>
</g>
<g class="zoom-animation">
<g class="zoom">
<path class="dash-border" d="M439.599 255.554C440.214 258.236 440.635 260.997 440.845 263.817L439.848 263.892C439.949 265.247 440 266.617 440 268C440 269.383 439.949 270.753 439.848 272.108L440.845 272.183C440.635 275.003 440.214 277.764 439.599 280.446L438.624 280.223C438.005 282.919 437.187 285.536 436.185 288.056L437.114 288.425C436.077 291.036 434.846 293.544 433.441 295.931L432.579 295.424C431.183 297.794 429.612 300.043 427.884 302.151L428.658 302.785C426.885 304.948 424.951 306.965 422.874 308.818L422.208 308.071C420.165 309.893 417.982 311.551 415.677 313.028L416.217 313.87C413.875 315.37 411.41 316.686 408.84 317.798L408.443 316.88C405.951 317.958 403.358 318.841 400.685 319.508L400.927 320.478C398.253 321.146 395.498 321.603 392.682 321.831L392.601 320.834C391.248 320.944 389.881 321 388.5 321C387.119 321 385.752 320.944 384.399 320.834L384.318 321.831C381.502 321.603 378.747 321.146 376.073 320.478L376.315 319.508C373.642 318.841 371.049 317.958 368.557 316.88L368.16 317.798C365.59 316.686 363.125 315.37 360.783 313.87L361.323 313.028C359.018 311.551 356.835 309.893 354.792 308.071L354.126 308.818C352.049 306.965 350.115 304.948 348.342 302.785L349.116 302.151C347.388 300.043 345.817 297.794 344.421 295.424L343.559 295.931C342.154 293.544 340.923 291.036 339.886 288.425L340.815 288.056C339.813 285.536 338.995 282.919 338.376 280.223L337.401 280.446C336.786 277.764 336.365 275.003 336.155 272.183L337.152 272.108C337.051 270.753 337 269.383 337 268C337 266.617 337.051 265.247 337.152 263.892L336.155 263.817C336.365 260.997 336.786 258.236 337.401 255.554L338.376 255.777C338.995 253.081 339.813 250.464 340.815 247.944L339.886 247.575C340.923 244.964 342.154 242.456 343.559 240.069L344.421 240.576C345.817 238.206 347.388 235.957 349.116 233.849L348.342 233.215C350.115 231.052 352.049 229.035 354.126 227.182L354.792 227.929C356.835 226.107 359.018 224.449 361.323 222.972L360.783 222.13C363.125 220.63 365.59 219.314 368.16 218.202L368.557 219.12C371.049 218.042 373.642 217.159 376.315 216.492L376.073 215.522C378.747 214.854 381.502 214.397 384.318 214.169L384.399 215.166C385.752 215.056 387.119 215 388.5 215C389.881 215 391.248 215.056 392.601 215.166L392.682 214.169C395.498 214.397 398.253 214.854 400.927 215.522L400.685 216.492C403.358 217.159 405.951 218.042 408.443 219.12L408.84 218.202C411.41 219.314 413.875 220.63 416.217 222.13L415.677 222.972C417.982 224.449 420.165 226.107 422.208 227.929L422.874 227.182C424.951 229.035 426.885 231.052 428.658 233.215L427.884 233.849C429.612 235.957 431.183 238.206 432.579 240.576L433.441 240.069C434.846 242.456 436.077 244.964 437.114 247.575L436.185 247.944C437.187 250.464 438.005 253.081 438.624 255.777L439.599 255.554Z" stroke="#9D60FB" stroke-width="2" stroke-dasharray="8 8"/>
<path d="M388.5 317.9C414.181 317.9 435 297.081 435 271.4C435 245.719 414.181 224.9 388.5 224.9C362.819 224.9 342 245.719 342 271.4C342 297.081 362.819 317.9 388.5 317.9Z" fill="#EBDFFE"/>
<path d="M402.333 265.317H374.75V293.15H402.333V265.317Z" fill="#845D59"/>
<path d="M412.584 245.817C411.251 242.567 408.417 244.15 408.417 244.15C410.084 229.4 402.584 219.65 388.501 219.65C374.417 219.65 366.917 229.4 368.501 244.15C368.501 244.15 365.751 242.567 364.334 245.817C363.001 249.067 365.417 256.65 367.001 259.067C368.501 261.483 371.251 260.9 371.251 260.9C371.251 260.9 371.417 265.983 372.167 267.9C372.834 269.817 377.834 281.15 388.501 281.15C399.167 281.15 404.084 269.733 404.834 267.9C405.501 265.983 405.751 260.65 405.751 260.65C405.751 260.65 408.501 261.4 410.001 258.983C411.501 256.65 414.001 249.067 412.584 245.817Z" fill="#845D59"/>
<path d="M388.501 281.483C381.835 281.483 375.585 274.317 374.418 272.817L374.918 272.4C376.085 273.817 382.085 280.817 388.501 280.817C395.001 280.817 400.918 273.9 402.085 272.567L402.585 272.983C401.418 274.4 395.251 281.483 388.501 281.483Z" fill="#59423F"/>
<path d="M371.369 256.968L370.787 257.007L371.048 260.915L371.63 260.876L371.369 256.968Z" fill="#59423F"/>
<path d="M405.72 256.958L405.422 260.696L406.086 260.749L406.384 257.011L405.72 256.958Z" fill="#59423F"/>
<path d="M366.25 253.15C365.334 249.65 365.5 247.567 366.667 246.483L367.084 246.983C366.084 247.9 366 249.9 366.834 253.067L366.25 253.15Z" fill="#59423F"/>
<path d="M410.917 253.15L410.334 252.983C411.167 249.817 411.084 247.817 410.084 246.9L410.501 246.4C411.667 247.567 411.834 249.65 410.917 253.15Z" fill="#59423F"/>
<path d="M411.168 230.4C405.918 226.233 400.752 221.983 396.752 220.983C394.335 220.15 391.585 219.65 388.502 219.65C378.918 219.65 370.918 222.567 369.752 231.65C365.335 233.483 366.168 240.65 367.085 243.733C367.085 243.733 367.835 243.733 368.502 244.15C370.335 245.4 370.752 248.65 370.502 251.9C374.668 251.9 371.502 238.483 374.835 235.15C387.252 242.983 403.752 238.817 403.752 238.817C404.252 243.9 403.502 251.817 406.502 251.817C406.168 248.817 406.168 245.4 408.502 244.15C408.835 241.233 408.752 238.483 408.418 235.9C409.835 234.567 411.085 232.733 411.168 230.4Z" fill="#FFB647"/>
<path d="M377.835 260.817C373.085 260.817 369.168 256.9 369.168 252.15C369.168 247.4 373.085 243.483 377.835 243.483C382.585 243.483 386.501 247.4 386.501 252.15C386.501 256.9 382.585 260.817 377.835 260.817ZM377.835 244.15C373.418 244.15 369.835 247.733 369.835 252.15C369.835 256.567 373.418 260.15 377.835 260.15C382.251 260.15 385.835 256.567 385.835 252.15C385.835 247.733 382.251 244.15 377.835 244.15Z" fill="white"/>
<path d="M399.167 260.817C394.417 260.817 390.5 256.9 390.5 252.15C390.5 247.4 394.417 243.483 399.167 243.483C403.917 243.483 407.833 247.4 407.833 252.15C407.833 256.9 403.917 260.817 399.167 260.817ZM399.167 244.15C394.75 244.15 391.167 247.733 391.167 252.15C391.167 256.567 394.75 260.15 399.167 260.15C403.583 260.15 407.167 256.567 407.167 252.15C407.167 247.733 403.583 244.15 399.167 244.15Z" fill="white"/>
<path d="M390.918 250.233C390.001 249.4 389.001 248.983 388.085 249.067C387.335 249.15 386.668 249.483 386.168 250.15L385.668 249.817C386.251 249.067 387.085 248.567 388.001 248.483C389.168 248.4 390.335 248.817 391.335 249.817L390.918 250.233Z" fill="white"/>
<path d="M428.25 295.567C415.083 289.733 402.333 287.65 402.333 287.65C395.75 294.483 380.5 294.567 374.75 287.65C374.75 287.65 361.917 289.733 348.75 295.567C356.917 308.983 371.667 317.9 388.5 317.9C405.333 317.983 420.083 308.983 428.25 295.567Z" fill="#8FA5E8"/>
<path d="M388.083 296.9C380.499 296.9 373.833 293.734 369.666 288.9L370.166 288.484C377.749 297.317 393.416 300.234 408.499 288.817L408.916 289.317C401.749 294.65 394.583 296.9 388.083 296.9Z" fill="#6682C0"/>
</g>
<path class="text" d="M347.565 346V336.872H350.141C350.841 336.872 351.471 336.961 352.031 337.138C352.591 337.315 353.072 337.591 353.473 337.964C353.875 338.328 354.183 338.795 354.397 339.364C354.612 339.933 354.719 340.61 354.719 341.394C354.719 342.178 354.612 342.859 354.397 343.438C354.183 344.017 353.879 344.497 353.487 344.88C353.095 345.253 352.624 345.533 352.073 345.72C351.532 345.907 350.925 346 350.253 346H347.565ZM349.623 344.334H350.015C350.407 344.334 350.762 344.283 351.079 344.18C351.397 344.077 351.667 343.914 351.891 343.69C352.115 343.457 352.288 343.153 352.409 342.78C352.54 342.407 352.605 341.945 352.605 341.394C352.605 340.853 352.54 340.4 352.409 340.036C352.288 339.663 352.115 339.369 351.891 339.154C351.667 338.93 351.397 338.771 351.079 338.678C350.762 338.585 350.407 338.538 350.015 338.538H349.623V344.334ZM359.238 346.168C358.641 346.168 358.043 346.061 357.446 345.846C356.858 345.622 356.331 345.291 355.864 344.852L357.04 343.438C357.367 343.718 357.726 343.947 358.118 344.124C358.519 344.301 358.911 344.39 359.294 344.39C359.723 344.39 360.041 344.311 360.246 344.152C360.461 343.993 360.568 343.779 360.568 343.508C360.568 343.368 360.535 343.247 360.47 343.144C360.414 343.041 360.325 342.953 360.204 342.878C360.092 342.794 359.952 342.719 359.784 342.654C359.625 342.579 359.448 342.5 359.252 342.416L358.062 341.912C357.829 341.819 357.6 341.697 357.376 341.548C357.161 341.399 356.965 341.226 356.788 341.03C356.62 340.825 356.485 340.591 356.382 340.33C356.279 340.059 356.228 339.756 356.228 339.42C356.228 339.047 356.307 338.697 356.466 338.37C356.625 338.034 356.849 337.745 357.138 337.502C357.427 337.25 357.768 337.054 358.16 336.914C358.561 336.774 359 336.704 359.476 336.704C360.008 336.704 360.531 336.807 361.044 337.012C361.567 337.217 362.024 337.516 362.416 337.908L361.366 339.21C361.067 338.977 360.769 338.799 360.47 338.678C360.171 338.547 359.84 338.482 359.476 338.482C359.121 338.482 358.837 338.557 358.622 338.706C358.417 338.846 358.314 339.047 358.314 339.308C358.314 339.448 358.347 339.569 358.412 339.672C358.487 339.765 358.585 339.854 358.706 339.938C358.837 340.013 358.986 340.087 359.154 340.162C359.322 340.227 359.504 340.302 359.7 340.386L360.876 340.862C361.436 341.086 361.875 341.394 362.192 341.786C362.519 342.178 362.682 342.696 362.682 343.34C362.682 343.723 362.603 344.087 362.444 344.432C362.295 344.768 362.071 345.067 361.772 345.328C361.483 345.58 361.123 345.785 360.694 345.944C360.265 346.093 359.779 346.168 359.238 346.168ZM368.812 346V338.608H366.306V336.872H373.39V338.608H370.884V346H368.812ZM376.687 346.168C376.192 346.168 375.73 346.089 375.301 345.93C374.872 345.762 374.498 345.524 374.181 345.216C373.864 344.899 373.616 344.516 373.439 344.068C373.262 343.62 373.173 343.107 373.173 342.528C373.173 341.968 373.266 341.464 373.453 341.016C373.64 340.559 373.882 340.176 374.181 339.868C374.489 339.551 374.839 339.308 375.231 339.14C375.623 338.972 376.029 338.888 376.449 338.888C376.944 338.888 377.373 338.972 377.737 339.14C378.11 339.308 378.418 339.541 378.661 339.84C378.913 340.139 379.1 340.493 379.221 340.904C379.342 341.305 379.403 341.744 379.403 342.22C379.403 342.407 379.394 342.584 379.375 342.752C379.356 342.92 379.338 343.046 379.319 343.13H375.161C375.254 343.634 375.46 344.007 375.777 344.25C376.104 344.483 376.5 344.6 376.967 344.6C377.462 344.6 377.961 344.446 378.465 344.138L379.151 345.384C378.796 345.627 378.4 345.818 377.961 345.958C377.532 346.098 377.107 346.168 376.687 346.168ZM375.147 341.772H377.653C377.653 341.38 377.564 341.063 377.387 340.82C377.21 340.577 376.911 340.456 376.491 340.456C376.164 340.456 375.875 340.563 375.623 340.778C375.38 340.993 375.222 341.324 375.147 341.772ZM382.425 346.168C382.107 346.168 381.818 346.112 381.557 346C381.305 345.897 381.09 345.753 380.913 345.566C380.735 345.37 380.595 345.146 380.493 344.894C380.399 344.642 380.353 344.367 380.353 344.068C380.353 343.34 380.661 342.771 381.277 342.36C381.893 341.949 382.887 341.674 384.259 341.534C384.24 341.226 384.147 340.983 383.979 340.806C383.82 340.619 383.549 340.526 383.167 340.526C382.868 340.526 382.569 340.582 382.271 340.694C381.981 340.806 381.669 340.96 381.333 341.156L380.591 339.798C381.039 339.527 381.505 339.308 381.991 339.14C382.485 338.972 383.008 338.888 383.559 338.888C384.455 338.888 385.136 339.145 385.603 339.658C386.079 340.162 386.317 340.951 386.317 342.024V346H384.637L384.497 345.286H384.441C384.142 345.547 383.829 345.762 383.503 345.93C383.176 346.089 382.817 346.168 382.425 346.168ZM383.125 344.572C383.358 344.572 383.559 344.521 383.727 344.418C383.895 344.315 384.072 344.171 384.259 343.984V342.766C383.531 342.869 383.027 343.018 382.747 343.214C382.467 343.41 382.327 343.643 382.327 343.914C382.327 344.138 382.397 344.306 382.537 344.418C382.686 344.521 382.882 344.572 383.125 344.572ZM388.057 346V339.056H389.737L389.877 339.952H389.933C390.223 339.663 390.531 339.415 390.857 339.21C391.184 338.995 391.576 338.888 392.033 338.888C392.528 338.888 392.925 338.991 393.223 339.196C393.531 339.392 393.774 339.677 393.951 340.05C394.259 339.733 394.581 339.462 394.917 339.238C395.263 339.005 395.669 338.888 396.135 338.888C396.882 338.888 397.428 339.14 397.773 339.644C398.128 340.139 398.305 340.82 398.305 341.688V346H396.247V341.954C396.247 341.45 396.177 341.105 396.037 340.918C395.907 340.731 395.692 340.638 395.393 340.638C395.048 340.638 394.651 340.862 394.203 341.31V346H392.145V341.954C392.145 341.45 392.075 341.105 391.935 340.918C391.805 340.731 391.59 340.638 391.291 340.638C390.937 340.638 390.545 340.862 390.115 341.31V346H388.057ZM403.032 346V336.872H405.09V344.264H408.702V346H403.032ZM413.027 346.168C412.532 346.168 412.07 346.089 411.641 345.93C411.211 345.762 410.838 345.524 410.521 345.216C410.203 344.899 409.956 344.516 409.779 344.068C409.601 343.62 409.513 343.107 409.513 342.528C409.513 341.968 409.606 341.464 409.793 341.016C409.979 340.559 410.222 340.176 410.521 339.868C410.829 339.551 411.179 339.308 411.571 339.14C411.963 338.972 412.369 338.888 412.789 338.888C413.283 338.888 413.713 338.972 414.077 339.14C414.45 339.308 414.758 339.541 415.001 339.84C415.253 340.139 415.439 340.493 415.561 340.904C415.682 341.305 415.743 341.744 415.743 342.22C415.743 342.407 415.733 342.584 415.715 342.752C415.696 342.92 415.677 343.046 415.659 343.13H411.501C411.594 343.634 411.799 344.007 412.117 344.25C412.443 344.483 412.84 344.6 413.307 344.6C413.801 344.6 414.301 344.446 414.805 344.138L415.491 345.384C415.136 345.627 414.739 345.818 414.301 345.958C413.871 346.098 413.447 346.168 413.027 346.168ZM411.487 341.772H413.993C413.993 341.38 413.904 341.063 413.727 340.82C413.549 340.577 413.251 340.456 412.831 340.456C412.504 340.456 412.215 340.563 411.963 340.778C411.72 340.993 411.561 341.324 411.487 341.772ZM418.764 346.168C418.447 346.168 418.158 346.112 417.896 346C417.644 345.897 417.43 345.753 417.252 345.566C417.075 345.37 416.935 345.146 416.832 344.894C416.739 344.642 416.692 344.367 416.692 344.068C416.692 343.34 417 342.771 417.616 342.36C418.232 341.949 419.226 341.674 420.598 341.534C420.58 341.226 420.486 340.983 420.318 340.806C420.16 340.619 419.889 340.526 419.506 340.526C419.208 340.526 418.909 340.582 418.61 340.694C418.321 340.806 418.008 340.96 417.672 341.156L416.93 339.798C417.378 339.527 417.845 339.308 418.33 339.14C418.825 338.972 419.348 338.888 419.898 338.888C420.794 338.888 421.476 339.145 421.942 339.658C422.418 340.162 422.656 340.951 422.656 342.024V346H420.976L420.836 345.286H420.78C420.482 345.547 420.169 345.762 419.842 345.93C419.516 346.089 419.156 346.168 418.764 346.168ZM419.464 344.572C419.698 344.572 419.898 344.521 420.066 344.418C420.234 344.315 420.412 344.171 420.598 343.984V342.766C419.87 342.869 419.366 343.018 419.086 343.214C418.806 343.41 418.666 343.643 418.666 343.914C418.666 344.138 418.736 344.306 418.876 344.418C419.026 344.521 419.222 344.572 419.464 344.572ZM426.875 346.168C426.446 346.168 426.054 346.084 425.699 345.916C425.354 345.748 425.055 345.51 424.803 345.202C424.561 344.885 424.369 344.502 424.229 344.054C424.099 343.606 424.033 343.097 424.033 342.528C424.033 341.959 424.113 341.45 424.271 341.002C424.439 340.554 424.654 340.176 424.915 339.868C425.186 339.551 425.494 339.308 425.839 339.14C426.194 338.972 426.553 338.888 426.917 338.888C427.309 338.888 427.631 338.953 427.883 339.084C428.135 339.215 428.383 339.392 428.625 339.616L428.541 338.552V336.186H430.599V346H428.919L428.779 345.314H428.723C428.481 345.557 428.196 345.762 427.869 345.93C427.543 346.089 427.211 346.168 426.875 346.168ZM427.407 344.488C427.631 344.488 427.832 344.441 428.009 344.348C428.196 344.255 428.373 344.091 428.541 343.858V341.016C428.355 340.848 428.163 340.731 427.967 340.666C427.771 340.601 427.58 340.568 427.393 340.568C427.067 340.568 426.777 340.727 426.525 341.044C426.273 341.352 426.147 341.837 426.147 342.5C426.147 343.191 426.255 343.695 426.469 344.012C426.693 344.329 427.006 344.488 427.407 344.488Z" fill="#545770"/>
</g>
<g class="zoom-animation">
<g class="zoom">
<circle class="dash-border" cx="451.5" cy="55.5" r="52.5" stroke="#9D60FB" stroke-width="2" stroke-dasharray="8 8"/>
<path d="M451.5 102.167C477.181 102.167 498 81.348 498 55.6668C498 29.9855 477.181 9.16675 451.5 9.16675C425.819 9.16675 405 29.9855 405 55.6668C405 81.348 425.819 102.167 451.5 102.167Z" fill="#9D60FB"/>
<path d="M478.582 51.9167C481.832 32.75 473.999 8.41669 452.332 7.00003C445.416 6.58336 438.666 9.08336 435.166 14C423.166 18.75 422.166 39.75 423.499 47C427.166 66.8334 409.499 63.4167 413.999 82L450.916 80H452.332L488.582 80.5C491.666 66.4167 477.082 67.4167 478.582 51.9167Z" fill="#521F4D"/>
<path d="M462.332 49.5H440.582V77.3333H462.332V49.5Z" fill="#EE938B"/>
<path d="M491.499 79.4167C481.249 75.1667 462.499 71.9167 462.499 71.9167C455.333 78.0001 446.249 77.9167 440.583 71.9167C440.583 71.9167 421.666 74.7501 410.916 78.5001C418.583 92.0834 432.833 101.417 449.333 102.167C450.083 102.167 450.833 102.25 451.583 102.25C468.583 102.167 483.416 93.0001 491.499 79.4167Z" fill="#E8525F"/>
<path d="M470.75 46.1667C469.917 46.1667 469.25 47.3334 469.25 48.7501C469.25 50.1667 469.917 51.3334 470.75 51.3334C471.583 51.3334 472.25 50.1667 472.25 48.7501C472.25 47.3334 471.583 46.1667 470.75 46.1667ZM470.75 50.2501C470.167 50.2501 469.75 49.4167 469.75 48.4167C469.75 47.4167 470.167 46.5834 470.75 46.5834C471.333 46.5834 471.75 47.4167 471.75 48.4167C471.833 49.5001 471.333 50.2501 470.75 50.2501Z" fill="white"/>
<path d="M430.666 48.8334C430.666 50.2501 431.333 51.4167 432.166 51.4167C432.999 51.4167 433.666 50.2501 433.666 48.8334C433.666 47.4167 432.916 46.1667 432.166 46.1667C431.333 46.1667 430.666 47.3334 430.666 48.8334ZM431.166 48.5001C431.166 47.5001 431.583 46.6667 432.166 46.6667C432.749 46.6667 433.166 47.5001 433.166 48.5001C433.166 49.5001 432.749 50.3334 432.166 50.3334C431.583 50.2501 431.166 49.5001 431.166 48.5001Z" fill="white"/>
<path d="M451.5 15.9167C437.417 15.9167 434.25 26.4167 434.584 37.0834C434.584 44.7501 434.5 50.3334 435.25 52.2501C435.917 54.1667 440.917 65.5001 451.5 65.5001C462.167 65.5001 467.084 54.0834 467.75 52.2501C468.5 50.3334 468.417 44.7501 468.417 37.0834C468.75 26.4167 465.5 15.9167 451.5 15.9167Z" fill="#EE938B"/>
<path d="M451.501 65.75C447.334 65.75 443.584 64.0833 440.334 60.6667L440.751 60.25C443.917 63.5 447.501 65.0833 451.501 65.0833C455.417 65.0833 459.001 63.5 462.084 60.4167L462.501 60.8333C459.334 64.0833 455.584 65.75 451.501 65.75Z" fill="#D16363"/>
<path d="M435.167 36.6667C435.167 36.6667 432.334 32.5 429.417 34.9167C426.5 37.3334 429.334 51.1667 435.167 48.75C440.917 46.25 435.167 36.6667 435.167 36.6667Z" fill="#EE938B"/>
<path d="M467.833 36.6667C467.833 36.6667 470.666 32.5 473.583 34.9167C476.5 37.3334 473.666 51.1667 467.833 48.75C462.083 46.25 467.833 36.6667 467.833 36.6667Z" fill="#EE938B"/>
<path d="M434.753 44.3955L434.088 44.4448L434.421 48.9327L435.086 48.8833L434.753 44.3955Z" fill="#D16363"/>
<path d="M468.322 43.9311L467.957 48.834L468.622 48.8835L468.987 43.9806L468.322 43.9311Z" fill="#D16363"/>
<path d="M430.834 42.0834C430.167 39.8334 430.167 38.3334 430.834 37.5001C431.334 36.9167 432.001 36.9167 432.001 36.9167V37.5001V37.1667V37.5001C432.001 37.5001 431.584 37.5001 431.334 37.8334C431.084 38.1667 430.667 39.2501 431.501 41.8334L430.834 42.0834Z" fill="#D16363"/>
<path d="M472.333 42.0833L471.75 41.9167C472.5 39.3333 472.167 38.25 471.917 37.9167C471.667 37.5833 471.25 37.5833 471.25 37.5833V37C471.25 37 471.917 37 472.417 37.5833C473.083 38.3333 473 39.8333 472.333 42.0833Z" fill="#D16363"/>
<path d="M433.334 49.5001C433.251 49.5001 433.167 49.5001 433.001 49.5001H432.917C432.751 50.0001 432.417 50.3334 432.084 50.3334C431.501 50.3334 431.084 49.5001 431.084 48.5001C431.084 47.5001 431.501 46.6667 432.084 46.6667C432.417 46.6667 432.334 46.1667 432.084 46.1667C431.251 46.1667 430.584 47.3334 430.584 48.7501C430.584 50.1667 431.251 51.3334 432.084 51.3334C432.751 51.3334 433.334 50.5001 433.501 49.4167C433.501 49.5001 433.417 49.5001 433.334 49.5001Z" fill="white"/>
<path d="M470.833 46.1667C470.583 46.1667 470.5 46.5834 470.833 46.6667C471.417 46.6667 471.833 47.5001 471.833 48.5001C471.833 49.5001 471.417 50.3334 470.833 50.3334C470.5 50.3334 470.25 50.0834 470.083 49.6667C470 49.6667 470 49.7501 469.917 49.7501C469.833 49.8334 469.667 49.9167 469.5 50.0001C469.75 50.8334 470.25 51.5001 470.833 51.5001C471.667 51.5001 472.333 50.3334 472.333 48.9167C472.25 47.3334 471.583 46.1667 470.833 46.1667Z" fill="white"/>
<path d="M434.416 35.75C434.333 28.3334 439.833 24.5 439.833 24.5C444.833 33.25 458.583 36.25 471.166 31.9167C471.166 31.9167 469.916 10.8334 450.25 12.0834C430.666 13.25 434.416 35.75 434.416 35.75Z" fill="#521F4D"/>
</g>
<path class="text" d="M401.576 131V121.872H404.698C405.174 121.872 405.613 121.909 406.014 121.984C406.425 122.049 406.779 122.171 407.078 122.348C407.386 122.525 407.624 122.759 407.792 123.048C407.969 123.337 408.058 123.701 408.058 124.14C408.058 124.345 408.03 124.551 407.974 124.756C407.918 124.961 407.839 125.153 407.736 125.33C407.633 125.507 407.507 125.666 407.358 125.806C407.218 125.946 407.055 126.049 406.868 126.114V126.17C407.101 126.226 407.316 126.315 407.512 126.436C407.708 126.548 407.881 126.693 408.03 126.87C408.179 127.047 408.296 127.257 408.38 127.5C408.464 127.733 408.506 128.004 408.506 128.312C408.506 128.779 408.413 129.18 408.226 129.516C408.049 129.852 407.797 130.132 407.47 130.356C407.153 130.571 406.779 130.734 406.35 130.846C405.921 130.949 405.459 131 404.964 131H401.576ZM403.634 125.526H404.6C405.104 125.526 405.468 125.428 405.692 125.232C405.925 125.036 406.042 124.775 406.042 124.448C406.042 124.093 405.925 123.841 405.692 123.692C405.459 123.543 405.099 123.468 404.614 123.468H403.634V125.526ZM403.634 129.404H404.796C405.925 129.404 406.49 128.993 406.49 128.172C406.49 127.771 406.35 127.486 406.07 127.318C405.79 127.141 405.365 127.052 404.796 127.052H403.634V129.404ZM411.971 131.168C411.215 131.168 410.664 130.921 410.319 130.426C409.983 129.931 409.815 129.245 409.815 128.368V124.056H411.873V128.102C411.873 128.606 411.943 128.951 412.083 129.138C412.223 129.325 412.442 129.418 412.741 129.418C413.002 129.418 413.221 129.357 413.399 129.236C413.576 129.115 413.767 128.919 413.973 128.648V124.056H416.031V131H414.351L414.197 130.034H414.155C413.856 130.389 413.534 130.669 413.189 130.874C412.853 131.07 412.447 131.168 411.971 131.168ZM419.886 131.168C419.428 131.168 418.957 131.079 418.472 130.902C417.996 130.725 417.58 130.491 417.226 130.202L418.15 128.914C418.467 129.157 418.77 129.339 419.06 129.46C419.349 129.581 419.643 129.642 419.942 129.642C420.25 129.642 420.474 129.591 420.614 129.488C420.754 129.385 420.824 129.241 420.824 129.054C420.824 128.942 420.782 128.844 420.698 128.76C420.623 128.667 420.516 128.583 420.376 128.508C420.245 128.433 420.096 128.368 419.928 128.312C419.76 128.247 419.587 128.177 419.41 128.102C419.195 128.018 418.98 127.92 418.766 127.808C418.551 127.696 418.355 127.561 418.178 127.402C418 127.234 417.856 127.043 417.744 126.828C417.632 126.604 417.576 126.347 417.576 126.058C417.576 125.741 417.636 125.447 417.758 125.176C417.888 124.905 418.07 124.677 418.304 124.49C418.537 124.303 418.817 124.159 419.144 124.056C419.47 123.944 419.834 123.888 420.236 123.888C420.768 123.888 421.234 123.981 421.636 124.168C422.037 124.345 422.387 124.546 422.686 124.77L421.762 126.002C421.51 125.815 421.262 125.671 421.02 125.568C420.777 125.465 420.534 125.414 420.292 125.414C419.769 125.414 419.508 125.596 419.508 125.96C419.508 126.072 419.545 126.17 419.62 126.254C419.694 126.329 419.792 126.399 419.914 126.464C420.044 126.529 420.189 126.595 420.348 126.66C420.516 126.716 420.688 126.777 420.866 126.842C421.09 126.926 421.309 127.024 421.524 127.136C421.748 127.239 421.948 127.369 422.126 127.528C422.312 127.687 422.462 127.883 422.574 128.116C422.686 128.34 422.742 128.611 422.742 128.928C422.742 129.245 422.681 129.539 422.56 129.81C422.438 130.081 422.256 130.319 422.014 130.524C421.771 130.72 421.472 130.879 421.118 131C420.763 131.112 420.352 131.168 419.886 131.168ZM424.049 131V124.056H426.107V131H424.049ZM425.071 123.034C424.725 123.034 424.441 122.936 424.217 122.74C423.993 122.535 423.881 122.273 423.881 121.956C423.881 121.639 423.993 121.382 424.217 121.186C424.441 120.99 424.725 120.892 425.071 120.892C425.425 120.892 425.71 120.99 425.925 121.186C426.149 121.382 426.261 121.639 426.261 121.956C426.261 122.273 426.149 122.535 425.925 122.74C425.71 122.936 425.425 123.034 425.071 123.034ZM427.918 131V124.056H429.598L429.738 124.938H429.794C430.092 124.658 430.419 124.415 430.774 124.21C431.128 123.995 431.544 123.888 432.02 123.888C432.776 123.888 433.322 124.135 433.658 124.63C434.003 125.125 434.176 125.811 434.176 126.688V131H432.118V126.954C432.118 126.45 432.048 126.105 431.908 125.918C431.777 125.731 431.562 125.638 431.264 125.638C431.002 125.638 430.778 125.699 430.592 125.82C430.405 125.932 430.2 126.095 429.976 126.31V131H427.918ZM439.038 131.168C438.543 131.168 438.081 131.089 437.652 130.93C437.222 130.762 436.849 130.524 436.532 130.216C436.214 129.899 435.967 129.516 435.79 129.068C435.612 128.62 435.524 128.107 435.524 127.528C435.524 126.968 435.617 126.464 435.804 126.016C435.99 125.559 436.233 125.176 436.532 124.868C436.84 124.551 437.19 124.308 437.582 124.14C437.974 123.972 438.38 123.888 438.8 123.888C439.294 123.888 439.724 123.972 440.088 124.14C440.461 124.308 440.769 124.541 441.012 124.84C441.264 125.139 441.45 125.493 441.572 125.904C441.693 126.305 441.754 126.744 441.754 127.22C441.754 127.407 441.744 127.584 441.726 127.752C441.707 127.92 441.688 128.046 441.67 128.13H437.512C437.605 128.634 437.81 129.007 438.128 129.25C438.454 129.483 438.851 129.6 439.318 129.6C439.812 129.6 440.312 129.446 440.816 129.138L441.502 130.384C441.147 130.627 440.75 130.818 440.312 130.958C439.882 131.098 439.458 131.168 439.038 131.168ZM437.498 126.772H440.004C440.004 126.38 439.915 126.063 439.738 125.82C439.56 125.577 439.262 125.456 438.842 125.456C438.515 125.456 438.226 125.563 437.974 125.778C437.731 125.993 437.572 126.324 437.498 126.772ZM445.22 131.168C444.762 131.168 444.291 131.079 443.806 130.902C443.33 130.725 442.914 130.491 442.56 130.202L443.484 128.914C443.801 129.157 444.104 129.339 444.394 129.46C444.683 129.581 444.977 129.642 445.276 129.642C445.584 129.642 445.808 129.591 445.948 129.488C446.088 129.385 446.158 129.241 446.158 129.054C446.158 128.942 446.116 128.844 446.032 128.76C445.957 128.667 445.85 128.583 445.71 128.508C445.579 128.433 445.43 128.368 445.262 128.312C445.094 128.247 444.921 128.177 444.744 128.102C444.529 128.018 444.314 127.92 444.1 127.808C443.885 127.696 443.689 127.561 443.512 127.402C443.334 127.234 443.19 127.043 443.078 126.828C442.966 126.604 442.91 126.347 442.91 126.058C442.91 125.741 442.97 125.447 443.092 125.176C443.222 124.905 443.404 124.677 443.638 124.49C443.871 124.303 444.151 124.159 444.478 124.056C444.804 123.944 445.168 123.888 445.57 123.888C446.102 123.888 446.568 123.981 446.97 124.168C447.371 124.345 447.721 124.546 448.02 124.77L447.096 126.002C446.844 125.815 446.596 125.671 446.354 125.568C446.111 125.465 445.868 125.414 445.626 125.414C445.103 125.414 444.842 125.596 444.842 125.96C444.842 126.072 444.879 126.17 444.954 126.254C445.028 126.329 445.126 126.399 445.248 126.464C445.378 126.529 445.523 126.595 445.682 126.66C445.85 126.716 446.022 126.777 446.2 126.842C446.424 126.926 446.643 127.024 446.858 127.136C447.082 127.239 447.282 127.369 447.46 127.528C447.646 127.687 447.796 127.883 447.908 128.116C448.02 128.34 448.076 128.611 448.076 128.928C448.076 129.245 448.015 129.539 447.894 129.81C447.772 130.081 447.59 130.319 447.348 130.524C447.105 130.72 446.806 130.879 446.452 131C446.097 131.112 445.686 131.168 445.22 131.168ZM451.427 131.168C450.969 131.168 450.498 131.079 450.013 130.902C449.537 130.725 449.121 130.491 448.767 130.202L449.691 128.914C450.008 129.157 450.311 129.339 450.601 129.46C450.89 129.581 451.184 129.642 451.483 129.642C451.791 129.642 452.015 129.591 452.155 129.488C452.295 129.385 452.365 129.241 452.365 129.054C452.365 128.942 452.323 128.844 452.239 128.76C452.164 128.667 452.057 128.583 451.917 128.508C451.786 128.433 451.637 128.368 451.469 128.312C451.301 128.247 451.128 128.177 450.951 128.102C450.736 128.018 450.521 127.92 450.307 127.808C450.092 127.696 449.896 127.561 449.719 127.402C449.541 127.234 449.397 127.043 449.285 126.828C449.173 126.604 449.117 126.347 449.117 126.058C449.117 125.741 449.177 125.447 449.299 125.176C449.429 124.905 449.611 124.677 449.845 124.49C450.078 124.303 450.358 124.159 450.685 124.056C451.011 123.944 451.375 123.888 451.777 123.888C452.309 123.888 452.775 123.981 453.177 124.168C453.578 124.345 453.928 124.546 454.227 124.77L453.303 126.002C453.051 125.815 452.803 125.671 452.561 125.568C452.318 125.465 452.075 125.414 451.833 125.414C451.31 125.414 451.049 125.596 451.049 125.96C451.049 126.072 451.086 126.17 451.161 126.254C451.235 126.329 451.333 126.399 451.455 126.464C451.585 126.529 451.73 126.595 451.889 126.66C452.057 126.716 452.229 126.777 452.407 126.842C452.631 126.926 452.85 127.024 453.065 127.136C453.289 127.239 453.489 127.369 453.667 127.528C453.853 127.687 454.003 127.883 454.115 128.116C454.227 128.34 454.283 128.611 454.283 128.928C454.283 129.245 454.222 129.539 454.101 129.81C453.979 130.081 453.797 130.319 453.555 130.524C453.312 130.72 453.013 130.879 452.659 131C452.304 131.112 451.893 131.168 451.427 131.168ZM460.702 126.38L460.478 127.22H462.424L462.214 126.38C462.084 125.923 461.958 125.437 461.836 124.924C461.715 124.411 461.594 123.916 461.472 123.44H461.416C461.304 123.925 461.188 124.425 461.066 124.938C460.954 125.442 460.833 125.923 460.702 126.38ZM457.398 131L460.254 121.872H462.732L465.588 131H463.404L462.844 128.83H460.058L459.498 131H457.398ZM466.418 131V124.056H468.098L468.238 124.938H468.294C468.592 124.658 468.919 124.415 469.274 124.21C469.628 123.995 470.044 123.888 470.52 123.888C471.276 123.888 471.822 124.135 472.158 124.63C472.503 125.125 472.676 125.811 472.676 126.688V131H470.618V126.954C470.618 126.45 470.548 126.105 470.408 125.918C470.277 125.731 470.062 125.638 469.764 125.638C469.502 125.638 469.278 125.699 469.092 125.82C468.905 125.932 468.7 126.095 468.476 126.31V131H466.418ZM476.18 131.168C475.862 131.168 475.573 131.112 475.312 131C475.06 130.897 474.845 130.753 474.668 130.566C474.49 130.37 474.35 130.146 474.248 129.894C474.154 129.642 474.108 129.367 474.108 129.068C474.108 128.34 474.416 127.771 475.032 127.36C475.648 126.949 476.642 126.674 478.014 126.534C477.995 126.226 477.902 125.983 477.734 125.806C477.575 125.619 477.304 125.526 476.922 125.526C476.623 125.526 476.324 125.582 476.026 125.694C475.736 125.806 475.424 125.96 475.088 126.156L474.346 124.798C474.794 124.527 475.26 124.308 475.746 124.14C476.24 123.972 476.763 123.888 477.314 123.888C478.21 123.888 478.891 124.145 479.358 124.658C479.834 125.162 480.072 125.951 480.072 127.024V131H478.392L478.252 130.286H478.196C477.897 130.547 477.584 130.762 477.258 130.93C476.931 131.089 476.572 131.168 476.18 131.168ZM476.88 129.572C477.113 129.572 477.314 129.521 477.482 129.418C477.65 129.315 477.827 129.171 478.014 128.984V127.766C477.286 127.869 476.782 128.018 476.502 128.214C476.222 128.41 476.082 128.643 476.082 128.914C476.082 129.138 476.152 129.306 476.292 129.418C476.441 129.521 476.637 129.572 476.88 129.572ZM483.702 131.168C483.348 131.168 483.049 131.112 482.806 131C482.564 130.888 482.368 130.734 482.218 130.538C482.078 130.333 481.976 130.09 481.91 129.81C481.845 129.521 481.812 129.199 481.812 128.844V121.186H483.87V128.928C483.87 129.143 483.908 129.292 483.982 129.376C484.066 129.46 484.15 129.502 484.234 129.502C484.281 129.502 484.318 129.502 484.346 129.502C484.384 129.502 484.43 129.493 484.486 129.474L484.738 131C484.626 131.047 484.482 131.084 484.304 131.112C484.136 131.149 483.936 131.168 483.702 131.168ZM486.588 133.716C486.374 133.716 486.192 133.702 486.042 133.674C485.893 133.655 485.748 133.623 485.608 133.576L485.972 132.008C486.038 132.027 486.112 132.045 486.196 132.064C486.28 132.083 486.36 132.092 486.434 132.092C486.78 132.092 487.046 132.008 487.232 131.84C487.419 131.672 487.559 131.453 487.652 131.182L487.75 130.818L485.076 124.056H487.148L488.142 127.038C488.245 127.355 488.338 127.677 488.422 128.004C488.506 128.331 488.595 128.667 488.688 129.012H488.744C488.819 128.685 488.894 128.359 488.968 128.032C489.052 127.696 489.136 127.365 489.22 127.038L490.06 124.056H492.034L489.626 131.07C489.458 131.509 489.281 131.891 489.094 132.218C488.917 132.554 488.707 132.829 488.464 133.044C488.231 133.268 487.96 133.436 487.652 133.548C487.354 133.66 486.999 133.716 486.588 133.716ZM495.163 131.168C494.706 131.168 494.234 131.079 493.749 130.902C493.273 130.725 492.858 130.491 492.503 130.202L493.427 128.914C493.744 129.157 494.048 129.339 494.337 129.46C494.626 129.581 494.92 129.642 495.219 129.642C495.527 129.642 495.751 129.591 495.891 129.488C496.031 129.385 496.101 129.241 496.101 129.054C496.101 128.942 496.059 128.844 495.975 128.76C495.9 128.667 495.793 128.583 495.653 128.508C495.522 128.433 495.373 128.368 495.205 128.312C495.037 128.247 494.864 128.177 494.687 128.102C494.472 128.018 494.258 127.92 494.043 127.808C493.828 127.696 493.632 127.561 493.455 127.402C493.278 127.234 493.133 127.043 493.021 126.828C492.909 126.604 492.853 126.347 492.853 126.058C492.853 125.741 492.914 125.447 493.035 125.176C493.166 124.905 493.348 124.677 493.581 124.49C493.814 124.303 494.094 124.159 494.421 124.056C494.748 123.944 495.112 123.888 495.513 123.888C496.045 123.888 496.512 123.981 496.913 124.168C497.314 124.345 497.664 124.546 497.963 124.77L497.039 126.002C496.787 125.815 496.54 125.671 496.297 125.568C496.054 125.465 495.812 125.414 495.569 125.414C495.046 125.414 494.785 125.596 494.785 125.96C494.785 126.072 494.822 126.17 494.897 126.254C494.972 126.329 495.07 126.399 495.191 126.464C495.322 126.529 495.466 126.595 495.625 126.66C495.793 126.716 495.966 126.777 496.143 126.842C496.367 126.926 496.586 127.024 496.801 127.136C497.025 127.239 497.226 127.369 497.403 127.528C497.59 127.687 497.739 127.883 497.851 128.116C497.963 128.34 498.019 128.611 498.019 128.928C498.019 129.245 497.958 129.539 497.837 129.81C497.716 130.081 497.534 130.319 497.291 130.524C497.048 130.72 496.75 130.879 496.395 131C496.04 131.112 495.63 131.168 495.163 131.168ZM501.727 131.168C501.297 131.168 500.929 131.103 500.621 130.972C500.322 130.841 500.075 130.659 499.879 130.426C499.692 130.193 499.552 129.913 499.459 129.586C499.375 129.25 499.333 128.881 499.333 128.48V125.666H498.381V124.14L499.445 124.056L499.683 122.208H501.391V124.056H503.057V125.666H501.391V128.452C501.391 128.844 501.47 129.129 501.629 129.306C501.797 129.474 502.016 129.558 502.287 129.558C502.399 129.558 502.511 129.544 502.623 129.516C502.744 129.488 502.851 129.455 502.945 129.418L503.267 130.916C503.08 130.972 502.861 131.028 502.609 131.084C502.357 131.14 502.063 131.168 501.727 131.168Z" fill="#545770"/>
</g>
</g>
<defs>
<filter id="filter0_dddddd_806_148" x="-5.99252" y="0.304709" width="653" height="527.15" filterUnits="userSpaceOnUse" color-interpolation-filters="sRGB">
<feFlood flood-opacity="0" result="BackgroundImageFix"/>
<feColorMatrix in="SourceAlpha" type="matrix" values="0 0 0 0 0 0 0 0 0 0 0 0 0 0 0 0 0 0 127 0" result="hardAlpha"/>
<feOffset dx="1.14829" dy="1.45286"/>
<feGaussianBlur stdDeviation="1.57407"/>
<feColorMatrix type="matrix" values="0 0 0 0 0.294118 0 0 0 0 0.32549 0 0 0 0 0.384314 0 0 0 0.01 0"/>
<feBlend mode="normal" in2="BackgroundImageFix" result="effect1_dropShadow_806_148"/>
<feColorMatrix in="SourceAlpha" type="matrix" values="0 0 0 0 0 0 0 0 0 0 0 0 0 0 0 0 0 0 127 0" result="hardAlpha"/>
<feOffset dx="5.05246" dy="6.39257"/>
<feGaussianBlur stdDeviation="3.25926"/>
<feColorMatrix type="matrix" values="0 0 0 0 0.294118 0 0 0 0 0.32549 0 0 0 0 0.384314 0 0 0 0.0157037 0"/>
<feBlend mode="normal" in2="effect1_dropShadow_806_148" result="effect2_dropShadow_806_148"/>
<feColorMatrix in="SourceAlpha" type="matrix" values="0 0 0 0 0 0 0 0 0 0 0 0 0 0 0 0 0 0 127 0" result="hardAlpha"/>
<feOffset dx="12.4015" dy="15.6909"/>
<feGaussianBlur stdDeviation="6.5"/>
<feColorMatrix type="matrix" values="0 0 0 0 0.294118 0 0 0 0 0.32549 0 0 0 0 0.384314 0 0 0 0.02 0"/>
<feBlend mode="normal" in2="effect2_dropShadow_806_148" result="effect3_dropShadow_806_148"/>
<feColorMatrix in="SourceAlpha" type="matrix" values="0 0 0 0 0 0 0 0 0 0 0 0 0 0 0 0 0 0 127 0" result="hardAlpha"/>
<feOffset dx="23.8844" dy="30.2194"/>
<feGaussianBlur stdDeviation="12.7407"/>
<feColorMatrix type="matrix" values="0 0 0 0 0.294118 0 0 0 0 0.32549 0 0 0 0 0.384314 0 0 0 0.0242963 0"/>
<feBlend mode="normal" in2="effect3_dropShadow_806_148" result="effect4_dropShadow_806_148"/>
<feColorMatrix in="SourceAlpha" type="matrix" values="0 0 0 0 0 0 0 0 0 0 0 0 0 0 0 0 0 0 127 0" result="hardAlpha"/>
<feOffset dx="40.19" dy="50.85"/>
<feGaussianBlur stdDeviation="23.4259"/>
<feColorMatrix type="matrix" values="0 0 0 0 0.294118 0 0 0 0 0.32549 0 0 0 0 0.384314 0 0 0 0.0303704 0"/>
<feBlend mode="normal" in2="effect4_dropShadow_806_148" result="effect5_dropShadow_806_148"/>
<feColorMatrix in="SourceAlpha" type="matrix" values="0 0 0 0 0 0 0 0 0 0 0 0 0 0 0 0 0 0 127 0" result="hardAlpha"/>
<feOffset dx="62.0075" dy="78.4543"/>
<feGaussianBlur stdDeviation="40"/>
<feColorMatrix type="matrix" values="0 0 0 0 0.294118 0 0 0 0 0.32549 0 0 0 0 0.384314 0 0 0 0.04 0"/>
<feBlend mode="normal" in2="effect5_dropShadow_806_148" result="effect6_dropShadow_806_148"/>
<feBlend mode="normal" in="SourceGraphic" in2="effect6_dropShadow_806_148" result="shape"/>
</filter>
</defs>
</svg>
