<?xml version="1.0" encoding="UTF-8"?>
<svg width="36px" height="36px" viewBox="0 0 36 36" version="1.1" xmlns="http://www.w3.org/2000/svg" xmlns:xlink="http://www.w3.org/1999/xlink">
    <title>688AF001-19DC-4D92-B8AF-238B1D4BF708</title>
    <g id="V3" stroke="none" stroke-width="1" fill="none" fill-rule="evenodd">
        <g id="Login-Page--Home--Notification-Open" transform="translate(-1311.000000, -379.000000)" fill="#4E1C65" fill-rule="nonzero">
            <g id="calendar" transform="translate(1311.000000, 379.000000)">
                <path d="M33,3.64285714 L30,3.64285714 L30,2.42857143 C30,1.08730846 28.9254834,0 27.6,0 C26.2745166,0 25.2,1.08730846 25.2,2.42857143 L25.2,3.64285714 L20.4,3.64285714 L20.4,2.42857143 C20.4,1.08730846 19.3254834,0 18,0 C16.6745166,0 15.6,1.08730846 15.6,2.42857143 L15.6,3.64285714 L10.8,3.64285714 L10.8,2.42857143 C10.8,1.08730846 9.7254834,0 8.4,0 C7.0745166,0 6,1.08730846 6,2.42857143 L6,3.64285714 L3,3.64285714 C1.34314575,3.64285714 0,5.00199272 0,6.67857143 L0,30.9642857 C0,31.7694072 0.316070521,32.541553 0.878679656,33.1108599 C1.44128879,33.6801667 2.20435053,34 3,34 L19.8,34 C20.1313708,34 20.4,33.7281729 20.4,33.3928571 C20.4,33.0575414 20.1313708,32.7857143 19.8,32.7857143 L3,32.7857143 C2.00711832,32.7827137 1.20296532,31.9689874 1.2,30.9642857 L1.2,12.1428571 L34.8,12.1428571 L34.8,22.4642857 C34.8,22.7996015 35.0686292,23.0714286 35.4,23.0714286 C35.7313708,23.0714286 36,22.7996015 36,22.4642857 L36,6.67857143 C36,5.00199272 34.6568542,3.64285714 33,3.64285714 Z M26.4,2.42857143 C26.4,1.75793995 26.9372583,1.21428571 27.6,1.21428571 C28.2627417,1.21428571 28.8,1.75793995 28.8,2.42857143 L28.8,6.07142857 C28.8,6.74206005 28.2627417,7.28571429 27.6,7.28571429 C26.9372583,7.28571429 26.4,6.74206005 26.4,6.07142857 L26.4,2.42857143 Z M16.8,2.42857143 C16.8,1.75793995 17.3372583,1.21428571 18,1.21428571 C18.6627417,1.21428571 19.2,1.75793995 19.2,2.42857143 L19.2,6.07142857 C19.2,6.74206005 18.6627417,7.28571429 18,7.28571429 C17.3372583,7.28571429 16.8,6.74206005 16.8,6.07142857 L16.8,2.42857143 Z M7.2,2.42857143 C7.2,1.75793995 7.7372583,1.21428571 8.4,1.21428571 C9.0627417,1.21428571 9.6,1.75793995 9.6,2.42857143 L9.6,6.07142857 C9.6,6.74206005 9.0627417,7.28571429 8.4,7.28571429 C7.7372583,7.28571429 7.2,6.74206005 7.2,6.07142857 L7.2,2.42857143 Z M34.8,10.9285714 L1.2,10.9285714 L1.2,6.67857143 C1.20296532,5.67386973 2.00711832,4.86014348 3,4.85714286 L6,4.85714286 L6,6.07142857 C6,7.41269154 7.0745166,8.5 8.4,8.5 C9.7254834,8.5 10.8,7.41269154 10.8,6.07142857 L10.8,4.85714286 L15.6,4.85714286 L15.6,6.07142857 C15.6,7.41269154 16.6745166,8.5 18,8.5 C19.3254834,8.5 20.4,7.41269154 20.4,6.07142857 L20.4,4.85714286 L25.2,4.85714286 L25.2,6.07142857 C25.2,7.41269154 26.2745166,8.5 27.6,8.5 C28.9254834,8.5 30,7.41269154 30,6.07142857 L30,4.85714286 L33,4.85714286 C33.9928817,4.86014348 34.7970347,5.67386973 34.8,6.67857143 L34.8,10.9285714 Z" id="Shape"></path>
                <path d="M17,16.1428571 C17,15.5116746 16.4403559,15 15.75,15 L13.25,15 C12.5596441,15 12,15.5116746 12,16.1428571 L12,17.8571429 C12,18.4883254 12.5596441,19 13.25,19 L15.75,19 C16.4403559,19 17,18.4883254 17,17.8571429 L17,16.1428571 Z M13.25,17.8571429 L13.25,16.1428571 L15.75,16.1428571 L15.75,17.8571429 L13.25,17.8571429 Z" id="Shape"></path>
                <path d="M10,16.1428571 C10,15.5116746 9.44035594,15 8.75,15 L6.25,15 C5.55964406,15 5,15.5116746 5,16.1428571 L5,17.8571429 C5,18.4883254 5.55964406,19 6.25,19 L8.75,19 C9.44035594,19 10,18.4883254 10,17.8571429 L10,16.1428571 Z M6.25,17.8571429 L6.25,16.1428571 L8.75,16.1428571 L8.75,17.8571429 L6.25,17.8571429 Z" id="Shape"></path>
                <path d="M29.75,19 C30.4403559,19 31,18.4883254 31,17.8571429 L31,16.1428571 C31,15.5116746 30.4403559,15 29.75,15 L27.25,15 C26.5596441,15 26,15.5116746 26,16.1428571 L26,17.8571429 C26,18.4883254 26.5596441,19 27.25,19 L29.75,19 Z M27.25,16.1428571 L29.75,16.1428571 L29.75,17.8571429 L27.25,17.8571429 L27.25,16.1428571 Z" id="Shape"></path>
                <path d="M17,22.1428571 C17,21.5116746 16.4403559,21 15.75,21 L13.25,21 C12.5596441,21 12,21.5116746 12,22.1428571 L12,23.8571429 C12,24.4883254 12.5596441,25 13.25,25 L15.75,25 C16.4403559,25 17,24.4883254 17,23.8571429 L17,22.1428571 Z M13.25,23.8571429 L13.25,22.1428571 L15.75,22.1428571 L15.75,23.8571429 L13.25,23.8571429 Z" id="Shape"></path>
                <path d="M10,22.1428571 C10,21.5116746 9.44035594,21 8.75,21 L6.25,21 C5.55964406,21 5,21.5116746 5,22.1428571 L5,23.8571429 C5,24.4883254 5.55964406,25 6.25,25 L8.75,25 C9.44035594,25 10,24.4883254 10,23.8571429 L10,22.1428571 Z M6.25,23.8571429 L6.25,22.1428571 L8.75,22.1428571 L8.75,23.8571429 L6.25,23.8571429 Z" id="Shape"></path>
                <path d="M15.75,26 L13.25,26 C12.5596441,26 12,26.5116746 12,27.1428571 L12,28.8571429 C12,29.4883254 12.5596441,30 13.25,30 L15.75,30 C16.4403559,30 17,29.4883254 17,28.8571429 L17,27.1428571 C17,26.5116746 16.4403559,26 15.75,26 Z M13.25,28.8571429 L13.25,27.1428571 L15.75,27.1428571 L15.75,28.8571429 L13.25,28.8571429 Z" id="Shape"></path>
                <path d="M20.25,19 L22.75,19 C23.4403559,19 24,18.4883254 24,17.8571429 L24,16.1428571 C24,15.5116746 23.4403559,15 22.75,15 L20.25,15 C19.5596441,15 19,15.5116746 19,16.1428571 L19,17.8571429 C19,18.4883254 19.5596441,19 20.25,19 Z M20.25,16.1428571 L22.75,16.1428571 L22.75,17.8571429 L20.25,17.8571429 L20.25,16.1428571 Z" id="Shape"></path>
                <path d="M19,23.8571429 C19,24.4883254 19.5116746,25 20.1428571,25 C20.4584484,25 20.7142857,24.7441627 20.7142857,24.4285714 C20.7142857,24.1129801 20.4584484,23.8571429 20.1428571,23.8571429 L20.1428571,22.1428571 L22.4285714,22.1428571 C22.7441627,22.1428571 23,21.8870199 23,21.5714286 C23,21.2558373 22.7441627,21 22.4285714,21 L20.1428571,21 C19.5116746,21 19,21.5116746 19,22.1428571 L19,23.8571429 Z" id="Path"></path>
                <path d="M8.75,26 L6.25,26 C5.55964406,26 5,26.5116746 5,27.1428571 L5,28.8571429 C5,29.4883254 5.55964406,30 6.25,30 L8.75,30 C9.44035594,30 10,29.4883254 10,28.8571429 L10,27.1428571 C10,26.5116746 9.44035594,26 8.75,26 Z M6.25,28.8571429 L6.25,27.1428571 L8.75,27.1428571 L8.75,28.8571429 L6.25,28.8571429 Z" id="Shape"></path>
                <path d="M28,20 C23.581722,20 20,23.581722 20,28 C20,32.418278 23.581722,36 28,36 C32.418278,36 36,32.418278 36,28 C35.9949132,23.5838307 32.4161693,20.0050868 28,20 L28,20 Z M28,34.7692308 C24.2614571,34.7692308 21.2307692,31.7385429 21.2307692,28 C21.2307692,24.2614571 24.2614571,21.2307692 28,21.2307692 C31.7385429,21.2307692 34.7692308,24.2614571 34.7692308,28 C34.7648225,31.7367154 31.7367154,34.7648225 28,34.7692308 L28,34.7692308 Z" id="Shape"></path>
                <path d="M31.9625923,26.1608281 L27.2013366,30.6170713 L25.0374077,28.5911937 C24.7972154,28.3740695 24.4154176,28.3771746 24.179293,28.5981728 C23.9431683,28.8191709 23.9398506,29.1765103 24.1718362,29.4013156 L26.7685508,31.8322541 C27.0075929,32.0559153 27.3950803,32.0559153 27.6341224,31.8322541 L32.8281638,26.97095 C33.0601494,26.7461447 33.0568317,26.3888054 32.820707,26.1678072 C32.5845824,25.9468091 32.2027846,25.9437039 31.9625923,26.1608281 Z" id="Path"></path>
            </g>
        </g>
    </g>
</svg>