<?xml version="1.0" encoding="utf-8"?>
<svg width="205px" height="205px" viewBox="0 0 205 205" version="1.1" xmlns:xlink="http://www.w3.org/1999/xlink" xmlns="http://www.w3.org/2000/svg">
  <desc>Created with Lunacy</desc>
  <g id="settings">
    <path d="M95.9732 204.8L108.826 204.8C119.222 204.8 127.68 196.342 127.68 185.948L127.68 181.599C132.1 180.187 136.394 178.404 140.519 176.27L143.598 179.349C151.047 186.806 163 186.625 170.263 179.351L179.348 170.266C186.611 163.012 186.817 151.059 179.351 143.6L176.269 140.519C178.404 136.394 180.186 132.1 181.598 127.68L185.946 127.68C196.342 127.68 204.8 119.222 204.8 108.827L204.8 95.9732C204.8 85.5776 196.342 77.12 185.946 77.12L181.598 77.12C180.186 72.6996 178.404 68.4064 176.269 64.2812L179.348 61.202C186.819 53.7392 186.61 41.7876 179.351 34.536L170.266 25.452C163.02 18.1956 151.064 17.9764 143.6 25.4492L140.519 28.5308C136.394 26.396 132.1 24.6136 127.68 23.2016L127.68 18.8532C127.68 8.4576 119.222 0 108.827 0L95.9736 0C85.5776 0 77.12 8.4576 77.12 18.8532L77.12 23.2012C72.7004 24.6136 68.4064 26.396 64.2812 28.5304L61.2024 25.4516C53.7532 17.994 41.8004 18.1756 34.5368 25.4492L25.4516 34.534C18.1888 41.7888 17.9828 53.7416 25.4492 61.2L28.5308 64.2812C26.396 68.4064 24.614 72.7 23.2016 77.12L18.8536 77.12C8.458 77.12 0 85.5776 0 95.9732L0 108.827C0 119.222 8.458 127.68 18.8532 127.68L23.2012 127.68C24.6136 132.1 26.3956 136.394 28.5304 140.519L25.4512 143.598C17.9804 151.061 18.1892 163.012 25.4488 170.264L34.5332 179.348C41.78 186.604 53.7356 186.824 61.1992 179.351L64.2808 176.269C68.406 178.404 72.7 180.186 77.1196 181.598L77.1196 185.947C77.1196 196.342 85.5776 204.8 95.9732 204.8ZM84.6192 171.278C78.1856 169.618 72.0176 167.057 66.2868 163.668C63.3856 161.952 60.4164 163.163 58.9892 164.59L52.7116 170.868C50.002 173.581 45.6564 173.504 43.0216 170.865L33.9316 161.775C31.292 159.139 31.2212 154.795 33.934 152.085L40.2096 145.81C42.1464 143.873 42.5256 140.87 41.1316 138.513C37.7428 132.782 35.1824 126.614 33.522 120.18C32.838 117.531 30.4488 115.68 27.7124 115.68L18.8536 115.68C15.0748 115.68 12 112.606 12 108.827L12 95.9732C12 92.1944 15.0748 89.12 18.8536 89.1196L27.7128 89.1196C30.4488 89.1196 32.8384 87.2688 33.5224 84.6192C35.1828 78.1852 37.7428 72.0172 41.132 66.2868C42.526 63.9292 42.1468 60.9268 40.21 58.99L33.932 52.712C31.2136 49.9968 31.3016 45.6516 33.9344 43.022L43.0252 33.9316C45.664 31.2884 50.0092 31.2256 52.7148 33.9344L58.99 40.21C60.9268 42.1468 63.9288 42.526 66.2872 41.132C72.018 37.7428 78.186 35.1824 84.6196 33.522C87.2692 32.8384 89.1204 30.4488 89.1204 27.7124L89.1204 18.8532C89.1204 15.0744 92.1952 12 95.974 12L108.827 12C112.606 12 115.681 15.0744 115.681 18.8532L115.681 27.7132C115.681 30.4496 117.532 32.8392 120.182 33.5228C126.615 35.1832 132.783 37.7436 138.514 41.1328C140.871 42.5272 143.874 42.148 145.811 40.2108L152.089 33.9328C154.798 31.2196 159.144 31.2968 161.779 33.9352L170.869 43.0252C173.508 45.6616 173.579 50.0056 170.866 52.7152L164.591 58.9908C162.654 60.9276 162.275 63.93 163.669 66.2876C167.058 72.018 169.618 78.186 171.278 84.62C171.962 87.2692 174.352 89.1204 177.088 89.1204L185.947 89.1204C189.726 89.1204 192.8 92.1948 192.8 95.9736L192.8 108.827C192.8 112.606 189.726 115.68 185.947 115.68L177.088 115.68C174.352 115.68 171.962 117.531 171.278 120.181C169.618 126.615 167.058 132.783 163.669 138.513C162.275 140.871 162.654 143.873 164.591 145.81L170.869 152.088C173.587 154.803 173.499 159.148 170.866 161.778L161.776 170.868C159.136 173.512 154.792 173.574 152.086 170.866L145.811 164.59C143.874 162.653 140.872 162.274 138.514 163.668C132.783 167.057 126.615 169.618 120.181 171.278C117.532 171.962 115.68 174.351 115.68 177.088L115.68 185.947C115.68 189.726 112.606 192.8 108.827 192.8L95.9736 192.8C92.1948 192.8 89.12 189.726 89.12 185.947L89.12 177.088C89.12 174.351 87.2688 171.962 84.6192 171.278Z" id="Shape" fill="#4E1C65" fill-rule="evenodd" stroke="none" />
    <path d="M0 44.56C0 69.1304 19.9892 89.12 44.56 89.12C69.1308 89.12 89.12 69.1304 89.12 44.56C89.12 19.9896 69.1308 0 44.56 0C19.9892 0 0 19.9896 0 44.56ZM12 44.56C12 26.6064 26.606 12 44.56 12C62.514 12 77.12 26.6064 77.12 44.56C77.12 62.5136 62.5136 77.12 44.56 77.12C26.6064 77.12 12 62.5136 12 44.56Z" transform="translate(57.840088 57.839844)" id="Shape" fill="#4E1C65" fill-rule="evenodd" stroke="none" />
  </g>
</svg>