<?xml version="1.0" encoding="utf-8"?>
<!-- Generator: Adobe Illustrator 24.0.1, SVG Export Plug-In . SVG Version: 6.00 Build 0)  -->
<svg version="1.1" id="Capa_1" xmlns="http://www.w3.org/2000/svg" xmlns:xlink="http://www.w3.org/1999/xlink" x="0px" y="0px"
	 viewBox="0 0 512 512" style="enable-background:new 0 0 512 512;" xml:space="preserve">
<style type="text/css">
	.st0{fill:#FFFFFF;}
</style>
<g>
	<g>
		<g>
			<path class="st0" d="M166,332h180c8.3,0,15-6.7,15-15s-6.7-15-15-15H166c-8.3,0-15,6.7-15,15S157.7,332,166,332z"/>
			<path class="st0" d="M166,392h180c8.3,0,15-6.7,15-15s-6.7-15-15-15H166c-8.3,0-15,6.7-15,15S157.7,392,166,392z"/>
			<path class="st0" d="M507.6,84.4l-80-80C424.8,1.6,421,0,417,0H15C6.7,0,0,6.7,0,15v482c0,8.3,6.7,15,15,15c6.9,0,477.5,0,482,0
				c8.3,0,15-6.7,15-15V95C512,91,510.4,87.2,507.6,84.4z M121,30h210v100H121V30z M391,482H121V272h270V482z M482,482h-61V257
				c0-8.3-6.7-15-15-15H106c-8.3,0-15,6.7-15,15v225H30V30h61v115c0,8.3,6.7,15,15,15h240c8.3,0,15-6.7,15-15V30h49.8l71.2,71.2V482
				z"/>
			<path class="st0" d="M166,452h180c8.3,0,15-6.7,15-15s-6.7-15-15-15H166c-8.3,0-15,6.7-15,15S157.7,452,166,452z"/>
		</g>
	</g>
</g>
</svg>
