<?xml version="1.0" encoding="UTF-8"?>
<svg width="83px" height="85px" viewBox="0 0 83 85" version="1.1" xmlns="http://www.w3.org/2000/svg" xmlns:xlink="http://www.w3.org/1999/xlink">
    <title>8D1E2F8F-A9D1-4E7D-9A73-A74899132BA5</title>
    <g id="V3" stroke="none" stroke-width="1" fill="none" fill-rule="evenodd">
        <g id="Notification-Feature--Style-Guide" transform="translate(-47.000000, -693.000000)" fill="#4E1C65" fill-rule="nonzero">
            <g id="settings" transform="translate(47.000000, 693.000000)">
                <path d="M77.5034539,33.2704167 L71.079855,32.4239583 C70.5502498,30.7345833 69.8976395,29.1054167 69.1356913,27.5577083 L73.1026053,22.2629167 C74.708505,20.1202083 74.5205806,17.095625 72.6857547,15.2539583 L67.3042823,9.67583333 C65.5104581,7.75625 62.5925042,7.565 60.5219186,9.22604167 L55.4206243,13.3379167 C53.9274793,12.548125 52.3557476,11.8716667 50.7225135,11.3227083 L49.9058964,4.675 C49.5983837,2.008125 47.4150434,0 44.8285198,0 L37.1748701,0 C34.5883465,0 32.4050062,2.008125 32.0974935,4.664375 L31.2808764,11.3227083 C29.6476423,11.8716667 28.0759106,12.5445833 26.5827656,13.3379167 L21.4780545,9.22604167 C19.4143026,7.565 16.4963486,7.75625 14.7161917,9.658125 L9.33471922,15.2327083 C7.48280933,17.095625 7.29488489,20.1202083 8.90078461,22.2664583 L12.8676986,27.5577083 C12.1023336,29.1054167 11.4531401,30.7345833 10.9235349,32.4239583 L4.51018645,33.2704167 C1.93733009,33.5891667 0,35.8522917 0,38.5333333 L0,46.4666667 C0,49.1477083 1.93733009,51.4108333 4.49993602,51.7295833 L10.9235349,52.5760417 C11.4531401,54.2654167 12.1057504,55.8945833 12.8676986,57.4422917 L8.90078461,62.7370833 C7.29488489,64.8797917 7.48280933,67.904375 9.31763518,69.7460417 L14.6991076,75.3241667 C16.4963486,77.2402083 19.4108858,77.4314583 21.4814713,75.7704167 L26.5861824,71.6585417 C28.0793274,72.451875 29.6510591,73.1283333 31.2808764,73.67375 L32.0974935,80.3179167 C32.4050062,82.991875 34.5883465,85 37.1748701,85 L44.8285198,85 C47.4150434,85 49.5983837,82.991875 49.9058964,80.335625 L50.7225135,73.6772917 C52.3523308,73.1283333 53.9240625,72.451875 55.4172075,71.6620833 L60.5253354,75.7739583 C62.5925042,77.4385417 65.5104581,77.24375 67.2871982,75.341875 L72.6686707,69.76375 C74.5205806,67.9008333 74.708505,64.8797917 73.1026053,62.7335417 L69.1356913,57.4422917 C69.9010563,55.8945833 70.5536666,54.2654167 71.079855,52.5760417 L77.4897867,51.7295833 C80.062643,51.4108333 81.9999776,49.1477083 81.9999776,46.4666667 L81.9999776,38.5333333 C82.0033899,35.8522917 80.0660598,33.5891667 77.5034539,33.2704167 Z M40.3407058,67.8629032 C26.4839846,67.8629032 15.2106347,56.1775968 15.2106347,41.8145161 C15.2106347,27.4514355 26.4839846,15.766129 40.3407058,15.766129 C54.197427,15.766129 65.4707769,27.4514355 65.4707769,41.8145161 C65.4707769,56.1775968 54.197427,67.8629032 40.3407058,67.8629032 Z" id="Shape"></path>
            </g>
        </g>
    </g>
</svg>