<?xml version="1.0" encoding="UTF-8"?>
<svg width="174px" height="30px" viewBox="0 0 174 30" version="1.1" xmlns="http://www.w3.org/2000/svg" xmlns:xlink="http://www.w3.org/1999/xlink">
    <title>830C9265-E8A7-48A0-AFAF-C7413B041A81</title>
    <g id="Desktop" stroke="none" stroke-width="1" fill="none" fill-rule="evenodd">
        <g id="Post-login-2" transform="translate(-1311.000000, -1097.000000)" stroke="#B35E03" stroke-width="2">
            <g id="Group-19" transform="translate(967.000000, 917.000000)">
                <g id="Group-13" transform="translate(31.000000, 36.000000)">
                    <g id="Star-rating" transform="translate(315.000000, 147.000000)">
                        <polygon id="Star" fill="#B35E03" points="13.5 20.25 5.56489909 24.4217294 7.08036852 15.5858647 0.66073703 9.32827058 9.53244955 8.03913529 13.5 0 17.4675505 8.03913529 26.339263 9.32827058 19.9196315 15.5858647 21.4351009 24.4217294"></polygon>
                        <polygon id="Star-Copy" fill="#B35E03" points="49.25 20.25 41.3148991 24.4217294 42.8303685 15.5858647 36.410737 9.32827058 45.2824495 8.03913529 49.25 0 53.2175505 8.03913529 62.089263 9.32827058 55.6696315 15.5858647 57.1851009 24.4217294"></polygon>
                        <polygon id="Star-Copy-2" fill="#B35E03" points="85 20.25 77.0648991 24.4217294 78.5803685 15.5858647 72.160737 9.32827058 81.0324495 8.03913529 85 0 88.9675505 8.03913529 97.839263 9.32827058 91.4196315 15.5858647 92.9351009 24.4217294"></polygon>
                        <polygon id="Star-Copy-3" points="120.75 20.25 112.814899 24.4217294 114.330369 15.5858647 107.910737 9.32827058 116.78245 8.03913529 120.75 0 124.71755 8.03913529 133.589263 9.32827058 127.169631 15.5858647 128.685101 24.4217294"></polygon>
                        <polygon id="Star-Copy-4" points="156.5 20.25 148.564899 24.4217294 150.080369 15.5858647 143.660737 9.32827058 152.53245 8.03913529 156.5 0 160.46755 8.03913529 169.339263 9.32827058 162.919631 15.5858647 164.435101 24.4217294"></polygon>
                    </g>
                </g>
            </g>
        </g>
    </g>
</svg>