<?xml version="1.0" encoding="utf-8"?>
<svg width="35px" height="44px" viewBox="0 0 35 44" version="1.1" xmlns:xlink="http://www.w3.org/1999/xlink" xmlns="http://www.w3.org/2000/svg">
<defs>
<linearGradient x1="0.5" y1="0" x2="0.5" y2="1" id="gradient_1">
<stop offset="0" stop-color="#622A75" />
<stop offset="1" stop-color="#4E1C65" />
</linearGradient>
</defs>
<path d="M4.97045 32.0237C0.322275 22.9336 4.97045 15.9586 7.92728 13.4236C7.82081 10.0426 8.56001 5.60255 8.56001 5.60255C8.56001 5.60255 8.03375 4.33353 7.71738 3.38101C8.14022 2.64455 9.82853 2.00852 9.82853 2.00852L10.4613 3.80401L11.4134 3.48752C11.4134 3.48752 11.4134 2.2185 11.2035 1.16251C11.4134 0.632988 14.1603 0 14.1603 0C14.1603 0 14.3733 0.7395 14.4767 1.79854C15.3224 1.05904 16.9073 0.423006 18.702 0.106512C19.2313 1.58551 20.2869 3.38101 20.2869 3.38101C20.2869 3.38101 18.4921 3.17103 16.5909 4.01704C14.1603 5.09738 13.631 8.77358 14.1603 11.6251C14.6896 14.4796 16.5909 14.6926 17.3301 13.6336C17.9324 12.7731 17.2724 11.4924 16.8362 10.6459C16.7371 10.4535 16.6495 10.2836 16.5909 10.1461C16.2745 9.40657 15.6418 7.92757 17.4366 6.44857C19.2313 4.96652 23.986 4.96652 26.9428 5.49604C27.4721 6.44857 27.1558 8.66707 26.1002 9.72306C23.6696 8.98356 21.6619 9.93609 21.6619 12.2611C21.6619 14.5861 23.8826 16.3816 24.6218 16.3816C25.3579 16.3816 24.9381 14.9026 24.5153 14.2696C24.0925 13.6336 24.0925 12.8941 25.148 13.0006C26.2036 13.1071 30.3255 13.5301 31.594 15.7486C36.2422 25.4717 35.1836 32.8697 33.9181 38.7888C32.6496 44.7078 26.1002 44.2848 23.1403 43.6518C20.1835 43.0188 9.40569 39.8478 4.97045 32.0237ZM2.9359 16C3.83976 14.0509 7 11.7948 7 11.7948C7 11.7948 5.19229 9.74529 3.0497 8C0.451928 9.33481 0 12.0015 0 12.0015C0 12.0015 0.676266 13.5401 2.9359 16Z" id="Combined-Shape" fill="url(#gradient_1)" fill-rule="evenodd" stroke="none" />
</svg>