<?xml version="1.0" encoding="utf-8"?>
<svg width="31px" height="31px" viewBox="0 0 31 31" version="1.1" xmlns:xlink="http://www.w3.org/1999/xlink" xmlns="http://www.w3.org/2000/svg">
  <desc>Created with Lunacy</desc>
  <g id="dimensions">
    <g id="Group-13">
      <path d="M2.41617 0L28.4077 0C29.7422 0 30.8238 1.08161 30.8239 2.41617L30.8239 28.4076C30.8239 29.7422 29.7422 30.8238 28.4077 30.8238L2.41617 30.8238C1.08167 30.8238 0 29.7422 0 28.4076L0 2.41617C0 1.08161 1.08167 0 2.41617 0ZM28.4077 28.7688C28.6069 28.7688 28.7688 28.6068 28.7688 28.4076L28.7689 28.4076L28.7689 2.41617C28.7689 2.21692 28.6069 2.05488 28.4077 2.05488L2.41617 2.05488C2.21699 2.05488 2.05494 2.21692 2.05494 2.41617L2.05494 28.4076C2.05494 28.6068 2.21699 28.7688 2.41617 28.7688L28.4077 28.7688Z" id="Shape" fill="#FFFFFF" fill-rule="evenodd" stroke="none" />
      <path d="M17.612 0.00113456L12.9593 0C12.8237 0 12.7011 0.0816886 12.6494 0.206542C12.5973 0.331396 12.6259 0.474867 12.7218 0.570841L14.4735 2.3159L2.32313 14.485L0.572993 12.7414C0.477071 12.6459 0.332645 12.6174 0.207321 12.6689C0.0819966 12.7208 0.000414124 12.8426 0.000414124 12.9778L0 17.6121C0 17.7968 0.149913 17.9462 0.335441 17.9462L4.98802 17.9474C5.12375 17.9474 5.24628 17.8658 5.29794 17.7409C5.35012 17.616 5.3215 17.4725 5.22557 17.3765L3.47543 15.633L12.7325 6.34335L15.6242 3.46238L17.3744 5.20595C17.4703 5.30151 17.6147 5.33003 17.74 5.27846C17.8654 5.22658 17.947 5.10487 17.947 4.9697L17.9474 0.335367C17.9474 0.150639 17.7974 0.00113456 17.612 0.00113456Z" transform="translate(6.526316 6.526316)" id="Path" fill="#FFFFFF" stroke="none" />
    </g>
  </g>
</svg>