<?xml version="1.0" encoding="utf-8"?>
<svg width="51px" height="45px" viewBox="0 0 51 45" version="1.1" xmlns:xlink="http://www.w3.org/1999/xlink" xmlns="http://www.w3.org/2000/svg"><path d="M37.4531 0C34.6857 0 32.1484 0.876504 29.912 2.60522C27.7679 4.26256 26.3404 6.37347 25.5 7.90845C24.6596 6.37337 23.2321 4.26256 21.088 2.60522C18.8516 0.876504 16.3143 0 13.5469 0C5.82396 0 0 6.31364 0 14.6861C0 23.7313 7.26581 29.9199 18.2653 39.2886C20.1331 40.8796 22.2503 42.683 24.4509 44.6063C24.741 44.8602 25.1135 45 25.5 45C25.8865 45 26.259 44.8602 26.5491 44.6064C28.7499 42.6828 30.867 40.8795 32.7359 39.2876C43.7342 29.9199 51 23.7313 51 14.6861C51 6.31364 45.176 0 37.4531 0Z" id="Path" fill="#4E1C65" stroke="none" /></svg>