<?xml version="1.0" encoding="utf-8"?>
<svg width="45px" height="49px" viewBox="0 0 45 49" version="1.1" xmlns:xlink="http://www.w3.org/1999/xlink" xmlns="http://www.w3.org/2000/svg">
<defs>
<linearGradient x1="0.5" y1="0" x2="0.5" y2="1" id="gradient_1">
<stop offset="0" stop-color="#622A75" />
<stop offset="1" stop-color="#4E1C65" />
</linearGradient>
</defs>
<path d="M38.5252 1.92778C33.8101 -2.00184 30.5978 0.996161 29.1137 2.8365C27.1767 5.23632 28.0981 8.64644 29.2207 10.0553C29.9368 10.9518 30.4241 11.738 30.748 12.4409C30.0844 12.5706 29.3167 12.8531 28.5084 13.4274C25.5894 15.5034 23.5809 20.207 22.5006 27.4761C21.419 20.207 19.4127 15.5034 16.4941 13.4274C15.6854 12.8505 14.92 12.569 14.2535 12.4393C14.5777 11.736 15.0621 10.9518 15.7808 10.0553C16.9021 8.64644 17.8255 5.23632 15.8891 2.8365C14.4034 0.996161 11.1921 -2.00184 6.47665 1.92778C2.55437 5.19859 -3.2317 14.9826 2.24079 21.9345C4.04271 24.2224 8.55026 27.3171 13.8693 22.3949C13.8693 22.3949 16.6626 19.3273 14.5329 16.645C14.1365 16.1448 13.831 15.557 13.7536 14.8427C14.1507 14.914 14.6258 15.0684 15.1762 15.4815C16.7941 16.6946 19.0875 20.068 20.2558 29.1981C17.6105 29.8495 15.7016 31.6015 15.7016 33.6785C15.7016 35.9296 17.9376 37.8096 20.9314 38.3085C21.0203 41.1211 21.0384 44.2252 20.943 47.7504L20.9104 49L24.0843 49L24.0518 47.7504C23.9567 44.2284 23.9748 41.1208 24.0631 38.3085C27.0533 37.8129 29.2913 35.9335 29.2913 33.6785C29.2913 31.6018 27.3833 29.8495 24.7386 29.1981C25.9072 20.068 28.2051 16.6963 29.8185 15.4815C30.3725 15.0684 30.8486 14.9104 31.2418 14.8401C31.1651 15.5573 30.8627 16.1468 30.4625 16.6472C28.3328 19.3276 31.1257 22.3969 31.1257 22.3969C36.4455 27.3191 40.9524 24.2243 42.7553 21.9364C48.2339 14.9826 42.4478 5.19859 38.5252 1.92778Z" id="Path" fill="url(#gradient_1)" stroke="none" />
</svg>