<?xml version="1.0" encoding="UTF-8"?>
<svg width="25px" height="24px" viewBox="0 0 25 24" version="1.1" xmlns="http://www.w3.org/2000/svg" xmlns:xlink="http://www.w3.org/1999/xlink">
    <title>B0E56539-A558-481F-A96E-35F6EEB202AD</title>
    <g id="V3" stroke="none" stroke-width="1" fill="none" fill-rule="evenodd">
        <g id="Login-Page--Home--Notification-Open" transform="translate(-1772.000000, -75.000000)" fill="#4E1C65" fill-rule="nonzero">
            <g id="Group-2" transform="translate(1283.000000, 56.000000)">
                <g id="close" transform="translate(489.204420, 19.000000)">
                    <path d="M14.1203129,12.0001779 L23.4138,2.65458163 C24.0186044,2.04668933 24.0186044,1.06381152 23.4138,0.455919221 C22.8092788,-0.151973074 21.8318516,-0.151973074 21.2273303,0.455919221 L11.9335601,9.80151559 L2.64007297,0.455919221 C2.03526862,-0.151973074 1.05812449,-0.151973074 0.453603265,0.455919221 C-0.151201088,1.06381152 -0.151201088,2.04668933 0.453603265,2.65458163 L9.74709042,12.0001779 L0.453603265,21.3457743 C-0.151201088,21.9536666 -0.151201088,22.9365444 0.453603265,23.5444367 C0.754872849,23.847671 1.15099707,24 1.54683815,24 C1.94267917,24 2.33852026,23.847671 2.64007297,23.5444367 L11.9335601,14.1988403 L21.2273303,23.5444367 C21.5288831,23.847671 21.9247241,24 22.3205652,24 C22.7164062,24 23.1122473,23.847671 23.4138,23.5444367 C24.0186044,22.9365444 24.0186044,21.9536666 23.4138,21.3457743 L14.1203129,12.0001779 Z" id="Path"></path>
                </g>
            </g>
        </g>
    </g>
</svg>