<?xml version="1.0" encoding="UTF-8"?>
<svg width="33px" height="24px" viewBox="0 0 33 24" version="1.1" xmlns="http://www.w3.org/2000/svg" xmlns:xlink="http://www.w3.org/1999/xlink">
<g stroke="none" stroke-width="1" fill="none" fill-rule="evenodd">
<g transform="translate(2.818182, 0.000000)" fill="#FFFFFF" fill-rule="nonzero">
<path d="M27.3615057,5.3597213 L24.6672166,5.3597213 L24.6672166,0.834018847 C24.6672166,0.544963231 24.5199979,0.276534589 24.2781697,0.124584407 C24.0363416,-0.0273657747 23.7343026,-0.0411541556 23.4800604,0.0880563175 L14.1818182,4.81463547 L4.88357599,0.0880563175 C4.62927912,-0.0412097539 4.32734943,-0.027421373 4.08546662,0.124584407 C3.84363849,0.276534589 3.69641974,0.544963231 3.69641974,0.834018847 L3.69641974,5.3597213 L1.00213068,5.3597213 C0.549099432,5.3597213 0.181818182,5.73311956 0.181818182,6.19369596 L0.181818182,23.1660253 C0.181818182,23.6266017 0.549099432,24 1.00213068,24 L27.3615057,24 C27.8145369,24 28.1818182,23.6266017 28.1818182,23.1660253 L28.1818182,6.19369596 C28.1818182,5.73311956 27.8145369,5.3597213 27.3615057,5.3597213 Z M1.82244318,22.3320507 L1.82244318,7.02767061 L3.69641974,7.02767061 L3.69641974,18.2529695 C3.69641974,18.5688791 3.87196662,18.8576011 4.14988849,18.998932 L10.7069197,22.3320507 L1.82244318,22.3320507 Z M13.3615057,21.8165988 L5.33704474,17.7375731 L5.33704474,2.18338984 L13.3615057,6.26247107 L13.3615057,21.8165988 Z M15.0021307,6.26247107 L23.0265916,2.18338984 L23.0265916,17.7375175 L15.0021307,21.8165988 L15.0021307,6.26247107 Z M26.5411932,22.3320507 L17.6567166,22.3320507 L24.2137479,18.998932 C24.4916697,18.8576567 24.6672166,18.5688791 24.6672166,18.2529695 L24.6672166,7.02767061 L26.5411932,7.02767061 L26.5411932,22.3320507 Z"></path>
<path d="M7.60607159,7.5757664 L10.0713323,8.91200516 C10.4502255,9.11743108 10.9111577,8.95092797 11.1006554,8.54007613 C11.2901532,8.1292243 11.1365091,7.62971496 10.7575648,7.4242336 L8.29230402,6.08799484 C7.91341084,5.88256892 7.45247868,6.04907203 7.26298094,6.45992387 C7.0734832,6.8707757 7.22712725,7.37034048 7.60607159,7.5757664 L7.60607159,7.5757664 Z"></path>
<path d="M7.60607159,11.5757401 L10.0713323,12.9120035 C10.4502255,13.1174333 10.9111577,12.9509271 11.1006554,12.5400676 C11.2901532,12.1292082 11.1365091,11.6296896 10.7575648,11.4242599 L8.29230402,10.0879965 C7.91341084,9.88256675 7.45247868,10.0490729 7.26298094,10.4599324 C7.0734832,10.8707363 7.22712725,11.3703104 7.60607159,11.5757401 L7.60607159,11.5757401 Z"></path>
<path d="M7.60607159,16.5757664 L10.0713323,17.9120052 C10.4502255,18.1174311 10.9111577,17.950928 11.1006554,17.5400761 C11.2901532,17.1292243 11.1365091,16.629715 10.7575648,16.4242336 L8.29230402,15.0879948 C7.91341084,14.8825689 7.45247868,15.049072 7.26298094,15.4599239 C7.0734832,15.8707757 7.22712725,16.3703405 7.60607159,16.5757664 L7.60607159,16.5757664 Z"></path>
<path d="M20.0713283,6.08799412 L17.6060788,7.42422205 C17.2270851,7.6296463 17.0734929,8.12920703 17.2629898,8.54005554 C17.4524866,8.95090404 17.9133655,9.11746125 18.2923081,8.91198155 L20.7575575,7.57575362 C21.1365513,7.37032937 21.2901435,6.87076864 21.1006466,6.45992014 C20.9111497,6.04907163 20.4502197,5.88256987 20.0713283,6.08799412 Z"></path>
<path d="M20.0713283,10.0879957 L17.6060788,11.4242484 C17.2270851,11.6296764 17.0734929,12.1292464 17.2629898,12.540047 C17.4524866,12.9509031 17.9133655,13.1174634 18.2923081,12.9119799 L20.7575575,11.5757273 C21.1365513,11.3702993 21.2901435,10.8707293 21.1006466,10.4599286 C20.9111497,10.0490725 20.4502197,9.8825677 20.0713283,10.0879957 Z"></path>
<path d="M20.0713283,15.0879941 L17.6060788,16.4242221 C17.2270851,16.6296463 17.0734929,17.129207 17.2629898,17.5400555 C17.4524866,17.950904 17.9133655,18.1174612 18.2923081,17.9119816 L20.7575575,16.5757536 C21.1365513,16.3703294 21.2901435,15.8707686 21.1006466,15.4599201 C20.9111497,15.0490716 20.4502197,14.8825699 20.0713283,15.0879941 Z"></path>
</g>
</g>
</svg>