<svg id="Layer_1" data-name="Layer 1" xmlns="http://www.w3.org/2000/svg" width="46.4" height="48" viewBox="0 0 46.4 48"><g id="entertainment"><path id="Shape" d="M0,0V48H46.4V0ZM3.2,6.4H6.4V3.2H3.2ZM40,6.4h3.2V3.2H40ZM6.4,12.8H3.2V9.6H6.4Zm36.8,0H40V9.6h3.2ZM34.4,29.6a3.2,3.2,0,0,1-3.2,3.2h-16A3.2,3.2,0,0,1,12,29.6V18.4a3.2,3.2,0,0,1,3.2-3.2h16a3.2,3.2,0,0,1,3.2,3.2ZM3.2,19.2H6.4V16H3.2Zm36.8,0h3.2V16H40ZM6.4,25.6H3.2V22.4H6.4Zm36.8,0H40V22.4h3.2ZM3.2,32H6.4V28.8H3.2ZM40,32h3.2V28.8H40ZM6.4,38.4H3.2V35.2H6.4Zm36.8,0H40V35.2h3.2Zm-40,6.4H6.4V41.6H3.2Zm36.8,0h3.2V41.6H40Z" fill="#4e1c65" fill-rule="evenodd"/><path id="Path" d="M19.2,28V20L28,24Z" fill="#4e1c65"/></g></svg>