<?xml version="1.0" encoding="utf-8"?>
<svg width="55px" height="40px" viewBox="0 0 55 40" version="1.1" xmlns:xlink="http://www.w3.org/1999/xlink" xmlns="http://www.w3.org/2000/svg">
  <desc>Created with Lunacy</desc>
  <defs>
    <path d="M0 0L24.8462 0L24.8462 39.8512L0 39.8512L0 0Z" transform="translate(5.5760782E-05 0.1488306)" id="path_1" />
    <path d="M0 0L24.5894 0L24.5894 39.8809L0 39.8809L0 0Z" transform="translate(0.20670928 0.112058826)" id="path_2" />
    <clipPath id="mask_1">
      <use xlink:href="#path_1" />
    </clipPath>
    <clipPath id="mask_2">
      <use xlink:href="#path_2" />
    </clipPath>
  </defs>
  <g id="Group-7">
    <g id="Group-3">
      <path d="M0 0L24.8462 0L24.8462 39.8512L0 39.8512L0 0Z" transform="translate(5.5760782E-05 0.1488306)" id="Clip-2" fill="none" stroke="none" />
      <g clip-path="url(#mask_1)">
        <path d="M21.4122 31.394C21.4122 28.9181 21.4449 26.4416 21.4036 23.9666C21.3545 21.0325 19.3351 18.7798 16.439 18.3413C15.7446 18.236 15.5196 18.4272 15.7286 19.0801C16.1452 20.3828 16.6601 21.6543 17.0807 22.9554C18.2027 26.4296 16.6545 29.776 13.8241 31.3696C10.3821 33.3078 6.20179 32.1916 4 28.8878C1.12173 24.5696 -0.208627 19.8422 0.0264919 14.7048C0.220539 10.4625 1.42292 6.47838 3.93036 3.00808C5.55268 0.762493 7.97292 -0.151036 10.7604 0.02014C14.5943 0.25514 17.4917 2.87779 18.1566 6.61132C18.4807 8.43338 18.1485 10.214 17.1982 11.8628C16.772 12.6019 16.4732 13.4119 16.1071 14.1854C15.8735 14.679 16.0905 14.831 16.5696 14.8881C18.5902 15.1293 20.417 15.8507 21.903 17.2422C23.6982 18.9231 24.786 20.9834 24.8057 23.4646C24.847 28.6854 24.8211 33.9072 24.8461 39.1284C24.8488 39.7237 24.6628 39.9016 24.0682 39.8396C23.4548 39.7754 22.8244 39.769 22.211 39.8296C21.5568 39.8943 21.4045 39.6304 21.4095 39.0422C21.4307 36.4931 21.4185 33.9434 21.4185 31.394L21.4122 31.394Z" transform="translate(5.5760782E-05 0.1488306)" id="Fill-1" fill="#4E1C65" stroke="none" />
      </g>
    </g>
    <g id="Group-6" transform="translate(30 0)">
      <path d="M0 0L24.5894 0L24.5894 39.8809L0 39.8809L0 0Z" transform="translate(0.20670928 0.112058826)" id="Clip-5" fill="none" stroke="none" />
      <g clip-path="url(#mask_2)">
        <path d="M8.95126 14.7723C8.50303 13.7994 8.18803 12.8964 7.70214 12.0973C4.93714 7.55114 7.33656 1.55908 12.4768 0.250554C16.0321 -0.654152 19.6463 0.944671 21.4577 4.18291C24.4845 9.59349 25.3301 15.3211 23.9386 21.3547C23.2395 24.3876 22.006 27.2144 20.0748 29.67C17.4463 33.012 12.3566 33.267 9.41773 30.2794C7.3345 28.1617 6.78214 25.0085 7.95097 22.2538C8.3692 21.2676 8.69214 20.2367 8.9945 19.2073C9.22361 18.4288 9.04008 18.2608 8.26744 18.3876C5.42067 18.8544 3.41803 21.1732 3.41126 24.0558C3.3995 29.0061 3.4095 33.9564 3.40714 38.9067C3.40685 39.8744 3.40067 39.8747 2.45097 39.872C1.91185 39.8703 1.37038 39.8323 0.834497 39.8747C0.185379 39.9261 -0.00462104 39.67 8.4842e-05 39.0329C0.0265554 35.6758 0.00714367 32.3182 0.015379 28.9608C0.0200848 27.1482 0.0392025 25.3353 0.0671437 23.5223C0.128908 19.517 3.14832 15.9206 7.09244 15.1403C7.63891 15.032 8.18538 14.9238 8.95126 14.7723" transform="translate(0.20670928 0.111917086)" id="Fill-4" fill="#4E1C65" stroke="none" />
      </g>
    </g>
  </g>
</svg>