<svg width="30px" height="30px" viewBox="0 0 30 30" version="1.1" xmlns:xlink="http://www.w3.org/1999/xlink" xmlns="http://www.w3.org/2000/svg"><path d="M29.8084 14.5383L25.8956 10.6254C25.6413 10.3704 25.2283 10.3699 24.9733 10.6242C24.8504 10.7469 24.7814 10.9135 24.7817 11.0871L24.7817 13.0435L16.9561 13.0435L16.9561 5.21774L18.9125 5.21774C19.2727 5.21841 19.5651 4.9269 19.5658 4.56673C19.5661 4.39309 19.4972 4.22649 19.3742 4.10384L15.4614 0.190938C15.2067 -0.0636459 14.7939 -0.0636459 14.5392 0.190938L10.6264 4.10384C10.3714 4.35818 10.3709 4.77112 10.6253 5.02613C10.7476 5.14877 10.9137 5.21768 11.0869 5.21774L13.0433 5.21774L13.0433 13.0435L5.21762 13.0435L5.21762 11.0871C5.2183 10.7269 4.92679 10.4344 4.56663 10.4338C4.393 10.4335 4.2264 10.5024 4.10375 10.6254L0.190933 14.5383C-0.0636445 14.7929 -0.0636445 15.2057 0.190933 15.4604L4.10375 19.3733C4.35809 19.6284 4.77101 19.6288 5.02602 19.3745C5.14866 19.2522 5.21756 19.0861 5.21762 18.9129L5.21762 16.9565L13.0433 16.9565L13.0433 24.7823L11.0869 24.7823C10.7267 24.7816 10.4342 25.0731 10.4335 25.4333C10.4332 25.6069 10.5022 25.7735 10.6251 25.8962L14.538 29.8091C14.7926 30.0636 15.2054 30.0636 15.4601 29.8091L19.3729 25.8962C19.6279 25.6418 19.6284 25.2289 19.3741 24.9739C19.2517 24.8512 19.0857 24.7823 18.9125 24.7823L16.9561 24.7823L16.9561 16.9565L24.7817 16.9565L24.7817 18.9129C24.7811 19.2731 25.0726 19.5656 25.4327 19.5662C25.6064 19.5665 25.773 19.4976 25.8956 19.3746L29.8084 15.4617C30.0634 15.2074 30.0639 14.7944 29.8096 14.5394C29.8092 14.5391 29.8088 14.5386 29.8084 14.5383Z" fill="#0ec995" stroke="none" /></svg>