<svg xmlns="http://www.w3.org/2000/svg" width="35.84" height="30.4" viewBox="0 0 35.84 30.4"><path  d="M30.67,16.41H27.89a7.07,7.07,0,0,1,.44,2.48V29.37a2.94,2.94,0,0,1-.18,1h4.59a3.1,3.1,0,0,0,3.1-3.1V21.59A5.18,5.18,0,0,0,30.67,16.41Z" fill="#4e1c65"/><path  d="M7.51,18.89A7.07,7.07,0,0,1,8,16.41H5.17A5.18,5.18,0,0,0,0,21.59V27.3a3.1,3.1,0,0,0,3.1,3.1H7.69a2.94,2.94,0,0,1-.18-1Z" fill="#4e1c65"/><path d="M21.09,13.72H14.75a5.18,5.18,0,0,0-5.17,5.17V29.37a1,1,0,0,0,1,1H25.23a1,1,0,0,0,1-1V18.89A5.18,5.18,0,0,0,21.09,13.72Z" fill="#4e1c65"/><path d="M17.92,0a6.22,6.22,0,1,0,6.22,6.22A6.23,6.23,0,0,0,17.92,0Z" fill="#4e1c65"/><path d="M7,5.8a4.65,4.65,0,1,0,4.66,4.65A4.66,4.66,0,0,0,7,5.8Z" fill="#4e1c65"/><path d="M28.85,5.8a4.66,4.66,0,1,0,4.65,4.65A4.66,4.66,0,0,0,28.85,5.8Z" fill="#4e1c65"/></svg>