<svg xmlns="http://www.w3.org/2000/svg" viewBox="0 0 26 26"><path d="M12.8,25.6a12.81,12.81,0,0,1-8.28-3A12.67,12.67,0,0,1,3,21.05a12.8,12.8,0,1,1,19.58,0,12.67,12.67,0,0,1-1.51,1.51A12.81,12.81,0,0,1,12.8,25.6Zm0-24A11.2,11.2,0,0,0,4.24,20a10.29,10.29,0,0,0,1.32,1.32,11.18,11.18,0,0,0,14.48,0A10.29,10.29,0,0,0,21.36,20,11.2,11.2,0,0,0,12.8,1.6Z" fill="white"/><path d="M12.8,12.8A4.8,4.8,0,1,1,17.6,8,4.8,4.8,0,0,1,12.8,12.8Zm0-8A3.2,3.2,0,1,0,16,8,3.21,3.21,0,0,0,12.8,4.8Z" fill="white"/><path d="M20.56,22.75a.71.71,0,0,1-.2,0,.81.81,0,0,1-.58-1A6.9,6.9,0,0,0,20,20a7.23,7.23,0,0,0-7.09-7.2h-.22A7.23,7.23,0,0,0,5.6,20a6.9,6.9,0,0,0,.22,1.76.8.8,0,0,1-1.56.39A9.1,9.1,0,0,1,4,20a8.81,8.81,0,0,1,8.68-8.8h.24A8.81,8.81,0,0,1,21.6,20a9.1,9.1,0,0,1-.26,2.15A.81.81,0,0,1,20.56,22.75Z" fill="white"/></svg>