<svg id="Layer_1" data-name="Layer 1" xmlns="http://www.w3.org/2000/svg" width="285.18" height="253.81" viewBox="0 0 285.18 253.81"><title>icon-is-locked-video</title><path id="Shape" d="M183,78.68h11.4a11.32,11.32,0,0,1,11.4,11.24V168.6a11.32,11.32,0,0,1-11.4,11.24h-114A11.32,11.32,0,0,1,69,168.6V89.92a11.32,11.32,0,0,1,11.4-11.24h11.4V45c0-24.79,20.46-45,45.6-45S183,20.17,183,45ZM114.59,45V78.68h45.6V45a22.8,22.8,0,0,0-45.6,0Zm28.5,88.36v12.8a5.7,5.7,0,0,1-11.4,0v-12.8a11.16,11.16,0,0,1-5.7-9.68,11.4,11.4,0,0,1,22.8,0A11.16,11.16,0,0,1,143.09,133.32Z" fill="#fff" fill-rule="evenodd"/><g id="Locked-Content"><path d="M165.33,225.9a10.39,10.39,0,0,1,3.8,7.34H164.2a8,8,0,0,0-2.26-4.17,6.91,6.91,0,0,0-4.79-1.64,7.28,7.28,0,0,0-6.53,3.44,15.35,15.35,0,0,0,0,15.33,7.24,7.24,0,0,0,6.53,3.47,6.39,6.39,0,0,0,5.13-2.25,9.42,9.42,0,0,0,2.07-5.39h4.82a12.91,12.91,0,0,1-3.57,8.48,11.4,11.4,0,0,1-8.46,3.3,12.35,12.35,0,0,1-9.92-4.52,17.92,17.92,0,0,1,0-21.52,12.29,12.29,0,0,1,9.92-4.48A12.75,12.75,0,0,1,165.33,225.9ZM0,253.12H19.28v-4.39H4.94V224H0Zm66.77,0h4.5v-7.54l2.7-2.69,6.23,10.23h5.5l-8.57-13.35L85,232H79.41l-8.14,8.55V224h-4.5ZM128.49,224H124v10.84h-.07A6.13,6.13,0,0,0,121,232.3a10.05,10.05,0,0,0-3.88-.76,8.44,8.44,0,0,0-6.08,2.6q-2.68,2.64-2.76,8.32a12.63,12.63,0,0,0,2.41,7.94q2.35,3.21,7.14,3.29a8.15,8.15,0,0,0,3.73-.85,5.69,5.69,0,0,0,2.61-2.57h.07v2.85h4.27Zm88,11.49h3.41v12.45a5.93,5.93,0,0,0,1.12,4c.76.89,2.26,1.35,4.52,1.37a26.28,26.28,0,0,0,2.93-.23v-3.59a7.55,7.55,0,0,1-1.89.16c-.95,0-1.56-.25-1.83-.74a4.4,4.4,0,0,1-.35-2.15V235.48h4.07V232h-4.07V225.7h-4.5V232h-3.41Zm60.1,0h-3.42V232h3.42V225.7h4.5V232h4.07v3.46h-4.07v11.28a4.53,4.53,0,0,0,.34,2.15c.27.49.88.74,1.84.74a7.55,7.55,0,0,0,1.89-.16v3.59a26.28,26.28,0,0,1-2.93.23c-2.26,0-3.77-.48-4.53-1.37a5.87,5.87,0,0,1-1.11-4ZM31.13,253.69a9.61,9.61,0,0,0,7.66-3.17,11.55,11.55,0,0,0,2.66-7.92,11.71,11.71,0,0,0-2.66-8c-1.79-2-4.35-3.05-7.67-3.08s-5.82,1.05-7.58,3.08a11.5,11.5,0,0,0-2.73,8,11.35,11.35,0,0,0,2.73,7.92Q26.18,253.66,31.13,253.69Zm29.13-20.32a7.62,7.62,0,0,1,3,5.78h-4.5a4.34,4.34,0,0,0-4.67-4,7.58,7.58,0,0,0-1.81.24,4.6,4.6,0,0,0-1.82,1.15,6.05,6.05,0,0,0-1.38,2.31,10.81,10.81,0,0,0-.6,3.94,9.46,9.46,0,0,0,1.27,4.89,4.45,4.45,0,0,0,4.15,2.3c2.71-.05,4.33-1.65,4.86-4.78h4.5q-1.35,8.35-9.36,8.44c-3.22-.05-5.66-1.1-7.32-3.13a11.44,11.44,0,0,1-2.6-7.73,12.39,12.39,0,0,1,2.57-8.05c1.66-2.14,4.16-3.21,7.5-3.24A10.43,10.43,0,0,1,60.26,233.37ZM104,235.26a11.69,11.69,0,0,1,2.08,8.51h-15a7,7,0,0,0,1.35,4.34A4.92,4.92,0,0,0,96.56,250a4.73,4.73,0,0,0,5-3.52h4.26a8.79,8.79,0,0,1-3.28,5.29,9.92,9.92,0,0,1-6,1.89,9.33,9.33,0,0,1-7.39-3.13,13,13,0,0,1,.08-15.74,9.52,9.52,0,0,1,14.74.44Zm78.35,18.43a9.61,9.61,0,0,0,7.65-3.17,11.5,11.5,0,0,0,2.66-7.92,11.71,11.71,0,0,0-2.66-8c-1.79-2-4.34-3.05-7.66-3.08s-5.83,1.05-7.59,3.08a11.54,11.54,0,0,0-2.72,8,11.39,11.39,0,0,0,2.72,7.92A9.49,9.49,0,0,0,182.34,253.69Zm18.32-.57h-4.5V232h4.26v3.18l.08.08a7.15,7.15,0,0,1,6.37-3.74q7.06,0,7.23,7.15v14.43h-4.49V239.9c-.06-3.16-1.39-4.72-4-4.7a4.49,4.49,0,0,0-3.56,1.59,5.74,5.74,0,0,0-1.39,3.93Zm46.92-17.86a11.74,11.74,0,0,1,2.09,8.51h-15a7,7,0,0,0,1.35,4.34,4.89,4.89,0,0,0,4.14,1.92,4.72,4.72,0,0,0,5-3.52h4.27a8.83,8.83,0,0,1-3.28,5.29,10,10,0,0,1-6,1.89,9.34,9.34,0,0,1-7.39-3.13,13,13,0,0,1,.08-15.74,9,9,0,0,1,7.2-3.28A8.86,8.86,0,0,1,247.58,235.26Zm5.26,17.86h4.5v-12.4a5.75,5.75,0,0,1,1.4-3.93,4.47,4.47,0,0,1,3.55-1.59c2.62,0,3.95,1.54,4,4.7v13.22h4.5V238.69q-.17-7.11-7.24-7.15a7.14,7.14,0,0,0-6.36,3.74l-.08-.08V232h-4.27ZM31.13,250a4.82,4.82,0,0,1-4.39-2.38,9.67,9.67,0,0,1,0-10.12,5,5,0,0,1,4.39-2.33,5.1,5.1,0,0,1,4.45,2.33,10,10,0,0,1,0,10.12A4.94,4.94,0,0,1,31.13,250Zm61.51-13.25a6.18,6.18,0,0,0-1.58,3.93h10.51a6.31,6.31,0,0,0-1.46-3.86,4.68,4.68,0,0,0-3.67-1.65A5.15,5.15,0,0,0,92.64,236.78Zm20.11,6.06a10,10,0,0,1,1.32-5.27,4.87,4.87,0,0,1,4.42-2.37q5.55.12,5.66,7.41a9.62,9.62,0,0,1-1.32,5,4.86,4.86,0,0,1-4.42,2.38,4.76,4.76,0,0,1-4.27-2.26A8.86,8.86,0,0,1,112.75,242.84ZM182.34,250a4.81,4.81,0,0,1-4.39-2.38,9.67,9.67,0,0,1,0-10.12,5,5,0,0,1,4.39-2.33,5.07,5.07,0,0,1,4.44,2.33,10,10,0,0,1,0,10.12A4.92,4.92,0,0,1,182.34,250Zm53.9-13.25a6.13,6.13,0,0,0-1.58,3.93h10.51a6.38,6.38,0,0,0-1.47-3.86A4.67,4.67,0,0,0,240,235.2,5.11,5.11,0,0,0,236.24,236.78Z" fill="#fff" fill-opacity="0.8"/></g></svg>