<svg id="Layer_1" data-name="Layer 1" xmlns="http://www.w3.org/2000/svg" width="31" height="31" viewBox="0 0 31 31"><title>icon-zoom-small</title><g id="dimensions"><g id="Group-13"><path id="Shape" d="M2.42,0h26a2.41,2.41,0,0,1,2.41,2.42v26a2.41,2.41,0,0,1-2.41,2.41h-26A2.41,2.41,0,0,1,0,28.41v-26A2.42,2.42,0,0,1,2.42,0Zm26,28.77a.36.36,0,0,0,.36-.36h0v-26a.37.37,0,0,0-.36-.37h-26a.38.38,0,0,0-.37.37v26a.37.37,0,0,0,.37.36Z" fill="#fff" fill-rule="evenodd"/><path id="Path" d="M24.83,5l-6.24,6.25L16.84,9.53a.33.33,0,0,0-.36-.08.34.34,0,0,0-.21.31V14.4a.33.33,0,0,0,.33.33h4.66a.34.34,0,0,0,.31-.21.33.33,0,0,0-.08-.36l-1.75-1.74L26,6.19Z" fill="#fff"/><path id="Path-2" data-name="Path" d="M6.84,25.3l6.24-6.25,1.75,1.74a.33.33,0,0,0,.36.08.35.35,0,0,0,.21-.31V15.92a.34.34,0,0,0-.34-.33H10.41a.34.34,0,0,0-.31.2.36.36,0,0,0,.07.37l1.75,1.74-6.2,6.23Z" fill="#fff"/></g></g></svg>