<?xml version="1.0" encoding="utf-8"?>
<svg width="52px" height="52px" viewBox="0 0 52 52" version="1.1" xmlns:xlink="http://www.w3.org/1999/xlink" xmlns="http://www.w3.org/2000/svg">
<g id="cookie">
<path d="M2.1 4.2C3.2598 4.2 4.2 3.2598 4.2 2.1C4.2 0.940202 3.2598 0 2.1 0C0.940202 0 0 0.940202 0 2.1C0 3.2598 0.940202 4.2 2.1 4.2Z" transform="translate(12.699219 30.300049)" id="Oval" fill="#4E1C65" stroke="none" />
<path d="M4.1 8.2C6.36437 8.2 8.2 6.36437 8.2 4.1C8.2 1.83563 6.36437 0 4.1 0C1.83563 0 0 1.83563 0 4.1C0 6.36437 1.83563 8.2 4.1 8.2Z" transform="translate(26.298828 33.5)" id="Oval" fill="#4E1C65" stroke="none" />
<path d="M2.1 4.2C3.2598 4.2 4.2 3.2598 4.2 2.1C4.2 0.940202 3.2598 0 2.1 0C0.940202 0 0 0.940202 0 2.1C0 3.2598 0.940202 4.2 2.1 4.2Z" transform="translate(20.699219 16.699951)" id="Oval" fill="#4E1C65" stroke="none" />
<path d="M3.3 6.6C5.12254 6.6 6.6 5.12254 6.6 3.3C6.6 1.47746 5.12254 0 3.3 0C1.47746 0 0 1.47746 0 3.3C0 5.12254 1.47746 6.6 3.3 6.6Z" transform="translate(1.4990234 17.5)" id="Oval" fill="#4E1C65" stroke="none" />
<path d="M40.8992 29.6C40.8992 24.3593 46.3969 20.9481 51.07 23.1991C50.8333 20.9595 50.2703 18.6801 49.3851 16.3944C49.0085 15.4219 47.7803 15.1245 46.9996 15.8063C46.4432 16.2922 45.4687 16.1541 45.1433 15.5464C44.7547 14.8208 43.8543 14.5441 43.1254 14.9255C41.3436 15.8581 39.1017 14.9892 38.4613 13.0223C38.2225 12.2888 37.4661 11.8558 36.7126 12.0217C34.6348 12.4785 32.6991 10.8892 32.6991 8.7999C32.6991 7.9856 32.9986 7.2034 33.5424 6.5974C34.383 5.6607 33.7611 4.1628 32.5036 4.0977C31.7523 4.0586 31.2152 3.4037 31.5607 2.8217C32.0884 1.9327 31.5781 0.7851 30.5613 0.5844C29.0232 0.2809 27.3575 0 25.5992 0C14.7808 0 5.7112 6.2638 1.9294 15.1944C6.0867 13.0574 11.0991 16.082 11.0991 20.8C11.0991 24.2738 8.2729 27.1 4.7991 27.1C2.8782 27.1 1.1565 26.2349 0 24.8749C0.0298 35.2873 6.3795 44.8722 15.625 49.0408C28.0785 54.6556 42.7515 48.9345 48.6774 36.6668C44.4959 37.0645 40.8992 33.7703 40.8992 29.6ZM17.6992 18.8C17.6992 15.9879 19.987 13.7 22.7992 13.7C25.6114 13.7 27.8992 15.9879 27.8992 18.8C27.8992 21.6121 25.6114 23.9 22.7992 23.9C19.987 23.9 17.6992 21.6121 17.6992 18.8ZM9.69922 32.4C9.69922 35.2122 11.987 37.5 14.7992 37.5C17.6113 37.5 19.8992 35.2122 19.8992 32.4C19.8992 29.5879 17.6114 27.3 14.7992 27.3C11.987 27.3 9.69922 29.5879 9.69922 32.4ZM23.2988 37.6C23.2988 41.5149 26.4839 44.7 30.3988 44.7C34.3137 44.7 37.4988 41.5149 37.4988 37.6C37.4988 33.6851 34.3137 30.5 30.3988 30.5C26.4839 30.5 23.2988 33.6851 23.2988 37.6Z" id="Shape" fill="#4E1C65" fill-rule="evenodd" stroke="none" />
<path d="M4.1 0C1.8393 0 0 1.8393 0 4.1C0 7.2647 3.4501 9.2298 6.165 7.6397C6.7769 5.6597 7.1467 3.5981 7.2599 1.4904C6.5072 0.5807 5.3702 0 4.1 0Z" transform="translate(43.899414 25.5)" id="Path" fill="#4E1C65" stroke="none" />
</g>
</svg>