<svg width="36px" height="31px" viewBox="0 0 36 31" version="1.1" xmlns:xlink="http://www.w3.org/1999/xlink" xmlns="http://www.w3.org/2000/svg"><path d="M2.77172 0L0 0C0.28252 0.7735 0.43687 1.60825 0.43687 2.47828L0.43687 12.9538C0.43687 13.3165 0.37373 13.6647 0.25886 13.9885L4.84113 13.9885C6.55284 13.9885 7.94535 12.5959 7.94535 10.8843L7.94535 5.17363C7.94542 2.32092 5.6245 0 2.77172 0Z" transform="translate(27.89453 16.41406)" id="Path" fill="#4E1C65" stroke="none" /><path d="M7.50855 2.47828C7.50855 1.60818 7.6629 0.7735 7.94542 0L5.1737 0C2.32092 0 0 2.32092 0 5.1737L0 10.8844C0 12.596 1.39251 13.9886 3.10422 13.9886L7.68656 13.9886C7.57169 13.6646 7.50855 13.3165 7.50855 12.9538L7.50855 2.47828Z" transform="translate(0 16.41406)" id="Path" fill="#4E1C65" stroke="none" /><path d="M11.5102 0L5.1737 0C2.32092 0 0 2.32092 0 5.1737L0 15.6492C0 16.2206 0.46326 16.6839 1.03474 16.6839L15.6492 16.6839C16.2207 16.6839 16.6839 16.2207 16.6839 15.6492L16.6839 5.1737C16.6839 2.32092 14.363 0 11.5102 0Z" transform="translate(9.578125 13.71875)" id="Path" fill="#4E1C65" stroke="none" /><path d="M6.22202 0C2.79118 0 0 2.79118 0 6.22209C0 8.54924 1.28443 10.5817 3.18129 11.6488C4.081 12.1549 5.11826 12.4441 6.22202 12.4441C7.32578 12.4441 8.36304 12.1549 9.26275 11.6488C11.1597 10.5817 12.444 8.54917 12.444 6.22209C12.444 2.79125 9.65286 0 6.22202 0Z" transform="translate(11.69775 0)" id="Path" fill="#4E1C65" stroke="none" /><path d="M4.65325 0C2.0874 0 0 2.0874 0 4.65325C0 7.2191 2.0874 9.3065 4.65325 9.3065C5.30411 9.3065 5.92389 9.17168 6.4869 8.92934C7.46032 8.51025 8.26294 7.76839 8.75959 6.83914C9.10819 6.18695 9.3065 5.44292 9.3065 4.65325C9.3065 2.08747 7.2191 0 4.65325 0Z" transform="translate(2.34082 5.799805)" id="Path" fill="#4E1C65" stroke="none" /><path d="M4.65325 0C2.0874 0 0 2.0874 0 4.65325C0 5.44299 0.19831 6.18702 0.54691 6.83914C1.04356 7.76846 1.84618 8.51032 2.8196 8.92934C3.38261 9.17168 4.00239 9.3065 4.65325 9.3065C7.2191 9.3065 9.3065 7.2191 9.3065 4.65325C9.3065 2.0874 7.2191 0 4.65325 0Z" transform="translate(24.19238 5.799805)" id="Path" fill="#4E1C65" stroke="none" /></svg>