<?xml version="1.0" encoding="UTF-8"?>
<svg width="62px" height="74px" viewBox="0 0 62 74" version="1.1" xmlns="http://www.w3.org/2000/svg" xmlns:xlink="http://www.w3.org/1999/xlink">
    <title>8640946D-760E-4459-919B-54A1D2BDF59C</title>
    <g id="V3" stroke="none" stroke-width="1" fill="none" fill-rule="evenodd">
        <g id="Notification-Feature--Style-Guide" transform="translate(-47.000000, -371.000000)" fill="#ffffff" fill-rule="nonzero">
            <g id="bell-(1)" transform="translate(47.000000, 371.000000)">
                <path d="M59.10595,51.8504257 C54.49435,47.9324429 51.85,42.2056886 51.85,36.13864 L51.85,27.5914286 C51.85,16.80318 43.8773,7.87275429 33.55,6.37668571 L33.55,3.06571429 C33.55,1.37037429 32.1836,0 30.5,0 C28.8164,0 27.45,1.37037429 27.45,3.06571429 L27.45,6.37668571 C17.11965,7.87275429 9.15,16.80318 9.15,27.5914286 L9.15,36.13864 C9.15,42.2056886 6.50565,47.9324429 1.8666,51.8749514 C0.68015,52.8958343 0,54.37964 0,55.9492857 C0,58.9077 2.39425,61.3142857 5.3375,61.3142857 L55.6625,61.3142857 C58.60575,61.3142857 61,58.9077 61,55.9492857 C61,54.37964 60.31985,52.8958343 59.10595,51.8504257 Z" id="Path"></path>
                <path d="M30.5,74 C36.202612,74 40.9731571,69.4507619 42.0689655,63.4285714 L18.9310345,63.4285714 C20.0268429,69.4507619 24.797388,74 30.5,74 Z" id="Path"></path>
            </g>
        </g>
    </g>
</svg>