<svg xmlns="http://www.w3.org/2000/svg" width="119.47" height="105.86" viewBox="0 0 119.47 105.86"><g><path id="Shape" d="M76.25,32.81H81a4.72,4.72,0,0,1,4.75,4.69V70.31A4.72,4.72,0,0,1,81,75H33.5a4.72,4.72,0,0,1-4.75-4.69V37.5a4.72,4.72,0,0,1,4.75-4.69h4.75V18.75a19,19,0,0,1,38,0ZM47.75,18.75V32.81h19V18.75a9.5,9.5,0,0,0-19,0ZM59.62,55.6v5.34a2.38,2.38,0,0,1-4.75,0V55.6a4.66,4.66,0,0,1,2.38-8.72,4.66,4.66,0,0,1,2.37,8.72Z" fill="#fff" fill-rule="evenodd"/><g><path d="M69.21,94.23a4.34,4.34,0,0,1,1.59,3.06H68.74a3.28,3.28,0,0,0-.94-1.74,2.87,2.87,0,0,0-2-.68,3,3,0,0,0-2.72,1.43,5.72,5.72,0,0,0-.85,3.2,5.8,5.8,0,0,0,.85,3.19,3,3,0,0,0,2.72,1.44,2.64,2.64,0,0,0,2.14-.94A3.86,3.86,0,0,0,68.8,101h2a5.32,5.32,0,0,1-1.49,3.53,4.73,4.73,0,0,1-3.52,1.38A5.1,5.1,0,0,1,61.67,104a7.44,7.44,0,0,1,0-9,5.09,5.09,0,0,1,4.13-1.87A5.28,5.28,0,0,1,69.21,94.23ZM0,105.57H8v-1.83h-6V93.43H0Zm28,0h1.88v-3.14L31,101.31l2.6,4.26h2.29L32.3,100l3.26-3.23H33.25l-3.39,3.56V93.43H28ZM53.81,93.43H51.93V98h0a2.61,2.61,0,0,0-1.22-1.06,4.25,4.25,0,0,0-1.62-.31,3.51,3.51,0,0,0-2.53,1.08,4.76,4.76,0,0,0-1.15,3.47,5.3,5.3,0,0,0,1,3.31,3.54,3.54,0,0,0,3,1.37,3.37,3.37,0,0,0,1.55-.36A2.35,2.35,0,0,0,52,104.38h0v1.19h1.78ZM90.7,98.22h1.42v5.19a2.41,2.41,0,0,0,.47,1.67,2.46,2.46,0,0,0,1.88.57,10,10,0,0,0,1.22-.1v-1.49a3,3,0,0,1-.79.06c-.39,0-.65-.1-.76-.3a1.87,1.87,0,0,1-.15-.9v-4.7h1.7V96.78H94V94.15H92.12v2.63H90.7Zm25.2,0h-1.42V96.78h1.42V94.15h1.88v2.63h1.69v1.44h-1.69v4.7a1.77,1.77,0,0,0,.14.9c.11.2.37.3.76.3a3,3,0,0,0,.79-.06v1.49a10,10,0,0,1-1.22.1,1.93,1.93,0,0,1-2.35-2.24ZM13,105.81a4,4,0,0,0,3.19-1.32,4.8,4.8,0,0,0,1.1-3.3,4.89,4.89,0,0,0-1.11-3.33A4.07,4.07,0,0,0,13,96.58a4,4,0,0,0-3.16,1.28,5.43,5.43,0,0,0,0,6.63A4,4,0,0,0,13,105.81Zm12.19-8.47a3.19,3.19,0,0,1,1.24,2.41H24.58a1.81,1.81,0,0,0-1.94-1.65,3.61,3.61,0,0,0-.76.1,2.07,2.07,0,0,0-.75.48,2.45,2.45,0,0,0-.58,1,4.48,4.48,0,0,0-.25,1.65,4,4,0,0,0,.53,2,1.85,1.85,0,0,0,1.73,1c1.13,0,1.8-.68,2-2h1.88c-.38,2.32-1.68,3.5-3.9,3.52a3.78,3.78,0,0,1-3-1.31,4.77,4.77,0,0,1-1.09-3.22,5.17,5.17,0,0,1,1.07-3.35,3.77,3.77,0,0,1,3.13-1.35A4.34,4.34,0,0,1,25.22,97.34Zm18.32.79a4.86,4.86,0,0,1,.87,3.54H38.16a3,3,0,0,0,.56,1.81,2,2,0,0,0,1.73.8,2,2,0,0,0,2.07-1.46H44.3a3.64,3.64,0,0,1-1.37,2.2,4.19,4.19,0,0,1-2.48.79,3.87,3.87,0,0,1-3.08-1.31,5.42,5.42,0,0,1,0-6.56,3.78,3.78,0,0,1,3-1.36A3.69,3.69,0,0,1,43.54,98.13Zm32.81,7.68a4,4,0,0,0,3.19-1.32,4.81,4.81,0,0,0,1.11-3.3,4.89,4.89,0,0,0-1.11-3.33,4.09,4.09,0,0,0-3.19-1.28,4,4,0,0,0-3.16,1.28,4.81,4.81,0,0,0-1.14,3.33,4.73,4.73,0,0,0,1.14,3.3A3.94,3.94,0,0,0,76.35,105.81Zm7.69-.24H82.17V96.78h1.77V98.1l0,0a3,3,0,0,1,2.66-1.56,2.69,2.69,0,0,1,3,3v6H87.77v-5.51c0-1.31-.58-2-1.67-2a1.89,1.89,0,0,0-1.48.67A2.36,2.36,0,0,0,84,100.4Zm19.66-7.44a4.86,4.86,0,0,1,.87,3.54H98.31a2.9,2.9,0,0,0,.57,1.81,2,2,0,0,0,1.72.8,2,2,0,0,0,2.08-1.46h1.77a3.63,3.63,0,0,1-1.36,2.2,4.2,4.2,0,0,1-2.49.79,3.89,3.89,0,0,1-3.08-1.31,5.44,5.44,0,0,1,0-6.56,3.75,3.75,0,0,1,3-1.36A3.69,3.69,0,0,1,103.7,98.13Zm2.25,7.44h1.87V100.4a2.36,2.36,0,0,1,.58-1.63,1.89,1.89,0,0,1,1.48-.67c1.09,0,1.65.65,1.67,2v5.51h1.87v-6a2.69,2.69,0,0,0-3-3,3,3,0,0,0-2.66,1.56l0,0V96.78H106ZM13,104.28a2,2,0,0,1-1.83-1,4,4,0,0,1,0-4.22,2.08,2.08,0,0,1,1.83-1,2.15,2.15,0,0,1,1.85,1,4.19,4.19,0,0,1,0,4.22A2.06,2.06,0,0,1,13,104.28Zm25.79-5.52a2.54,2.54,0,0,0-.66,1.64h4.38a2.66,2.66,0,0,0-.61-1.61,2,2,0,0,0-1.53-.69A2.15,2.15,0,0,0,38.82,98.76Zm8.43,2.53a4.11,4.11,0,0,1,.55-2.2,2,2,0,0,1,1.84-1c1.54,0,2.33,1.07,2.36,3.09a4,4,0,0,1-.55,2.1,2,2,0,0,1-1.84,1,2,2,0,0,1-1.78-.94A3.62,3.62,0,0,1,47.25,101.29Zm29.1,3a2,2,0,0,1-1.83-1,4.07,4.07,0,0,1,0-4.22,2.1,2.1,0,0,1,1.83-1,2.12,2.12,0,0,1,1.85,1,4.13,4.13,0,0,1,0,4.22A2,2,0,0,1,76.35,104.28ZM99,98.76a2.64,2.64,0,0,0-.66,1.64h4.38a2.6,2.6,0,0,0-.61-1.61,1.94,1.94,0,0,0-1.53-.69A2.18,2.18,0,0,0,99,98.76Z" fill="white" fill-opacity="0.8"/></g></g></svg>