<?xml version="1.0" encoding="utf-8"?>
<svg width="38px" height="26px" viewBox="0 0 38 26" version="1.1" xmlns:xlink="http://www.w3.org/1999/xlink" xmlns="http://www.w3.org/2000/svg">
  <desc>Created with Lunacy</desc>
  <defs>
    <linearGradient x1="0.5" y1="0" x2="0.5" y2="1" id="gradient_1">
      <stop offset="0" stop-color="#622A75" />
      <stop offset="1" stop-color="#4E1C65" />
    </linearGradient>
  </defs>
  <path d="M22.1279 2.4635C18.8936 2.41322 5.71326 0.797347 3.54009 6.27348C1.36924 11.7496 0 18.1011 0 20.958C0 23.8172 0.403125 26.3564 4.42511 25.9588C8.44942 25.5611 16.5768 25.5611 21.1618 17.3057C22.9318 14.6065 24.542 11.1942 24.864 12.465C25.1861 13.7357 25.1861 14.6888 24.7019 15.0842C24.22 15.4796 23.5759 16.9103 25.1861 16.9881C26.7939 17.0703 29.127 17.0703 31.9442 14.6888C34.7615 12.3073 38.3016 6.82886 37.9795 3.09888C37.6575 -0.63111 33.0702 -0.15572 31.9442 0.319671C30.8182 0.797347 27.2782 2.54349 22.1279 2.4635" id="Fill-1" fill="url(#gradient_1)" stroke="none" />
</svg>