<?xml version="1.0" encoding="utf-8"?>
<svg width="180px" height="205px" viewBox="0 0 180 205" version="1.1" xmlns:xlink="http://www.w3.org/1999/xlink" xmlns="http://www.w3.org/2000/svg">
  <desc>Created with Lunacy</desc>
  <g id="access-denied">
    <path d="M0 44C0 68.2616 19.7384 88 44 88C68.2616 88 88 68.2616 88 44C88 19.7384 68.2616 0 44 0C19.7384 0 0 19.7384 0 44ZM16 44C16 48.816 17.2228 53.3516 19.3732 57.3136L57.3132 19.3732C53.3512 17.2228 48.816 16 44 16C28.5608 16 16 28.5608 16 44ZM72 44C72 59.4392 59.4392 72 44 72C39.184 72 34.6488 70.7772 30.6868 68.6268L68.6268 30.6864C70.7772 34.6484 72 39.184 72 44Z" transform="translate(45.599976 61.200195)" id="Shape" fill="#4E1C65" fill-rule="evenodd" stroke="none" />
    <path d="M174.416 36.6751L92.416 0.675063C90.3572 -0.228937 88.0132 -0.224937 85.9576 0.686663L4.7576 36.6867C1.8652 37.9691 0 40.8359 0 43.9999L0 107.2C0 131.085 9.4388 155.501 25.8964 174.187C34.1744 183.586 43.7176 191.023 54.2612 196.293C65.5548 201.938 77.4444 204.8 89.6 204.8C106.621 204.8 123.187 199.291 137.508 188.868C141.08 186.268 141.868 181.265 139.268 177.692C136.668 174.12 131.665 173.332 128.092 175.931C116.525 184.35 103.215 188.8 89.6 188.8C51.0804 188.8 16 149.907 16 107.2L16 49.2043L89.216 16.7439L163.2 49.2251L163.2 107.2C163.2 121.931 158.968 136.84 150.961 150.313C148.704 154.111 149.953 159.02 153.752 161.277C157.55 163.534 162.459 162.285 164.716 158.487C174.192 142.541 179.2 124.807 179.2 107.2L179.2 43.9999C179.2 40.8255 177.323 37.9511 174.416 36.6751Z" id="Path" fill="#4E1C65" stroke="none" />
  </g>
</svg>