<svg xmlns="http://www.w3.org/2000/svg" xmlns:xlink="http://www.w3.org/1999/xlink" width="42.48" height="33.85" viewBox="0 0 42.48 33.85"><defs><clipPath id="clip-path"><rect width="42.48" height="33.85" fill="none"/></clipPath><clipPath id="clip-path-6"><path d="M17.72,13.06a1.72,1.72,0,0,0-1.64,1.79V25.59a1.73,1.73,0,0,0,1.64,1.79,1.72,1.72,0,0,0,1.63-1.79V14.85a1.71,1.71,0,0,0-1.63-1.79Z" fill="none" clip-path="url(#clip-path)"/></clipPath><clipPath id="clip-path-7"><path d="M11.43,20.22A1.71,1.71,0,0,0,9.8,22v3.58a1.72,1.72,0,0,0,1.63,1.79,1.72,1.72,0,0,0,1.63-1.79V22a1.71,1.71,0,0,0-1.63-1.79Z" fill="none" clip-path="url(#clip-path)"/></clipPath><clipPath id="clip-path-8"><path d="M24.09,20.22A1.72,1.72,0,0,0,22.45,22v3.58a1.64,1.64,0,1,0,3.27,0V22a1.71,1.71,0,0,0-1.63-1.79Z" fill="none" clip-path="url(#clip-path)"/></clipPath><clipPath id="clip-path-9"><path d="M30.37,13.06a1.71,1.71,0,0,0-1.63,1.79V25.59a1.64,1.64,0,1,0,3.27,0V14.85a1.72,1.72,0,0,0-1.64-1.79Z" fill="none" clip-path="url(#clip-path)"/></clipPath><clipPath id="clip-path-10"><path d="M40.17,0H1.63A1.71,1.71,0,0,0,0,1.79v6.8a1.71,1.71,0,0,0,1.63,1.79H2V31.85a1.71,1.71,0,0,0,1.63,1.79H38.13a1.71,1.71,0,0,0,1.63-1.79V10.38h.41A1.71,1.71,0,0,0,41.8,8.59V1.79A1.71,1.71,0,0,0,40.17,0ZM36.5,30.06H5.31V10.38H36.5V30.06Zm2-23.26H3.27V3.58H38.54V6.8Z" fill="none" clip-path="url(#clip-path)"/></clipPath></defs><title>icon-presentation-hub</title><g clip-path="url(#clip-path-6)"><rect x="9.65" y="6.01" width="16.14" height="28.42" fill="#fff"/></g><g clip-path="url(#clip-path-7)"><rect x="3.36" y="13.17" width="16.14" height="21.26" fill="#fff"/></g><g clip-path="url(#clip-path-8)"><rect x="16.02" y="13.17" width="16.14" height="21.26" fill="#fff"/></g><g clip-path="url(#clip-path-9)"><rect x="22.3" y="6.01" width="16.14" height="28.42" fill="#fff"/></g><g clip-path="url(#clip-path-10)"><rect x="-6.44" y="-7.05" width="54.67" height="47.74" fill="#fff"/></g></svg>