<?xml version="1.0" encoding="utf-8"?>
<svg width="154px" height="154px" viewBox="0 0 154 154" version="1.1" xmlns:xlink="http://www.w3.org/1999/xlink" xmlns="http://www.w3.org/2000/svg">
  <desc>Created with Lunacy</desc>
  <g id="hosting">
    <path d="M152.565 44.3097C153.252 45.9576 153.6 47.7039 153.6 49.5L153.6 68.1C153.6 71.5551 152.294 74.7096 150.152 77.1C152.294 79.4904 153.6 82.6449 153.6 86.1L153.6 104.1C153.6 107.555 152.294 110.71 150.152 113.1C152.294 115.49 153.6 118.645 153.6 122.1L153.6 140.1C153.6 147.544 147.544 153.6 140.1 153.6L13.5 153.6C6.0561 153.6 0 147.544 0 140.1L0 122.1C0 118.645 1.3062 115.49 3.4485 113.1C1.3062 110.71 0 107.555 0 104.1L0 86.1C0 82.6449 1.3062 79.4904 3.4485 77.1C1.3062 74.7096 0 71.5551 0 68.1L0 49.5C0 47.7039 0.3483 45.9576 1.035 44.3094L16.0383 8.307C18.1413 3.2607 23.0328 0 28.4997 0L125.1 0C130.567 0 135.459 3.2607 137.562 8.307L152.563 44.3058C152.564 44.307 152.564 44.3085 152.565 44.3097ZM24.3459 11.769C25.047 10.0869 26.6775 9 28.4997 9L125.1 9C126.923 9 128.553 10.0869 129.254 11.769L139.352 36L14.2479 36L24.3459 11.769ZM140.1 72.6C142.581 72.6 144.6 70.5813 144.6 68.1L144.6 49.5C144.6 47.0052 142.587 45 140.1 45L13.5 45C11.0208 45 9 46.9974 9 49.5L9 68.1C9 70.5813 11.0187 72.6 13.5 72.6L140.1 72.6ZM144.6 104.1C144.6 106.581 142.581 108.6 140.1 108.6L13.5 108.6C11.0187 108.6 9 106.581 9 104.1L9 86.1C9 83.6187 11.0187 81.6 13.5 81.6L140.1 81.6C142.581 81.6 144.6 83.6187 144.6 86.1L144.6 104.1ZM140.1 144.6C142.581 144.6 144.6 142.581 144.6 140.1L144.6 122.1C144.6 119.619 142.581 117.6 140.1 117.6L13.5 117.6C11.0187 117.6 9 119.619 9 122.1L9 140.1C9 142.581 11.0187 144.6 13.5 144.6L140.1 144.6Z" id="Shape" fill="#4E1C65" fill-rule="evenodd" stroke="none" />
    <path d="M86.1 0L4.5 0C2.0148 0 0 2.0148 0 4.5C0 6.98521 2.0148 9.00001 4.5 9.00001L86.1 9.00001C88.5852 9.00001 90.6 6.98521 90.6 4.5C90.6 2.0148 88.5852 0 86.1 0Z" transform="translate(45 126.6001)" id="Path" fill="#4E1C65" stroke="none" />
    <path d="M86.1 0L4.5 0C2.0148 0 0 2.0148 0 4.5C0 6.9852 2.0148 9 4.5 9L86.1 9C88.5852 9 90.6 6.9852 90.6 4.5C90.6 2.0148 88.5852 0 86.1 0Z" transform="translate(45 54)" id="Path" fill="#4E1C65" stroke="none" />
    <path d="M4.5 0C2.0148 0 0 2.0148 0 4.5C0 6.9852 2.0148 9.6 4.5 9.6C6.9852 9.6 9 6.9852 9 4.5C9 2.0148 6.9852 0 4.5 0Z" transform="translate(18 54)" id="Path" fill="#4E1C65" stroke="none" />
    <path d="M86.1 0L4.5 0C2.0148 0 0 2.0148 0 4.5C0 6.9852 2.0148 9 4.5 9L86.1 9C88.5852 9 90.6 6.9852 90.6 4.5C90.6 2.0148 88.5852 0 86.1 0Z" transform="translate(45 90.6001)" id="Path" fill="#4E1C65" stroke="none" />
    <path d="M4.5 9C6.98528 9 9 6.98528 9 4.5C9 2.01472 6.98528 0 4.5 0C2.01472 0 0 2.01472 0 4.5C0 6.98528 2.01472 9 4.5 9Z" transform="translate(18 90.6001)" id="Oval" fill="#4E1C65" stroke="none" />
    <path d="M4.5 9.00001C6.98528 9.00001 9 6.98529 9 4.5C9 2.01472 6.98528 0 4.5 0C2.01472 0 0 2.01472 0 4.5C0 6.98529 2.01472 9.00001 4.5 9.00001Z" transform="translate(18 126.6001)" id="Oval" fill="#4E1C65" stroke="none" />
  </g>
</svg>