<?xml version="1.0" encoding="utf-8"?>
<svg width="164px" height="164px" viewBox="0 0 164 164" version="1.1" xmlns:xlink="http://www.w3.org/1999/xlink" xmlns="http://www.w3.org/2000/svg">
  <desc>Created with Lunacy</desc>
  <g id="sad">
    <path d="M0 81.92C0 36.6768 36.6768 0 81.92 0C127.163 0 163.84 36.6768 163.84 81.92C163.84 127.163 127.163 163.84 81.92 163.84C36.6768 163.84 0 127.163 0 81.92ZM10.24 81.92C10.24 121.508 42.3322 153.6 81.92 153.6C121.508 153.6 153.6 121.508 153.6 81.92C153.6 42.3322 121.508 10.24 81.92 10.24C42.3322 10.24 10.24 42.3322 10.24 81.92Z" id="Shape" fill="#4E1C65" fill-rule="evenodd" stroke="none" />
    <path d="M10.24 20.48C15.8954 20.48 20.48 15.8954 20.48 10.24C20.48 4.5846 15.8954 0 10.24 0C4.5846 0 0 4.5846 0 10.24C0 15.8954 4.5846 20.48 10.24 20.48Z" transform="translate(46.08008 46.08008)" id="Oval" fill="#4E1C65" stroke="none" />
    <path d="M10.24 20.48C15.8954 20.48 20.48 15.8954 20.48 10.24C20.48 4.5846 15.8954 0 10.24 0C4.5846 0 0 4.5846 0 10.24C0 15.8954 4.5846 20.48 10.24 20.48Z" transform="translate(97.28003 46.08008)" id="Oval" fill="#4E1C65" stroke="none" />
    <path d="M46.08 0C20.6307 0 0 20.6307 0 46.08L10.24 46.08C10.24 26.2861 26.2861 10.24 46.08 10.24C65.8739 10.24 81.92 26.2861 81.92 46.08L92.16 46.08C92.16 20.6307 71.5293 0 46.08 0Z" transform="translate(35.840088 76.799805)" id="Path" fill="#4E1C65" stroke="none" />
  </g>
</svg>