<?xml version="1.0" encoding="utf-8"?>
<svg width="52px" height="47px" viewBox="0 0 52 47" version="1.1" xmlns:xlink="http://www.w3.org/1999/xlink" xmlns="http://www.w3.org/2000/svg">
<g id="seek">
  <path d="M32 4.26667L2.13333 4.26667C0.955733 4.26667 0 3.31093 0 2.13333C0 0.955733 0.955733 0 2.13333 0L32 0C33.1776 0 34.1333 0.955733 34.1333 2.13333C34.1333 3.31093 33.1776 4.26667 32 4.26667Z" transform="translate(8.533203 32)" id="Path" fill="#4E1C65" stroke="none" />
  <path d="M1.6 12.7995C1.30773 12.7995 1.01547 12.7185 0.757333 12.5606C0.288 12.2683 0 11.7542 0 11.1995L0 1.59954C0 1.04488 0.288 0.530745 0.757333 0.238478C1.2288 -0.0516552 1.81973 -0.0793885 2.31467 0.168078L11.9147 4.96808C12.4565 5.23901 12.8 5.79368 12.8 6.39954C12.8 7.00541 12.4565 7.56008 11.9147 7.83101L2.31467 12.631C2.08853 12.7441 1.84533 12.7995 1.6 12.7995Z" transform="translate(19.2002 14.93359)" id="Path" fill="#4E1C65" stroke="none" />
  <path d="M4.26667 8.53333C1.9136 8.53333 0 6.61973 0 4.26667C0 1.9136 1.9136 0 4.26667 0C6.61973 0 8.53333 1.9136 8.53333 4.26667C8.53333 6.61973 6.61973 8.53333 4.26667 8.53333Z" transform="translate(27.7334 29.8667)" id="Path" fill="#4E1C65" stroke="none" />
  <path d="M6.4 0L44.8 0C48.3285 0 51.2 2.87147 51.2 6.4L51.2 40.5333C51.2 44.0619 48.3285 46.9333 44.8 46.9333L6.4 46.9333C2.87147 46.9333 0 44.0619 0 40.5333L0 6.4C0 2.87147 2.87147 0 6.4 0ZM6.39993 42.6665L44.7999 42.6665C45.9754 42.6665 46.9333 41.7108 46.9333 40.5332L46.9333 10.6665L4.2666 10.6665L4.2666 40.5332C4.2666 41.7108 5.22447 42.6665 6.39993 42.6665Z" id="Shape" fill="#4E1C65" fill-rule="evenodd" stroke="none" />
</g>
</svg>