<svg xmlns="http://www.w3.org/2000/svg" xmlns:xlink="http://www.w3.org/1999/xlink" width="40" height="40" viewBox="0 0 40 40"><defs><clipPath id="clip-path"><path d="M21,19V11a1,1,0,0,0-2,0v8H11a1,1,0,0,0,0,2h8v8a1,1,0,0,0,2,0V21h8a1,1,0,0,0,0-2Z" fill="none"/></clipPath></defs><title>icon-plus-border</title><path id="Oval" d="M20,39A19,19,0,1,0,1,20,19,19,0,0,0,20,39Z" fill="none" stroke="#fff" stroke-width="2"/><path id="Icon" d="M21,19V11a1,1,0,0,0-2,0v8H11a1,1,0,0,0,0,2h8v8a1,1,0,0,0,2,0V21h8a1,1,0,0,0,0-2Z"/><g clip-path="url(#clip-path)"><g id="Color"><path id="Color-2" data-name="Color" d="M11,11H29V29H11Z" fill="#f3f3f3"/></g></g></svg>