<?xml version="1.0" encoding="UTF-8"?>
<svg width="36px" height="29px" viewBox="0 0 36 29" version="1.1" xmlns="http://www.w3.org/2000/svg" xmlns:xlink="http://www.w3.org/1999/xlink">
    <title>5AEAD732-D4A9-4E1E-8A76-177133E51F5F</title>
    <g id="V3" stroke="none" stroke-width="1" fill="none" fill-rule="evenodd">
        <g id="Login-Page--Home--Notification-Open" transform="translate(-1311.000000, -267.000000)" fill="#4E1C65" fill-rule="nonzero">
            <g id="online-video" transform="translate(1311.000000, 267.000000)">
                <path d="M34.1617224,21 L1.83849796,21 C0.824767347,21 0,20.1778082 0,19.1669394 L0,1.83313387 C0,0.822338373 0.824767347,0 1.83849796,0 L34.1617224,0 C35.1750857,0 36,0.822338373 36,1.83313387 L36,19.1669394 C36,20.1778082 35.1750857,21 34.1617224,21 Z M1.83849796,1.48076594 C1.6435102,1.48076594 1.48459592,1.63881494 1.48459592,1.83313387 L1.48459592,19.1669394 C1.48459592,19.3612583 1.6435102,19.5193806 1.83849796,19.5193806 L34.1617224,19.5193806 C34.3566367,19.5193806 34.5153306,19.3612583 34.5153306,19.1669394 L34.5153306,1.83313387 C34.5153306,1.63881494 34.3567102,1.48076594 34.1617224,1.48076594 L1.83849796,1.48076594 Z" id="Shape"></path>
                <path d="M14.3790669,15.9084973 C14.1493839,15.7805157 14,15.5419693 14,15.2754292 L14,5.71249039 C14,5.44580921 14.1463381,5.20162177 14.3790669,5.07928125 C14.6116572,4.95701125 14.8915963,4.97738958 15.1049425,5.13195466 L21.7059394,9.91338879 C21.8906272,10.0470819 22,10.2634166 22,10.493995 C22,10.7246439 21.8906272,10.9409786 21.7059394,11.0746718 C21.7059394,11.0746718 16.7549495,14.6605535 15.1049425,15.8559649 C14.9843555,15.9433308 14.724422,16.101069 14.3790669,15.9084973 Z M15.3990724,7.09342221 L15.3990724,13.8944973 L20.0935899,10.493995 L15.3990724,7.09342221 Z" id="Shape"></path>
                <path d="M35.2577388,25.2421061 L21.0685959,25.2421061 C20.7390857,23.9535738 19.5891429,23 18.2251837,23 C16.8613714,23 15.7117224,23.9535738 15.3821388,25.2421061 L0.742334694,25.2421061 C0.33244898,25.2421061 0,25.5814895 0,25.999925 C0,26.4185105 0.33244898,26.7577439 0.742334694,26.7577439 L15.3822122,26.7577439 C15.7117959,28.0462762 16.8615184,29 18.2252571,29 C19.5892163,29 20.7391592,28.0462012 21.0686694,26.7577439 L35.2577388,26.7577439 C35.6673306,26.7577439 36,26.4185855 36,25.999925 C36,25.5814895 35.6673306,25.2421061 35.2577388,25.2421061 Z M18.2251837,27.4842121 C17.4237796,27.4842121 16.7713714,26.8183455 16.7713714,25.99985 C16.7713714,25.1815045 17.4237796,24.5157129 18.2251837,24.5157129 C19.0269551,24.5157129 19.6792163,25.1815045 19.6792163,25.99985 C19.6792163,26.8184205 19.0269551,27.4842121 18.2251837,27.4842121 Z" id="Shape"></path>
            </g>
        </g>
    </g>
</svg>