<?xml version="1.0" encoding="UTF-8"?>
<svg width="36px" height="38px" viewBox="0 0 36 38" version="1.1" xmlns="http://www.w3.org/2000/svg" xmlns:xlink="http://www.w3.org/1999/xlink">
    <title>BC757A78-3FB9-4DA2-B9BC-B0D1B6B32583</title>
    <g id="V3" stroke="none" stroke-width="1" fill="none" fill-rule="evenodd">
        <g id="Login-Page--Home--Notification-Open" transform="translate(-1311.000000, -151.000000)" fill="#4E1C65" fill-rule="nonzero">
            <g id="pdf" transform="translate(1311.000000, 151.000000)">
                <path d="M35.7946533,10.2835273 L26.0616505,0.223992187 C25.9230862,0.0808984375 25.7319167,0 25.5322409,0 L11.0258963,0 C9.40244828,0 8.08164788,1.31322656 8.08164788,2.92733594 L8.08164788,13.1538633 L2.20277659,13.1538633 C0.98815658,13.1538633 0,14.1364453 0,15.3442812 L0,26.3096562 C0,27.517418 0.98815658,28.5 2.20277659,28.5 L8.08164788,28.5 L8.08164788,35.0777852 C8.08164788,36.6890742 9.40244828,38 11.0258963,38 L33.0557515,38 C34.6791996,38 36,36.6898164 36,35.079418 L36,10.790293 C36,10.601332 35.9263527,10.4197187 35.7946533,10.2835273 Z M25.714307,1.97280859 L33.7042503,10.2307578 L25.714307,10.2307578 L25.714307,1.97280859 Z M2.20277659,27.0384844 C1.79835096,27.0384844 1.46943801,26.7115508 1.46943801,26.3096562 L1.46943801,15.3442812 C1.46943801,14.9423867 1.79842558,14.6153789 2.20277659,14.6153789 L22.0421671,14.6153789 C22.4465927,14.6153789 22.7755056,14.9423867 22.7755056,15.3442812 L22.7755056,26.3096562 C22.7755056,26.7115508 22.4465181,27.0384844 22.0421671,27.0384844 L2.20277659,27.0384844 Z M34.530562,35.079418 C34.530562,35.8839492 33.8689306,36.5384844 33.0556769,36.5384844 L11.0258963,36.5384844 C10.2126427,36.5384844 9.55101127,35.8832812 9.55101127,35.0778594 L9.55101127,28.5 L22.0421671,28.5 C23.2567871,28.5 24.2449436,27.517418 24.2449436,26.3096562 L24.2449436,15.3442813 C24.2449436,14.1364453 23.2567871,13.1538633 22.0421671,13.1538633 L9.55101127,13.1538633 L9.55101127,2.92733594 C9.55101127,2.11901953 10.2126427,1.46151563 11.0258963,1.46151563 L24.244869,1.46151563 L24.244869,10.9615156 C24.244869,11.3651172 24.5738566,11.6922734 24.9795507,11.6922734 L34.530562,11.6922734 L34.530562,35.079418 Z" id="Shape"></path>
                <path d="M8.62146936,18.6773473 C8.36919278,18.3758469 8.05602716,18.1800489 7.6820497,18.0900245 C7.43864794,18.0300082 6.91626794,18 6.11483254,18 L4,18 L4,24 L5.31787313,24 L5.31787313,21.7366896 L6.17718784,21.7366896 C6.77380769,21.7366896 7.22943355,21.7080294 7.54406544,21.6507088 C7.77558265,21.6043132 8.00339559,21.5095357 8.22750424,21.3662343 C8.4516129,21.2230039 8.63636364,21.0258581 8.78183362,20.7748679 C8.9273036,20.5238776 9,20.2141481 9,19.845821 C8.99992283,19.3683153 8.87374595,18.9788477 8.62146936,18.6773473 Z M7.49282297,20.3287892 C7.39342491,20.4625134 7.25613521,20.5606962 7.08095385,20.6234792 C6.9057725,20.6862622 6.55857385,20.7176183 6.03912641,20.7176183 L5.31787313,20.7176183 L5.31787313,19.0150277 L5.95454545,19.0150277 C6.42946442,19.0150277 6.74556259,19.0286485 6.90283994,19.0559608 C7.11653033,19.0914315 7.29317796,19.1801081 7.43262849,19.3219906 C7.5721562,19.4638732 7.64192014,19.643993 7.64192014,19.8622084 C7.64199722,20.0395616 7.59222102,20.1950649 7.49282297,20.3287892 Z" id="Shape"></path>
                <path d="M14.7656832,19.639169 C14.609472,19.2558024 14.3815864,18.9318136 14.0821956,18.6671317 C13.7828049,18.4024498 13.4230791,18.2182863 13.003272,18.1145702 C12.6908496,18.0381664 12.2367708,18 11.641205,18 L9,18 L9,24 L11.7193106,24 C12.2531028,24 12.6794257,23.957719 12.998364,23.8730861 C13.4247715,23.7585159 13.7632574,23.598898 14.0138215,23.3942325 C14.3457915,23.1240881 14.6012637,22.7708006 14.7803227,22.334228 C14.9268024,21.9767549 15,21.5511073 15,21.0572851 C15,20.4952174 14.9218944,20.0225357 14.7656832,19.639169 Z M13.359613,22.1030304 C13.2619598,22.3718269 13.1358739,22.5648581 12.9812705,22.682124 C12.826667,22.7994608 12.6322069,22.882675 12.3978901,22.9317663 C12.2189157,22.9700037 11.927564,22.9890869 11.5240043,22.9890869 L10.4450807,22.9890869 L10.4450807,22.9890869 L10.4450807,19.0150277 L11.0943811,19.0150277 C11.6834311,19.0150277 12.0789518,19.0341109 12.2806894,19.0723483 C12.5508011,19.1214396 12.7737786,19.2155787 12.9495374,19.3547655 C13.1252962,19.4939523 13.2619598,19.6876219 13.359613,19.9359164 C13.4572662,20.1842108 13.5060927,20.5402651 13.5060927,21.0041501 C13.5060927,21.4679641 13.4572662,21.8342339 13.359613,22.1030304 Z" id="Shape"></path>
                <polygon id="Path" points="21 19.0150277 21 18 16 18 16 24 17.4726376 24 17.4726376 21.4502288 20.5174281 21.4502288 20.5174281 20.4352011 17.4726376 20.4352011 17.4726376 19.0150277"></polygon>
            </g>
        </g>
    </g>
</svg>