<?xml version="1.0" encoding="UTF-8"?>
<svg width="36px" height="34px" viewBox="0 0 36 34" version="1.1" xmlns="http://www.w3.org/2000/svg" xmlns:xlink="http://www.w3.org/1999/xlink">
    <title>4F7DB432-7F17-4B49-B6B4-49F60F4F5AA0</title>
    <g id="V3" stroke="none" stroke-width="1" fill="none" fill-rule="evenodd">
        <g id="Login-Page--Home--Notification-Open" transform="translate(-1311.000000, -493.000000)" fill="#4E1C65" fill-rule="nonzero">
            <g id="presentation" transform="translate(1311.000000, 493.000000)">
                <path d="M18,34 C17.448,34 17,33.68 17,33.2857143 L17,24.7142857 C17,24.32 17.448,24 18,24 C18.552,24 19,24.32 19,24.7142857 L19,33.2857143 C19,33.68 18.552,34 18,34 Z" id="Path"></path>
                <path d="M24.2728337,33 C24.1346473,33 23.9950064,32.9662492 23.8699115,32.8949977 L17.3242442,29.1449139 C16.9896878,28.9536596 16.8995031,28.5661509 17.1220558,28.2786445 C17.3446085,27.9911381 17.7940776,27.9136363 18.1300885,28.1048906 L24.6757558,31.8549744 C25.0103122,32.0462287 25.1004969,32.4337373 24.8779442,32.7212438 C24.7383033,32.9024978 24.5070231,33 24.2728337,33 Z" id="Path"></path>
                <path d="M11.7286209,33 C11.4929769,33 11.2631513,32.9025086 11.1220558,32.7212745 C10.8995031,32.4337997 10.9896878,32.0463337 11.3242442,31.8551005 L17.8699115,28.1054295 C18.2044678,27.9129464 18.6568461,27.9916895 18.8779442,28.2791643 C19.1004969,28.566639 19.0103122,28.954105 18.6757558,29.1453383 L12.1300885,32.8950092 C12.0079027,32.966253 11.8682618,33 11.7286209,33 L11.7286209,33 Z" id="Path"></path>
                <path d="M33,5 L3,5 C1.3455,5 0,3.87875 0,2.5 C0,1.12125 1.3455,0 3,0 L33,0 C34.6545,0 36,1.12125 36,2.5 C36,3.87875 34.6545,5 33,5 Z M3,1.25 C2.1735,1.25 1.5,1.81125 1.5,2.5 C1.5,3.18875 2.1735,3.75 3,3.75 L33,3.75 C33.8265,3.75 34.5,3.18875 34.5,2.5 C34.5,1.81125 33.8265,1.25 33,1.25 L3,1.25 Z" id="Shape"></path>
                <path d="M30.75,25 L5.25,25 C4.0095,25 3,23.9905 3,22.75 L3,4.75 C3,4.336 3.336,4 3.75,4 L32.25,4 C32.664,4 33,4.336 33,4.75 L33,22.75 C33,23.9905 31.9905,25 30.75,25 Z M4.5,5.5 L4.5,22.75 C4.5,23.164 4.836,23.5 5.25,23.5 L30.75,23.5 C31.164,23.5 31.5,23.164 31.5,22.75 L31.5,5.5 L4.5,5.5 Z" id="Shape"></path>
                <path d="M9.7504089,21 C9.55840023,21 9.36639155,20.9264937 9.21938491,20.7809813 C8.9268717,20.4884562 8.9268717,20.0129155 9.21938491,19.7203905 L15.219656,13.7198769 C15.4731675,13.4663552 15.8691853,13.4273519 16.1661988,13.6253688 L20.0948763,16.244593 L25.6646279,9.28099704 C25.9241396,8.95996957 26.3951609,8.90446482 26.7191755,9.16398703 C27.0416901,9.42350924 27.0941925,9.89454955 26.8361808,10.2185773 L20.8359097,17.7192192 C20.5928988,18.0222452 20.1593792,18.0927512 19.8338645,17.8752326 L15.8451843,15.2170051 L10.2799328,20.7824814 C10.1344263,20.9264937 9.94241758,21 9.7504089,21 L9.7504089,21 Z" id="Path"></path>
            </g>
        </g>
    </g>
</svg>