<?xml version="1.0" encoding="UTF-8"?>
<svg width="36px" height="30px" viewBox="0 0 36 30" version="1.1" xmlns="http://www.w3.org/2000/svg" xmlns:xlink="http://www.w3.org/1999/xlink">
    <title>0BE9DD36-42D5-4121-ACEB-A9F7A82B8EF2</title>
    <g id="V3" stroke="none" stroke-width="1" fill="none" fill-rule="evenodd">
        <g id="Login-Page--Home--Notification-Open" transform="translate(-1311.000000, -605.000000)" fill="#757575" fill-rule="nonzero">
            <g id="speaker" transform="translate(1311.000000, 605.000000)">
                <path d="M16.2596139,0.461570115 L6.91641584,6.16809983 L1.03960396,6.16809983 C0.465465347,6.16809983 0,6.63514818 0,7.21123938 L0,22.7887901 C0,23.3648813 0.465465347,23.8319296 1.03960396,23.8319296 L6.91641584,23.8319296 L16.2595446,29.5384594 C18.3384752,30.8082384 21,29.3082037 21,26.8653099 L21,3.13471954 C21,0.692660298 18.3390297,-0.808556608 16.2596139,0.461570115 Z M2.07920792,8.25437894 L6.16831683,8.25437894 L6.16831683,21.7456505 L2.07920792,21.7456505 L2.07920792,8.25437894 Z M18.9207921,26.8653099 C18.9207921,27.6788197 18.0345644,28.1802221 17.3405941,27.7563597 L8.24752475,22.2025457 L8.24752475,7.79748381 L17.3405941,2.24373928 C18.0333168,1.82064187 18.9207921,2.31961029 18.9207921,3.13478908 L18.9207921,26.8653099 Z" id="Shape"></path>
                <path d="M24.3161587,12.3045107 C23.8946138,12.7105251 23.8946138,13.3687562 24.3161587,13.7747705 C25.0192135,14.4519924 25.0192854,15.5479816 24.3161587,16.2252035 C23.8946138,16.6312178 23.8946138,17.2894489 24.3161587,17.6954633 C24.7376318,18.1014776 25.4211132,18.1015469 25.8426582,17.6954633 C27.3857806,16.209193 27.3857806,13.790781 25.8426582,12.3045107 C25.4211132,11.8984964 24.7376318,11.8984964 24.3161587,12.3045107 L24.3161587,12.3045107 Z" id="Path"></path>
                <path d="M28.6956543,9.29773257 C28.3078056,8.90075581 27.6788511,8.90075581 27.2909362,9.29773257 C26.9030213,9.69470933 26.9030213,10.3382888 27.2909362,10.7352655 C29.5888254,13.0868344 29.5888254,16.9131402 27.2909362,19.2647091 C26.9030213,19.6616858 26.9030213,20.3052653 27.2909362,20.702242 C27.6787849,21.0992188 28.3077394,21.0992865 28.6956543,20.702242 C31.7681152,17.5580072 31.7681152,12.4419674 28.6956543,9.29773257 Z" id="Path"></path>
                <path d="M31.915319,6.31195862 C31.4772262,5.89601379 30.7667933,5.89601379 30.3286257,6.31195862 C29.8904581,6.72790344 29.8904581,7.40223393 30.3286257,7.81817876 C34.8663308,12.1257426 34.8663308,18.8742308 30.3286257,23.1817946 C29.8904581,23.5977394 29.8904581,24.2720699 30.3286257,24.6880148 C30.7667185,25.1039596 31.4771514,25.1040306 31.915319,24.6880148 C37.3586802,19.5207275 37.3644397,11.4847132 31.915319,6.31195862 Z" id="Path"></path>
            </g>
        </g>
    </g>
</svg>