<svg width="17" height="17" viewBox="0 0 17 17" fill="none" xmlns="http://www.w3.org/2000/svg">
<path d="M12.1498 10.6918H11.3819L11.1098 10.4294C12.0623 9.32134 12.6358 7.8828 12.6358 6.31791C12.6358 2.82848 9.80732 0 6.3179 0C2.82847 0 0 2.82848 0 6.31791C0 9.80734 2.82847 12.6358 6.3179 12.6358C7.88279 12.6358 9.32133 12.0623 10.4294 11.1098L10.6918 11.382V12.1498L15.5517 17L17 15.5518L12.1498 10.6918ZM6.3179 10.6918C3.89766 10.6918 1.94397 8.73815 1.94397 6.31791C1.94397 3.89766 3.89766 1.94397 6.3179 1.94397C8.73814 1.94397 10.6918 3.89766 10.6918 6.31791C10.6918 8.73815 8.73814 10.6918 6.3179 10.6918Z" fill="#94A4AD"/>
</svg>
