<svg width="926" height="454" viewBox="0 0 926 454" fill="none" xmlns="http://www.w3.org/2000/svg">
<path d="M263.919 44.9695C263.919 46.9923 263.31 48.5961 262.091 49.781C260.881 50.9659 259.239 51.5583 257.165 51.5583C255.515 51.5583 254.152 51.0759 253.077 50.1111C252.002 49.1378 251.376 47.8217 251.198 46.1628H254.854C254.948 46.9838 255.218 47.6101 255.667 48.0417C256.116 48.4649 256.729 48.6765 257.508 48.6765C258.303 48.6765 258.947 48.3676 259.438 47.7498C259.928 47.1319 260.174 46.3194 260.174 45.3123C260.174 44.2797 259.924 43.4503 259.425 42.824C258.925 42.1892 258.27 41.8718 257.457 41.8718C256.949 41.8718 256.475 41.9861 256.035 42.2146C255.604 42.4431 255.269 42.752 255.032 43.1414L251.833 42.989L253.039 32.9343H263.157V36.0193H255.654L255.02 39.9421C256.035 39.3074 257.135 38.99 258.32 38.99C259.962 38.99 261.308 39.5486 262.357 40.6658C263.398 41.783 263.919 43.2175 263.919 44.9695ZM265.671 42.075H272.933V45.5027H265.671V42.075ZM287.646 37.2634L282.695 51.3679C281.9 53.6954 281.218 55.1554 280.651 55.7478C280.084 56.3403 279.073 56.6365 277.617 56.6365L275.878 56.5984V53.6785C275.963 53.7123 276.195 53.7292 276.576 53.7292C277.549 53.7292 278.184 53.5304 278.48 53.1326C278.667 52.8787 278.853 52.3539 279.039 51.5583L273.885 37.2634H275.891H277.909L280.918 47.5085L283.838 37.2634H285.742H287.646ZM295.264 51.4314C293.165 51.4314 291.544 50.7839 290.401 49.489C289.267 48.1941 288.7 46.349 288.7 43.9539C288.7 41.7449 289.28 40.0183 290.439 38.7742C291.599 37.5216 293.207 36.8953 295.264 36.8953C297.371 36.8953 298.992 37.5343 300.126 38.8123C301.269 40.0818 301.84 41.893 301.84 44.2458C301.857 44.5167 301.836 44.7917 301.776 45.071H292.369C292.454 46.1628 292.695 46.9796 293.093 47.5212C293.601 48.1983 294.447 48.5369 295.632 48.5369C296.182 48.5369 296.69 48.3803 297.155 48.0671C297.629 47.754 297.913 47.3774 298.006 46.9373H301.713C301.4 48.3422 300.672 49.4425 299.529 50.238C298.395 51.0336 296.973 51.4314 295.264 51.4314ZM298.044 42.7478C297.959 41.9184 297.739 41.2709 297.384 40.8054C296.918 40.1876 296.195 39.8787 295.213 39.8787C294.273 39.8787 293.558 40.2384 293.067 40.9578C292.763 41.4148 292.543 42.0115 292.407 42.7478H298.044ZM307.578 51.4314C306.3 51.4314 305.272 51.0675 304.493 50.3396C303.715 49.6033 303.325 48.6384 303.325 47.4451C303.325 46.184 303.676 45.1768 304.379 44.4236C305.081 43.6619 306.105 43.1837 307.451 42.989L309.851 42.6589C310.477 42.5743 310.997 42.4304 311.412 42.2273C311.59 42.1427 311.725 41.9903 311.818 41.7703C311.92 41.5502 311.958 41.3259 311.933 41.0974C311.882 40.7081 311.683 40.4034 311.336 40.1833C310.921 39.921 310.325 39.7898 309.546 39.7898C308.852 39.7898 308.31 39.9591 307.921 40.2976C307.532 40.6361 307.324 41.1143 307.299 41.7322H303.808C303.884 40.1156 304.434 38.9054 305.458 38.1013C306.482 37.2973 307.984 36.8953 309.965 36.8953C311.683 36.8953 313.037 37.2592 314.027 37.9871C315.026 38.7065 315.525 39.6925 315.525 40.9451V48.6638C315.525 49.2817 315.576 49.7175 315.678 49.9714C315.779 50.2169 315.982 50.4115 316.287 50.5554V50.5681V51.0632H314.319H312.352C312.191 50.5046 312.085 49.9587 312.034 49.4255L312.021 49.4001C310.879 50.7543 309.398 51.4314 307.578 51.4314ZM311.958 45.9724V44.3855C311.535 44.6225 310.976 44.8129 310.282 44.9568L308.937 45.2107C308.302 45.3292 307.819 45.5492 307.489 45.8708C307.159 46.184 306.994 46.5818 306.994 47.0642C306.994 47.6143 307.142 48.046 307.438 48.3591C307.735 48.6723 308.149 48.8289 308.683 48.8289C309.851 48.8289 310.782 48.4184 311.476 47.5974C311.611 47.4366 311.725 47.1996 311.818 46.8865C311.911 46.5733 311.958 46.2686 311.958 45.9724ZM318.712 51.0759V37.2634H320.438H322.178V39.739C322.305 39.4682 322.449 39.2058 322.609 38.9519C323.464 37.5808 324.569 36.8953 325.923 36.8953L326.748 36.908V40.6277C326.426 40.5938 326.062 40.5769 325.656 40.5769C324.548 40.5769 323.718 40.852 323.168 41.4021C322.626 41.9522 322.355 42.7859 322.355 43.9031V51.0759H320.54H318.712ZM343.925 41.4021C343.925 40.8689 343.705 40.4415 343.265 40.1199C342.825 39.7983 342.241 39.6375 341.513 39.6375C340.81 39.6375 340.26 39.7602 339.862 40.0056C339.473 40.2426 339.278 40.5769 339.278 41.0085C339.278 41.3132 339.503 41.5756 339.951 41.7957C340.391 42.0072 341.174 42.24 342.3 42.4939C344.534 42.9932 346.028 43.5391 346.781 44.1316C347.535 44.724 347.911 45.655 347.911 46.9246C347.911 48.2787 347.361 49.3705 346.261 50.2C345.169 51.0209 343.726 51.4314 341.932 51.4314C339.807 51.4314 338.17 51.0251 337.019 50.2126C335.876 49.4001 335.267 48.2153 335.19 46.658H338.897C338.923 47.2927 339.202 47.7921 339.735 48.156C340.277 48.5115 341.009 48.6892 341.932 48.6892C342.66 48.6892 343.227 48.5665 343.633 48.321C344.048 48.0671 344.255 47.7159 344.255 47.2673C344.255 46.9542 344.056 46.6876 343.658 46.4675C343.26 46.2559 342.562 46.0401 341.563 45.8201C339.228 45.2953 337.666 44.741 336.879 44.157C336.092 43.5815 335.698 42.6886 335.698 41.4783C335.698 40.1072 336.206 39.0027 337.222 38.1648C338.246 37.3184 339.591 36.8953 341.259 36.8953C343.138 36.8953 344.653 37.31 345.804 38.1394C346.955 38.9604 347.53 40.0479 347.53 41.4021H343.925ZM354.246 37.2634V45.9089C354.246 46.7553 354.428 47.3816 354.792 47.7878C355.156 48.1941 355.715 48.3972 356.468 48.3972C357.416 48.3972 358.144 48.1095 358.651 47.5339C359.159 46.9584 359.413 46.129 359.413 45.0457V37.2634H361.229H363.057V51.0759H361.33H359.591V49.0066C359.464 49.2605 359.312 49.4975 359.134 49.7175C358.237 50.8601 356.938 51.4314 355.236 51.4314C353.781 51.4314 352.642 51.004 351.821 50.1492C351.009 49.2859 350.603 48.0925 350.603 46.5691V37.2634H352.418H354.246ZM366.446 51.0759V37.2634H368.173H369.912V39.739C370.039 39.4682 370.183 39.2058 370.344 38.9519C371.199 37.5808 372.303 36.8953 373.657 36.8953L374.482 36.908V40.6277C374.161 40.5938 373.797 40.5769 373.391 40.5769C372.282 40.5769 371.452 40.852 370.902 41.4021C370.361 41.9522 370.09 42.7859 370.09 43.9031V51.0759H368.274H366.446ZM375.257 37.2634H377.263H379.281L382.227 47.5593L385.197 37.2634H387.114H389.031L384.042 51.0759H382.15H380.246L375.257 37.2634ZM391.215 51.0759V37.2634H393.03H394.858V51.0759H393.043H391.215ZM391.177 32.2742H394.884V35.6511H391.177V32.2742ZM396.966 37.2634H398.972H400.99L403.936 47.5593L406.906 37.2634H408.823H410.74L405.751 51.0759H403.859H401.955L396.966 37.2634ZM416.098 51.4314C414.82 51.4314 413.791 51.0675 413.013 50.3396C412.234 49.6033 411.845 48.6384 411.845 47.4451C411.845 46.184 412.196 45.1768 412.898 44.4236C413.601 43.6619 414.625 43.1837 415.971 42.989L418.37 42.6589C418.996 42.5743 419.517 42.4304 419.932 42.2273C420.109 42.1427 420.245 41.9903 420.338 41.7703C420.439 41.5502 420.478 41.3259 420.452 41.0974C420.401 40.7081 420.202 40.4034 419.855 40.1833C419.441 39.921 418.844 39.7898 418.065 39.7898C417.371 39.7898 416.83 39.9591 416.44 40.2976C416.051 40.6361 415.844 41.1143 415.818 41.7322H412.327C412.403 40.1156 412.953 38.9054 413.978 38.1013C415.002 37.2973 416.504 36.8953 418.484 36.8953C420.202 36.8953 421.557 37.2592 422.547 37.9871C423.546 38.7065 424.045 39.6925 424.045 40.9451V48.6638C424.045 49.2817 424.096 49.7175 424.197 49.9714C424.299 50.2169 424.502 50.4115 424.807 50.5554V50.5681V51.0632H422.839H420.871C420.71 50.5046 420.604 49.9587 420.554 49.4255L420.541 49.4001C419.398 50.7543 417.917 51.4314 416.098 51.4314ZM420.478 45.9724V44.3855C420.054 44.6225 419.496 44.8129 418.802 44.9568L417.456 45.2107C416.821 45.3292 416.339 45.5492 416.009 45.8708C415.679 46.184 415.514 46.5818 415.514 47.0642C415.514 47.6143 415.662 48.046 415.958 48.3591C416.254 48.6723 416.669 48.8289 417.202 48.8289C418.37 48.8289 419.301 48.4184 419.995 47.5974C420.131 47.4366 420.245 47.1996 420.338 46.8865C420.431 46.5733 420.478 46.2686 420.478 45.9724ZM427.358 51.0759V32.4138H429.174H431.002V51.0759H429.187H427.358ZM439.038 51.0759V38.3171H434.595V35.7146C435.729 35.7738 436.744 35.5242 437.642 34.9656C438.547 34.407 439.233 33.6072 439.698 32.5662H442.682V51.0759H440.866H439.038Z" fill="white"/>
<path d="M650.446 42.075C649.126 42.075 648.009 41.6264 647.095 40.7292C646.181 39.8236 645.724 38.7149 645.724 37.4031C645.724 36.0658 646.181 34.936 647.095 34.0134C648.009 33.0824 649.126 32.6169 650.446 32.6169C651.767 32.6169 652.884 33.0824 653.798 34.0134C654.712 34.936 655.169 36.0658 655.169 37.4031C655.169 38.7149 654.712 39.8236 653.798 40.7292C652.884 41.6264 651.767 42.075 650.446 42.075ZM650.446 35.283C649.862 35.283 649.376 35.4819 648.986 35.8796C648.605 36.2774 648.415 36.7768 648.415 37.3777C648.415 37.9617 648.605 38.4483 648.986 38.8376C649.376 39.2185 649.862 39.4089 650.446 39.4089C651.03 39.4089 651.513 39.2185 651.894 38.8376C652.283 38.4483 652.478 37.9617 652.478 37.3777C652.478 36.7768 652.283 36.2774 651.894 35.8796C651.513 35.4819 651.03 35.283 650.446 35.283ZM650.434 51.5837L660.78 32.6169H662.685L652.338 51.5837H650.434ZM662.672 51.2156C661.352 51.2156 660.234 50.767 659.32 49.8699C658.406 48.9643 657.949 47.8556 657.949 46.5437C657.949 45.2065 658.406 44.0766 659.32 43.1541C660.234 42.2231 661.352 41.7576 662.672 41.7576C663.992 41.7576 665.109 42.2231 666.023 43.1541C666.938 44.0766 667.395 45.2065 667.395 46.5437C667.395 47.8556 666.938 48.9643 666.023 49.8699C665.109 50.767 663.992 51.2156 662.672 51.2156ZM662.672 44.4236C662.088 44.4236 661.601 44.6225 661.212 45.0203C660.831 45.4181 660.641 45.9174 660.641 46.5183C660.641 47.1023 660.831 47.5889 661.212 47.9783C661.601 48.3591 662.088 48.5496 662.672 48.5496C663.256 48.5496 663.738 48.3591 664.119 47.9783C664.508 47.5889 664.703 47.1023 664.703 46.5183C664.703 45.9174 664.508 45.4181 664.119 45.0203C663.738 44.6225 663.256 44.4236 662.672 44.4236ZM680.369 51.4314C679.091 51.4314 678.063 51.0675 677.284 50.3396C676.506 49.6033 676.116 48.6384 676.116 47.4451C676.116 46.184 676.467 45.1768 677.17 44.4236C677.872 43.6619 678.896 43.1837 680.242 42.989L682.642 42.6589C683.268 42.5743 683.788 42.4304 684.203 42.2273C684.381 42.1427 684.516 41.9903 684.609 41.7703C684.711 41.5502 684.749 41.3259 684.724 41.0974C684.673 40.7081 684.474 40.4034 684.127 40.1833C683.712 39.921 683.116 39.7898 682.337 39.7898C681.643 39.7898 681.101 39.9591 680.712 40.2976C680.323 40.6361 680.115 41.1143 680.09 41.7322H676.599C676.675 40.1156 677.225 38.9054 678.249 38.1013C679.273 37.2973 680.775 36.8953 682.756 36.8953C684.474 36.8953 685.828 37.2592 686.818 37.9871C687.817 38.7065 688.316 39.6925 688.316 40.9451V48.6638C688.316 49.2817 688.367 49.7175 688.469 49.9714C688.57 50.2169 688.773 50.4115 689.078 50.5554V50.5681V51.0632H687.11H685.143C684.982 50.5046 684.876 49.9587 684.825 49.4255L684.812 49.4001C683.67 50.7543 682.189 51.4314 680.369 51.4314ZM684.749 45.9724V44.3855C684.326 44.6225 683.767 44.8129 683.073 44.9568L681.728 45.2107C681.093 45.3292 680.61 45.5492 680.28 45.8708C679.95 46.184 679.785 46.5818 679.785 47.0642C679.785 47.6143 679.933 48.046 680.229 48.3591C680.526 48.6723 680.94 48.8289 681.474 48.8289C682.642 48.8289 683.573 48.4184 684.267 47.5974C684.402 47.4366 684.516 47.1996 684.609 46.8865C684.702 46.5733 684.749 46.2686 684.749 45.9724ZM697.876 51.1521C697.267 51.2029 696.518 51.2283 695.629 51.2283C694.342 51.2283 693.416 50.9998 692.849 50.5427C692.29 50.0772 692.011 49.3197 692.011 48.2703V39.8152H690.094V37.2634H692.011V33.5437H695.654V37.2634H697.876V39.8152H695.654V47.6609C695.654 47.9825 695.747 48.1941 695.934 48.2957C696.128 48.3972 696.526 48.448 697.127 48.448H697.876V51.1521ZM712.501 51.4314C710.741 51.4314 709.319 50.7458 708.235 49.3748C707.16 48.0037 706.623 46.1967 706.623 43.9539C706.623 41.838 707.16 40.1326 708.235 38.8376C709.31 37.5427 710.724 36.8953 712.476 36.8953C714.041 36.8953 715.302 37.5554 716.259 38.8757L716.411 39.0789V32.4138H718.227H720.055V51.0759H718.29H716.525V49.3113L716.462 49.4001C715.455 50.7543 714.134 51.4314 712.501 51.4314ZM713.479 40.0437C712.505 40.0437 711.743 40.4203 711.193 41.1736C710.643 41.9184 710.368 42.9552 710.368 44.2839C710.368 45.5873 710.639 46.6072 711.181 47.3435C711.731 48.0714 712.493 48.4353 713.466 48.4353C714.448 48.4353 715.214 48.0502 715.764 47.28C716.314 46.5098 716.589 45.4392 716.589 44.0681C716.589 42.807 716.314 41.821 715.764 41.1101C715.214 40.3992 714.452 40.0437 713.479 40.0437ZM723.457 51.0759V37.2634H725.272H727.101V51.0759H725.285H723.457ZM723.419 32.2742H727.126V35.6511H723.419V32.2742ZM733.867 51.4314C732.589 51.4314 731.561 51.0675 730.782 50.3396C730.004 49.6033 729.614 48.6384 729.614 47.4451C729.614 46.184 729.965 45.1768 730.668 44.4236C731.37 43.6619 732.395 43.1837 733.74 42.989L736.14 42.6589C736.766 42.5743 737.286 42.4304 737.701 42.2273C737.879 42.1427 738.014 41.9903 738.107 41.7703C738.209 41.5502 738.247 41.3259 738.222 41.0974C738.171 40.7081 737.972 40.4034 737.625 40.1833C737.21 39.921 736.614 39.7898 735.835 39.7898C735.141 39.7898 734.599 39.9591 734.21 40.2976C733.821 40.6361 733.613 41.1143 733.588 41.7322H730.097C730.173 40.1156 730.723 38.9054 731.747 38.1013C732.771 37.2973 734.273 36.8953 736.254 36.8953C737.972 36.8953 739.326 37.2592 740.316 37.9871C741.315 38.7065 741.814 39.6925 741.814 40.9451V48.6638C741.814 49.2817 741.865 49.7175 741.967 49.9714C742.068 50.2169 742.271 50.4115 742.576 50.5554V50.5681V51.0632H740.608H738.641C738.48 50.5046 738.374 49.9587 738.323 49.4255L738.311 49.4001C737.168 50.7543 735.687 51.4314 733.867 51.4314ZM738.247 45.9724V44.3855C737.824 44.6225 737.265 44.8129 736.571 44.9568L735.226 45.2107C734.591 45.3292 734.108 45.5492 733.778 45.8708C733.448 46.184 733.283 46.5818 733.283 47.0642C733.283 47.6143 733.431 48.046 733.728 48.3591C734.024 48.6723 734.438 48.8289 734.972 48.8289C736.14 48.8289 737.071 48.4184 737.765 47.5974C737.9 47.4366 738.014 47.1996 738.107 46.8865C738.201 46.5733 738.247 46.2686 738.247 45.9724ZM751.26 53.9451C752.284 53.9451 753.02 53.6954 753.469 53.196C753.917 52.7052 754.142 51.8884 754.142 50.7458V49.0447L753.85 49.489C753.046 50.5977 751.89 51.1521 750.384 51.1521C748.59 51.1521 747.138 50.5089 746.029 49.2224C744.929 47.9275 744.379 46.2221 744.379 44.1062C744.379 41.9395 744.916 40.196 745.991 38.8757C747.066 37.5554 748.479 36.8953 750.231 36.8953C751.78 36.8953 752.982 37.4581 753.837 38.5837C753.998 38.7953 754.146 39.0281 754.281 39.282V37.2634H757.709V50.3396C757.709 52.5232 757.167 54.1313 756.084 55.1638C755.009 56.2048 753.329 56.7253 751.044 56.7253C749.165 56.7253 747.671 56.3572 746.562 55.6208C745.454 54.893 744.861 53.8816 744.785 52.5867H748.746C748.78 53.0606 748.996 53.4034 749.394 53.615C749.8 53.835 750.422 53.9451 751.26 53.9451ZM751.146 40.0437C750.198 40.0437 749.457 40.4076 748.924 41.1355C748.391 41.8549 748.124 42.8578 748.124 44.1443C748.124 45.4054 748.391 46.3914 748.924 47.1023C749.457 47.8048 750.193 48.156 751.133 48.156C752.089 48.156 752.834 47.7963 753.367 47.0769C753.909 46.3575 754.18 45.363 754.18 44.0935C754.18 42.824 753.909 41.8337 753.367 41.1228C752.834 40.4034 752.093 40.0437 751.146 40.0437ZM760.921 51.0759V37.2634H762.647H764.387V39.3074C764.531 39.0619 764.687 38.8292 764.856 38.6091C765.754 37.4666 767.057 36.8953 768.767 36.8953C770.222 36.8953 771.361 37.3269 772.182 38.1902C773.011 39.0535 773.426 40.2511 773.426 41.783V51.0759H771.61H769.782V42.4431C769.782 41.5883 769.596 40.9578 769.224 40.5515C768.86 40.1368 768.297 39.9294 767.535 39.9294C766.579 39.9294 765.842 40.2172 765.326 40.7927C764.818 41.3682 764.564 42.1977 764.564 43.281V51.0759H762.749H760.921ZM783.074 51.4314C780.916 51.4314 779.198 50.7839 777.92 49.489C776.65 48.1941 776.016 46.4464 776.016 44.2458C776.016 41.9945 776.65 40.2087 777.92 38.8884C779.198 37.5597 780.916 36.8953 783.074 36.8953C785.249 36.8953 786.972 37.5597 788.241 38.8884C789.511 40.2087 790.146 41.9945 790.146 44.2458C790.146 46.4464 789.511 48.1941 788.241 49.489C786.972 50.7839 785.249 51.4314 783.074 51.4314ZM783.074 48.3845C784.158 48.3845 784.983 48.0291 785.55 47.3181C786.117 46.6072 786.4 45.5704 786.4 44.2078C786.4 42.8113 786.117 41.7533 785.55 41.0339C784.983 40.3061 784.158 39.9421 783.074 39.9421C781.991 39.9421 781.166 40.3061 780.599 41.0339C780.04 41.7533 779.761 42.8113 779.761 44.2078C779.761 45.5704 780.04 46.6072 780.599 47.3181C781.166 48.0291 781.991 48.3845 783.074 48.3845ZM800.53 41.4021C800.53 40.8689 800.31 40.4415 799.87 40.1199C799.43 39.7983 798.846 39.6375 798.118 39.6375C797.416 39.6375 796.866 39.7602 796.468 40.0056C796.078 40.2426 795.884 40.5769 795.884 41.0085C795.884 41.3132 796.108 41.5756 796.557 41.7957C796.997 42.0072 797.78 42.24 798.905 42.4939C801.14 42.9932 802.633 43.5391 803.387 44.1316C804.14 44.724 804.517 45.655 804.517 46.9246C804.517 48.2787 803.966 49.3705 802.866 50.2C801.774 51.0209 800.331 51.4314 798.537 51.4314C796.413 51.4314 794.775 51.0251 793.624 50.2126C792.481 49.4001 791.872 48.2153 791.796 46.658H795.503C795.528 47.2927 795.808 47.7921 796.341 48.156C796.882 48.5115 797.615 48.6892 798.537 48.6892C799.265 48.6892 799.832 48.5665 800.238 48.321C800.653 48.0671 800.86 47.7159 800.86 47.2673C800.86 46.9542 800.661 46.6876 800.264 46.4675C799.866 46.2559 799.168 46.0401 798.169 45.8201C795.833 45.2953 794.271 44.741 793.484 44.157C792.697 43.5815 792.304 42.6886 792.304 41.4783C792.304 40.1072 792.812 39.0027 793.827 38.1648C794.851 37.3184 796.197 36.8953 797.864 36.8953C799.743 36.8953 801.258 37.31 802.409 38.1394C803.56 38.9604 804.136 40.0479 804.136 41.4021H800.53ZM807.322 51.0759V37.2634H809.138H810.966V51.0759H809.15H807.322ZM807.284 32.2742H810.991V35.6511H807.284V32.2742ZM822.239 41.4021C822.239 40.8689 822.019 40.4415 821.579 40.1199C821.139 39.7983 820.555 39.6375 819.827 39.6375C819.125 39.6375 818.575 39.7602 818.177 40.0056C817.787 40.2426 817.593 40.5769 817.593 41.0085C817.593 41.3132 817.817 41.5756 818.266 41.7957C818.706 42.0072 819.489 42.24 820.614 42.4939C822.849 42.9932 824.342 43.5391 825.096 44.1316C825.849 44.724 826.226 45.655 826.226 46.9246C826.226 48.2787 825.675 49.3705 824.575 50.2C823.483 51.0209 822.04 51.4314 820.246 51.4314C818.122 51.4314 816.484 51.0251 815.333 50.2126C814.19 49.4001 813.581 48.2153 813.505 46.658H817.212C817.237 47.2927 817.517 47.7921 818.05 48.156C818.591 48.5115 819.324 48.6892 820.246 48.6892C820.974 48.6892 821.541 48.5665 821.947 48.321C822.362 48.0671 822.569 47.7159 822.569 47.2673C822.569 46.9542 822.37 46.6876 821.973 46.4675C821.575 46.2559 820.877 46.0401 819.878 45.8201C817.542 45.2953 815.98 44.741 815.193 44.157C814.406 43.5815 814.013 42.6886 814.013 41.4783C814.013 40.1072 814.521 39.0027 815.536 38.1648C816.56 37.3184 817.906 36.8953 819.573 36.8953C821.452 36.8953 822.967 37.31 824.118 38.1394C825.269 38.9604 825.845 40.0479 825.845 41.4021H822.239Z" fill="white"/>
<path d="M834.157 35.1641C834.157 35.9206 833.979 36.5472 833.624 37.0439C833.273 37.5407 832.612 38.099 831.642 38.7188C830.744 39.2884 830.131 39.8034 829.803 40.2637L829.796 40.2773H834.157V42H827.362C827.362 41.0885 827.592 40.307 828.053 39.6553C828.513 39.0036 829.379 38.2311 830.65 37.3379C831.22 36.9414 831.621 36.5791 831.854 36.251C832.086 35.9183 832.202 35.5492 832.202 35.1436C832.202 34.7015 832.075 34.346 831.819 34.0771C831.564 33.8083 831.227 33.6738 830.808 33.6738C830.361 33.6738 830.012 33.8424 829.762 34.1797C829.511 34.5169 829.395 34.9749 829.413 35.5537H827.492C827.46 34.4736 827.743 33.6169 828.34 32.9834C828.941 32.3499 829.769 32.0332 830.821 32.0332C831.801 32.0332 832.603 32.3249 833.228 32.9082C833.847 33.4915 834.157 34.2435 834.157 35.1641ZM835.688 40.9814V39.9629H836.741H837.787V41.7197C837.787 42.4443 837.616 43.0208 837.274 43.4492C836.933 43.8822 836.404 44.1852 835.688 44.3584V43.6064C836.158 43.4469 836.475 43.2145 836.639 42.9092C836.757 42.6995 836.828 42.3965 836.851 42H836.317H835.688V40.9814ZM841.383 42.1914C840.695 42.1914 840.141 41.9954 839.722 41.6035C839.302 41.207 839.093 40.6875 839.093 40.0449C839.093 39.3659 839.282 38.8236 839.66 38.418C840.038 38.0078 840.59 37.7503 841.314 37.6455L842.606 37.4678C842.944 37.4222 843.224 37.3447 843.447 37.2354C843.543 37.1898 843.616 37.1077 843.666 36.9893C843.721 36.8708 843.741 36.75 843.728 36.627C843.7 36.4173 843.593 36.2533 843.406 36.1348C843.183 35.9935 842.862 35.9229 842.442 35.9229C842.069 35.9229 841.777 36.014 841.567 36.1963C841.358 36.3786 841.246 36.6361 841.232 36.9688H839.353C839.394 36.0983 839.69 35.4466 840.241 35.0137C840.793 34.5807 841.602 34.3643 842.668 34.3643C843.593 34.3643 844.322 34.5602 844.855 34.9521C845.393 35.3395 845.662 35.8704 845.662 36.5449V40.7012C845.662 41.0339 845.689 41.2686 845.744 41.4053C845.799 41.5374 845.908 41.6423 846.072 41.7197V41.7266V41.9932H845.013H843.953C843.867 41.6924 843.81 41.3984 843.782 41.1113L843.775 41.0977C843.16 41.8268 842.363 42.1914 841.383 42.1914ZM843.741 39.252V38.3975C843.513 38.5251 843.213 38.6276 842.839 38.7051L842.114 38.8418C841.772 38.9056 841.513 39.0241 841.335 39.1973C841.157 39.3659 841.068 39.5801 841.068 39.8398C841.068 40.1361 841.148 40.3685 841.308 40.5371C841.467 40.7057 841.69 40.79 841.978 40.79C842.606 40.79 843.108 40.569 843.481 40.127C843.554 40.0404 843.616 39.9128 843.666 39.7441C843.716 39.5755 843.741 39.4115 843.741 39.252Z" fill="white"/>
<path d="M32.5986 114.937C32.5309 114.048 32.1416 113.345 31.4307 112.829C30.7197 112.304 29.793 112.042 28.6504 112.042C27.6602 112.042 26.8857 112.262 26.3271 112.702C25.7686 113.134 25.4893 113.739 25.4893 114.518C25.4893 115.076 25.7812 115.508 26.3652 115.812C26.9408 116.117 28.1637 116.477 30.0342 116.892C32.751 117.501 34.5664 118.203 35.4805 118.999C36.3945 119.786 36.8516 121.051 36.8516 122.795C36.8516 124.547 36.1618 125.939 34.7822 126.972C33.4027 127.996 31.5365 128.508 29.1836 128.508C26.8223 128.508 24.9772 127.962 23.6484 126.87C22.3197 125.778 21.6087 124.225 21.5156 122.211H25.2734C25.3158 123.201 25.6755 123.963 26.3525 124.496C27.0296 125.029 27.9733 125.296 29.1836 125.296C30.4277 125.296 31.3968 125.097 32.0908 124.699C32.7933 124.293 33.1445 123.734 33.1445 123.023C33.1445 122.321 32.8949 121.805 32.3955 121.475C31.9046 121.145 30.8551 120.802 29.2471 120.446C26.2848 119.786 24.3044 119.071 23.3057 118.301C22.3154 117.539 21.8203 116.35 21.8203 114.733C21.8203 112.922 22.4762 111.488 23.7881 110.43C25.0999 109.363 26.873 108.83 29.1074 108.83C31.1979 108.83 32.8991 109.38 34.2109 110.48C35.5228 111.581 36.2507 113.066 36.3945 114.937H32.5986ZM45.8779 128.076C45.2686 128.127 44.5195 128.152 43.6309 128.152C42.3444 128.152 41.4176 127.924 40.8506 127.467C40.292 127.001 40.0127 126.244 40.0127 125.194V116.739H38.0957V114.188H40.0127V110.468H43.6562V114.188H45.8779V116.739H43.6562V124.585C43.6562 124.907 43.7493 125.118 43.9355 125.22C44.1302 125.321 44.528 125.372 45.1289 125.372H45.8779V128.076ZM51.502 128.355C50.224 128.355 49.1956 127.992 48.417 127.264C47.6383 126.527 47.249 125.562 47.249 124.369C47.249 123.108 47.6003 122.101 48.3027 121.348C49.0052 120.586 50.0293 120.108 51.375 119.913L53.7744 119.583C54.4007 119.498 54.9212 119.354 55.3359 119.151C55.5137 119.067 55.6491 118.914 55.7422 118.694C55.8438 118.474 55.8818 118.25 55.8564 118.021C55.8057 117.632 55.6068 117.327 55.2598 117.107C54.8451 116.845 54.2484 116.714 53.4697 116.714C52.7757 116.714 52.234 116.883 51.8447 117.222C51.4554 117.56 51.248 118.038 51.2227 118.656H47.7314C47.8076 117.04 48.3577 115.829 49.3818 115.025C50.4059 114.221 51.9082 113.819 53.8887 113.819C55.6068 113.819 56.9609 114.183 57.9512 114.911C58.9499 115.631 59.4492 116.617 59.4492 117.869V125.588C59.4492 126.206 59.5 126.642 59.6016 126.896C59.7031 127.141 59.9062 127.336 60.2109 127.479V127.492V127.987H58.2432H56.2754C56.1146 127.429 56.0088 126.883 55.958 126.35L55.9453 126.324C54.8027 127.678 53.3216 128.355 51.502 128.355ZM55.8818 122.896V121.31C55.4587 121.547 54.9001 121.737 54.2061 121.881L52.8604 122.135C52.2256 122.253 51.7432 122.473 51.4131 122.795C51.083 123.108 50.918 123.506 50.918 123.988C50.918 124.538 51.0661 124.97 51.3623 125.283C51.6585 125.596 52.0732 125.753 52.6064 125.753C53.7744 125.753 54.7054 125.342 55.3994 124.521C55.5348 124.361 55.6491 124.124 55.7422 123.811C55.8353 123.497 55.8818 123.193 55.8818 122.896ZM68.8945 130.869C69.9186 130.869 70.6549 130.619 71.1035 130.12C71.5521 129.629 71.7764 128.812 71.7764 127.67V125.969L71.4844 126.413C70.6803 127.522 69.5251 128.076 68.0186 128.076C66.2243 128.076 64.7728 127.433 63.6641 126.146C62.5638 124.852 62.0137 123.146 62.0137 121.03C62.0137 118.864 62.5511 117.12 63.626 115.8C64.7008 114.479 66.1143 113.819 67.8662 113.819C69.415 113.819 70.6169 114.382 71.4717 115.508C71.6325 115.719 71.7806 115.952 71.916 116.206V114.188H75.3438V127.264C75.3438 129.447 74.8021 131.055 73.7188 132.088C72.6439 133.129 70.9639 133.649 68.6787 133.649C66.7998 133.649 65.306 133.281 64.1973 132.545C63.0885 131.817 62.4961 130.806 62.4199 129.511H66.3809C66.4147 129.985 66.6305 130.327 67.0283 130.539C67.4346 130.759 68.0566 130.869 68.8945 130.869ZM68.7803 116.968C67.8324 116.968 67.0918 117.332 66.5586 118.06C66.0254 118.779 65.7588 119.782 65.7588 121.068C65.7588 122.329 66.0254 123.315 66.5586 124.026C67.0918 124.729 67.8281 125.08 68.7676 125.08C69.724 125.08 70.4688 124.72 71.002 124.001C71.5436 123.282 71.8145 122.287 71.8145 121.018C71.8145 119.748 71.5436 118.758 71.002 118.047C70.4688 117.327 69.7282 116.968 68.7803 116.968ZM84.0273 128.355C81.9284 128.355 80.3076 127.708 79.165 126.413C78.0309 125.118 77.4639 123.273 77.4639 120.878C77.4639 118.669 78.0436 116.942 79.2031 115.698C80.3626 114.446 81.9707 113.819 84.0273 113.819C86.1348 113.819 87.7555 114.458 88.8896 115.736C90.0322 117.006 90.6035 118.817 90.6035 121.17C90.6204 121.441 90.5993 121.716 90.54 121.995H81.1328C81.2174 123.087 81.4587 123.904 81.8564 124.445C82.3643 125.122 83.2106 125.461 84.3955 125.461C84.9456 125.461 85.4535 125.304 85.9189 124.991C86.3929 124.678 86.6764 124.301 86.7695 123.861H90.4766C90.1634 125.266 89.4355 126.367 88.293 127.162C87.1589 127.958 85.737 128.355 84.0273 128.355ZM86.8076 119.672C86.723 118.842 86.5029 118.195 86.1475 117.729C85.682 117.112 84.9583 116.803 83.9766 116.803C83.0371 116.803 82.3219 117.162 81.8311 117.882C81.5264 118.339 81.3063 118.936 81.1709 119.672H86.8076ZM100.239 128V109.338H102.182H104.137V128H102.194H100.239Z" fill="white"/>
<path d="M32.5986 295.012C32.5309 294.124 32.1416 293.421 31.4307 292.905C30.7197 292.38 29.793 292.118 28.6504 292.118C27.6602 292.118 26.8857 292.338 26.3271 292.778C25.7686 293.21 25.4893 293.815 25.4893 294.594C25.4893 295.152 25.7812 295.584 26.3652 295.888C26.9408 296.193 28.1637 296.553 30.0342 296.968C32.751 297.577 34.5664 298.279 35.4805 299.075C36.3945 299.862 36.8516 301.127 36.8516 302.871C36.8516 304.623 36.1618 306.015 34.7822 307.048C33.4027 308.072 31.5365 308.584 29.1836 308.584C26.8223 308.584 24.9772 308.038 23.6484 306.946C22.3197 305.854 21.6087 304.301 21.5156 302.287H25.2734C25.3158 303.277 25.6755 304.039 26.3525 304.572C27.0296 305.105 27.9733 305.372 29.1836 305.372C30.4277 305.372 31.3968 305.173 32.0908 304.775C32.7933 304.369 33.1445 303.81 33.1445 303.099C33.1445 302.397 32.8949 301.881 32.3955 301.551C31.9046 301.22 30.8551 300.878 29.2471 300.522C26.2848 299.862 24.3044 299.147 23.3057 298.377C22.3154 297.615 21.8203 296.426 21.8203 294.809C21.8203 292.998 22.4762 291.564 23.7881 290.506C25.0999 289.439 26.873 288.906 29.1074 288.906C31.1979 288.906 32.8991 289.456 34.2109 290.556C35.5228 291.657 36.2507 293.142 36.3945 295.012H32.5986ZM45.8779 308.152C45.2686 308.203 44.5195 308.228 43.6309 308.228C42.3444 308.228 41.4176 308 40.8506 307.543C40.292 307.077 40.0127 306.32 40.0127 305.27V296.815H38.0957V294.263H40.0127V290.544H43.6562V294.263H45.8779V296.815H43.6562V304.661C43.6562 304.983 43.7493 305.194 43.9355 305.296C44.1302 305.397 44.528 305.448 45.1289 305.448H45.8779V308.152ZM51.502 308.431C50.224 308.431 49.1956 308.067 48.417 307.34C47.6383 306.603 47.249 305.638 47.249 304.445C47.249 303.184 47.6003 302.177 48.3027 301.424C49.0052 300.662 50.0293 300.184 51.375 299.989L53.7744 299.659C54.4007 299.574 54.9212 299.43 55.3359 299.227C55.5137 299.143 55.6491 298.99 55.7422 298.77C55.8438 298.55 55.8818 298.326 55.8564 298.097C55.8057 297.708 55.6068 297.403 55.2598 297.183C54.8451 296.921 54.2484 296.79 53.4697 296.79C52.7757 296.79 52.234 296.959 51.8447 297.298C51.4554 297.636 51.248 298.114 51.2227 298.732H47.7314C47.8076 297.116 48.3577 295.905 49.3818 295.101C50.4059 294.297 51.9082 293.895 53.8887 293.895C55.6068 293.895 56.9609 294.259 57.9512 294.987C58.9499 295.706 59.4492 296.692 59.4492 297.945V305.664C59.4492 306.282 59.5 306.718 59.6016 306.971C59.7031 307.217 59.9062 307.412 60.2109 307.555V307.568V308.063H58.2432H56.2754C56.1146 307.505 56.0088 306.959 55.958 306.426L55.9453 306.4C54.8027 307.754 53.3216 308.431 51.502 308.431ZM55.8818 302.972V301.385C55.4587 301.622 54.9001 301.813 54.2061 301.957L52.8604 302.211C52.2256 302.329 51.7432 302.549 51.4131 302.871C51.083 303.184 50.918 303.582 50.918 304.064C50.918 304.614 51.0661 305.046 51.3623 305.359C51.6585 305.672 52.0732 305.829 52.6064 305.829C53.7744 305.829 54.7054 305.418 55.3994 304.597C55.5348 304.437 55.6491 304.2 55.7422 303.886C55.8353 303.573 55.8818 303.269 55.8818 302.972ZM68.8945 310.945C69.9186 310.945 70.6549 310.695 71.1035 310.196C71.5521 309.705 71.7764 308.888 71.7764 307.746V306.045L71.4844 306.489C70.6803 307.598 69.5251 308.152 68.0186 308.152C66.2243 308.152 64.7728 307.509 63.6641 306.222C62.5638 304.927 62.0137 303.222 62.0137 301.106C62.0137 298.94 62.5511 297.196 63.626 295.876C64.7008 294.555 66.1143 293.895 67.8662 293.895C69.415 293.895 70.6169 294.458 71.4717 295.584C71.6325 295.795 71.7806 296.028 71.916 296.282V294.263H75.3438V307.34C75.3438 309.523 74.8021 311.131 73.7188 312.164C72.6439 313.205 70.9639 313.725 68.6787 313.725C66.7998 313.725 65.306 313.357 64.1973 312.621C63.0885 311.893 62.4961 310.882 62.4199 309.587H66.3809C66.4147 310.061 66.6305 310.403 67.0283 310.615C67.4346 310.835 68.0566 310.945 68.8945 310.945ZM68.7803 297.044C67.8324 297.044 67.0918 297.408 66.5586 298.135C66.0254 298.855 65.7588 299.858 65.7588 301.144C65.7588 302.405 66.0254 303.391 66.5586 304.102C67.0918 304.805 67.8281 305.156 68.7676 305.156C69.724 305.156 70.4688 304.796 71.002 304.077C71.5436 303.358 71.8145 302.363 71.8145 301.094C71.8145 299.824 71.5436 298.834 71.002 298.123C70.4688 297.403 69.7282 297.044 68.7803 297.044ZM84.0273 308.431C81.9284 308.431 80.3076 307.784 79.165 306.489C78.0309 305.194 77.4639 303.349 77.4639 300.954C77.4639 298.745 78.0436 297.018 79.2031 295.774C80.3626 294.522 81.9707 293.895 84.0273 293.895C86.1348 293.895 87.7555 294.534 88.8896 295.812C90.0322 297.082 90.6035 298.893 90.6035 301.246C90.6204 301.517 90.5993 301.792 90.54 302.071H81.1328C81.2174 303.163 81.4587 303.98 81.8564 304.521C82.3643 305.198 83.2106 305.537 84.3955 305.537C84.9456 305.537 85.4535 305.38 85.9189 305.067C86.3929 304.754 86.6764 304.377 86.7695 303.937H90.4766C90.1634 305.342 89.4355 306.442 88.293 307.238C87.1589 308.034 85.737 308.431 84.0273 308.431ZM86.8076 299.748C86.723 298.918 86.5029 298.271 86.1475 297.805C85.682 297.188 84.9583 296.879 83.9766 296.879C83.0371 296.879 82.3219 297.238 81.8311 297.958C81.5264 298.415 81.3063 299.011 81.1709 299.748H86.8076ZM100.239 308.076V289.414H102.182H104.137V308.076H102.194H100.239ZM107.476 308.076V289.414H109.418H111.373V308.076H109.431H107.476ZM114.712 308.076V289.414H116.654H118.609V308.076H116.667H114.712Z" fill="white"/>
<path d="M34.0986 198.937C34.0309 198.048 33.6416 197.345 32.9307 196.829C32.2197 196.304 31.293 196.042 30.1504 196.042C29.1602 196.042 28.3857 196.262 27.8271 196.702C27.2686 197.134 26.9893 197.739 26.9893 198.518C26.9893 199.076 27.2812 199.508 27.8652 199.812C28.4408 200.117 29.6637 200.477 31.5342 200.892C34.251 201.501 36.0664 202.203 36.9805 202.999C37.8945 203.786 38.3516 205.051 38.3516 206.795C38.3516 208.547 37.6618 209.939 36.2822 210.972C34.9027 211.996 33.0365 212.508 30.6836 212.508C28.3223 212.508 26.4772 211.962 25.1484 210.87C23.8197 209.778 23.1087 208.225 23.0156 206.211H26.7734C26.8158 207.201 27.1755 207.963 27.8525 208.496C28.5296 209.029 29.4733 209.296 30.6836 209.296C31.9277 209.296 32.8968 209.097 33.5908 208.699C34.2933 208.293 34.6445 207.734 34.6445 207.023C34.6445 206.321 34.3949 205.805 33.8955 205.475C33.4046 205.145 32.3551 204.802 30.7471 204.446C27.7848 203.786 25.8044 203.071 24.8057 202.301C23.8154 201.539 23.3203 200.35 23.3203 198.733C23.3203 196.922 23.9762 195.488 25.2881 194.43C26.5999 193.363 28.373 192.83 30.6074 192.83C32.6979 192.83 34.3991 193.38 35.7109 194.48C37.0228 195.581 37.7507 197.066 37.8945 198.937H34.0986ZM47.3779 212.076C46.7686 212.127 46.0195 212.152 45.1309 212.152C43.8444 212.152 42.9176 211.924 42.3506 211.467C41.792 211.001 41.5127 210.244 41.5127 209.194V200.739H39.5957V198.188H41.5127V194.468H45.1562V198.188H47.3779V200.739H45.1562V208.585C45.1562 208.907 45.2493 209.118 45.4355 209.22C45.6302 209.321 46.028 209.372 46.6289 209.372H47.3779V212.076ZM53.002 212.355C51.724 212.355 50.6956 211.992 49.917 211.264C49.1383 210.527 48.749 209.562 48.749 208.369C48.749 207.108 49.1003 206.101 49.8027 205.348C50.5052 204.586 51.5293 204.108 52.875 203.913L55.2744 203.583C55.9007 203.498 56.4212 203.354 56.8359 203.151C57.0137 203.067 57.1491 202.914 57.2422 202.694C57.3438 202.474 57.3818 202.25 57.3564 202.021C57.3057 201.632 57.1068 201.327 56.7598 201.107C56.3451 200.845 55.7484 200.714 54.9697 200.714C54.2757 200.714 53.734 200.883 53.3447 201.222C52.9554 201.56 52.748 202.038 52.7227 202.656H49.2314C49.3076 201.04 49.8577 199.829 50.8818 199.025C51.9059 198.221 53.4082 197.819 55.3887 197.819C57.1068 197.819 58.4609 198.183 59.4512 198.911C60.4499 199.631 60.9492 200.617 60.9492 201.869V209.588C60.9492 210.206 61 210.642 61.1016 210.896C61.2031 211.141 61.4062 211.336 61.7109 211.479V211.492V211.987H59.7432H57.7754C57.6146 211.429 57.5088 210.883 57.458 210.35L57.4453 210.324C56.3027 211.678 54.8216 212.355 53.002 212.355ZM57.3818 206.896V205.31C56.9587 205.547 56.4001 205.737 55.7061 205.881L54.3604 206.135C53.7256 206.253 53.2432 206.473 52.9131 206.795C52.583 207.108 52.418 207.506 52.418 207.988C52.418 208.538 52.5661 208.97 52.8623 209.283C53.1585 209.596 53.5732 209.753 54.1064 209.753C55.2744 209.753 56.2054 209.342 56.8994 208.521C57.0348 208.361 57.1491 208.124 57.2422 207.811C57.3353 207.497 57.3818 207.193 57.3818 206.896ZM70.3945 214.869C71.4186 214.869 72.1549 214.619 72.6035 214.12C73.0521 213.629 73.2764 212.812 73.2764 211.67V209.969L72.9844 210.413C72.1803 211.522 71.0251 212.076 69.5186 212.076C67.7243 212.076 66.2728 211.433 65.1641 210.146C64.0638 208.852 63.5137 207.146 63.5137 205.03C63.5137 202.864 64.0511 201.12 65.126 199.8C66.2008 198.479 67.6143 197.819 69.3662 197.819C70.915 197.819 72.1169 198.382 72.9717 199.508C73.1325 199.719 73.2806 199.952 73.416 200.206V198.188H76.8438V211.264C76.8438 213.447 76.3021 215.055 75.2188 216.088C74.1439 217.129 72.4639 217.649 70.1787 217.649C68.2998 217.649 66.806 217.281 65.6973 216.545C64.5885 215.817 63.9961 214.806 63.9199 213.511H67.8809C67.9147 213.985 68.1305 214.327 68.5283 214.539C68.9346 214.759 69.5566 214.869 70.3945 214.869ZM70.2803 200.968C69.3324 200.968 68.5918 201.332 68.0586 202.06C67.5254 202.779 67.2588 203.782 67.2588 205.068C67.2588 206.329 67.5254 207.315 68.0586 208.026C68.5918 208.729 69.3281 209.08 70.2676 209.08C71.224 209.08 71.9688 208.72 72.502 208.001C73.0436 207.282 73.3145 206.287 73.3145 205.018C73.3145 203.748 73.0436 202.758 72.502 202.047C71.9688 201.327 71.2282 200.968 70.2803 200.968ZM85.5273 212.355C83.4284 212.355 81.8076 211.708 80.665 210.413C79.5309 209.118 78.9639 207.273 78.9639 204.878C78.9639 202.669 79.5436 200.942 80.7031 199.698C81.8626 198.446 83.4707 197.819 85.5273 197.819C87.6348 197.819 89.2555 198.458 90.3896 199.736C91.5322 201.006 92.1035 202.817 92.1035 205.17C92.1204 205.441 92.0993 205.716 92.04 205.995H82.6328C82.7174 207.087 82.9587 207.904 83.3564 208.445C83.8643 209.122 84.7106 209.461 85.8955 209.461C86.4456 209.461 86.9535 209.304 87.4189 208.991C87.8929 208.678 88.1764 208.301 88.2695 207.861H91.9766C91.6634 209.266 90.9355 210.367 89.793 211.162C88.6589 211.958 87.237 212.355 85.5273 212.355ZM88.3076 203.672C88.223 202.842 88.0029 202.195 87.6475 201.729C87.182 201.112 86.4583 200.803 85.4766 200.803C84.5371 200.803 83.8219 201.162 83.3311 201.882C83.0264 202.339 82.8063 202.936 82.6709 203.672H88.3076ZM101.739 212V193.338H103.682H105.637V212H103.694H101.739ZM108.976 212V193.338H110.918H112.873V212H110.931H108.976Z" fill="white"/>
<path d="M32.5986 375.012C32.5309 374.124 32.1416 373.421 31.4307 372.905C30.7197 372.38 29.793 372.118 28.6504 372.118C27.6602 372.118 26.8857 372.338 26.3271 372.778C25.7686 373.21 25.4893 373.815 25.4893 374.594C25.4893 375.152 25.7812 375.584 26.3652 375.888C26.9408 376.193 28.1637 376.553 30.0342 376.968C32.751 377.577 34.5664 378.279 35.4805 379.075C36.3945 379.862 36.8516 381.127 36.8516 382.871C36.8516 384.623 36.1618 386.015 34.7822 387.048C33.4027 388.072 31.5365 388.584 29.1836 388.584C26.8223 388.584 24.9772 388.038 23.6484 386.946C22.3197 385.854 21.6087 384.301 21.5156 382.287H25.2734C25.3158 383.277 25.6755 384.039 26.3525 384.572C27.0296 385.105 27.9733 385.372 29.1836 385.372C30.4277 385.372 31.3968 385.173 32.0908 384.775C32.7933 384.369 33.1445 383.81 33.1445 383.099C33.1445 382.397 32.8949 381.881 32.3955 381.551C31.9046 381.22 30.8551 380.878 29.2471 380.522C26.2848 379.862 24.3044 379.147 23.3057 378.377C22.3154 377.615 21.8203 376.426 21.8203 374.809C21.8203 372.998 22.4762 371.564 23.7881 370.506C25.0999 369.439 26.873 368.906 29.1074 368.906C31.1979 368.906 32.8991 369.456 34.2109 370.556C35.5228 371.657 36.2507 373.142 36.3945 375.012H32.5986ZM45.8779 388.152C45.2686 388.203 44.5195 388.228 43.6309 388.228C42.3444 388.228 41.4176 388 40.8506 387.543C40.292 387.077 40.0127 386.32 40.0127 385.27V376.815H38.0957V374.263H40.0127V370.544H43.6562V374.263H45.8779V376.815H43.6562V384.661C43.6562 384.983 43.7493 385.194 43.9355 385.296C44.1302 385.397 44.528 385.448 45.1289 385.448H45.8779V388.152ZM51.502 388.431C50.224 388.431 49.1956 388.067 48.417 387.34C47.6383 386.603 47.249 385.638 47.249 384.445C47.249 383.184 47.6003 382.177 48.3027 381.424C49.0052 380.662 50.0293 380.184 51.375 379.989L53.7744 379.659C54.4007 379.574 54.9212 379.43 55.3359 379.227C55.5137 379.143 55.6491 378.99 55.7422 378.77C55.8438 378.55 55.8818 378.326 55.8564 378.097C55.8057 377.708 55.6068 377.403 55.2598 377.183C54.8451 376.921 54.2484 376.79 53.4697 376.79C52.7757 376.79 52.234 376.959 51.8447 377.298C51.4554 377.636 51.248 378.114 51.2227 378.732H47.7314C47.8076 377.116 48.3577 375.905 49.3818 375.101C50.4059 374.297 51.9082 373.895 53.8887 373.895C55.6068 373.895 56.9609 374.259 57.9512 374.987C58.9499 375.706 59.4492 376.692 59.4492 377.945V385.664C59.4492 386.282 59.5 386.718 59.6016 386.971C59.7031 387.217 59.9062 387.412 60.2109 387.555V387.568V388.063H58.2432H56.2754C56.1146 387.505 56.0088 386.959 55.958 386.426L55.9453 386.4C54.8027 387.754 53.3216 388.431 51.502 388.431ZM55.8818 382.972V381.385C55.4587 381.622 54.9001 381.813 54.2061 381.957L52.8604 382.211C52.2256 382.329 51.7432 382.549 51.4131 382.871C51.083 383.184 50.918 383.582 50.918 384.064C50.918 384.614 51.0661 385.046 51.3623 385.359C51.6585 385.672 52.0732 385.829 52.6064 385.829C53.7744 385.829 54.7054 385.418 55.3994 384.597C55.5348 384.437 55.6491 384.2 55.7422 383.886C55.8353 383.573 55.8818 383.269 55.8818 382.972ZM68.8945 390.945C69.9186 390.945 70.6549 390.695 71.1035 390.196C71.5521 389.705 71.7764 388.888 71.7764 387.746V386.045L71.4844 386.489C70.6803 387.598 69.5251 388.152 68.0186 388.152C66.2243 388.152 64.7728 387.509 63.6641 386.222C62.5638 384.927 62.0137 383.222 62.0137 381.106C62.0137 378.94 62.5511 377.196 63.626 375.876C64.7008 374.555 66.1143 373.895 67.8662 373.895C69.415 373.895 70.6169 374.458 71.4717 375.584C71.6325 375.795 71.7806 376.028 71.916 376.282V374.263H75.3438V387.34C75.3438 389.523 74.8021 391.131 73.7188 392.164C72.6439 393.205 70.9639 393.725 68.6787 393.725C66.7998 393.725 65.306 393.357 64.1973 392.621C63.0885 391.893 62.4961 390.882 62.4199 389.587H66.3809C66.4147 390.061 66.6305 390.403 67.0283 390.615C67.4346 390.835 68.0566 390.945 68.8945 390.945ZM68.7803 377.044C67.8324 377.044 67.0918 377.408 66.5586 378.135C66.0254 378.855 65.7588 379.858 65.7588 381.144C65.7588 382.405 66.0254 383.391 66.5586 384.102C67.0918 384.805 67.8281 385.156 68.7676 385.156C69.724 385.156 70.4688 384.796 71.002 384.077C71.5436 383.358 71.8145 382.363 71.8145 381.094C71.8145 379.824 71.5436 378.834 71.002 378.123C70.4688 377.403 69.7282 377.044 68.7803 377.044ZM84.0273 388.431C81.9284 388.431 80.3076 387.784 79.165 386.489C78.0309 385.194 77.4639 383.349 77.4639 380.954C77.4639 378.745 78.0436 377.018 79.2031 375.774C80.3626 374.522 81.9707 373.895 84.0273 373.895C86.1348 373.895 87.7555 374.534 88.8896 375.812C90.0322 377.082 90.6035 378.893 90.6035 381.246C90.6204 381.517 90.5993 381.792 90.54 382.071H81.1328C81.2174 383.163 81.4587 383.98 81.8564 384.521C82.3643 385.198 83.2106 385.537 84.3955 385.537C84.9456 385.537 85.4535 385.38 85.9189 385.067C86.3929 384.754 86.6764 384.377 86.7695 383.937H90.4766C90.1634 385.342 89.4355 386.442 88.293 387.238C87.1589 388.034 85.737 388.431 84.0273 388.431ZM86.8076 379.748C86.723 378.918 86.5029 378.271 86.1475 377.805C85.682 377.188 84.9583 376.879 83.9766 376.879C83.0371 376.879 82.3219 377.238 81.8311 377.958C81.5264 378.415 81.3063 379.011 81.1709 379.748H86.8076ZM100.239 388.076V369.414H102.182H104.137V388.076H102.194H100.239ZM106.308 369.414H108.377H110.446L114.547 383.671L118.635 369.414H120.641H122.659L116.337 388.076H114.483H112.63L106.308 369.414Z" fill="white"/>
<path d="M28.263 397.959C27.351 399.276 26.6353 400.689 26.116 402.196C25.6093 403.691 25.356 405.242 25.356 406.851C25.356 408.434 25.622 409.967 26.154 411.449C26.686 412.931 27.389 414.324 28.263 415.629H27.294C26.7747 414.907 26.3123 414.204 25.907 413.52C25.5017 412.849 25.1597 412.165 24.881 411.468C24.6023 410.759 24.3933 410.024 24.254 409.264C24.1147 408.491 24.045 407.655 24.045 406.756C24.045 405.882 24.1147 405.065 24.254 404.305C24.406 403.532 24.6213 402.791 24.9 402.082C25.1787 401.373 25.5143 400.682 25.907 400.011C26.3123 399.327 26.7747 398.643 27.294 397.959H28.263ZM31.6831 412H30.5431V402.158H31.6831V403.64H31.7211C32.0125 403.07 32.4305 402.639 32.9751 402.348C33.5198 402.044 34.1151 401.892 34.7611 401.892C35.2171 401.892 35.6035 401.943 35.9201 402.044C36.2368 402.145 36.5028 402.285 36.7181 402.462C36.9461 402.627 37.1298 402.823 37.2691 403.051C37.4211 403.279 37.5478 403.526 37.6491 403.792C37.9785 403.146 38.4155 402.671 38.9601 402.367C39.5175 402.05 40.1508 401.892 40.8601 401.892C41.5315 401.892 42.0635 402.006 42.4561 402.234C42.8615 402.449 43.1718 402.741 43.3871 403.108C43.6025 403.463 43.7418 403.874 43.8051 404.343C43.8811 404.812 43.9191 405.293 43.9191 405.787V412H42.7791V405.198C42.7791 404.489 42.6271 403.931 42.3231 403.526C42.0318 403.121 41.4808 402.918 40.6701 402.918C40.2521 402.918 39.8468 403.013 39.4541 403.203C39.0741 403.38 38.7385 403.659 38.4471 404.039C38.3205 404.204 38.2128 404.4 38.1241 404.628C38.0481 404.843 37.9848 405.071 37.9341 405.312C37.8835 405.553 37.8455 405.793 37.8201 406.034C37.8075 406.275 37.8011 406.496 37.8011 406.699V412H36.6611V405.198C36.6611 404.489 36.5091 403.931 36.2051 403.526C35.9138 403.121 35.3628 402.918 34.5521 402.918C34.1341 402.918 33.7288 403.013 33.3361 403.203C32.9561 403.38 32.6205 403.659 32.3291 404.039C32.2025 404.204 32.0948 404.4 32.0061 404.628C31.9301 404.843 31.8668 405.071 31.8161 405.312C31.7655 405.553 31.7275 405.793 31.7021 406.034C31.6895 406.275 31.6831 406.496 31.6831 406.699V412ZM53.6473 406.395C53.6473 405.914 53.5776 405.464 53.4383 405.046C53.3116 404.615 53.1153 404.248 52.8493 403.944C52.596 403.627 52.273 403.38 51.8803 403.203C51.4876 403.013 51.038 402.918 50.5313 402.918C50.0246 402.918 49.575 403.013 49.1823 403.203C48.8023 403.393 48.473 403.646 48.1943 403.963C47.9283 404.28 47.713 404.647 47.5483 405.065C47.3836 405.483 47.276 405.926 47.2253 406.395H53.6473ZM47.2253 407.345C47.2253 407.877 47.295 408.384 47.4343 408.865C47.5736 409.334 47.7763 409.745 48.0423 410.1C48.321 410.442 48.6693 410.721 49.0873 410.936C49.5053 411.139 49.9866 411.24 50.5313 411.24C51.2786 411.24 51.9183 411.044 52.4503 410.651C52.9823 410.258 53.337 409.701 53.5143 408.979H54.7873C54.648 409.448 54.4643 409.885 54.2363 410.29C54.0083 410.683 53.7233 411.031 53.3813 411.335C53.0393 411.626 52.634 411.854 52.1653 412.019C51.6966 412.184 51.152 412.266 50.5313 412.266C49.746 412.266 49.0683 412.133 48.4983 411.867C47.9283 411.601 47.4596 411.24 47.0923 410.784C46.725 410.315 46.4526 409.771 46.2753 409.15C46.098 408.517 46.0093 407.839 46.0093 407.117C46.0093 406.395 46.1106 405.717 46.3133 405.084C46.5286 404.451 46.8263 403.9 47.2063 403.431C47.599 402.95 48.074 402.576 48.6313 402.31C49.1886 402.031 49.822 401.892 50.5313 401.892C51.8866 401.892 52.9506 402.361 53.7233 403.298C54.496 404.223 54.876 405.572 54.8633 407.345H47.2253ZM60.5379 412.038C60.3986 412.063 60.2149 412.108 59.9869 412.171C59.7589 412.234 59.5056 412.266 59.2269 412.266C58.6569 412.266 58.2199 412.127 57.9159 411.848C57.6246 411.557 57.4789 411.044 57.4789 410.309V403.108H56.0919V402.158H57.4789V399.422H58.6189V402.158H60.4619V403.108H58.6189V409.853C58.6189 410.094 58.6252 410.303 58.6379 410.48C58.6506 410.657 58.6886 410.803 58.7519 410.917C58.8152 411.031 58.9102 411.113 59.0369 411.164C59.1762 411.215 59.3662 411.24 59.6069 411.24C59.7589 411.24 59.9109 411.227 60.0629 411.202C60.2276 411.177 60.3859 411.145 60.5379 411.107V412.038ZM68.809 406.832C68.3277 407.035 67.84 407.168 67.346 407.231C66.852 407.294 66.358 407.345 65.864 407.383C64.99 407.446 64.306 407.643 63.812 407.972C63.3307 408.301 63.09 408.802 63.09 409.473C63.09 409.777 63.147 410.043 63.261 410.271C63.3877 410.486 63.546 410.67 63.736 410.822C63.9387 410.961 64.1667 411.069 64.42 411.145C64.686 411.208 64.952 411.24 65.218 411.24C65.674 411.24 66.1173 411.183 66.548 411.069C66.9787 410.955 67.3587 410.784 67.688 410.556C68.03 410.315 68.3023 410.018 68.505 409.663C68.7077 409.296 68.809 408.865 68.809 408.371V406.832ZM66.89 406.262C67.1053 406.237 67.3587 406.199 67.65 406.148C67.954 406.097 68.201 406.028 68.391 405.939C68.581 405.85 68.695 405.705 68.733 405.502C68.7837 405.287 68.809 405.09 68.809 404.913C68.809 404.33 68.619 403.855 68.239 403.488C67.8717 403.108 67.2447 402.918 66.358 402.918C65.9653 402.918 65.6043 402.956 65.275 403.032C64.9457 403.095 64.6543 403.216 64.401 403.393C64.1603 403.558 63.9577 403.786 63.793 404.077C63.641 404.356 63.5397 404.71 63.489 405.141H62.33C62.368 404.558 62.501 404.064 62.729 403.659C62.957 403.241 63.2483 402.905 63.603 402.652C63.9703 402.386 64.3883 402.196 64.857 402.082C65.3383 401.955 65.845 401.892 66.377 401.892C66.871 401.892 67.3333 401.949 67.764 402.063C68.2073 402.164 68.5873 402.335 68.904 402.576C69.2333 402.804 69.4867 403.114 69.664 403.507C69.854 403.9 69.949 404.381 69.949 404.951V410.309C69.949 410.752 70.025 411.037 70.177 411.164C70.3417 411.278 70.6647 411.246 71.146 411.069V411.962C71.0573 411.987 70.9243 412.025 70.747 412.076C70.5823 412.127 70.4177 412.152 70.253 412.152C70.0757 412.152 69.9047 412.133 69.74 412.095C69.55 412.07 69.398 412.013 69.284 411.924C69.17 411.823 69.075 411.709 68.999 411.582C68.9357 411.443 68.8913 411.297 68.866 411.145C68.8407 410.98 68.828 410.809 68.828 410.632C68.3467 411.164 67.7957 411.569 67.175 411.848C66.5543 412.127 65.883 412.266 65.161 412.266C64.7303 412.266 64.3123 412.209 63.907 412.095C63.5143 411.981 63.166 411.804 62.862 411.563C62.558 411.322 62.3173 411.031 62.14 410.689C61.9627 410.334 61.874 409.916 61.874 409.435C61.874 407.763 63.0203 406.775 65.313 406.471L66.89 406.262ZM73.5906 408.922C73.768 409.771 74.0846 410.372 74.5406 410.727C75.0093 411.069 75.6743 411.24 76.5356 411.24C76.9536 411.24 77.3146 411.189 77.6186 411.088C77.9226 410.987 78.1696 410.854 78.3596 410.689C78.5623 410.512 78.7143 410.315 78.8156 410.1C78.917 409.885 78.9676 409.657 78.9676 409.416C78.9676 408.935 78.8093 408.58 78.4926 408.352C78.1886 408.111 77.8023 407.928 77.3336 407.801C76.865 407.662 76.3583 407.548 75.8136 407.459C75.269 407.358 74.7623 407.212 74.2936 407.022C73.825 406.832 73.4323 406.56 73.1156 406.205C72.8116 405.85 72.6596 405.35 72.6596 404.704C72.6596 403.881 72.9573 403.209 73.5526 402.69C74.1606 402.158 75.0156 401.892 76.1176 401.892C77.1816 401.892 78.043 402.133 78.7016 402.614C79.373 403.083 79.7783 403.874 79.9176 404.989H78.7586C78.6573 404.229 78.366 403.697 77.8846 403.393C77.416 403.076 76.8206 402.918 76.0986 402.918C75.3766 402.918 74.8256 403.076 74.4456 403.393C74.0656 403.697 73.8756 404.102 73.8756 404.609C73.8756 405.052 74.0276 405.394 74.3316 405.635C74.6483 405.863 75.041 406.053 75.5096 406.205C75.9783 406.344 76.485 406.471 77.0296 406.585C77.5743 406.699 78.081 406.864 78.5496 407.079C79.0183 407.282 79.4046 407.56 79.7086 407.915C80.0253 408.27 80.1836 408.764 80.1836 409.397C80.1836 409.866 80.0823 410.284 79.8796 410.651C79.677 411.006 79.3983 411.303 79.0436 411.544C78.689 411.785 78.2646 411.962 77.7706 412.076C77.2893 412.203 76.7573 412.266 76.1746 412.266C75.592 412.266 75.0726 412.177 74.6166 412C74.1733 411.835 73.7933 411.601 73.4766 411.297C73.16 410.993 72.913 410.638 72.7356 410.233C72.5583 409.828 72.457 409.391 72.4316 408.922H73.5906ZM85.8836 412.038C85.7443 412.063 85.5606 412.108 85.3326 412.171C85.1046 412.234 84.8513 412.266 84.5726 412.266C84.0026 412.266 83.5656 412.127 83.2616 411.848C82.9703 411.557 82.8246 411.044 82.8246 410.309V403.108H81.4376V402.158H82.8246V399.422H83.9646V402.158H85.8076V403.108H83.9646V409.853C83.9646 410.094 83.971 410.303 83.9836 410.48C83.9963 410.657 84.0343 410.803 84.0976 410.917C84.161 411.031 84.256 411.113 84.3826 411.164C84.522 411.215 84.712 411.24 84.9526 411.24C85.1046 411.24 85.2566 411.227 85.4086 411.202C85.5733 411.177 85.7316 411.145 85.8836 411.107V412.038ZM94.1547 406.832C93.6734 407.035 93.1857 407.168 92.6917 407.231C92.1977 407.294 91.7037 407.345 91.2097 407.383C90.3357 407.446 89.6517 407.643 89.1577 407.972C88.6764 408.301 88.4357 408.802 88.4357 409.473C88.4357 409.777 88.4927 410.043 88.6067 410.271C88.7334 410.486 88.8917 410.67 89.0817 410.822C89.2844 410.961 89.5124 411.069 89.7657 411.145C90.0317 411.208 90.2977 411.24 90.5637 411.24C91.0197 411.24 91.463 411.183 91.8937 411.069C92.3244 410.955 92.7044 410.784 93.0337 410.556C93.3757 410.315 93.648 410.018 93.8507 409.663C94.0534 409.296 94.1547 408.865 94.1547 408.371V406.832ZM92.2357 406.262C92.451 406.237 92.7044 406.199 92.9957 406.148C93.2997 406.097 93.5467 406.028 93.7367 405.939C93.9267 405.85 94.0407 405.705 94.0787 405.502C94.1294 405.287 94.1547 405.09 94.1547 404.913C94.1547 404.33 93.9647 403.855 93.5847 403.488C93.2174 403.108 92.5904 402.918 91.7037 402.918C91.311 402.918 90.95 402.956 90.6207 403.032C90.2914 403.095 90 403.216 89.7467 403.393C89.506 403.558 89.3034 403.786 89.1387 404.077C88.9867 404.356 88.8854 404.71 88.8347 405.141H87.6757C87.7137 404.558 87.8467 404.064 88.0747 403.659C88.3027 403.241 88.594 402.905 88.9487 402.652C89.316 402.386 89.734 402.196 90.2027 402.082C90.684 401.955 91.1907 401.892 91.7227 401.892C92.2167 401.892 92.679 401.949 93.1097 402.063C93.553 402.164 93.933 402.335 94.2497 402.576C94.579 402.804 94.8324 403.114 95.0097 403.507C95.1997 403.9 95.2947 404.381 95.2947 404.951V410.309C95.2947 410.752 95.3707 411.037 95.5227 411.164C95.6874 411.278 96.0104 411.246 96.4917 411.069V411.962C96.403 411.987 96.27 412.025 96.0927 412.076C95.928 412.127 95.7634 412.152 95.5987 412.152C95.4214 412.152 95.2504 412.133 95.0857 412.095C94.8957 412.07 94.7437 412.013 94.6297 411.924C94.5157 411.823 94.4207 411.709 94.3447 411.582C94.2814 411.443 94.237 411.297 94.2117 411.145C94.1864 410.98 94.1737 410.809 94.1737 410.632C93.6924 411.164 93.1414 411.569 92.5207 411.848C91.9 412.127 91.2287 412.266 90.5067 412.266C90.076 412.266 89.658 412.209 89.2527 412.095C88.86 411.981 88.5117 411.804 88.2077 411.563C87.9037 411.322 87.663 411.031 87.4857 410.689C87.3084 410.334 87.2197 409.916 87.2197 409.435C87.2197 407.763 88.366 406.775 90.6587 406.471L92.2357 406.262ZM101.729 412.038C101.59 412.063 101.406 412.108 101.178 412.171C100.95 412.234 100.697 412.266 100.418 412.266C99.8483 412.266 99.4113 412.127 99.1073 411.848C98.816 411.557 98.6703 411.044 98.6703 410.309V403.108H97.2833V402.158H98.6703V399.422H99.8103V402.158H101.653V403.108H99.8103V409.853C99.8103 410.094 99.8167 410.303 99.8293 410.48C99.842 410.657 99.88 410.803 99.9433 410.917C100.007 411.031 100.102 411.113 100.228 411.164C100.368 411.215 100.558 411.24 100.798 411.24C100.95 411.24 101.102 411.227 101.254 411.202C101.419 411.177 101.577 411.145 101.729 411.107V412.038ZM103.73 412V402.158H104.87V412H103.73ZM103.673 400.011V398.32H104.927V400.011H103.673ZM114.744 405.255C114.542 404.52 114.193 403.95 113.699 403.545C113.205 403.127 112.578 402.918 111.818 402.918C111.236 402.918 110.735 403.038 110.317 403.279C109.899 403.52 109.557 403.843 109.291 404.248C109.025 404.641 108.829 405.09 108.702 405.597C108.576 406.091 108.512 406.591 108.512 407.098C108.512 407.617 108.569 408.124 108.683 408.618C108.81 409.112 109.006 409.555 109.272 409.948C109.538 410.341 109.88 410.657 110.298 410.898C110.716 411.126 111.223 411.24 111.818 411.24C112.667 411.24 113.345 411.006 113.851 410.537C114.371 410.068 114.7 409.422 114.839 408.599H116.055C115.954 409.144 115.789 409.644 115.561 410.1C115.346 410.543 115.061 410.93 114.706 411.259C114.364 411.576 113.953 411.823 113.471 412C112.99 412.177 112.439 412.266 111.818 412.266C111.033 412.266 110.355 412.133 109.785 411.867C109.215 411.601 108.747 411.24 108.379 410.784C108.012 410.315 107.74 409.764 107.562 409.131C107.385 408.498 107.296 407.82 107.296 407.098C107.296 406.414 107.391 405.762 107.581 405.141C107.784 404.508 108.075 403.95 108.455 403.469C108.835 402.988 109.304 402.608 109.861 402.329C110.431 402.038 111.084 401.892 111.818 401.892C112.958 401.892 113.877 402.164 114.573 402.709C115.283 403.254 115.726 404.102 115.903 405.255H114.744ZM118.025 415.629C118.937 414.312 119.646 412.906 120.153 411.411C120.672 409.904 120.932 408.346 120.932 406.737C120.932 405.154 120.666 403.621 120.134 402.139C119.602 400.657 118.899 399.264 118.025 397.959H118.994C119.513 398.681 119.976 399.384 120.381 400.068C120.786 400.739 121.122 401.43 121.388 402.139C121.667 402.836 121.876 403.57 122.015 404.343C122.167 405.103 122.243 405.933 122.243 406.832C122.243 407.706 122.167 408.529 122.015 409.302C121.876 410.062 121.667 410.797 121.388 411.506C121.109 412.215 120.767 412.906 120.362 413.577C119.957 414.261 119.501 414.945 118.994 415.629H118.025Z" fill="white"/>
<path d="M495 80H162C154.82 80 149 85.8203 149 93V133C149 140.18 154.82 146 162 146H495C502.18 146 508 140.18 508 133V93C508 85.8203 502.18 80 495 80Z" fill="white" fill-opacity="0.08"/>
<path d="M466 81H162C154.82 81 149 86.8203 149 94V134C149 141.18 154.82 147 162 147H466C473.18 147 479 141.18 479 134V94C479 86.8203 473.18 81 466 81Z" fill="#081D2E" fill-opacity="0.55"/>
<path d="M382 81H162C154.82 81 149 86.8203 149 94V134C149 141.18 154.82 147 162 147H382C389.18 147 395 141.18 395 134V94C395 86.8203 389.18 81 382 81Z" fill="#081D2E"/>
<path d="M829 83H631C623.82 83 618 88.8203 618 96V136C618 143.18 623.82 149 631 149H829C836.18 149 842 143.18 842 136V96C842 88.8203 836.18 83 829 83Z" fill="#071A2C"/>
<path d="M829 83H631C623.82 83 618 88.8203 618 96V136C618 143.18 623.82 149 631 149H829C836.18 149 842 143.18 842 136V96C842 88.8203 836.18 83 829 83Z" fill="#071A2C"/>
<path d="M829 171H631C623.82 171 618 176.82 618 184V224C618 231.18 623.82 237 631 237H829C836.18 237 842 231.18 842 224V184C842 176.82 836.18 171 829 171Z" fill="#8B034F" fill-opacity="0.9"/>
<path d="M829 171H631C623.82 171 618 176.82 618 184V224C618 231.18 623.82 237 631 237H829C836.18 237 842 231.18 842 224V184C842 176.82 836.18 171 829 171Z" fill="#3C1053"/>
<path d="M829 259H631C623.82 259 618 264.82 618 272V312C618 319.18 623.82 325 631 325H829C836.18 325 842 319.18 842 312V272C842 264.82 836.18 259 829 259Z" fill="#8B034F" fill-opacity="0.94"/>
<path d="M829 259H631C623.82 259 618 264.82 618 272V312C618 319.18 623.82 325 631 325H829C836.18 325 842 319.18 842 312V272C842 264.82 836.18 259 829 259Z" fill="#8B034F" fill-opacity="0.94"/>
<path d="M829 347H631C623.82 347 618 352.82 618 360V400C618 407.18 623.82 413 631 413H829C836.18 413 842 407.18 842 400V360C842 352.82 836.18 347 829 347Z" fill="#354F59"/>
<path d="M829 347H631C623.82 347 618 352.82 618 360V400C618 407.18 623.82 413 631 413H829C836.18 413 842 407.18 842 400V360C842 352.82 836.18 347 829 347Z" fill="#354F59"/>
<path d="M495 170H162C154.82 170 149 175.82 149 183V223C149 230.18 154.82 236 162 236H495C502.18 236 508 230.18 508 223V183C508 175.82 502.18 170 495 170Z" fill="white" fill-opacity="0.08"/>
<path d="M300 171H162C154.82 171 149 176.82 149 184V224C149 231.18 154.82 237 162 237H300C307.18 237 313 231.18 313 224V184C313 176.82 307.18 171 300 171Z" fill="#3C1053"/>
<path d="M162 171H336C339.448 171 342.754 172.37 345.192 174.808C347.63 177.246 349 180.552 349 184V224C349 227.448 347.63 230.754 345.192 233.192C342.754 235.63 339.448 237 336 237H162C158.552 237 155.246 235.63 152.808 233.192C150.37 230.754 149 227.448 149 224V184C149 180.552 150.37 177.246 152.808 174.808C155.246 172.37 158.552 171 162 171V171Z" fill="#3C1053" fill-opacity="0.49"/>
<path d="M495 260H162C154.82 260 149 265.82 149 273V313C149 320.18 154.82 326 162 326H495C502.18 326 508 320.18 508 313V273C508 265.82 502.18 260 495 260Z" fill="white" fill-opacity="0.08"/>
<path d="M280 261H162C154.82 261 149 266.82 149 274V314C149 321.18 154.82 327 162 327H280C287.18 327 293 321.18 293 314V274C293 266.82 287.18 261 280 261Z" fill="#8B034F" fill-opacity="0.67"/>
<path d="M193 261H162C154.82 261 149 266.82 149 274V314C149 321.18 154.82 327 162 327H193C200.18 327 206 321.18 206 314V274C206 266.82 200.18 261 193 261Z" fill="#8B034F" fill-opacity="0.94"/>
<path d="M495 350H162C154.82 350 149 355.82 149 363V403C149 410.18 154.82 416 162 416H495C502.18 416 508 410.18 508 403V363C508 355.82 502.18 350 495 350Z" fill="white" fill-opacity="0.08"/>
<path d="M194 351H162C154.82 351 149 356.82 149 364V404C149 411.18 154.82 417 162 417H194C201.18 417 207 411.18 207 404V364C207 356.82 201.18 351 194 351Z" fill="#C5D72D" fill-opacity="0.3"/>
<path d="M194 351H162C154.82 351 149 356.82 149 364V404C149 411.18 154.82 417 162 417H194C201.18 417 207 411.18 207 404V364C207 356.82 201.18 351 194 351Z" fill="#354F59"/>
<path d="M187.795 106.49C189.327 106.49 190.584 106.935 191.565 107.823C192.547 108.712 193.072 109.88 193.14 111.327H189.547C189.555 110.752 189.386 110.29 189.039 109.943C188.701 109.596 188.243 109.423 187.668 109.423H187.516C186.424 109.414 185.62 109.939 185.104 110.997C184.697 111.818 184.452 113.016 184.367 114.59C185.349 113.557 186.534 113.041 187.922 113.041C189.564 113.041 190.905 113.608 191.946 114.742C192.996 115.868 193.521 117.315 193.521 119.084C193.521 120.963 192.924 122.499 191.73 123.692C190.546 124.886 189.022 125.482 187.16 125.482C185.078 125.482 183.495 124.704 182.412 123.146C181.337 121.581 180.8 119.296 180.8 116.291C180.8 112.982 181.396 110.493 182.59 108.826C183.699 107.26 185.307 106.478 187.414 106.478L187.795 106.49ZM184.431 119.173C184.431 120.146 184.689 120.954 185.205 121.598C185.73 122.241 186.382 122.562 187.16 122.562C188.049 122.562 188.726 122.275 189.191 121.699C189.657 121.124 189.89 120.282 189.89 119.173C189.89 118.208 189.64 117.434 189.141 116.85C188.641 116.257 187.981 115.961 187.16 115.961C186.339 115.961 185.679 116.257 185.18 116.85C184.68 117.434 184.431 118.208 184.431 119.173ZM205.2 115.174C205.606 115.377 205.987 115.622 206.343 115.91C207.511 116.867 208.095 118.132 208.095 119.706C208.095 121.441 207.507 122.838 206.33 123.896C205.162 124.953 203.618 125.482 201.696 125.482C199.784 125.482 198.239 124.953 197.062 123.896C195.895 122.838 195.311 121.441 195.311 119.706C195.311 118.132 195.899 116.862 197.075 115.897C197.414 115.61 197.786 115.373 198.192 115.187L197.481 114.717C196.415 113.913 195.882 112.855 195.882 111.543C195.882 110.028 196.415 108.809 197.481 107.887C198.548 106.956 199.953 106.49 201.696 106.49C203.44 106.49 204.845 106.956 205.911 107.887C206.978 108.809 207.511 110.028 207.511 111.543C207.511 112.855 206.978 113.913 205.911 114.717C205.683 114.886 205.446 115.038 205.2 115.174ZM201.696 114.069C202.399 114.069 202.957 113.866 203.372 113.46C203.787 113.045 203.994 112.487 203.994 111.784C203.994 111.065 203.787 110.493 203.372 110.07C202.957 109.647 202.399 109.436 201.696 109.436C200.994 109.436 200.435 109.647 200.021 110.07C199.606 110.493 199.398 111.065 199.398 111.784C199.398 112.487 199.606 113.045 200.021 113.46C200.435 113.866 200.994 114.069 201.696 114.069ZM201.696 116.786C200.884 116.786 200.241 117.049 199.767 117.573C199.293 118.098 199.056 118.805 199.056 119.693C199.056 120.565 199.293 121.259 199.767 121.775C200.241 122.283 200.884 122.537 201.696 122.537C202.509 122.537 203.152 122.283 203.626 121.775C204.108 121.259 204.35 120.565 204.35 119.693C204.35 118.805 204.108 118.098 203.626 117.573C203.152 117.049 202.509 116.786 201.696 116.786ZM208.945 116.316H223.393V119.122H208.945V116.316ZM229.956 125.482C228.407 125.482 227.138 125.038 226.147 124.149C225.166 123.261 224.641 122.093 224.573 120.646H228.166C228.158 121.221 228.327 121.682 228.674 122.029C229.029 122.376 229.499 122.55 230.083 122.55H230.261C231.344 122.558 232.148 122.038 232.673 120.988C233.079 120.167 233.333 118.961 233.435 117.37C232.427 118.411 231.226 118.932 229.829 118.932C228.179 118.932 226.825 118.369 225.767 117.243C224.717 116.109 224.192 114.658 224.192 112.889C224.192 111.01 224.789 109.474 225.982 108.28C227.176 107.087 228.712 106.49 230.591 106.49C232.681 106.49 234.268 107.273 235.352 108.839C236.443 110.396 236.989 112.677 236.989 115.682C236.989 118.991 236.388 121.479 235.187 123.146C234.069 124.712 232.453 125.495 230.337 125.495L229.956 125.482ZM233.358 112.8C233.358 111.826 233.096 111.018 232.571 110.375C232.047 109.732 231.386 109.41 230.591 109.41C229.685 109.41 228.995 109.698 228.521 110.273C228.056 110.849 227.823 111.691 227.823 112.8C227.823 113.765 228.077 114.543 228.585 115.136C229.093 115.72 229.761 116.012 230.591 116.012C231.42 116.012 232.089 115.715 232.597 115.123C233.104 114.539 233.358 113.765 233.358 112.8ZM251.183 112.305C251.183 113.71 250.853 114.873 250.192 115.796C249.541 116.718 248.313 117.755 246.511 118.906C244.843 119.964 243.705 120.921 243.096 121.775L243.083 121.801H251.183V125H238.563C238.563 123.307 238.991 121.856 239.846 120.646C240.701 119.435 242.309 118.001 244.67 116.342C245.728 115.605 246.473 114.933 246.904 114.323C247.336 113.705 247.552 113.02 247.552 112.267C247.552 111.446 247.315 110.785 246.841 110.286C246.367 109.787 245.741 109.537 244.962 109.537C244.132 109.537 243.485 109.85 243.02 110.477C242.554 111.103 242.338 111.953 242.372 113.028H238.805C238.745 111.022 239.27 109.431 240.379 108.255C241.496 107.078 243.032 106.49 244.987 106.49C246.807 106.49 248.297 107.032 249.456 108.115C250.607 109.199 251.183 110.595 251.183 112.305ZM257.81 115.999C256.489 115.999 255.372 115.55 254.458 114.653C253.544 113.748 253.087 112.639 253.087 111.327C253.087 109.99 253.544 108.86 254.458 107.938C255.372 107.007 256.489 106.541 257.81 106.541C259.13 106.541 260.247 107.007 261.161 107.938C262.075 108.86 262.532 109.99 262.532 111.327C262.532 112.639 262.075 113.748 261.161 114.653C260.247 115.55 259.13 115.999 257.81 115.999ZM257.81 109.207C257.226 109.207 256.739 109.406 256.35 109.804C255.969 110.201 255.778 110.701 255.778 111.302C255.778 111.886 255.969 112.372 256.35 112.762C256.739 113.143 257.226 113.333 257.81 113.333C258.394 113.333 258.876 113.143 259.257 112.762C259.646 112.372 259.841 111.886 259.841 111.302C259.841 110.701 259.646 110.201 259.257 109.804C258.876 109.406 258.394 109.207 257.81 109.207ZM257.797 125.508L268.144 106.541H270.048L259.701 125.508H257.797ZM270.035 125.14C268.715 125.14 267.598 124.691 266.684 123.794C265.77 122.888 265.312 121.78 265.312 120.468C265.312 119.131 265.77 118.001 266.684 117.078C267.598 116.147 268.715 115.682 270.035 115.682C271.355 115.682 272.473 116.147 273.387 117.078C274.301 118.001 274.758 119.131 274.758 120.468C274.758 121.78 274.301 122.888 273.387 123.794C272.473 124.691 271.355 125.14 270.035 125.14ZM270.035 118.348C269.451 118.348 268.965 118.547 268.575 118.944C268.194 119.342 268.004 119.841 268.004 120.442C268.004 121.026 268.194 121.513 268.575 121.902C268.965 122.283 269.451 122.474 270.035 122.474C270.619 122.474 271.102 122.283 271.482 121.902C271.872 121.513 272.066 121.026 272.066 120.442C272.066 119.841 271.872 119.342 271.482 118.944C271.102 118.547 270.619 118.348 270.035 118.348Z" fill="white"/>
<path d="M719.292 112.305C719.292 113.71 718.962 114.873 718.302 115.796C717.65 116.718 716.423 117.755 714.62 118.906C712.953 119.964 711.814 120.921 711.205 121.775L711.192 121.801H719.292V125H706.673C706.673 123.307 707.1 121.856 707.955 120.646C708.81 119.435 710.418 118.001 712.779 116.342C713.837 115.605 714.582 114.933 715.014 114.323C715.445 113.705 715.661 113.02 715.661 112.267C715.661 111.446 715.424 110.785 714.95 110.286C714.476 109.787 713.85 109.537 713.071 109.537C712.242 109.537 711.594 109.85 711.129 110.477C710.663 111.103 710.448 111.953 710.481 113.028H706.914C706.855 111.022 707.38 109.431 708.488 108.255C709.605 107.078 711.142 106.49 713.097 106.49C714.916 106.49 716.406 107.032 717.565 108.115C718.716 109.199 719.292 110.595 719.292 112.305ZM727.011 125.482C725.462 125.482 724.192 125.038 723.202 124.149C722.22 123.261 721.696 122.093 721.628 120.646H725.221C725.212 121.221 725.382 121.682 725.729 122.029C726.084 122.376 726.554 122.55 727.138 122.55H727.315C728.399 122.558 729.203 122.038 729.728 120.988C730.134 120.167 730.388 118.961 730.489 117.37C729.482 118.411 728.28 118.932 726.884 118.932C725.233 118.932 723.879 118.369 722.821 117.243C721.772 116.109 721.247 114.658 721.247 112.889C721.247 111.01 721.844 109.474 723.037 108.28C724.23 107.087 725.767 106.49 727.646 106.49C729.736 106.49 731.323 107.273 732.406 108.839C733.498 110.396 734.044 112.677 734.044 115.682C734.044 118.991 733.443 121.479 732.241 123.146C731.124 124.712 729.507 125.495 727.392 125.495L727.011 125.482ZM730.413 112.8C730.413 111.826 730.151 111.018 729.626 110.375C729.101 109.732 728.441 109.41 727.646 109.41C726.74 109.41 726.05 109.698 725.576 110.273C725.111 110.849 724.878 111.691 724.878 112.8C724.878 113.765 725.132 114.543 725.64 115.136C726.147 115.72 726.816 116.012 727.646 116.012C728.475 116.012 729.144 115.715 729.651 115.123C730.159 114.539 730.413 113.765 730.413 112.8ZM740.392 115.999C739.071 115.999 737.954 115.55 737.04 114.653C736.126 113.748 735.669 112.639 735.669 111.327C735.669 109.99 736.126 108.86 737.04 107.938C737.954 107.007 739.071 106.541 740.392 106.541C741.712 106.541 742.829 107.007 743.743 107.938C744.657 108.86 745.114 109.99 745.114 111.327C745.114 112.639 744.657 113.748 743.743 114.653C742.829 115.55 741.712 115.999 740.392 115.999ZM740.392 109.207C739.808 109.207 739.321 109.406 738.932 109.804C738.551 110.201 738.36 110.701 738.36 111.302C738.36 111.886 738.551 112.372 738.932 112.762C739.321 113.143 739.808 113.333 740.392 113.333C740.976 113.333 741.458 113.143 741.839 112.762C742.228 112.372 742.423 111.886 742.423 111.302C742.423 110.701 742.228 110.201 741.839 109.804C741.458 109.406 740.976 109.207 740.392 109.207ZM740.379 125.508L750.726 106.541H752.63L742.283 125.508H740.379ZM752.617 125.14C751.297 125.14 750.18 124.691 749.266 123.794C748.352 122.888 747.895 121.78 747.895 120.468C747.895 119.131 748.352 118.001 749.266 117.078C750.18 116.147 751.297 115.682 752.617 115.682C753.938 115.682 755.055 116.147 755.969 117.078C756.883 118.001 757.34 119.131 757.34 120.468C757.34 121.78 756.883 122.888 755.969 123.794C755.055 124.691 753.938 125.14 752.617 125.14ZM752.617 118.348C752.033 118.348 751.547 118.547 751.157 118.944C750.776 119.342 750.586 119.841 750.586 120.442C750.586 121.026 750.776 121.513 751.157 121.902C751.547 122.283 752.033 122.474 752.617 122.474C753.201 122.474 753.684 122.283 754.064 121.902C754.454 121.513 754.648 121.026 754.648 120.442C754.648 119.841 754.454 119.342 754.064 118.944C753.684 118.547 753.201 118.348 752.617 118.348Z" fill="white"/>
<path d="M712.233 213V200.241H707.79V197.639C708.924 197.698 709.94 197.448 710.837 196.89C711.743 196.331 712.428 195.531 712.894 194.49H715.877V213H714.062H712.233ZM726.706 213V200.241H722.263V197.639C723.397 197.698 724.412 197.448 725.31 196.89C726.215 196.331 726.901 195.531 727.366 194.49H730.35V213H728.534H726.706ZM740.392 203.999C739.071 203.999 737.954 203.55 737.04 202.653C736.126 201.748 735.669 200.639 735.669 199.327C735.669 197.99 736.126 196.86 737.04 195.938C737.954 195.007 739.071 194.541 740.392 194.541C741.712 194.541 742.829 195.007 743.743 195.938C744.657 196.86 745.114 197.99 745.114 199.327C745.114 200.639 744.657 201.748 743.743 202.653C742.829 203.55 741.712 203.999 740.392 203.999ZM740.392 197.207C739.808 197.207 739.321 197.406 738.932 197.804C738.551 198.201 738.36 198.701 738.36 199.302C738.36 199.886 738.551 200.372 738.932 200.762C739.321 201.143 739.808 201.333 740.392 201.333C740.976 201.333 741.458 201.143 741.839 200.762C742.228 200.372 742.423 199.886 742.423 199.302C742.423 198.701 742.228 198.201 741.839 197.804C741.458 197.406 740.976 197.207 740.392 197.207ZM740.379 213.508L750.726 194.541H752.63L742.283 213.508H740.379ZM752.617 213.14C751.297 213.14 750.18 212.691 749.266 211.794C748.352 210.888 747.895 209.78 747.895 208.468C747.895 207.131 748.352 206.001 749.266 205.078C750.18 204.147 751.297 203.682 752.617 203.682C753.938 203.682 755.055 204.147 755.969 205.078C756.883 206.001 757.34 207.131 757.34 208.468C757.34 209.78 756.883 210.888 755.969 211.794C755.055 212.691 753.938 213.14 752.617 213.14ZM752.617 206.348C752.033 206.348 751.547 206.547 751.157 206.944C750.776 207.342 750.586 207.841 750.586 208.442C750.586 209.026 750.776 209.513 751.157 209.902C751.547 210.283 752.033 210.474 752.617 210.474C753.201 210.474 753.684 210.283 754.064 209.902C754.454 209.513 754.648 209.026 754.648 208.442C754.648 207.841 754.454 207.342 754.064 206.944C753.684 206.547 753.201 206.348 752.617 206.348Z" fill="white"/>
<path d="M712.233 301V288.241H707.79V285.639C708.924 285.698 709.94 285.448 710.837 284.89C711.743 284.331 712.428 283.531 712.894 282.49H715.877V301H714.062H712.233ZM723.735 301C724.006 298.224 724.759 295.478 725.995 292.761C727.146 290.23 728.581 287.996 730.299 286.058H721.12V282.858H734.209V284.229V285.613C732.33 287.661 730.798 290.048 729.613 292.773C728.428 295.49 727.717 298.232 727.48 301H723.735ZM740.392 291.999C739.071 291.999 737.954 291.55 737.04 290.653C736.126 289.748 735.669 288.639 735.669 287.327C735.669 285.99 736.126 284.86 737.04 283.938C737.954 283.007 739.071 282.541 740.392 282.541C741.712 282.541 742.829 283.007 743.743 283.938C744.657 284.86 745.114 285.99 745.114 287.327C745.114 288.639 744.657 289.748 743.743 290.653C742.829 291.55 741.712 291.999 740.392 291.999ZM740.392 285.207C739.808 285.207 739.321 285.406 738.932 285.804C738.551 286.201 738.36 286.701 738.36 287.302C738.36 287.886 738.551 288.372 738.932 288.762C739.321 289.143 739.808 289.333 740.392 289.333C740.976 289.333 741.458 289.143 741.839 288.762C742.228 288.372 742.423 287.886 742.423 287.302C742.423 286.701 742.228 286.201 741.839 285.804C741.458 285.406 740.976 285.207 740.392 285.207ZM740.379 301.508L750.726 282.541H752.63L742.283 301.508H740.379ZM752.617 301.14C751.297 301.14 750.18 300.691 749.266 299.794C748.352 298.888 747.895 297.78 747.895 296.468C747.895 295.131 748.352 294.001 749.266 293.078C750.18 292.147 751.297 291.682 752.617 291.682C753.938 291.682 755.055 292.147 755.969 293.078C756.883 294.001 757.34 295.131 757.34 296.468C757.34 297.78 756.883 298.888 755.969 299.794C755.055 300.691 753.938 301.14 752.617 301.14ZM752.617 294.348C752.033 294.348 751.547 294.547 751.157 294.944C750.776 295.342 750.586 295.841 750.586 296.442C750.586 297.026 750.776 297.513 751.157 297.902C751.547 298.283 752.033 298.474 752.617 298.474C753.201 298.474 753.684 298.283 754.064 297.902C754.454 297.513 754.648 297.026 754.648 296.442C754.648 295.841 754.454 295.342 754.064 294.944C753.684 294.547 753.201 294.348 752.617 294.348Z" fill="white"/>
<path d="M719.419 385.894C719.419 387.916 718.81 389.52 717.591 390.705C716.381 391.89 714.739 392.482 712.665 392.482C711.015 392.482 709.652 392 708.577 391.035C707.502 390.062 706.876 388.746 706.698 387.087H710.354C710.448 387.908 710.718 388.534 711.167 388.966C711.616 389.389 712.229 389.601 713.008 389.601C713.803 389.601 714.447 389.292 714.938 388.674C715.428 388.056 715.674 387.243 715.674 386.236C715.674 385.204 715.424 384.374 714.925 383.748C714.425 383.113 713.77 382.796 712.957 382.796C712.449 382.796 711.975 382.91 711.535 383.139C711.104 383.367 710.769 383.676 710.532 384.065L707.333 383.913L708.539 373.858H718.657V376.943H711.154L710.52 380.866C711.535 380.231 712.635 379.914 713.82 379.914C715.462 379.914 716.808 380.473 717.857 381.59C718.898 382.707 719.419 384.142 719.419 385.894ZM731.2 382.174C731.606 382.377 731.987 382.622 732.343 382.91C733.511 383.867 734.095 385.132 734.095 386.706C734.095 388.441 733.507 389.838 732.33 390.896C731.162 391.953 729.618 392.482 727.696 392.482C725.784 392.482 724.239 391.953 723.062 390.896C721.895 389.838 721.311 388.441 721.311 386.706C721.311 385.132 721.899 383.862 723.075 382.897C723.414 382.61 723.786 382.373 724.192 382.187L723.481 381.717C722.415 380.913 721.882 379.855 721.882 378.543C721.882 377.028 722.415 375.809 723.481 374.887C724.548 373.956 725.953 373.49 727.696 373.49C729.44 373.49 730.845 373.956 731.911 374.887C732.978 375.809 733.511 377.028 733.511 378.543C733.511 379.855 732.978 380.913 731.911 381.717C731.683 381.886 731.446 382.038 731.2 382.174ZM727.696 381.069C728.399 381.069 728.957 380.866 729.372 380.46C729.787 380.045 729.994 379.487 729.994 378.784C729.994 378.065 729.787 377.493 729.372 377.07C728.957 376.647 728.399 376.436 727.696 376.436C726.994 376.436 726.435 376.647 726.021 377.07C725.606 377.493 725.398 378.065 725.398 378.784C725.398 379.487 725.606 380.045 726.021 380.46C726.435 380.866 726.994 381.069 727.696 381.069ZM727.696 383.786C726.884 383.786 726.241 384.049 725.767 384.573C725.293 385.098 725.056 385.805 725.056 386.693C725.056 387.565 725.293 388.259 725.767 388.775C726.241 389.283 726.884 389.537 727.696 389.537C728.509 389.537 729.152 389.283 729.626 388.775C730.108 388.259 730.35 387.565 730.35 386.693C730.35 385.805 730.108 385.098 729.626 384.573C729.152 384.049 728.509 383.786 727.696 383.786ZM740.392 382.999C739.071 382.999 737.954 382.55 737.04 381.653C736.126 380.748 735.669 379.639 735.669 378.327C735.669 376.99 736.126 375.86 737.04 374.938C737.954 374.007 739.071 373.541 740.392 373.541C741.712 373.541 742.829 374.007 743.743 374.938C744.657 375.86 745.114 376.99 745.114 378.327C745.114 379.639 744.657 380.748 743.743 381.653C742.829 382.55 741.712 382.999 740.392 382.999ZM740.392 376.207C739.808 376.207 739.321 376.406 738.932 376.804C738.551 377.201 738.36 377.701 738.36 378.302C738.36 378.886 738.551 379.372 738.932 379.762C739.321 380.143 739.808 380.333 740.392 380.333C740.976 380.333 741.458 380.143 741.839 379.762C742.228 379.372 742.423 378.886 742.423 378.302C742.423 377.701 742.228 377.201 741.839 376.804C741.458 376.406 740.976 376.207 740.392 376.207ZM740.379 392.508L750.726 373.541H752.63L742.283 392.508H740.379ZM752.617 392.14C751.297 392.14 750.18 391.691 749.266 390.794C748.352 389.888 747.895 388.78 747.895 387.468C747.895 386.131 748.352 385.001 749.266 384.078C750.18 383.147 751.297 382.682 752.617 382.682C753.938 382.682 755.055 383.147 755.969 384.078C756.883 385.001 757.34 386.131 757.34 387.468C757.34 388.78 756.883 389.888 755.969 390.794C755.055 391.691 753.938 392.14 752.617 392.14ZM752.617 385.348C752.033 385.348 751.547 385.547 751.157 385.944C750.776 386.342 750.586 386.841 750.586 387.442C750.586 388.026 750.776 388.513 751.157 388.902C751.547 389.283 752.033 389.474 752.617 389.474C753.201 389.474 753.684 389.283 754.064 388.902C754.454 388.513 754.648 388.026 754.648 387.442C754.648 386.841 754.454 386.342 754.064 385.944C753.684 385.547 753.201 385.348 752.617 385.348Z" fill="white"/>
<path d="M193.419 206.894C193.419 208.916 192.81 210.52 191.591 211.705C190.381 212.89 188.739 213.482 186.665 213.482C185.015 213.482 183.652 213 182.577 212.035C181.502 211.062 180.876 209.746 180.698 208.087H184.354C184.448 208.908 184.718 209.534 185.167 209.966C185.616 210.389 186.229 210.601 187.008 210.601C187.803 210.601 188.447 210.292 188.938 209.674C189.428 209.056 189.674 208.243 189.674 207.236C189.674 206.204 189.424 205.374 188.925 204.748C188.425 204.113 187.77 203.796 186.957 203.796C186.449 203.796 185.975 203.91 185.535 204.139C185.104 204.367 184.769 204.676 184.532 205.065L181.333 204.913L182.539 194.858H192.657V197.943H185.154L184.52 201.866C185.535 201.231 186.635 200.914 187.82 200.914C189.462 200.914 190.808 201.473 191.857 202.59C192.898 203.707 193.419 205.142 193.419 206.894ZM203.702 199.886C203.702 199.166 203.495 198.587 203.08 198.146C202.665 197.698 202.115 197.474 201.43 197.474C200.634 197.474 200.016 197.728 199.576 198.235C199.145 198.735 198.92 199.45 198.903 200.381H195.552C195.577 198.493 196.119 197.042 197.177 196.026C198.243 195.002 199.741 194.49 201.671 194.49C203.33 194.49 204.688 194.973 205.746 195.938C206.804 196.902 207.333 198.142 207.333 199.657C207.333 200.969 206.783 202.044 205.683 202.882L205.188 203.212C205.611 203.373 205.983 203.584 206.305 203.847C207.363 204.668 207.892 205.903 207.892 207.554C207.892 209.373 207.316 210.816 206.165 211.883C205.022 212.949 203.478 213.482 201.531 213.482C199.525 213.482 197.968 212.958 196.859 211.908C195.759 210.85 195.196 209.348 195.171 207.401H198.713C198.73 208.442 198.963 209.238 199.411 209.788C199.868 210.33 200.524 210.601 201.379 210.601C202.208 210.601 202.877 210.326 203.385 209.775C203.893 209.225 204.146 208.502 204.146 207.604C204.146 206.817 203.893 206.183 203.385 205.7C202.936 205.285 202.369 205.053 201.684 205.002C201.303 204.977 200.947 204.964 200.617 204.964C200.296 204.955 200.088 204.964 199.995 204.989V202.298C200.097 202.315 200.312 202.319 200.643 202.311C200.973 202.294 201.324 202.264 201.696 202.222C202.272 202.154 202.729 201.955 203.067 201.625C203.491 201.219 203.702 200.639 203.702 199.886ZM208.945 204.316H223.393V207.122H208.945V204.316ZM231.213 194.49C232.745 194.49 234.002 194.935 234.983 195.823C235.965 196.712 236.49 197.88 236.558 199.327H232.965C232.973 198.752 232.804 198.29 232.457 197.943C232.118 197.596 231.661 197.423 231.086 197.423H230.934C229.842 197.414 229.038 197.939 228.521 198.997C228.115 199.818 227.87 201.016 227.785 202.59C228.767 201.557 229.952 201.041 231.34 201.041C232.982 201.041 234.323 201.608 235.364 202.742C236.414 203.868 236.938 205.315 236.938 207.084C236.938 208.963 236.342 210.499 235.148 211.692C233.964 212.886 232.44 213.482 230.578 213.482C228.496 213.482 226.913 212.704 225.83 211.146C224.755 209.581 224.218 207.296 224.218 204.291C224.218 200.982 224.814 198.493 226.008 196.826C227.117 195.26 228.725 194.478 230.832 194.478L231.213 194.49ZM227.849 207.173C227.849 208.146 228.107 208.954 228.623 209.598C229.148 210.241 229.799 210.562 230.578 210.562C231.467 210.562 232.144 210.275 232.609 209.699C233.075 209.124 233.308 208.282 233.308 207.173C233.308 206.208 233.058 205.434 232.559 204.85C232.059 204.257 231.399 203.961 230.578 203.961C229.757 203.961 229.097 204.257 228.598 204.85C228.098 205.434 227.849 206.208 227.849 207.173ZM245.114 213.482C242.948 213.482 241.344 212.716 240.303 211.185C239.262 209.644 238.737 207.279 238.729 204.088C238.737 200.821 239.262 198.405 240.303 196.839C241.344 195.273 242.948 194.49 245.114 194.49C247.298 194.49 248.91 195.273 249.951 196.839C250.992 198.405 251.513 200.791 251.513 203.999V204.088C251.521 207.279 251.001 209.644 249.951 211.185C248.91 212.716 247.298 213.482 245.114 213.482ZM245.114 210.537C246.088 210.537 246.773 210.05 247.171 209.077C247.569 208.104 247.768 206.432 247.768 204.062C247.776 201.633 247.577 199.924 247.171 198.934C246.773 197.935 246.088 197.436 245.114 197.436C244.149 197.436 243.468 197.935 243.07 198.934C242.681 199.924 242.482 201.633 242.474 204.062C242.474 206.432 242.673 208.104 243.07 209.077C243.468 210.05 244.149 210.537 245.114 210.537ZM257.81 203.999C256.489 203.999 255.372 203.55 254.458 202.653C253.544 201.748 253.087 200.639 253.087 199.327C253.087 197.99 253.544 196.86 254.458 195.938C255.372 195.007 256.489 194.541 257.81 194.541C259.13 194.541 260.247 195.007 261.161 195.938C262.075 196.86 262.532 197.99 262.532 199.327C262.532 200.639 262.075 201.748 261.161 202.653C260.247 203.55 259.13 203.999 257.81 203.999ZM257.81 197.207C257.226 197.207 256.739 197.406 256.35 197.804C255.969 198.201 255.778 198.701 255.778 199.302C255.778 199.886 255.969 200.372 256.35 200.762C256.739 201.143 257.226 201.333 257.81 201.333C258.394 201.333 258.876 201.143 259.257 200.762C259.646 200.372 259.841 199.886 259.841 199.302C259.841 198.701 259.646 198.201 259.257 197.804C258.876 197.406 258.394 197.207 257.81 197.207ZM257.797 213.508L268.144 194.541H270.048L259.701 213.508H257.797ZM270.035 213.14C268.715 213.14 267.598 212.691 266.684 211.794C265.77 210.888 265.312 209.78 265.312 208.468C265.312 207.131 265.77 206.001 266.684 205.078C267.598 204.147 268.715 203.682 270.035 203.682C271.355 203.682 272.473 204.147 273.387 205.078C274.301 206.001 274.758 207.131 274.758 208.468C274.758 209.78 274.301 210.888 273.387 211.794C272.473 212.691 271.355 213.14 270.035 213.14ZM270.035 206.348C269.451 206.348 268.965 206.547 268.575 206.944C268.194 207.342 268.004 207.841 268.004 208.442C268.004 209.026 268.194 209.513 268.575 209.902C268.965 210.283 269.451 210.474 270.035 210.474C270.619 210.474 271.102 210.283 271.482 209.902C271.872 209.513 272.066 209.026 272.066 208.442C272.066 207.841 271.872 207.342 271.482 206.944C271.102 206.547 270.619 206.348 270.035 206.348Z" fill="white"/>
<path d="M186.233 303V290.241H181.79V287.639C182.924 287.698 183.94 287.448 184.837 286.89C185.743 286.331 186.428 285.531 186.894 284.49H189.877V303H188.062H186.233ZM203.702 289.886C203.702 289.166 203.495 288.587 203.08 288.146C202.665 287.698 202.115 287.474 201.43 287.474C200.634 287.474 200.016 287.728 199.576 288.235C199.145 288.735 198.92 289.45 198.903 290.381H195.552C195.577 288.493 196.119 287.042 197.177 286.026C198.243 285.002 199.741 284.49 201.671 284.49C203.33 284.49 204.688 284.973 205.746 285.938C206.804 286.902 207.333 288.142 207.333 289.657C207.333 290.969 206.783 292.044 205.683 292.882L205.188 293.212C205.611 293.373 205.983 293.584 206.305 293.847C207.363 294.668 207.892 295.903 207.892 297.554C207.892 299.373 207.316 300.816 206.165 301.883C205.022 302.949 203.478 303.482 201.531 303.482C199.525 303.482 197.968 302.958 196.859 301.908C195.759 300.85 195.196 299.348 195.171 297.401H198.713C198.73 298.442 198.963 299.238 199.411 299.788C199.868 300.33 200.524 300.601 201.379 300.601C202.208 300.601 202.877 300.326 203.385 299.775C203.893 299.225 204.146 298.502 204.146 297.604C204.146 296.817 203.893 296.183 203.385 295.7C202.936 295.285 202.369 295.053 201.684 295.002C201.303 294.977 200.947 294.964 200.617 294.964C200.296 294.955 200.088 294.964 199.995 294.989V292.298C200.097 292.315 200.312 292.319 200.643 292.311C200.973 292.294 201.324 292.264 201.696 292.222C202.272 292.154 202.729 291.955 203.067 291.625C203.491 291.219 203.702 290.639 203.702 289.886ZM208.945 294.316H223.393V297.122H208.945V294.316ZM232.647 289.886C232.647 289.166 232.44 288.587 232.025 288.146C231.611 287.698 231.061 287.474 230.375 287.474C229.579 287.474 228.962 287.728 228.521 288.235C228.09 288.735 227.866 289.45 227.849 290.381H224.497C224.522 288.493 225.064 287.042 226.122 286.026C227.188 285.002 228.687 284.49 230.616 284.49C232.275 284.49 233.633 284.973 234.691 285.938C235.749 286.902 236.278 288.142 236.278 289.657C236.278 290.969 235.728 292.044 234.628 292.882L234.133 293.212C234.556 293.373 234.928 293.584 235.25 293.847C236.308 294.668 236.837 295.903 236.837 297.554C236.837 299.373 236.261 300.816 235.11 301.883C233.968 302.949 232.423 303.482 230.477 303.482C228.471 303.482 226.913 302.958 225.805 301.908C224.704 300.85 224.142 299.348 224.116 297.401H227.658C227.675 298.442 227.908 299.238 228.356 299.788C228.813 300.33 229.469 300.601 230.324 300.601C231.154 300.601 231.822 300.326 232.33 299.775C232.838 299.225 233.092 298.502 233.092 297.604C233.092 296.817 232.838 296.183 232.33 295.7C231.882 295.285 231.314 295.053 230.629 295.002C230.248 294.977 229.893 294.964 229.562 294.964C229.241 294.955 229.034 294.964 228.94 294.989V292.298C229.042 292.315 229.258 292.319 229.588 292.311C229.918 292.294 230.269 292.264 230.642 292.222C231.217 292.154 231.674 291.955 232.013 291.625C232.436 291.219 232.647 290.639 232.647 289.886ZM245.686 284.49C247.217 284.49 248.474 284.935 249.456 285.823C250.438 286.712 250.963 287.88 251.03 289.327H247.438C247.446 288.752 247.277 288.29 246.93 287.943C246.591 287.596 246.134 287.423 245.559 287.423H245.406C244.314 287.414 243.51 287.939 242.994 288.997C242.588 289.818 242.342 291.016 242.258 292.59C243.24 291.557 244.424 291.041 245.812 291.041C247.454 291.041 248.796 291.608 249.837 292.742C250.886 293.868 251.411 295.315 251.411 297.084C251.411 298.963 250.814 300.499 249.621 301.692C248.436 302.886 246.913 303.482 245.051 303.482C242.969 303.482 241.386 302.704 240.303 301.146C239.228 299.581 238.69 297.296 238.69 294.291C238.69 290.982 239.287 288.493 240.48 286.826C241.589 285.26 243.197 284.478 245.305 284.478L245.686 284.49ZM242.321 297.173C242.321 298.146 242.579 298.954 243.096 299.598C243.62 300.241 244.272 300.562 245.051 300.562C245.939 300.562 246.617 300.275 247.082 299.699C247.548 299.124 247.78 298.282 247.78 297.173C247.78 296.208 247.531 295.434 247.031 294.85C246.532 294.257 245.872 293.961 245.051 293.961C244.23 293.961 243.57 294.257 243.07 294.85C242.571 295.434 242.321 296.208 242.321 297.173ZM257.81 293.999C256.489 293.999 255.372 293.55 254.458 292.653C253.544 291.748 253.087 290.639 253.087 289.327C253.087 287.99 253.544 286.86 254.458 285.938C255.372 285.007 256.489 284.541 257.81 284.541C259.13 284.541 260.247 285.007 261.161 285.938C262.075 286.86 262.532 287.99 262.532 289.327C262.532 290.639 262.075 291.748 261.161 292.653C260.247 293.55 259.13 293.999 257.81 293.999ZM257.81 287.207C257.226 287.207 256.739 287.406 256.35 287.804C255.969 288.201 255.778 288.701 255.778 289.302C255.778 289.886 255.969 290.372 256.35 290.762C256.739 291.143 257.226 291.333 257.81 291.333C258.394 291.333 258.876 291.143 259.257 290.762C259.646 290.372 259.841 289.886 259.841 289.302C259.841 288.701 259.646 288.201 259.257 287.804C258.876 287.406 258.394 287.207 257.81 287.207ZM257.797 303.508L268.144 284.541H270.048L259.701 303.508H257.797ZM270.035 303.14C268.715 303.14 267.598 302.691 266.684 301.794C265.77 300.888 265.312 299.78 265.312 298.468C265.312 297.131 265.77 296.001 266.684 295.078C267.598 294.147 268.715 293.682 270.035 293.682C271.355 293.682 272.473 294.147 273.387 295.078C274.301 296.001 274.758 297.131 274.758 298.468C274.758 299.78 274.301 300.888 273.387 301.794C272.473 302.691 271.355 303.14 270.035 303.14ZM270.035 296.348C269.451 296.348 268.965 296.547 268.575 296.944C268.194 297.342 268.004 297.841 268.004 298.442C268.004 299.026 268.194 299.513 268.575 299.902C268.965 300.283 269.451 300.474 270.035 300.474C270.619 300.474 271.102 300.283 271.482 299.902C271.872 299.513 272.066 299.026 272.066 298.442C272.066 297.841 271.872 297.342 271.482 296.944C271.102 296.547 270.619 296.348 270.035 296.348Z" fill="white"/>
<path d="M180.99 387.655V386.411V385.167L194.193 379.568V382.45L184.812 386.398L194.193 390.372V393.254L180.99 387.655ZM201.417 393V380.241H196.974V377.639C198.108 377.698 199.123 377.448 200.021 376.89C200.926 376.331 201.612 375.531 202.077 374.49H205.061V393H203.245H201.417ZM209.656 384.316H224.104V387.122H209.656V384.316ZM230.362 393V380.241H225.919V377.639C227.053 377.698 228.069 377.448 228.966 376.89C229.871 376.331 230.557 375.531 231.022 374.49H234.006V393H232.19H230.362ZM245.825 393.482C243.659 393.482 242.055 392.716 241.014 391.185C239.973 389.644 239.448 387.279 239.439 384.088C239.448 380.821 239.973 378.405 241.014 376.839C242.055 375.273 243.659 374.49 245.825 374.49C248.009 374.49 249.621 375.273 250.662 376.839C251.703 378.405 252.224 380.791 252.224 383.999V384.088C252.232 387.279 251.712 389.644 250.662 391.185C249.621 392.716 248.009 393.482 245.825 393.482ZM245.825 390.537C246.799 390.537 247.484 390.05 247.882 389.077C248.28 388.104 248.479 386.432 248.479 384.062C248.487 381.633 248.288 379.924 247.882 378.934C247.484 377.935 246.799 377.436 245.825 377.436C244.86 377.436 244.179 377.935 243.781 378.934C243.392 379.924 243.193 381.633 243.185 384.062C243.185 386.432 243.383 388.104 243.781 389.077C244.179 390.05 244.86 390.537 245.825 390.537ZM258.521 383.999C257.2 383.999 256.083 383.55 255.169 382.653C254.255 381.748 253.798 380.639 253.798 379.327C253.798 377.99 254.255 376.86 255.169 375.938C256.083 375.007 257.2 374.541 258.521 374.541C259.841 374.541 260.958 375.007 261.872 375.938C262.786 376.86 263.243 377.99 263.243 379.327C263.243 380.639 262.786 381.748 261.872 382.653C260.958 383.55 259.841 383.999 258.521 383.999ZM258.521 377.207C257.937 377.207 257.45 377.406 257.061 377.804C256.68 378.201 256.489 378.701 256.489 379.302C256.489 379.886 256.68 380.372 257.061 380.762C257.45 381.143 257.937 381.333 258.521 381.333C259.104 381.333 259.587 381.143 259.968 380.762C260.357 380.372 260.552 379.886 260.552 379.302C260.552 378.701 260.357 378.201 259.968 377.804C259.587 377.406 259.104 377.207 258.521 377.207ZM258.508 393.508L268.854 374.541H270.759L260.412 393.508H258.508ZM270.746 393.14C269.426 393.14 268.309 392.691 267.395 391.794C266.48 390.888 266.023 389.78 266.023 388.468C266.023 387.131 266.48 386.001 267.395 385.078C268.309 384.147 269.426 383.682 270.746 383.682C272.066 383.682 273.184 384.147 274.098 385.078C275.012 386.001 275.469 387.131 275.469 388.468C275.469 389.78 275.012 390.888 274.098 391.794C273.184 392.691 272.066 393.14 270.746 393.14ZM270.746 386.348C270.162 386.348 269.675 386.547 269.286 386.944C268.905 387.342 268.715 387.841 268.715 388.442C268.715 389.026 268.905 389.513 269.286 389.902C269.675 390.283 270.162 390.474 270.746 390.474C271.33 390.474 271.812 390.283 272.193 389.902C272.583 389.513 272.777 389.026 272.777 388.442C272.777 387.841 272.583 387.342 272.193 386.944C271.812 386.547 271.33 386.348 270.746 386.348Z" fill="white"/>
</svg>
