<svg xmlns="http://www.w3.org/2000/svg" width="926" height="454" viewBox="0 0 926 454">
  <g id="Group_348" data-name="Group 348" transform="translate(-859 -728)">
   
    <text id="_5-year_survival1" data-name="5-year survival1" transform="translate(1109.5 777.076)" fill="#fff" font-size="26" font-family="Helvetica-Bold, Helvetica" font-weight="700"><tspan x="0" y="0">5-year survival</tspan><tspan y="0" font-size="15.166" baseline-shift="8.665800054057392">1</tspan></text>
    <text id="_at_diagnosis2_a" data-name="% at diagnosis2,a" transform="translate(1504 777.076)" fill="#fff" font-size="26" font-family="Helvetica-Bold, Helvetica" font-weight="700"><tspan x="0" y="0">% at diagnosis</tspan><tspan y="0" font-size="15.166" baseline-shift="8.665800054057392">2,a</tspan></text>
    <text id="Stage_I" data-name="Stage I" transform="translate(879.5 854)" fill="#fff" font-size="26" font-family="Helvetica-Bold, Helvetica" font-weight="700"><tspan x="0" y="0">Stage I</tspan></text>
    <text id="Stage_III" data-name="Stage III" transform="translate(879.5 1034.076)" fill="#fff" font-size="26" font-family="Helvetica-Bold, Helvetica" font-weight="700"><tspan x="0" y="0">Stage III</tspan></text>
    <text id="Stage_II" data-name="Stage II" transform="translate(881 938)" fill="#fff" font-size="26" font-family="Helvetica-Bold, Helvetica" font-weight="700"><tspan x="0" y="0">Stage II</tspan></text>
    <text id="Stage_IV" data-name="Stage IV" transform="translate(879.5 1114.076)" fill="#fff" font-size="26" font-family="Helvetica-Bold, Helvetica" font-weight="700"><tspan x="0" y="0">Stage IV</tspan></text>
    <text id="_metastatic_" data-name="(metastatic)" transform="translate(882 1141)" fill="#fff" font-size="19" font-family="Helvetica-Light, Helvetica" font-weight="300"><tspan x="0" y="0">(metastatic)</tspan></text>
    <g id="Group_269" data-name="Group 269" transform="translate(-350 -626)">
      <rect id="Rectangle_1702" data-name="Rectangle 1702" width="359" height="66" rx="13" transform="translate(1358 1434)" fill="rgba(255,255,255,0.08)"/>
      <rect id="Rectangle_1701" data-name="Rectangle 1701" width="330" height="66" rx="13" transform="translate(1358 1435)" fill="rgba(8,29,46,0.55)"/>
      <rect id="Rectangle_1743" data-name="Rectangle 1743" width="246" height="66" rx="13" transform="translate(1358 1435)" fill="#081d2e"/>
    </g>
    <g id="Group_312" data-name="Group 312" transform="translate(119 -624)">
      <rect id="Rectangle_1701-2" data-name="Rectangle 1701" width="224" height="66" rx="13" transform="translate(1358 1435)" fill="#071a2c"/>
      <rect id="Rectangle_1743-2" data-name="Rectangle 1743" width="224" height="66" rx="13" transform="translate(1358 1435)" fill="#071a2c"/>
    </g>
    <g id="Group_317" data-name="Group 317" transform="translate(119 -536)">
      <rect id="Rectangle_1701-3" data-name="Rectangle 1701" width="224" height="66" rx="13" transform="translate(1358 1435)" fill="rgba(139,3,79,0.9)"/>
      <rect id="Rectangle_1743-3" data-name="Rectangle 1743" width="224" height="66" rx="13" transform="translate(1358 1435)" fill="#3c1053"/>
    </g>
    <g id="Group_318" data-name="Group 318" transform="translate(119 -448)">
      <rect id="Rectangle_1701-4" data-name="Rectangle 1701" width="224" height="66" rx="13" transform="translate(1358 1435)" fill="rgba(139,3,79,0.94)"/>
      <rect id="Rectangle_1743-4" data-name="Rectangle 1743" width="224" height="66" rx="13" transform="translate(1358 1435)" fill="rgba(139,3,79,0.94)"/>
    </g>
    <g id="Group_319" data-name="Group 319" transform="translate(119 -360)">
      <rect id="Rectangle_1701-5" data-name="Rectangle 1701" width="224" height="66" rx="13" transform="translate(1358 1435)" fill="#354f59"/>
      <rect id="Rectangle_1743-5" data-name="Rectangle 1743" width="224" height="66" rx="13" transform="translate(1358 1435)" fill="#354f59"/>
    </g>
    <g id="Group_309" data-name="Group 309" transform="translate(-350 -536)">
      <rect id="Rectangle_1702-2" data-name="Rectangle 1702" width="359" height="66" rx="13" transform="translate(1358 1434)" fill="rgba(255,255,255,0.08)"/>
      <rect id="Rectangle_1701-6" data-name="Rectangle 1701" width="164" height="66" rx="13" transform="translate(1358 1435)" fill="#3c1053"/>
      <path id="Path_2481" data-name="Path 2481" d="M13,0H187a13,13,0,0,1,13,13V53a13,13,0,0,1-13,13H13A13,13,0,0,1,0,53V13A13,13,0,0,1,13,0Z" transform="translate(1358 1435)" fill="rgba(60,16,83,0.49)"/>
    </g>
    <g id="Group_310" data-name="Group 310" transform="translate(-350 -446)">
      <rect id="Rectangle_1702-3" data-name="Rectangle 1702" width="359" height="66" rx="13" transform="translate(1358 1434)" fill="rgba(255,255,255,0.08)"/>
      <rect id="Rectangle_1701-7" data-name="Rectangle 1701" width="144" height="66" rx="13" transform="translate(1358 1435)" fill="rgba(139,3,79,0.67)"/>
      <rect id="Rectangle_1743-6" data-name="Rectangle 1743" width="57" height="66" rx="13" transform="translate(1358 1435)" fill="rgba(139,3,79,0.94)"/>
    </g>
    <g id="Group_311" data-name="Group 311" transform="translate(-350 -356)">
      <rect id="Rectangle_1702-4" data-name="Rectangle 1702" width="359" height="66" rx="13" transform="translate(1358 1434)" fill="rgba(255,255,255,0.08)"/>
      <rect id="Rectangle_1701-8" data-name="Rectangle 1701" width="58" height="66" rx="13" transform="translate(1358 1435)" fill="rgba(197,215,45,0.3)"/>
      <rect id="Rectangle_1743-7" data-name="Rectangle 1743" width="58" height="66" rx="13" transform="translate(1358 1435)" fill="#354f59"/>
    </g>
    <text id="_68_92_" data-name="68–92%" transform="translate(1039 851)" fill="#fff" font-size="26" font-family="Helvetica-Bold, Helvetica" font-weight="700"><tspan x="0" y="0">68–92%</tspan></text>
    <text id="_26_" data-name="26%" transform="translate(1565 851)" fill="#fff" font-size="26" font-family="Helvetica-Bold, Helvetica" font-weight="700"><tspan x="0" y="0">26%</tspan></text>
    <text id="_9_" data-name="9%" transform="translate(1565 939)" fill="#fff" font-size="26" font-family="Helvetica-Bold, Helvetica" font-weight="700"><tspan x="0" y="0">9%</tspan></text>
    <text id="_25_" data-name="25%" transform="translate(1565 1027)" fill="#fff" font-size="26" font-family="Helvetica-Bold, Helvetica" font-weight="700"><tspan x="0" y="0">25%</tspan></text>
    <text id="_40_" data-name="40%" transform="translate(1565 1118)" fill="#fff" font-size="26" font-family="Helvetica-Bold, Helvetica" font-weight="700"><tspan x="0" y="0">40%</tspan></text>
    <text id="_53_60_" data-name="53–60%" transform="translate(1039 939)" fill="#fff" font-size="26" font-family="Helvetica-Bold, Helvetica" font-weight="700"><tspan x="0" y="0">53–60%</tspan></text>
    <text id="_13_36_" data-name="13–36%" transform="translate(1039 1029)" fill="#fff" font-size="26" font-family="Helvetica-Bold, Helvetica" font-weight="700"><tspan x="0" y="0">13–36%</tspan></text>
    <text id="_1_10_" data-name="&lt;1–10%" transform="translate(1039 1119)" fill="#fff" font-size="26" font-family="Helvetica-Bold, Helvetica" font-weight="700"><tspan x="0" y="0">&lt;1–10%</tspan></text>
  </g>
</svg>
