<svg id="Layer_1" enable-background="new 0 0 512.002 512.002" height="512" viewBox="0 0 512.002 512.002" width="512" xmlns="http://www.w3.org/2000/svg"><path d="m394.002 194.543c0-19.21-11.202-39.133-26.67-49.149 2.462-14.074-1.645-27.762-11.667-37.828-9.586-9.626-22.886-14.385-36.111-13.444-1.411-5.447-4.107-10.409-8.024-14.69-10.58-11.565-29.263-17.429-55.529-17.429-20.159 0-39.604 4.26-57.795 12.661-5.014 2.315-7.201 8.257-4.886 13.271s8.255 7.201 13.271 4.886c12.516-5.78 25.733-9.262 39.41-10.4v299.582h-28.59c-4.102-36.523-29.546-73.192-52.225-105.854-2.187-3.149-4.35-6.264-6.466-9.34-13.555-19.7-20.72-42.8-20.72-66.804 0-17.246 3.64-33.872 10.819-49.414 2.316-5.014.129-10.956-4.885-13.271-5.014-2.316-10.956-.129-13.271 4.885-8.403 18.189-12.663 37.636-12.663 57.799 0 28.07 8.383 55.091 24.244 78.141 2.133 3.1 4.312 6.238 6.514 9.41 21.242 30.592 45.084 64.95 48.743 96.37-6.784 3.203-11.501 10.091-11.501 18.078v30c0 7.384 4.032 13.83 10 17.294v32.705c0 16.542 13.458 30 30 30h60c16.542 0 30-13.458 30-30v-32.705c5.968-3.465 10-9.911 10-17.294v-30c0-8-4.733-14.899-11.536-18.095 1.296-11.728 5.392-24.304 12.618-38.797.777-.332 1.551-.686 2.319-1.072 13.387-6.727 24.462-22.355 22.177-43.393.253-.095.508-.191.752-.287 13.77-5.449 23.893-17.179 27.08-31.376 2.551-11.359.555-23.052-5.479-33.358 12.743-9.822 20.071-24.516 20.071-41.082zm-88.001 207.46v30h-100v-30zm-20 89.999h-60c-5.514 0-10-4.486-10-10v-29.999h80v29.999c0 5.514-4.486 10-10 10zm69.115-268.179c-2.877 1.374-4.926 4.037-5.518 7.169-.591 3.133.348 6.359 2.525 8.687 6.853 7.322 9.686 16.406 7.773 24.923-1.763 7.849-7.203 14.104-14.925 17.16-6.104 2.415-15.533 3.961-21.823 2.23-10.026-2.687-11.379-6.348-14.075-13.642-2.279-6.168-5.401-14.615-14.776-21.081-4.546-3.136-10.773-1.992-13.91 2.555-3.136 4.546-1.991 10.774 2.555 13.909 3.979 2.745 5.265 5.848 7.372 11.55 3.223 8.72 7.637 20.662 27.591 26.009 3.674 1.012 7.579 1.435 11.475 1.435.829 0 1.656-.025 2.481-.061.594 11.153-5.084 18.309-11.438 21.502-5.957 2.993-15.218 3.545-21.72-4.746-3.408-4.346-9.695-5.105-14.04-1.697-4.346 3.408-5.106 9.694-1.698 14.04 5.606 7.147 13.017 11.762 21.072 13.595-5.205 12.328-8.313 23.684-9.486 34.642h-28.55v-163.58c31.57-.531 40.181-16.295 46.485-27.866 3.161-5.801 5.287-9.464 9.013-11.57 4.809-2.717 6.503-8.818 3.786-13.626-2.718-4.808-8.82-6.503-13.626-3.785-8.899 5.029-13.063 12.671-16.735 19.414-5.376 9.867-9.306 17.066-28.923 17.441v-116.061c14.705 1.112 25.465 4.761 30.772 10.563 1.965 2.148 3.173 4.605 3.667 7.42-9.876 6.37-14.108 14.586-17.097 22.663-1.917 5.18.728 10.933 5.907 12.85 1.145.423 2.316.625 3.47.625 4.064 0 7.886-2.497 9.379-6.532 2.192-5.923 4.515-10.768 12.271-14.53 9.335-3.197 20.182-.719 27.122 6.25 3.838 3.854 9.556 12.286 4.735 25.453-1.881 5.137.715 10.831 5.826 12.781 11.692 4.461 21.948 20.644 21.948 34.631.001 12.686-7.059 23.632-18.885 29.28z"/><path d="m256.001 42.001c5.523 0 10-4.477 10-10v-22.001c0-5.523-4.478-10-10-10s-10 4.477-10 10v22.001c0 5.523 4.477 10 10 10z"/><path d="m163.34 59.51c1.852 3.208 5.213 5.002 8.669 5.002 1.696 0 3.416-.433 4.991-1.342 4.783-2.761 6.422-8.877 3.66-13.66l-11.001-19.054c-2.761-4.784-8.878-6.422-13.66-3.66-4.783 2.761-6.422 8.877-3.66 13.66z"/><path d="m86.452 113.662 19.054 11.001c1.575.909 3.294 1.342 4.991 1.342 3.456 0 6.817-1.794 8.669-5.002 2.762-4.783 1.123-10.899-3.66-13.66l-19.054-11.001c-4.781-2.761-10.898-1.123-13.66 3.66s-1.123 10.899 3.66 13.66z"/><path d="m97.998 200.004c0-5.523-4.477-10-10-10h-22.001c-5.523 0-10 4.477-10 10s4.477 10 10 10h22.001c5.523 0 10-4.477 10-10z"/><path d="m105.506 275.346-19.054 11c-4.783 2.761-6.422 8.877-3.66 13.66 1.852 3.208 5.213 5.002 8.669 5.002 1.696 0 3.416-.433 4.991-1.342l19.054-11c4.783-2.761 6.422-8.877 3.66-13.66-2.761-4.783-8.878-6.423-13.66-3.66z"/><path d="m335.002 63.17c1.575.91 3.294 1.342 4.99 1.342 3.456 0 6.818-1.794 8.67-5.002l11.001-19.054c2.762-4.783 1.123-10.899-3.66-13.66-4.784-2.761-10.899-1.123-13.66 3.66l-11.001 19.054c-2.762 4.782-1.123 10.899 3.66 13.66z"/><path d="m401.505 126.005c1.696 0 3.415-.433 4.99-1.342l19.055-11.001c4.783-2.761 6.422-8.877 3.66-13.66-2.762-4.782-8.874-6.422-13.66-3.66l-19.055 11.001c-4.783 2.761-6.422 8.877-3.66 13.66 1.853 3.208 5.213 5.002 8.67 5.002z"/><path d="m446.005 190.004h-22.001c-5.522 0-10 4.477-10 10s4.478 10 10 10h22.001c5.522 0 10-4.477 10-10s-4.477-10-10-10z"/><path d="m425.55 286.346-19.055-11c-4.785-2.761-10.899-1.122-13.66 3.661-2.762 4.783-1.123 10.899 3.66 13.661l19.055 11c1.575.909 3.294 1.341 4.99 1.341 3.456 0 6.818-1.794 8.67-5.002 2.762-4.784 1.123-10.9-3.66-13.661z"/><path d="m165.49 99.493c-5.523 0-9.996 4.477-9.996 10s4.48 10 10.003 10 10-4.477 10-10-4.477-10-10-10z"/></svg>