<svg height="512" viewBox="0 0 60 60" width="512" xmlns="http://www.w3.org/2000/svg"><g id="Page-1" fill="none" fill-rule="evenodd"><g id="045---Wisdom" fill="rgb(0,0,0)" fill-rule="nonzero" transform="translate(0 -1)"><path id="Shape" d="m22 22c-1.2133867 0-2.3072956.7309265-2.7716386 1.8519497s-.2076757 2.4113767.6503183 3.2693706c.8579939.857994 2.1483474 1.1146613 3.2693706.6503183s1.8519497-1.5582519 1.8519497-2.7716386c0-1.6568542-1.3431458-3-3-3zm0 4c-.5522847 0-1-.4477153-1-1s.4477153-1 1-1 1 .4477153 1 1-.4477153 1-1 1z"/><path id="Shape" d="m38 28c1.6568542 0 3-1.3431458 3-3s-1.3431458-3-3-3-3 1.3431458-3 3 1.3431458 3 3 3zm0-4c.5522847 0 1 .4477153 1 1s-.4477153 1-1 1-1-.4477153-1-1 .4477153-1 1-1z"/><path id="Shape" d="m59 52h-17c1.0425959-.6967388 1.9519566-1.5746021 2.685-2.592 2.1618727-3.0394784 3.3207947-6.6781087 3.315-10.408-.0007122-2.4302912-.502491-4.8343362-1.474-7.062 2.4554556-3.0085954 3.1395783-7.0902304 1.7992979-10.7350291-1.3402803-3.6447986-4.5056959-6.3108655-8.3252979-7.0119709v-4.805l2-.537v2.421.007c-.0016552 1.027025.5116818 1.9864809 1.367 2.555.297245.1982824.6776931.2229246.9980331.0646441.3203401-.1582805.5319049-.4754371.555-.832s-.1457881-.6983617-.4430331-.8966441c-.2983566-.1982165-.4774779-.5328015-.477-.891v-.007-3.047c.6999806-.40430454 1.0877588-1.19022568.98273-1.9917267s-.6822116-1.46097353-1.46273-1.6712733l-13.011-3.494c-.3352338-.08868546-.6877662-.08868546-1.023 0l-13.006 3.494c-.8746544.23879072-1.4813577 1.03333504-1.4813577 1.94s.6067033 1.70120928 1.4813577 1.94l3.52.945v4.806c-3.819602.7011054-6.9850176 3.3671723-8.3252979 7.0119709-1.3402804 3.6447987-.6561577 7.7264337 1.7992979 10.7350291-.971509 2.2276638-1.4732878 4.6317088-1.474 7.062-.0059445 3.7305327 1.1529719 7.3698448 3.315 10.41.7334554 1.0164831 1.6427663 1.8936211 2.685 2.59h-17c-.55228475 0-1 .4477153-1 1s.44771525 1 1 1h20.319c-.2001382.6482826-.3075361 1.3216239-.319 2 0 2.209139 1.790861 4 4 4 .664308-.0011772 1.317662-.1693299 1.9-.489.7531844.9420504 1.8938716 1.4905003 3.1 1.4905003s2.3468156-.5484499 3.1-1.4905003c.582338.3196701 1.235692.4878228 1.9.489 2.209139 0 4-1.790861 4-4-.0114639-.6783761-.1188618-1.3517174-.319-2h20.319c.5522847 0 1-.4477153 1-1s-.4477153-1-1-1zm-34.53 0c-2.9685636-3.5815918-4.5545296-8.1088685-4.47-12.76.0077725-1.1346064.1054112-2.2668143.292-3.386.5646968.0927973 1.1357461.1416107 1.708.146 2.0005674.00449 3.9633478-.544784 5.671-1.587l.29 1.045c.2580723.9123708 1.0908325 1.5422505 2.039 1.5422505s1.7809277-.6298797 2.039-1.5422505l.29-1.045c1.7076522 1.042216 3.6704326 1.59149 5.671 1.587.5722539-.0043893 1.1433032-.0532027 1.708-.146.1865888 1.1191857.2842275 2.2513936.292 3.386.0812289 4.6507717-1.5047398 9.1770436-4.471 12.76-1.885.008-9.209.008-11.059 0zm9.512-24.048c-.0228109-.4058223-.1651096-.7958392-.409-1.121-.0958617-.124952-.2051868-.238972-.326-.34-.7701324-2.4777.4886865-5.1319278 2.894617-6.1033186 2.4059304-.9713907 5.154736.0647649 6.3207973 2.3826092 1.1660613 2.3178442.3595961 5.1425857-1.8544429 6.4954096s-5.0955596.7815183-6.6259714-1.3137002zm-2.1.045c.041 0 .073.016.111.12l-1.885 6.8c-.017.062-.205.062-.222 0l-1.87-6.88c.023805-.0306593.0612658-.0475167.1-.045zm-5.132-1.506c-.1208132.101028-.2301383.215048-.326.34-.2438904.3251608-.3861891.7151777-.409 1.121-1.5927668 2.2164551-4.6221625 2.8354048-6.9566946 1.4213542s-3.1891368-4.3855802-1.9625114-6.823811c1.2266253-2.4382308 4.1219873-3.5232269 6.6488998-2.4915816 2.5269126 1.0316454 3.8356177 3.8330072 3.0053062 6.4330384zm16.3 21.756c-1.1627645 1.568584-2.7977753 2.7230804-4.665 3.294 2.3932254-3.6534141 3.6510979-7.9336599 3.615-12.301-.0004324-1.3016879-.1084669-2.6011125-.323-3.885 1.2086324-.4271345 2.3332436-1.0623723 3.323-1.877.6612937 1.765939 1.0000052 3.6363039 1 5.522.0053875 3.3147574-1.0241691 6.548509-2.945 9.25zm-13.05-45.247 13.014 3.505h-.013l-12.996 3.495-13.005-3.509zm-8 6.922 7.491 2.012c.1660911.0439573.3371906.0661431.509.066.1737981.0003578.3469087-.0218273.515-.066l7.485-2.011v4.077h-16zm0 6.078h16c4.9705627 0 9 4.0294373 9 9s-4.0294373 9-9 9c-1.8286086.0070838-3.6146167-.5518078-5.113-1.6l.576-2.079c2.5011051 2.1261721 6.144658 2.2257865 8.7581987.2394483 2.6135408-1.9863382 3.4930382-5.5235525 2.1140939-8.5025871-1.3789443-2.9790347-4.6448724-4.5974023-7.8504825-3.890155s-5.4873801 3.5495924-5.4848101 6.8322938c.002339.3347576.0284044.6689284.078 1h-2.156c.0495956-.3310716.075661-.6652424.078-1 .0118489-3.3019614-2.2775033-6.1664967-5.5008371-6.8828825s-6.5105184.9087645-7.8984208 3.9048981-.5018618 6.5544517 2.1289712 8.5498983c2.630833 1.9954467 6.2962717 1.8893559 8.8072867-.2549139l.576 2.079c-1.4979127 1.0496112-3.283959 1.609912-5.113 1.604-4.9705627 0-9-4.0294373-9-9s4.0294373-9 9-9zm-5.054 32.252c-1.9213416-2.7020487-2.9512454-5.936492-2.946-9.252-.0000052-1.8856961.3387063-3.756061 1-5.522.9897564.8146277 2.1143676 1.4498655 3.323 1.877-.2145331 1.2838875-.3225676 2.5833121-.323 3.885-.0412527 4.3655832 1.2114305 8.6455843 3.6 12.3-1.8627002-.5707803-3.4936734-1.723045-4.654-3.288zm20.054 7.748c0 1.1045695-.8954305 2-2 2-.5529519-.002256-1.0796339-.236216-1.452-.645-.2349996-.2565619-.5864586-.3725394-.928002-.3062302-.3415433.0663092-.6240727.3053729-.745998.6312302-.2829135.7919097-1.0330713 1.3205047-1.874 1.3205047s-1.5910865-.528595-1.874-1.3205047c-.1219253-.3258573-.4044547-.564921-.745998-.6312302-.3415434-.0663092-.6930024.0496683-.928002.3062302-.3723661.408784-.8990481.642744-1.452.645-1.1045695 0-2-.8954305-2-2 .0105829-.6948324.1773684-1.3783795.488-2h.512c.511.006 3.482.009 6.35.009 2.7 0 5.306 0 5.659-.008h.5c.3115898.6210494.4794032 1.3042654.491 1.999z"/></g></g></svg>