<svg id="Layer_1" enable-background="new 0 0 510 510" height="512" viewBox="0 0 510 510" width="512" xmlns="http://www.w3.org/2000/svg"><g><path d="m435.312 74.688c-48.162-48.164-112.199-74.688-180.312-74.688v30c124.065 0 225 100.935 225 225s-100.935 225-225 225-225-100.935-225-225c0-49.668 16.469-97.892 46.572-137.047 4.242 1.329 8.753 2.047 13.428 2.047 24.813 0 45-20.187 45-45s-20.187-45-45-45-45 20.187-45 45c0 9.225 2.793 17.807 7.573 24.952-33.984 44.334-52.573 98.878-52.573 155.048 0 68.113 26.524 132.15 74.688 180.312 48.162 48.164 112.199 74.688 180.312 74.688s132.15-26.524 180.312-74.688c48.164-48.162 74.688-112.199 74.688-180.312s-26.524-132.15-74.688-180.312zm-345.312-14.688c8.271 0 15 6.729 15 15s-6.729 15-15 15-15-6.729-15-15 6.729-15 15-15z"/><path d="m60 255c0 49.626 40.374 90 90 90 21.261 0 46.775-13.508 78.004-41.294 10.768-9.581 20.179-19.099 26.996-26.337 6.817 7.238 16.228 16.756 26.996 26.337 31.229 27.786 56.743 41.294 78.004 41.294 49.626 0 90-40.374 90-90s-40.374-90-90-90c-21.261 0-46.775 13.508-78.004 41.294-10.768 9.581-20.179 19.099-26.996 26.337-6.817-7.238-16.229-16.756-26.996-26.337-31.229-27.786-56.743-41.294-78.004-41.294-49.626 0-90 40.374-90 90zm300-60c33.084 0 60 26.916 60 60s-26.916 60-60 60c-22.212 0-60.593-33.6-84.954-60 24.364-26.401 62.743-60 84.954-60zm-210 0c22.212 0 60.593 33.6 84.954 60-24.364 26.401-62.743 60-84.954 60-33.084 0-60-26.916-60-60s26.916-60 60-60z"/></g></svg>